M48
;Layer_Color=9474304
;FILE_FORMAT=4:3
METRIC,TZ
;TYPE=PLATED
T1F00S00C0.254
T2F00S00C1.000
T3F00S00C1.016
T4F00S00C1.194
T5F00S00C1.200
T6F00S00C1.300
%
T01
X4000Y0
Y12680
Y25360
X-4000Y31700
Y19020
Y6340
X-50500Y59500
X-52500
X-54500
X-56500
X-58500
X-60500
X-62500
X-64500
X-66500
X-68500
X-70500
X-72500
X-74500
X-76500
X-78500
X-80500
Y61500
Y63500
Y65500
Y67500
Y69500
Y71500
Y73500
Y75500
Y77500
Y79500
Y81500
Y83500
X-72100Y75400
Y66700
X-52033Y63820
X-49957Y75479
X-49732Y79440
X-52418Y82982
X-54607Y83876
X-56820Y82083
X-54385Y76338
X-46129Y73367
X-42883Y73934
X-41074Y73658
X-39886Y74652
X-39665Y75991
X-40259Y77497
X-40342Y79043
X-41230Y79999
X-42995Y79981
X-43332Y78674
X-43344Y76903
X-43697Y75370
X-45039Y79017
X-45654Y81300
X-44460Y83599
X-38126Y84169
X-35620Y82326
X-34350Y81110
X-25916Y82319
X-26256Y83640
X-24580Y79636
X-18000Y82471
X-9947Y82729
X-17765Y70868
X-18938Y62809
X-12730Y64054
X-14062Y57504
X-16513Y56746
X-16500Y52500
X-14500
X-12500
X-10500
X-10475Y58312
X-18500Y52500
X-20500
X-22500
X-24500
X-26500
X-28500
X-30000
X-31500Y54000
X-33000Y55500
X-34500Y57000
X-36000Y58500
X-38500Y59500
X-40500
X-42500
X-44500
X-46500
X-48500
X-48244Y68291
X-42079Y64401
X-29372Y64704
X-25382Y68286
X-23687Y55811
X-8428Y58260
X-7242Y57378
X-5655Y57500
X-2868Y56555
X-3081Y55473
X-1432Y53991
X-475Y54000
X744Y55199
X2371Y55169
X0Y57611
Y58381
Y59246
X746
X1600
X-750
X-1635
X0Y60200
Y60900
X-718Y63238
X129Y64041
X273Y64982
X-332Y65598
X1249Y65484
X2026Y63157
X3222Y63312
X4267Y63402
X3516Y62296
X5309Y62371
X6237Y61990
X5639Y64224
X5807Y65981
X8495
X8266Y67665
X10153Y68386
X11563Y68080
X14663Y68342
X14309Y65260
X17280Y63608
X16330Y60708
X16919Y58575
X13006Y60575
X8774
X9208Y61607
X9128Y63025
X8035Y59450
X4557Y59496
X3833Y58551
X5286Y57978
X7084Y56417
X8576Y54338
X8000Y52500
X10000
X12000
X14000
X16000
X18000
X20000
X22000
X24000
X26000
X28000
X30000
X23030Y60708
X22100Y64500
X26718Y65600
X26400Y72600
X21700Y70700
X20600
X19350Y74150
X21900Y77200
X21300Y81700
X16807Y82020
X14601Y81606
X14500Y83000
X15250Y83750
X12700Y78900
X9990Y77198
X10028Y75711
X10888Y75967
X13250Y74933
X13967Y73374
X12340Y71891
X10041Y71848
X8998Y70536
X7730Y73718
X6541Y74419
X5760Y73904
X4018Y73541
X2718Y74761
X3166Y76416
X2416Y77227
X2220Y79222
X76Y81780
X1485Y83373
X4718Y84068
X5896Y82888
X7252Y81680
X790Y75821
X-2625Y76869
X-2401Y74548
X-5080Y72479
X-7490Y72754
X-6926Y67751
X-3574Y67665
X-2226Y66797
X-2235Y69704
X-3416Y70055
X-3034Y64496
X-5344Y65588
X-9015Y64086
X-8442Y63234
X-8338Y61507
X-3783Y61615
X-3927Y59861
X-3700Y51000
X-4700Y50300
X-5700Y51000
X-7244Y53669
X-8500Y52500
X-2169Y51698
X-387Y49425
X565Y49444
X2144Y47132
X2069Y45893
X1199Y45903
X-1130Y45896
X-1897Y45904
X-1952Y47113
X-2902Y48036
X-4065Y45911
X4184Y45901
X3048Y48016
X3700Y51000
X4700Y50300
X5700Y51000
X11550Y56550
X13000Y56300
X13652Y55665
X5379Y68332
X5935Y69002
X14742Y76459
X-3230Y78833
X-5265Y78632
X-7540Y79665
X-6890Y82901
X-8497Y84245
X-2676Y84201
X31800Y70700
X35500Y65900
X33300Y60400
X34500Y57000
X33000Y55500
X31500Y54000
X36000Y58500
X38000Y59500
X40000
X42000
X44000
X46000
X48000
X50000
X52000
X54000
X56000
X58000
X60000
X62000
X64000
X66000
X68000
X70000
Y61500
Y63500
Y65500
Y67500
Y69500
Y71500
Y73500
Y75500
Y77500
Y79500
Y81500
Y83000
X69000
X68000
X67000
X66000Y83000
X65000Y83000
X64000
X63000
X62000Y83000
X61000Y83000
X60000Y83000
X59000Y83000
X58000
X57000
X56000Y83000
X55000Y83000
X49100Y83200
Y82200
Y81200
Y80200
Y86600
X48700Y88500
X49700
X50700
Y89400
X51700
Y88500
X52200Y84700
X55000Y86400
X56000
X57000
X58000
X59000
X60000
X61000
X62000
X63000
X64000
X65000
X66000
X67000
X68000
X69000
X70000
Y88500
Y90500
Y98500
Y100500
Y102500
X68000
X66000
X64000
X62000
X60000
X58000
X56000
X54000
X52000
X50000Y102600
X48000
X46000
X44000Y102500
X42000
X40000
X38000
X36000
X34000
X32000
X31500Y98300
X38000
X42400Y93800
X44800
X50200Y91800
X30000Y102500
X28000
X26000
X24000
X22000
X20000
X15500
X13500
X11500
X9500
X7500
X3500
X1500
X-500
X-2500
X-4500
X-6500
X-8500
X-6900Y97500
X-500Y97100
X-2423Y90592
X-2749Y88613
X-659Y88483
X-647Y85633
X-787Y84486
X56Y84789
X753Y85618
X3958Y85445
X3907Y87336
X3406Y88409
X2990Y89415
X3994Y91533
X6146Y86615
X15250Y84800
X17100Y88444
X16200Y89400
X19500Y88600
X-5300Y89000
X-8973Y88298
X-6702Y85835
X-4675Y84793
X-9189Y84981
X-10567Y88944
X-12937Y88769
X-14900Y88600
X-15900
X-16189Y84981
X-20990Y84798
X-23064Y88171
X-25845Y89100
X-28800Y90200
X-29900
X-30000Y89100
X-35000
X-41247Y86016
X-44260Y85512
X-44331Y88084
X-47619Y89182
X-44967Y92143
X-42471Y91875
X-42500Y102500
X-40500
X-38500
X-36500
X-34500
X-32500
X-30500
X-28500
X-26500
X-24500
X-22500
X-20500
X-18500
X-16500
X-14500
X-12500
X-10500
X-9200Y97500
X-14900Y94400
X-15900
X-20900Y95400
X-25800Y95700
X-28200
X-44500Y102500
X-46500
X-48500
X-50500
X-52500
X-54500
X-56500
X-58500
X-60500
X-62500
X-64500
X-66500
X-68500
X-70500
X-72500
X-74500
X-76500
X-78500
X-80500
Y101000
Y99500
Y97500
Y95500
Y93500
Y91500
Y89500
Y87500
Y85500
X-49799Y85579
T02
X-47850Y97650
X-43350
T03
X-37540Y97900
X-35040
T04
X-25516Y70836
X-10276
T05
X-41700Y75600
T06
X-42100Y95150
X-49100
M30
