G04 Layer_Color=16711935*
%FSLAX43Y43*%
%MOMM*%
G71*
G01*
G75*
%ADD45C,0.254*%
D45*
X5000Y-5000D02*
G03*
X7000Y-3000I0J2000D01*
G01*
X-7000D02*
G03*
X-5000Y-5000I2000J0D01*
G01*
X-7000Y49000D02*
G03*
X-9000Y51000I-2000J0D01*
G01*
X-31414Y51586D02*
G03*
X-30000Y51000I1414J1414D01*
G01*
X-37243Y57414D02*
G03*
X-38657Y58000I-1414J-1414D01*
G01*
X-82500Y60000D02*
G03*
X-80500Y58000I2000J0D01*
G01*
Y104000D02*
G03*
X-82500Y102000I0J-2000D01*
G01*
X82500D02*
G03*
X80500Y104000I-2000J0D01*
G01*
Y58000D02*
G03*
X82500Y60000I0J2000D01*
G01*
X38657Y58000D02*
G03*
X37243Y57414I0J-2000D01*
G01*
X30000Y51000D02*
G03*
X31414Y51586I0J2000D01*
G01*
X9000Y51000D02*
G03*
X7000Y49000I0J-2000D01*
G01*
X7000Y-3000D02*
Y49000D01*
X-5000Y-5000D02*
X5000D01*
X-7000Y-3000D02*
Y49000D01*
X-30000Y51000D02*
X-9000D01*
X-37243Y57414D02*
X-31414Y51586D01*
X-80500Y58000D02*
X-38657D01*
X-82500Y60000D02*
Y102000D01*
X-80500Y104000D02*
X80500D01*
X82500Y60000D02*
Y102000D01*
X38657Y58000D02*
X80500D01*
X31414Y51586D02*
X37243Y57414D01*
X9000Y51000D02*
X30000D01*
X5000Y-5000D02*
G03*
X7000Y-3000I0J2000D01*
G01*
X-7000D02*
G03*
X-5000Y-5000I2000J0D01*
G01*
X-7000Y49000D02*
G03*
X-9000Y51000I-2000J0D01*
G01*
X-31414Y51586D02*
G03*
X-30000Y51000I1414J1414D01*
G01*
X-37243Y57414D02*
G03*
X-38657Y58000I-1414J-1414D01*
G01*
X-82500Y60000D02*
G03*
X-80500Y58000I2000J0D01*
G01*
Y104000D02*
G03*
X-82500Y102000I0J-2000D01*
G01*
X82500D02*
G03*
X80500Y104000I-2000J0D01*
G01*
Y58000D02*
G03*
X82500Y60000I0J2000D01*
G01*
X38657Y58000D02*
G03*
X37243Y57414I0J-2000D01*
G01*
X30000Y51000D02*
G03*
X31414Y51586I0J2000D01*
G01*
X9000Y51000D02*
G03*
X7000Y49000I0J-2000D01*
G01*
X7000Y-3000D02*
Y49000D01*
X-5000Y-5000D02*
X5000D01*
X-7000Y-3000D02*
Y49000D01*
X-30000Y51000D02*
X-9000D01*
X-37243Y57414D02*
X-31414Y51586D01*
X-80500Y58000D02*
X-38657D01*
X-82500Y60000D02*
Y102000D01*
X-80500Y104000D02*
X80500D01*
X82500Y60000D02*
Y102000D01*
X38657Y58000D02*
X80500D01*
X31414Y51586D02*
X37243Y57414D01*
X9000Y51000D02*
X30000D01*
M02*
