G04 Layer_Color=128*
%FSLAX43Y43*%
%MOMM*%
G71*
G01*
G75*
%ADD45C,0.254*%
%ADD168C,0.051*%
D45*
X5000Y-5000D02*
G03*
X7000Y-3000I0J2000D01*
G01*
X-7000D02*
G03*
X-5000Y-5000I2000J0D01*
G01*
X-7000Y49000D02*
G03*
X-9000Y51000I-2000J0D01*
G01*
X-31414Y51586D02*
G03*
X-30000Y51000I1414J1414D01*
G01*
X-37243Y57414D02*
G03*
X-38657Y58000I-1414J-1414D01*
G01*
X-82500Y60000D02*
G03*
X-80500Y58000I2000J0D01*
G01*
Y104000D02*
G03*
X-82500Y102000I0J-2000D01*
G01*
X82500D02*
G03*
X80500Y104000I-2000J0D01*
G01*
Y58000D02*
G03*
X82500Y60000I0J2000D01*
G01*
X38657Y58000D02*
G03*
X37243Y57414I0J-2000D01*
G01*
X30000Y51000D02*
G03*
X31414Y51586I0J2000D01*
G01*
X9000Y51000D02*
G03*
X7000Y49000I0J-2000D01*
G01*
X7000Y-3000D02*
Y49000D01*
X-5000Y-5000D02*
X5000D01*
X-7000Y-3000D02*
Y49000D01*
X-30000Y51000D02*
X-9000D01*
X-37243Y57414D02*
X-31414Y51586D01*
X-80500Y58000D02*
X-38657D01*
X-82500Y60000D02*
Y102000D01*
X-80500Y104000D02*
X80500D01*
X82500Y60000D02*
Y102000D01*
X38657Y58000D02*
X80500D01*
X31414Y51586D02*
X37243Y57414D01*
X9000Y51000D02*
X30000D01*
D168*
X-42300Y75600D02*
X-41100D01*
X-41700Y75000D02*
Y76200D01*
X-26113Y70836D02*
X-24919D01*
X-25516Y70239D02*
Y71433D01*
X-10873Y70836D02*
X-9679D01*
X-10276Y70239D02*
Y71433D01*
X-38048Y97900D02*
X-37032D01*
X-37540Y97392D02*
Y98408D01*
X-35548Y97900D02*
X-34532D01*
X-35040Y97392D02*
Y98408D01*
X-43850Y97650D02*
X-42850D01*
X-43350Y97150D02*
Y98150D01*
X-48350Y97650D02*
X-47350D01*
X-47850Y97150D02*
Y98150D01*
X-49750Y95150D02*
X-48450D01*
X-49100Y94500D02*
Y95800D01*
X-42750Y95150D02*
X-41450D01*
X-42100Y94500D02*
Y95800D01*
X-69600Y94300D02*
X-66400D01*
X-68000Y92700D02*
Y95900D01*
X66400Y94285D02*
X69600D01*
X68000Y92685D02*
Y95885D01*
X13525Y55665D02*
X13779D01*
X13652Y55538D02*
Y55792D01*
X4140Y63402D02*
X4394D01*
X4267Y63275D02*
Y63529D01*
X16792Y58575D02*
X17046D01*
X16919Y58448D02*
Y58702D01*
X-7371Y53669D02*
X-7117D01*
X-7244Y53542D02*
Y53796D01*
X617Y55199D02*
X871D01*
X744Y55072D02*
Y55326D01*
X-3208Y55473D02*
X-2954D01*
X-3081Y55346D02*
Y55600D01*
X-2995Y56555D02*
X-2741D01*
X-2868Y56428D02*
Y56682D01*
X-7369Y57378D02*
X-7115D01*
X-7242Y57251D02*
Y57505D01*
X-45781Y81300D02*
X-45527D01*
X-45654Y81173D02*
Y81427D01*
X-5392Y78632D02*
X-5138D01*
X-5265Y78505D02*
Y78759D01*
X146Y64982D02*
X400D01*
X273Y64855D02*
Y65109D01*
X9081Y61607D02*
X9335D01*
X9208Y61480D02*
Y61734D01*
X5512Y64224D02*
X5766D01*
X5639Y64096D02*
Y64351D01*
X6110Y61990D02*
X6364D01*
X6237Y61863D02*
Y62117D01*
X3389Y62296D02*
X3643D01*
X3516Y62169D02*
Y62423D01*
X3095Y63312D02*
X3349D01*
X3222Y63185D02*
Y63439D01*
X663Y75821D02*
X917D01*
X790Y75694D02*
Y75948D01*
X3831Y85445D02*
X4085D01*
X3958Y85318D02*
Y85572D01*
X-25509Y68286D02*
X-25255D01*
X-25382Y68159D02*
Y68413D01*
X-12857Y64054D02*
X-12603D01*
X-12730Y63927D02*
Y64181D01*
X-17892Y70868D02*
X-17638D01*
X-17765Y70741D02*
Y70995D01*
X-47746Y89182D02*
X-47492D01*
X-47619Y89055D02*
Y89309D01*
X-49859Y79440D02*
X-49605D01*
X-49732Y79313D02*
Y79567D01*
X-49926Y85579D02*
X-49672D01*
X-49799Y85452D02*
Y85706D01*
X-44387Y85512D02*
X-44133D01*
X-44260Y85385D02*
Y85639D01*
X-44587Y83599D02*
X-44333D01*
X-44460Y83472D02*
Y83726D01*
X-45166Y79017D02*
X-44912D01*
X-45039Y78890D02*
Y79144D01*
X-46256Y73367D02*
X-46002D01*
X-46129Y73240D02*
Y73494D01*
X-52160Y63820D02*
X-51906D01*
X-52033Y63693D02*
Y63947D01*
X-48371Y68291D02*
X-48117D01*
X-48244Y68164D02*
Y68418D01*
X-42206Y64401D02*
X-41952D01*
X-42079Y64274D02*
Y64528D01*
X-29499Y64704D02*
X-29245D01*
X-29372Y64577D02*
Y64831D01*
X-19065Y62809D02*
X-18811D01*
X-18938Y62682D02*
Y62936D01*
X-10602Y58312D02*
X-10348D01*
X-10475Y58185D02*
Y58439D01*
X-14189Y57504D02*
X-13935D01*
X-14062Y57377D02*
Y57631D01*
X-16640Y56746D02*
X-16386D01*
X-16513Y56619D02*
Y56873D01*
X-23814Y55811D02*
X-23560D01*
X-23687Y55684D02*
Y55938D01*
X6957Y56417D02*
X7211D01*
X7084Y56290D02*
Y56544D01*
X14182Y65260D02*
X14436D01*
X14309Y65133D02*
Y65387D01*
X14536Y68342D02*
X14790D01*
X14663Y68215D02*
Y68469D01*
X14615Y76459D02*
X14869D01*
X14742Y76332D02*
Y76586D01*
X12213Y71891D02*
X12467D01*
X12340Y71764D02*
Y72018D01*
X13840Y73374D02*
X14094D01*
X13967Y73247D02*
Y73501D01*
X13123Y74933D02*
X13377D01*
X13250Y74806D02*
Y75060D01*
X5252Y68332D02*
X5506D01*
X5379Y68205D02*
Y68459D01*
X7603Y73718D02*
X7857D01*
X7730Y73591D02*
Y73845D01*
X5633Y73904D02*
X5887D01*
X5760Y73777D02*
Y74031D01*
X3891Y73541D02*
X4145D01*
X4018Y73414D02*
Y73668D01*
X-5207Y72479D02*
X-4953D01*
X-5080Y72352D02*
Y72606D01*
X-7617Y72754D02*
X-7363D01*
X-7490Y72627D02*
Y72881D01*
X-7667Y79665D02*
X-7413D01*
X-7540Y79538D02*
Y79792D01*
X-2362Y69704D02*
X-2108D01*
X-2235Y69577D02*
Y69831D01*
X5769Y82888D02*
X6023D01*
X5896Y82761D02*
Y83015D01*
X6019Y86615D02*
X6273D01*
X6146Y86488D02*
Y86742D01*
X3867Y91533D02*
X4121D01*
X3994Y91406D02*
Y91660D01*
X-2876Y88613D02*
X-2622D01*
X-2749Y88486D02*
Y88740D01*
X-2550Y90592D02*
X-2296D01*
X-2423Y90465D02*
Y90719D01*
X1358Y83373D02*
X1612D01*
X1485Y83246D02*
Y83500D01*
X-71Y84789D02*
X183D01*
X56Y84662D02*
Y84916D01*
X-26383Y83640D02*
X-26129D01*
X-26256Y83513D02*
Y83767D01*
X-38253Y84169D02*
X-37999D01*
X-38126Y84042D02*
Y84296D01*
X-34477Y81110D02*
X-34223D01*
X-34350Y80983D02*
Y81237D01*
X-26043Y82319D02*
X-25789D01*
X-25916Y82192D02*
Y82446D01*
X-9316Y84981D02*
X-9062D01*
X-9189Y84854D02*
Y85108D01*
X-16316Y84981D02*
X-16062D01*
X-16189Y84854D02*
Y85108D01*
X-21117Y84798D02*
X-20863D01*
X-20990Y84671D02*
Y84925D01*
X-7017Y82901D02*
X-6763D01*
X-6890Y82774D02*
Y83028D01*
X-10074Y82729D02*
X-9820D01*
X-9947Y82602D02*
Y82856D01*
X-18127Y82471D02*
X-17873D01*
X-18000Y82344D02*
Y82598D01*
X-24707Y79636D02*
X-24453D01*
X-24580Y79509D02*
Y79763D01*
X-35747Y82326D02*
X-35493D01*
X-35620Y82199D02*
Y82453D01*
X-43824Y75370D02*
X-43570D01*
X-43697Y75243D02*
Y75497D01*
X-43010Y73934D02*
X-42756D01*
X-42883Y73807D02*
Y74061D01*
X-41201Y73658D02*
X-40947D01*
X-41074Y73531D02*
Y73785D01*
X-40013Y74652D02*
X-39759D01*
X-39886Y74525D02*
Y74779D01*
X-39792Y75991D02*
X-39538D01*
X-39665Y75864D02*
Y76118D01*
X-40386Y77497D02*
X-40132D01*
X-40259Y77370D02*
Y77624D01*
X-40469Y79043D02*
X-40215D01*
X-40342Y78916D02*
Y79170D01*
X438Y49444D02*
X692D01*
X565Y49317D02*
Y49571D01*
X2244Y55169D02*
X2498D01*
X2371Y55042D02*
Y55296D01*
X-514Y49425D02*
X-260D01*
X-387Y49298D02*
Y49552D01*
X-2296Y51698D02*
X-2042D01*
X-2169Y51571D02*
Y51825D01*
X2921Y48016D02*
X3175D01*
X3048Y47889D02*
Y48143D01*
X2017Y47132D02*
X2271D01*
X2144Y47006D02*
Y47259D01*
X-3029Y48036D02*
X-2775D01*
X-2902Y47909D02*
Y48163D01*
X-2079Y47113D02*
X-1825D01*
X-1952Y46986D02*
Y47240D01*
X-1257Y45896D02*
X-1003D01*
X-1130Y45769D02*
Y46023D01*
X-4192Y45911D02*
X-3938D01*
X-4065Y45784D02*
Y46038D01*
X-2024Y45904D02*
X-1770D01*
X-1897Y45777D02*
Y46031D01*
X1942Y45893D02*
X2196D01*
X2069Y45766D02*
Y46020D01*
X4057Y45901D02*
X4311D01*
X4184Y45774D02*
Y46028D01*
X1072Y45903D02*
X1326D01*
X1199Y45776D02*
Y46030D01*
X-3701Y67665D02*
X-3447D01*
X-3574Y67538D02*
Y67792D01*
X-845Y63238D02*
X-591D01*
X-718Y63111D02*
Y63365D01*
X-459Y65598D02*
X-205D01*
X-332Y65471D02*
Y65725D01*
X5808Y69002D02*
X6062D01*
X5935Y68875D02*
Y69129D01*
X-8555Y58260D02*
X-8301D01*
X-8428Y58133D02*
Y58387D01*
X-5782Y57500D02*
X-5528D01*
X-5655Y57373D02*
Y57627D01*
X-25972Y89100D02*
X-25718D01*
X-25845Y88973D02*
Y89227D01*
X-23191Y88171D02*
X-22937D01*
X-23064Y88044D02*
Y88298D01*
X1899Y63157D02*
X2153D01*
X2026Y63030D02*
Y63284D01*
X10761Y75967D02*
X11015D01*
X10888Y75840D02*
Y76094D01*
X9901Y75711D02*
X10155D01*
X10028Y75584D02*
Y75838D01*
X11436Y68080D02*
X11690D01*
X11563Y67953D02*
Y68207D01*
X26591Y65600D02*
X26845D01*
X26718Y65473D02*
Y65727D01*
X17153Y63608D02*
X17407D01*
X17280Y63481D02*
Y63735D01*
X-50084Y75479D02*
X-49830D01*
X-49957Y75352D02*
Y75606D01*
X-54512Y76338D02*
X-54258D01*
X-54385Y76211D02*
Y76465D01*
X-42598Y91875D02*
X-42344D01*
X-42471Y91748D02*
Y92002D01*
X-45094Y92143D02*
X-44840D01*
X-44967Y92016D02*
Y92270D01*
X-44458Y88084D02*
X-44204D01*
X-44331Y87957D02*
Y88211D01*
X-52545Y82982D02*
X-52291D01*
X-52418Y82855D02*
Y83109D01*
X-43122Y79981D02*
X-42868D01*
X-42995Y79854D02*
Y80108D01*
X-43459Y78674D02*
X-43205D01*
X-43332Y78547D02*
Y78801D01*
X-43471Y76903D02*
X-43217D01*
X-43344Y76776D02*
Y77030D01*
X-41357Y79999D02*
X-41103D01*
X-41230Y79872D02*
Y80126D01*
X-41374Y86016D02*
X-41120D01*
X-41247Y85889D02*
Y86143D01*
X-56947Y82083D02*
X-56693D01*
X-56820Y81956D02*
Y82210D01*
X-54734Y83876D02*
X-54480D01*
X-54607Y83749D02*
Y84003D01*
X10026Y68386D02*
X10280D01*
X10153Y68259D02*
Y68513D01*
X9001Y63025D02*
X9255D01*
X9128Y62898D02*
Y63152D01*
X12879Y60575D02*
X13133D01*
X13006Y60448D02*
Y60702D01*
X8647Y60575D02*
X8901D01*
X8774Y60448D02*
Y60702D01*
X8139Y67665D02*
X8393D01*
X8266Y67538D02*
Y67792D01*
X8368Y65981D02*
X8622D01*
X8495Y65854D02*
Y66108D01*
X-2528Y74548D02*
X-2274D01*
X-2401Y74421D02*
Y74675D01*
X7908Y59450D02*
X8162D01*
X8035Y59323D02*
Y59577D01*
X4430Y59496D02*
X4684D01*
X4557Y59369D02*
Y59623D01*
X5159Y57978D02*
X5413D01*
X5286Y57851D02*
Y58105D01*
X3706Y58551D02*
X3960D01*
X3833Y58424D02*
Y58678D01*
X5680Y65981D02*
X5934D01*
X5807Y65854D02*
Y66108D01*
X8449Y54338D02*
X8703D01*
X8576Y54211D02*
Y54465D01*
X12873Y56300D02*
X13127D01*
X13000Y56173D02*
Y56427D01*
X11423Y56550D02*
X11677D01*
X11550Y56423D02*
Y56677D01*
X-1559Y53991D02*
X-1305D01*
X-1432Y53864D02*
Y54118D01*
X-3161Y64496D02*
X-2907D01*
X-3034Y64369D02*
Y64623D01*
X-4054Y59861D02*
X-3800D01*
X-3927Y59734D02*
Y59988D01*
X-3910Y61615D02*
X-3656D01*
X-3783Y61488D02*
Y61742D01*
X-72227Y66700D02*
X-71973D01*
X-72100Y66573D02*
Y66827D01*
X-72227Y75400D02*
X-71973D01*
X-72100Y75273D02*
Y75527D01*
X-30127Y89100D02*
X-29873D01*
X-30000Y88973D02*
Y89227D01*
X51873Y102500D02*
X52127D01*
X52000Y102373D02*
Y102627D01*
X53873Y102500D02*
X54127D01*
X54000Y102373D02*
Y102627D01*
X-13064Y88769D02*
X-12810D01*
X-12937Y88642D02*
Y88896D01*
X-9100Y88298D02*
X-8846D01*
X-8973Y88171D02*
Y88425D01*
X35373Y65900D02*
X35627D01*
X35500Y65773D02*
Y66027D01*
X33173Y60400D02*
X33427D01*
X33300Y60273D02*
Y60527D01*
X21973Y64500D02*
X22227D01*
X22100Y64373D02*
Y64627D01*
X-8627Y52500D02*
X-8373D01*
X-8500Y52373D02*
Y52627D01*
X-10627Y52500D02*
X-10373D01*
X-10500Y52373D02*
Y52627D01*
X-12627Y52500D02*
X-12373D01*
X-12500Y52373D02*
Y52627D01*
X-14627Y52500D02*
X-14373D01*
X-14500Y52373D02*
Y52627D01*
X-16627Y52500D02*
X-16373D01*
X-16500Y52373D02*
Y52627D01*
X-18627Y52500D02*
X-18373D01*
X-18500Y52373D02*
Y52627D01*
X-20627Y52500D02*
X-20373D01*
X-20500Y52373D02*
Y52627D01*
X-22627Y52500D02*
X-22373D01*
X-22500Y52373D02*
Y52627D01*
X-24627Y52500D02*
X-24373D01*
X-24500Y52373D02*
Y52627D01*
X-26627Y52500D02*
X-26373D01*
X-26500Y52373D02*
Y52627D01*
X-28627Y52500D02*
X-28373D01*
X-28500Y52373D02*
Y52627D01*
X69873Y81500D02*
X70127D01*
X70000Y81373D02*
Y81627D01*
X69873Y79500D02*
X70127D01*
X70000Y79373D02*
Y79627D01*
X69873Y77500D02*
X70127D01*
X70000Y77373D02*
Y77627D01*
X69873Y75500D02*
X70127D01*
X70000Y75373D02*
Y75627D01*
X69873Y73500D02*
X70127D01*
X70000Y73373D02*
Y73627D01*
X69873Y71500D02*
X70127D01*
X70000Y71373D02*
Y71627D01*
X69873Y69500D02*
X70127D01*
X70000Y69373D02*
Y69627D01*
X69873Y67500D02*
X70127D01*
X70000Y67373D02*
Y67627D01*
X69873Y65500D02*
X70127D01*
X70000Y65373D02*
Y65627D01*
X69873Y63500D02*
X70127D01*
X70000Y63373D02*
Y63627D01*
X69873Y61500D02*
X70127D01*
X70000Y61373D02*
Y61627D01*
X7873Y52500D02*
X8127D01*
X8000Y52373D02*
Y52627D01*
X9873Y52500D02*
X10127D01*
X10000Y52373D02*
Y52627D01*
X11873Y52500D02*
X12127D01*
X12000Y52373D02*
Y52627D01*
X13873Y52500D02*
X14127D01*
X14000Y52373D02*
Y52627D01*
X15873Y52500D02*
X16127D01*
X16000Y52373D02*
Y52627D01*
X17873Y52500D02*
X18127D01*
X18000Y52373D02*
Y52627D01*
X19873Y52500D02*
X20127D01*
X20000Y52373D02*
Y52627D01*
X21873Y52500D02*
X22127D01*
X22000Y52373D02*
Y52627D01*
X23873Y52500D02*
X24127D01*
X24000Y52373D02*
Y52627D01*
X25873Y52500D02*
X26127D01*
X26000Y52373D02*
Y52627D01*
X27873Y52500D02*
X28127D01*
X28000Y52373D02*
Y52627D01*
X29873Y52500D02*
X30127D01*
X30000Y52373D02*
Y52627D01*
X31373Y54000D02*
X31627D01*
X31500Y53873D02*
Y54127D01*
X32873Y55500D02*
X33127D01*
X33000Y55373D02*
Y55627D01*
X34373Y57000D02*
X34627D01*
X34500Y56873D02*
Y57127D01*
X35873Y58500D02*
X36127D01*
X36000Y58373D02*
Y58627D01*
X37873Y59500D02*
X38127D01*
X38000Y59373D02*
Y59627D01*
X-80627Y101000D02*
X-80373D01*
X-80500Y100873D02*
Y101127D01*
X-80627Y99500D02*
X-80373D01*
X-80500Y99373D02*
Y99627D01*
X-80627Y97500D02*
X-80373D01*
X-80500Y97373D02*
Y97627D01*
X-80627Y95500D02*
X-80373D01*
X-80500Y95373D02*
Y95627D01*
X-80627Y93500D02*
X-80373D01*
X-80500Y93373D02*
Y93627D01*
X-80627Y91500D02*
X-80373D01*
X-80500Y91373D02*
Y91627D01*
X-80627Y89500D02*
X-80373D01*
X-80500Y89373D02*
Y89627D01*
X-80627Y87500D02*
X-80373D01*
X-80500Y87373D02*
Y87627D01*
X-80627Y85500D02*
X-80373D01*
X-80500Y85373D02*
Y85627D01*
X-80627Y83500D02*
X-80373D01*
X-80500Y83373D02*
Y83627D01*
X-80627Y81500D02*
X-80373D01*
X-80500Y81373D02*
Y81627D01*
X-80627Y79500D02*
X-80373D01*
X-80500Y79373D02*
Y79627D01*
X-80627Y77500D02*
X-80373D01*
X-80500Y77373D02*
Y77627D01*
X-80627Y75500D02*
X-80373D01*
X-80500Y75373D02*
Y75627D01*
X-80627Y73500D02*
X-80373D01*
X-80500Y73373D02*
Y73627D01*
X-80627Y71500D02*
X-80373D01*
X-80500Y71373D02*
Y71627D01*
X-80627Y69500D02*
X-80373D01*
X-80500Y69373D02*
Y69627D01*
X-80627Y67500D02*
X-80373D01*
X-80500Y67373D02*
Y67627D01*
X-80627Y65500D02*
X-80373D01*
X-80500Y65373D02*
Y65627D01*
X-80627Y63500D02*
X-80373D01*
X-80500Y63373D02*
Y63627D01*
X-80627Y61500D02*
X-80373D01*
X-80500Y61373D02*
Y61627D01*
X-30127Y52500D02*
X-29873D01*
X-30000Y52373D02*
Y52627D01*
X-31627Y54000D02*
X-31373D01*
X-31500Y53873D02*
Y54127D01*
X-33127Y55500D02*
X-32873D01*
X-33000Y55373D02*
Y55627D01*
X-34627Y57000D02*
X-34373D01*
X-34500Y56873D02*
Y57127D01*
X-36127Y58500D02*
X-35873D01*
X-36000Y58373D02*
Y58627D01*
X-42627Y59500D02*
X-42373D01*
X-42500Y59373D02*
Y59627D01*
X-40627Y59500D02*
X-40373D01*
X-40500Y59373D02*
Y59627D01*
X-38627Y59500D02*
X-38373D01*
X-38500Y59373D02*
Y59627D01*
X-58627Y59500D02*
X-58373D01*
X-58500Y59373D02*
Y59627D01*
X-56627Y59500D02*
X-56373D01*
X-56500Y59373D02*
Y59627D01*
X-54627Y59500D02*
X-54373D01*
X-54500Y59373D02*
Y59627D01*
X-52627Y59500D02*
X-52373D01*
X-52500Y59373D02*
Y59627D01*
X-50627Y59500D02*
X-50373D01*
X-50500Y59373D02*
Y59627D01*
X-48627Y59500D02*
X-48373D01*
X-48500Y59373D02*
Y59627D01*
X-46627Y59500D02*
X-46373D01*
X-46500Y59373D02*
Y59627D01*
X-44627Y59500D02*
X-44373D01*
X-44500Y59373D02*
Y59627D01*
X-74627Y59500D02*
X-74373D01*
X-74500Y59373D02*
Y59627D01*
X-72627Y59500D02*
X-72373D01*
X-72500Y59373D02*
Y59627D01*
X-70627Y59500D02*
X-70373D01*
X-70500Y59373D02*
Y59627D01*
X-68627Y59500D02*
X-68373D01*
X-68500Y59373D02*
Y59627D01*
X-66627Y59500D02*
X-66373D01*
X-66500Y59373D02*
Y59627D01*
X-64627Y59500D02*
X-64373D01*
X-64500Y59373D02*
Y59627D01*
X-62627Y59500D02*
X-62373D01*
X-62500Y59373D02*
Y59627D01*
X-60627Y59500D02*
X-60373D01*
X-60500Y59373D02*
Y59627D01*
X-80627Y59500D02*
X-80373D01*
X-80500Y59373D02*
Y59627D01*
X-78627Y59500D02*
X-78373D01*
X-78500Y59373D02*
Y59627D01*
X-76627Y59500D02*
X-76373D01*
X-76500Y59373D02*
Y59627D01*
X-76627Y102500D02*
X-76373D01*
X-76500Y102373D02*
Y102627D01*
X-78627Y102500D02*
X-78373D01*
X-78500Y102373D02*
Y102627D01*
X-80627Y102500D02*
X-80373D01*
X-80500Y102373D02*
Y102627D01*
X-60627Y102500D02*
X-60373D01*
X-60500Y102373D02*
Y102627D01*
X-62627Y102500D02*
X-62373D01*
X-62500Y102373D02*
Y102627D01*
X-64627Y102500D02*
X-64373D01*
X-64500Y102373D02*
Y102627D01*
X-66627Y102500D02*
X-66373D01*
X-66500Y102373D02*
Y102627D01*
X-68627Y102500D02*
X-68373D01*
X-68500Y102373D02*
Y102627D01*
X-70627Y102500D02*
X-70373D01*
X-70500Y102373D02*
Y102627D01*
X-72627Y102500D02*
X-72373D01*
X-72500Y102373D02*
Y102627D01*
X-74627Y102500D02*
X-74373D01*
X-74500Y102373D02*
Y102627D01*
X-44627Y102500D02*
X-44373D01*
X-44500Y102373D02*
Y102627D01*
X-46627Y102500D02*
X-46373D01*
X-46500Y102373D02*
Y102627D01*
X-48627Y102500D02*
X-48373D01*
X-48500Y102373D02*
Y102627D01*
X-50627Y102500D02*
X-50373D01*
X-50500Y102373D02*
Y102627D01*
X-52627Y102500D02*
X-52373D01*
X-52500Y102373D02*
Y102627D01*
X-54627Y102500D02*
X-54373D01*
X-54500Y102373D02*
Y102627D01*
X-56627Y102500D02*
X-56373D01*
X-56500Y102373D02*
Y102627D01*
X-58627Y102500D02*
X-58373D01*
X-58500Y102373D02*
Y102627D01*
X-28627Y102500D02*
X-28373D01*
X-28500Y102373D02*
Y102627D01*
X-30627Y102500D02*
X-30373D01*
X-30500Y102373D02*
Y102627D01*
X-32627Y102500D02*
X-32373D01*
X-32500Y102373D02*
Y102627D01*
X-34627Y102500D02*
X-34373D01*
X-34500Y102373D02*
Y102627D01*
X-36627Y102500D02*
X-36373D01*
X-36500Y102373D02*
Y102627D01*
X-38627Y102500D02*
X-38373D01*
X-38500Y102373D02*
Y102627D01*
X-40627Y102500D02*
X-40373D01*
X-40500Y102373D02*
Y102627D01*
X-42627Y102500D02*
X-42373D01*
X-42500Y102373D02*
Y102627D01*
X-12627Y102500D02*
X-12373D01*
X-12500Y102373D02*
Y102627D01*
X-14627Y102500D02*
X-14373D01*
X-14500Y102373D02*
Y102627D01*
X-16627Y102500D02*
X-16373D01*
X-16500Y102373D02*
Y102627D01*
X-18627Y102500D02*
X-18373D01*
X-18500Y102373D02*
Y102627D01*
X-20627Y102500D02*
X-20373D01*
X-20500Y102373D02*
Y102627D01*
X-22627Y102500D02*
X-22373D01*
X-22500Y102373D02*
Y102627D01*
X-24627Y102500D02*
X-24373D01*
X-24500Y102373D02*
Y102627D01*
X-26627Y102500D02*
X-26373D01*
X-26500Y102373D02*
Y102627D01*
X-10627Y102500D02*
X-10373D01*
X-10500Y102373D02*
Y102627D01*
X-8627Y102500D02*
X-8373D01*
X-8500Y102373D02*
Y102627D01*
X-6627Y102500D02*
X-6373D01*
X-6500Y102373D02*
Y102627D01*
X-4627Y102500D02*
X-4373D01*
X-4500Y102373D02*
Y102627D01*
X-2627Y102500D02*
X-2373D01*
X-2500Y102373D02*
Y102627D01*
X-627Y102500D02*
X-373D01*
X-500Y102373D02*
Y102627D01*
X1373Y102500D02*
X1627D01*
X1500Y102373D02*
Y102627D01*
X3373Y102500D02*
X3627D01*
X3500Y102373D02*
Y102627D01*
X7373Y102500D02*
X7627D01*
X7500Y102373D02*
Y102627D01*
X9373Y102500D02*
X9627D01*
X9500Y102373D02*
Y102627D01*
X11373Y102500D02*
X11627D01*
X11500Y102373D02*
Y102627D01*
X13373Y102500D02*
X13627D01*
X13500Y102373D02*
Y102627D01*
X15373Y102500D02*
X15627D01*
X15500Y102373D02*
Y102627D01*
X19873Y102500D02*
X20127D01*
X20000Y102373D02*
Y102627D01*
X21873Y102500D02*
X22127D01*
X22000Y102373D02*
Y102627D01*
X23873Y102500D02*
X24127D01*
X24000Y102373D02*
Y102627D01*
X25873Y102500D02*
X26127D01*
X26000Y102373D02*
Y102627D01*
X27873Y102500D02*
X28127D01*
X28000Y102373D02*
Y102627D01*
X29873Y102500D02*
X30127D01*
X30000Y102373D02*
Y102627D01*
X31873Y102500D02*
X32127D01*
X32000Y102373D02*
Y102627D01*
X33873Y102500D02*
X34127D01*
X34000Y102373D02*
Y102627D01*
X35873Y102500D02*
X36127D01*
X36000Y102373D02*
Y102627D01*
X37873Y102500D02*
X38127D01*
X38000Y102373D02*
Y102627D01*
X39873Y102500D02*
X40127D01*
X40000Y102373D02*
Y102627D01*
X41873Y102500D02*
X42127D01*
X42000Y102373D02*
Y102627D01*
X43873Y102500D02*
X44127D01*
X44000Y102373D02*
Y102627D01*
X54873Y83000D02*
X55127D01*
X55000Y82873D02*
Y83127D01*
X56873Y83000D02*
X57127D01*
X57000Y82873D02*
Y83127D01*
X58873Y83000D02*
X59127D01*
X59000Y82873D02*
Y83127D01*
X60873Y83000D02*
X61127D01*
X61000Y82873D02*
Y83127D01*
X62873Y83000D02*
X63127D01*
X63000Y82873D02*
Y83127D01*
X64873Y83000D02*
X65127D01*
X65000Y82873D02*
Y83127D01*
X66873Y83000D02*
X67127D01*
X67000Y82873D02*
Y83127D01*
X68873Y83000D02*
X69127D01*
X69000Y82873D02*
Y83127D01*
X55873Y83000D02*
X56127D01*
X56000Y82873D02*
Y83127D01*
X59873Y83000D02*
X60127D01*
X60000Y82873D02*
Y83127D01*
X61873Y83000D02*
X62127D01*
X62000Y82873D02*
Y83127D01*
X65873Y83000D02*
X66127D01*
X66000Y82873D02*
Y83127D01*
X67873Y83000D02*
X68127D01*
X68000Y82873D02*
Y83127D01*
X54873Y86400D02*
X55127D01*
X55000Y86273D02*
Y86527D01*
X56873Y86400D02*
X57127D01*
X57000Y86273D02*
Y86527D01*
X58873Y86400D02*
X59127D01*
X59000Y86273D02*
Y86527D01*
X60873Y86400D02*
X61127D01*
X61000Y86273D02*
Y86527D01*
X62873Y86400D02*
X63127D01*
X63000Y86273D02*
Y86527D01*
X68873Y86400D02*
X69127D01*
X69000Y86273D02*
Y86527D01*
X66873Y86400D02*
X67127D01*
X67000Y86273D02*
Y86527D01*
X64873Y86400D02*
X65127D01*
X65000Y86273D02*
Y86527D01*
X48973Y86600D02*
X49227D01*
X49100Y86473D02*
Y86727D01*
X-127Y58381D02*
X127D01*
X0Y58254D02*
Y58508D01*
X-28927Y90200D02*
X-28673D01*
X-28800Y90073D02*
Y90327D01*
X-30027Y90200D02*
X-29773D01*
X-29900Y90073D02*
Y90327D01*
X20473Y70700D02*
X20727D01*
X20600Y70573D02*
Y70827D01*
X21573Y70700D02*
X21827D01*
X21700Y70573D02*
Y70827D01*
X-4127Y31700D02*
X-3873D01*
X-4000Y31573D02*
Y31827D01*
X3873Y25360D02*
X4127D01*
X4000Y25233D02*
Y25487D01*
X-4127Y19020D02*
X-3873D01*
X-4000Y18893D02*
Y19147D01*
X3873Y12680D02*
X4127D01*
X4000Y12553D02*
Y12807D01*
X3873Y0D02*
X4127D01*
X4000Y-127D02*
Y127D01*
X-4127Y6340D02*
X-3873D01*
X-4000Y6213D02*
Y6467D01*
X-877Y59246D02*
X-623D01*
X-750Y59119D02*
Y59373D01*
X-1762Y59246D02*
X-1508D01*
X-1635Y59119D02*
Y59373D01*
X619Y59246D02*
X873D01*
X746Y59119D02*
Y59373D01*
X1473Y59246D02*
X1727D01*
X1600Y59119D02*
Y59373D01*
X-127Y59246D02*
X127D01*
X0Y59119D02*
Y59373D01*
X-127Y60200D02*
X127D01*
X0Y60073D02*
Y60327D01*
X-127Y60900D02*
X127D01*
X0Y60773D02*
Y61027D01*
X15123Y84800D02*
X15377D01*
X15250Y84673D02*
Y84927D01*
X15123Y83750D02*
X15377D01*
X15250Y83623D02*
Y83877D01*
X14373Y83000D02*
X14627D01*
X14500Y82873D02*
Y83127D01*
X16073Y89400D02*
X16327D01*
X16200Y89273D02*
Y89527D01*
X16973Y88444D02*
X17227D01*
X17100Y88317D02*
Y88571D01*
X19373Y88600D02*
X19627D01*
X19500Y88473D02*
Y88727D01*
X-127Y57611D02*
X127D01*
X0Y57484D02*
Y57738D01*
X50573Y89400D02*
X50827D01*
X50700Y89273D02*
Y89527D01*
X51573Y89400D02*
X51827D01*
X51700Y89273D02*
Y89527D01*
X51573Y88500D02*
X51827D01*
X51700Y88373D02*
Y88627D01*
X50573Y88500D02*
X50827D01*
X50700Y88373D02*
Y88627D01*
X49573Y88500D02*
X49827D01*
X49700Y88373D02*
Y88627D01*
X48573Y88500D02*
X48827D01*
X48700Y88373D02*
Y88627D01*
X16680Y82020D02*
X16934D01*
X16807Y81893D02*
Y82147D01*
X19223Y74150D02*
X19477D01*
X19350Y74023D02*
Y74277D01*
X12573Y78900D02*
X12827D01*
X12700Y78773D02*
Y79027D01*
X16203Y60708D02*
X16457D01*
X16330Y60581D02*
Y60835D01*
X22903Y60708D02*
X23157D01*
X23030Y60581D02*
Y60835D01*
X-5427Y89000D02*
X-5173D01*
X-5300Y88873D02*
Y89127D01*
X-35127Y89100D02*
X-34873D01*
X-35000Y88973D02*
Y89227D01*
X-28327Y95700D02*
X-28073D01*
X-28200Y95573D02*
Y95827D01*
X-25927Y95700D02*
X-25673D01*
X-25800Y95573D02*
Y95827D01*
X-627Y97100D02*
X-373D01*
X-500Y96973D02*
Y97227D01*
X-21027Y95400D02*
X-20773D01*
X-20900Y95273D02*
Y95527D01*
X-9327Y97500D02*
X-9073D01*
X-9200Y97373D02*
Y97627D01*
X-7027Y97500D02*
X-6773D01*
X-6900Y97373D02*
Y97627D01*
X31673Y70700D02*
X31927D01*
X31800Y70573D02*
Y70827D01*
X21173Y81700D02*
X21427D01*
X21300Y81573D02*
Y81827D01*
X50073Y91800D02*
X50327D01*
X50200Y91673D02*
Y91927D01*
X44673Y93800D02*
X44927D01*
X44800Y93673D02*
Y93927D01*
X42273Y93800D02*
X42527D01*
X42400Y93673D02*
Y93927D01*
X69873Y102500D02*
X70127D01*
X70000Y102373D02*
Y102627D01*
X69873Y98500D02*
X70127D01*
X70000Y98373D02*
Y98627D01*
X69873Y88500D02*
X70127D01*
X70000Y88373D02*
Y88627D01*
X69873Y86400D02*
X70127D01*
X70000Y86273D02*
Y86527D01*
X69873Y83000D02*
X70127D01*
X70000Y82873D02*
Y83127D01*
X69873Y59500D02*
X70127D01*
X70000Y59373D02*
Y59627D01*
X67873Y59500D02*
X68127D01*
X68000Y59373D02*
Y59627D01*
X65873Y59500D02*
X66127D01*
X66000Y59373D02*
Y59627D01*
X63873Y59500D02*
X64127D01*
X64000Y59373D02*
Y59627D01*
X61873Y59500D02*
X62127D01*
X62000Y59373D02*
Y59627D01*
X59873Y59500D02*
X60127D01*
X60000Y59373D02*
Y59627D01*
X57873Y59500D02*
X58127D01*
X58000Y59373D02*
Y59627D01*
X55873Y59500D02*
X56127D01*
X56000Y59373D02*
Y59627D01*
X53873Y59500D02*
X54127D01*
X54000Y59373D02*
Y59627D01*
X51873Y59500D02*
X52127D01*
X52000Y59373D02*
Y59627D01*
X49873Y59500D02*
X50127D01*
X50000Y59373D02*
Y59627D01*
X47873Y59500D02*
X48127D01*
X48000Y59373D02*
Y59627D01*
X45873Y59500D02*
X46127D01*
X46000Y59373D02*
Y59627D01*
X43873Y59500D02*
X44127D01*
X44000Y59373D02*
Y59627D01*
X41873Y59500D02*
X42127D01*
X42000Y59373D02*
Y59627D01*
X39873Y59500D02*
X40127D01*
X40000Y59373D02*
Y59627D01*
X63873Y102500D02*
X64127D01*
X64000Y102373D02*
Y102627D01*
X57873Y102500D02*
X58127D01*
X58000Y102373D02*
Y102627D01*
X45873Y102600D02*
X46127D01*
X46000Y102473D02*
Y102727D01*
X63873Y86400D02*
X64127D01*
X64000Y86273D02*
Y86527D01*
X63873Y83000D02*
X64127D01*
X64000Y82873D02*
Y83127D01*
X57873Y83000D02*
X58127D01*
X58000Y82873D02*
Y83127D01*
X57873Y86400D02*
X58127D01*
X58000Y86273D02*
Y86527D01*
X52073Y84700D02*
X52327D01*
X52200Y84573D02*
Y84827D01*
X37873Y98300D02*
X38127D01*
X38000Y98173D02*
Y98427D01*
X31373Y98300D02*
X31627D01*
X31500Y98173D02*
Y98427D01*
X21773Y77200D02*
X22027D01*
X21900Y77073D02*
Y77327D01*
X26273Y72600D02*
X26527D01*
X26400Y72473D02*
Y72727D01*
X48973Y80200D02*
X49227D01*
X49100Y80073D02*
Y80327D01*
X48973Y81200D02*
X49227D01*
X49100Y81073D02*
Y81327D01*
X48973Y82200D02*
X49227D01*
X49100Y82073D02*
Y82327D01*
X48973Y83200D02*
X49227D01*
X49100Y83073D02*
Y83327D01*
X-16027Y88600D02*
X-15773D01*
X-15900Y88473D02*
Y88727D01*
X-15027Y88600D02*
X-14773D01*
X-14900Y88473D02*
Y88727D01*
X-16027Y94400D02*
X-15773D01*
X-15900Y94273D02*
Y94527D01*
X-15027Y94400D02*
X-14773D01*
X-14900Y94273D02*
Y94527D01*
X69873Y100500D02*
X70127D01*
X70000Y100373D02*
Y100627D01*
X69873Y90500D02*
X70127D01*
X70000Y90373D02*
Y90627D01*
X55873Y86400D02*
X56127D01*
X56000Y86273D02*
Y86527D01*
X59873Y86400D02*
X60127D01*
X60000Y86273D02*
Y86527D01*
X61873Y86400D02*
X62127D01*
X62000Y86273D02*
Y86527D01*
X65873Y86400D02*
X66127D01*
X66000Y86273D02*
Y86527D01*
X67873Y86400D02*
X68127D01*
X68000Y86273D02*
Y86527D01*
X67873Y102500D02*
X68127D01*
X68000Y102373D02*
Y102627D01*
X65873Y102500D02*
X66127D01*
X66000Y102373D02*
Y102627D01*
X61873Y102500D02*
X62127D01*
X62000Y102373D02*
Y102627D01*
X59873Y102500D02*
X60127D01*
X60000Y102373D02*
Y102627D01*
X55873Y102500D02*
X56127D01*
X56000Y102373D02*
Y102627D01*
X49873Y102600D02*
X50127D01*
X50000Y102473D02*
Y102727D01*
X47873Y102600D02*
X48127D01*
X48000Y102473D02*
Y102727D01*
X-602Y54000D02*
X-348D01*
X-475Y53873D02*
Y54127D01*
X-4827Y50300D02*
X-4573D01*
X-4700Y50173D02*
Y50427D01*
X3573Y51000D02*
X3827D01*
X3700Y50873D02*
Y51127D01*
X-3827Y51000D02*
X-3573D01*
X-3700Y50873D02*
Y51127D01*
X-5827Y51000D02*
X-5573D01*
X-5700Y50873D02*
Y51127D01*
X4573Y50300D02*
X4827D01*
X4700Y50173D02*
Y50427D01*
X5573Y51000D02*
X5827D01*
X5700Y50873D02*
Y51127D01*
X-10694Y88944D02*
X-10440D01*
X-10567Y88817D02*
Y89071D01*
X7125Y81680D02*
X7379D01*
X7252Y81553D02*
Y81807D01*
X-9142Y64086D02*
X-8888D01*
X-9015Y63959D02*
Y64213D01*
X-8569Y63234D02*
X-8315D01*
X-8442Y63107D02*
Y63361D01*
X-8465Y61507D02*
X-8211D01*
X-8338Y61380D02*
Y61634D01*
X-3357Y78833D02*
X-3103D01*
X-3230Y78706D02*
Y78960D01*
X-2752Y76869D02*
X-2498D01*
X-2625Y76742D02*
Y76996D01*
X9914Y71848D02*
X10168D01*
X10041Y71721D02*
Y71975D01*
X9863Y77198D02*
X10117D01*
X9990Y77071D02*
Y77325D01*
X8871Y70536D02*
X9125D01*
X8998Y70409D02*
Y70663D01*
X2Y64041D02*
X256D01*
X129Y63914D02*
Y64168D01*
X1122Y65484D02*
X1376D01*
X1249Y65357D02*
Y65611D01*
X5182Y62371D02*
X5436D01*
X5309Y62244D02*
Y62498D01*
X-3543Y70055D02*
X-3289D01*
X-3416Y69928D02*
Y70182D01*
X-2353Y66797D02*
X-2099D01*
X-2226Y66670D02*
Y66924D01*
X-5471Y65588D02*
X-5217D01*
X-5344Y65461D02*
Y65715D01*
X-7053Y67751D02*
X-6799D01*
X-6926Y67624D02*
Y67878D01*
X-4802Y84793D02*
X-4548D01*
X-4675Y84666D02*
Y84920D01*
X-8624Y84245D02*
X-8370D01*
X-8497Y84118D02*
Y84372D01*
X2093Y79222D02*
X2347D01*
X2220Y79095D02*
Y79349D01*
X6414Y74419D02*
X6668D01*
X6541Y74292D02*
Y74546D01*
X3039Y76416D02*
X3293D01*
X3166Y76289D02*
Y76543D01*
X2289Y77227D02*
X2543D01*
X2416Y77100D02*
Y77354D01*
X2591Y74761D02*
X2845D01*
X2718Y74634D02*
Y74888D01*
X-2803Y84201D02*
X-2549D01*
X-2676Y84074D02*
Y84328D01*
X-914Y84486D02*
X-660D01*
X-787Y84359D02*
Y84613D01*
X-51Y81780D02*
X203D01*
X76Y81653D02*
Y81907D01*
X3279Y88409D02*
X3533D01*
X3406Y88282D02*
Y88536D01*
X626Y85618D02*
X880D01*
X753Y85491D02*
Y85745D01*
X-786Y88483D02*
X-532D01*
X-659Y88356D02*
Y88610D01*
X4591Y84068D02*
X4845D01*
X4718Y83941D02*
Y84195D01*
X-774Y85633D02*
X-520D01*
X-647Y85506D02*
Y85760D01*
X-6829Y85835D02*
X-6575D01*
X-6702Y85708D02*
Y85962D01*
X3780Y87336D02*
X4034D01*
X3907Y87209D02*
Y87463D01*
X14474Y81606D02*
X14728D01*
X14601Y81479D02*
Y81733D01*
X2863Y89415D02*
X3117D01*
X2990Y89288D02*
Y89542D01*
M02*
