G04 Layer_Color=8388736*
%FSLAX43Y43*%
%MOMM*%
G71*
G01*
G75*
%ADD45C,0.254*%
%ADD95R,0.703X0.603*%
%ADD96R,0.953X0.903*%
%ADD97R,1.223X1.223*%
%ADD98R,1.253X0.803*%
%ADD99R,1.103X0.903*%
%ADD100R,1.803X0.603*%
%ADD101C,0.813*%
%ADD102C,3.000*%
%ADD103R,0.903X1.203*%
%ADD104O,0.900X0.330*%
%ADD105O,0.330X0.900*%
%ADD106R,1.223X1.223*%
%ADD107R,2.103X1.503*%
%ADD108R,1.803X1.403*%
%ADD109R,1.003X1.003*%
%ADD110R,0.903X1.103*%
%ADD111R,1.003X1.003*%
%ADD112R,0.502X0.802*%
%ADD113R,1.353X1.203*%
%ADD114R,0.653X1.503*%
%ADD115R,0.853X1.353*%
%ADD116R,1.603X1.903*%
%ADD117R,0.743X1.003*%
%ADD118R,2.203X2.003*%
%ADD119R,0.903X0.953*%
%ADD120O,0.740X0.380*%
%ADD121R,1.720X2.990*%
%ADD122R,0.300X0.875*%
%ADD123R,2.103X1.303*%
%ADD124R,1.103X0.703*%
%ADD125R,0.603X0.803*%
%ADD126R,2.603X1.703*%
%ADD127C,0.102*%
%ADD128O,3.203X1.703*%
%ADD129R,2.003X2.003*%
%ADD130C,2.003*%
%ADD131C,1.703*%
%ADD132C,2.203*%
%ADD133C,3.403*%
G36*
X2125Y59546D02*
X300D01*
Y61371D01*
X2125D01*
Y59546D01*
D02*
G37*
G36*
X-300D02*
X-2125D01*
Y61371D01*
X-300D01*
Y59546D01*
D02*
G37*
G36*
X2125Y57121D02*
X300D01*
Y58946D01*
X2125D01*
Y57121D01*
D02*
G37*
G36*
X-300D02*
X-2125D01*
Y58946D01*
X-300D01*
Y57121D01*
D02*
G37*
D45*
X25800Y41724D02*
X26816D01*
X26308D01*
Y40200D01*
X27577D02*
X28085D01*
X28339Y40454D01*
Y40962D01*
X28085Y41216D01*
X27577D01*
X27324Y40962D01*
Y40454D01*
X27577Y40200D01*
X28847Y39692D02*
Y41216D01*
X29609D01*
X29863Y40962D01*
Y40454D01*
X29609Y40200D01*
X28847D01*
X32910Y41470D02*
X32656Y41724D01*
X32148D01*
X31894Y41470D01*
Y41216D01*
X32148Y40962D01*
X32656D01*
X32910Y40708D01*
Y40454D01*
X32656Y40200D01*
X32148D01*
X31894Y40454D01*
X33671Y40200D02*
X34179D01*
X34433Y40454D01*
Y40962D01*
X34179Y41216D01*
X33671D01*
X33418Y40962D01*
Y40454D01*
X33671Y40200D01*
X34941D02*
X35449D01*
X35195D01*
Y41724D01*
X34941D01*
X37226D02*
Y40200D01*
X36465D01*
X36211Y40454D01*
Y40962D01*
X36465Y41216D01*
X37226D01*
X38496Y40200D02*
X37988D01*
X37734Y40454D01*
Y40962D01*
X37988Y41216D01*
X38496D01*
X38750Y40962D01*
Y40708D01*
X37734D01*
X39258Y41216D02*
Y40200D01*
Y40708D01*
X39512Y40962D01*
X39765Y41216D01*
X40019D01*
X5000Y-5000D02*
G03*
X7000Y-3000I0J2000D01*
G01*
X-7000D02*
G03*
X-5000Y-5000I2000J0D01*
G01*
X-7000Y49000D02*
G03*
X-9000Y51000I-2000J0D01*
G01*
X-31414Y51586D02*
G03*
X-30000Y51000I1414J1414D01*
G01*
X-37243Y57414D02*
G03*
X-38657Y58000I-1414J-1414D01*
G01*
X-82500Y60000D02*
G03*
X-80500Y58000I2000J0D01*
G01*
Y104000D02*
G03*
X-82500Y102000I0J-2000D01*
G01*
X82500D02*
G03*
X80500Y104000I-2000J0D01*
G01*
Y58000D02*
G03*
X82500Y60000I0J2000D01*
G01*
X38657Y58000D02*
G03*
X37243Y57414I0J-2000D01*
G01*
X30000Y51000D02*
G03*
X31414Y51586I0J2000D01*
G01*
X9000Y51000D02*
G03*
X7000Y49000I0J-2000D01*
G01*
X7000Y-3000D02*
Y49000D01*
X-5000Y-5000D02*
X5000D01*
X-7000Y-3000D02*
Y49000D01*
X-30000Y51000D02*
X-9000D01*
X-37243Y57414D02*
X-31414Y51586D01*
X-80500Y58000D02*
X-38657D01*
X-82500Y60000D02*
Y102000D01*
X-80500Y104000D02*
X80500D01*
X82500Y60000D02*
Y102000D01*
X38657Y58000D02*
X80500D01*
X31414Y51586D02*
X37243Y57414D01*
X9000Y51000D02*
X30000D01*
D95*
X1569Y54544D02*
D03*
X2369D02*
D03*
X2283Y84670D02*
D03*
X3083D02*
D03*
D96*
X2567Y53396D02*
D03*
X1417D02*
D03*
X-575Y43180D02*
D03*
X575D02*
D03*
D97*
X-2169Y52845D02*
D03*
X-649D02*
D03*
X5609Y59503D02*
D03*
X7129D02*
D03*
X6829Y63165D02*
D03*
X5309D02*
D03*
X2515Y65180D02*
D03*
X4035D02*
D03*
X-3585Y83208D02*
D03*
X-2065D02*
D03*
X-5785Y84732D02*
D03*
X-7305D02*
D03*
X10041Y73106D02*
D03*
X11561D02*
D03*
X-4503Y74296D02*
D03*
X-6023D02*
D03*
X-4503Y75995D02*
D03*
X-6023D02*
D03*
X-4503Y77696D02*
D03*
X-6023D02*
D03*
X-4512Y79566D02*
D03*
X-6032D02*
D03*
X10041Y74806D02*
D03*
X11561D02*
D03*
X10043Y69509D02*
D03*
X11563D02*
D03*
X-18922Y88203D02*
D03*
X-17402D02*
D03*
X-20574Y88204D02*
D03*
X-22094D02*
D03*
X18870Y61708D02*
D03*
X20390D02*
D03*
X2128Y90307D02*
D03*
X608D02*
D03*
X653Y88463D02*
D03*
X2173D02*
D03*
D98*
X18230Y65508D02*
D03*
Y63608D02*
D03*
X20930Y65508D02*
D03*
Y64558D02*
D03*
Y63608D02*
D03*
D99*
X14590Y58569D02*
D03*
X15890D02*
D03*
X6506Y65181D02*
D03*
X7806D02*
D03*
X6211Y79248D02*
D03*
X7511D02*
D03*
X8950Y86000D02*
D03*
X7650D02*
D03*
X-350Y54900D02*
D03*
X-1650D02*
D03*
X-7537Y63345D02*
D03*
X-6237D02*
D03*
X33150Y65600D02*
D03*
X34450D02*
D03*
X-1650Y63690D02*
D03*
X-2950D02*
D03*
D100*
X-1240Y78498D02*
D03*
Y77848D02*
D03*
Y77198D02*
D03*
Y76548D02*
D03*
Y75898D02*
D03*
Y75248D02*
D03*
Y74598D02*
D03*
X4560D02*
D03*
Y75248D02*
D03*
Y75898D02*
D03*
Y76548D02*
D03*
Y77198D02*
D03*
Y77848D02*
D03*
Y78498D02*
D03*
D101*
X5286Y57978D02*
D03*
D102*
X31500Y57500D02*
D03*
X-78000Y80000D02*
D03*
X-78000Y97500D02*
D03*
D103*
X13050Y57700D02*
D03*
X11550D02*
D03*
X13050Y59400D02*
D03*
X11550D02*
D03*
D104*
X-2975Y57496D02*
D03*
X-2975Y56996D02*
D03*
X-2975Y57996D02*
D03*
X-2975Y58496D02*
D03*
X-2975Y58996D02*
D03*
X-2975Y59496D02*
D03*
X-2975Y59996D02*
D03*
X-2975Y60496D02*
D03*
X-2975Y60996D02*
D03*
X-2975Y61496D02*
D03*
X2975Y60996D02*
D03*
X2975Y61496D02*
D03*
X2975Y60496D02*
D03*
X2975Y59996D02*
D03*
X2975Y59496D02*
D03*
X2975Y58996D02*
D03*
X2975Y58496D02*
D03*
X2975Y57996D02*
D03*
X2975Y57496D02*
D03*
X2975Y56996D02*
D03*
D105*
X-1750Y62221D02*
D03*
X-2250Y62221D02*
D03*
X-1250Y62221D02*
D03*
X-750Y62221D02*
D03*
X-250Y62221D02*
D03*
X250Y62221D02*
D03*
X750Y62221D02*
D03*
X1250Y62221D02*
D03*
X1750Y62221D02*
D03*
X2250Y62221D02*
D03*
X-2250Y56271D02*
D03*
X-1750Y56271D02*
D03*
X-1250Y56271D02*
D03*
X-750Y56271D02*
D03*
X-250Y56271D02*
D03*
X250Y56271D02*
D03*
X750Y56271D02*
D03*
X1250Y56271D02*
D03*
X2250Y56271D02*
D03*
X1750Y56271D02*
D03*
D106*
X1785Y82206D02*
D03*
Y80686D02*
D03*
X-9000Y89340D02*
D03*
Y90860D02*
D03*
X-2932Y47137D02*
D03*
Y45617D02*
D03*
X3046Y47137D02*
D03*
Y45617D02*
D03*
D107*
X41200Y92600D02*
D03*
Y89200D02*
D03*
X43600Y92600D02*
D03*
Y89200D02*
D03*
X46000Y92600D02*
D03*
Y89200D02*
D03*
X-29400Y94500D02*
D03*
Y91100D02*
D03*
X-27000Y94500D02*
D03*
Y91100D02*
D03*
X-24600Y94500D02*
D03*
Y91100D02*
D03*
X-10300Y96300D02*
D03*
Y92900D02*
D03*
X-8000Y96300D02*
D03*
Y92900D02*
D03*
X-5700Y96300D02*
D03*
Y92900D02*
D03*
D108*
X48600Y89800D02*
D03*
Y91800D02*
D03*
X-20900D02*
D03*
Y93800D02*
D03*
X-1800Y93400D02*
D03*
Y95400D02*
D03*
D109*
X-3100Y65400D02*
D03*
X-1500D02*
D03*
X34900Y67200D02*
D03*
X33300D02*
D03*
D110*
X-18700Y91850D02*
D03*
Y93150D02*
D03*
X400Y93750D02*
D03*
Y95050D02*
D03*
X-7526Y60901D02*
D03*
Y59601D02*
D03*
X-10553Y91047D02*
D03*
Y89747D02*
D03*
X-12089Y90303D02*
D03*
Y89003D02*
D03*
D111*
X16330Y63608D02*
D03*
Y62008D02*
D03*
X23030Y63608D02*
D03*
Y62008D02*
D03*
D112*
X11980Y82850D02*
D03*
X13280Y82850D02*
D03*
Y84750D02*
D03*
X11980D02*
D03*
X12630Y84750D02*
D03*
X12630Y82850D02*
D03*
D113*
X39175Y89400D02*
D03*
X36825D02*
D03*
D114*
X5307Y92132D02*
D03*
Y90132D02*
D03*
X17847D02*
D03*
Y92132D02*
D03*
D115*
X7552Y87962D02*
D03*
X8822Y87962D02*
D03*
X10092Y87962D02*
D03*
X11362D02*
D03*
X12632D02*
D03*
X13902Y87962D02*
D03*
D116*
X5477Y101692D02*
D03*
X17687D02*
D03*
D117*
X9037Y101112D02*
D03*
X14117D02*
D03*
D118*
X-13150Y96900D02*
D03*
X-17650D02*
D03*
D119*
X-5300Y90875D02*
D03*
Y89725D02*
D03*
D120*
X-14000Y90000D02*
D03*
Y90500D02*
D03*
Y91000D02*
D03*
Y91500D02*
D03*
Y92000D02*
D03*
Y92500D02*
D03*
Y93000D02*
D03*
X-16800Y90000D02*
D03*
Y90500D02*
D03*
Y91000D02*
D03*
Y91500D02*
D03*
Y92000D02*
D03*
Y92500D02*
D03*
Y93000D02*
D03*
D121*
X-15400Y91500D02*
D03*
D122*
X-15170Y89700D02*
D03*
X-14710D02*
D03*
X-16090D02*
D03*
X-15630D02*
D03*
X-15170Y93300D02*
D03*
X-14710D02*
D03*
X-16090D02*
D03*
X-15630D02*
D03*
D123*
X-5700Y59550D02*
D03*
Y62050D02*
D03*
D124*
X-7100Y89350D02*
D03*
Y90850D02*
D03*
D125*
X32300Y61500D02*
D03*
X33300D02*
D03*
X34300D02*
D03*
Y64200D02*
D03*
X33300D02*
D03*
X32300D02*
D03*
D126*
X33300Y62850D02*
D03*
D127*
X-41700Y75600D02*
D03*
D128*
X-25516Y70836D02*
D03*
X-10276D02*
D03*
D129*
X-37540Y97900D02*
D03*
D130*
X-35040D02*
D03*
D131*
X-43350Y97650D02*
D03*
X-47850D02*
D03*
D132*
X-49100Y95150D02*
D03*
X-42100D02*
D03*
D133*
X-68000Y94300D02*
D03*
X68000Y94285D02*
D03*
M02*
