G04 Layer_Physical_Order=1*
G04 Layer_Color=255*
%FSLAX43Y43*%
%MOMM*%
G71*
G01*
G75*
%ADD10R,0.500X0.400*%
%ADD11R,0.750X0.700*%
%ADD12R,1.020X1.020*%
%ADD13R,1.050X0.600*%
%ADD14R,0.900X0.700*%
%ADD15R,1.600X0.400*%
%ADD16C,0.610*%
%ADD17C,1.400*%
%ADD18R,0.700X1.000*%
%ADD19O,0.800X0.230*%
%ADD20O,0.230X0.800*%
%ADD21R,4.150X4.150*%
%ADD22R,1.020X1.020*%
%ADD23R,9.000X5.300*%
%ADD24R,1.900X1.300*%
%ADD25R,1.600X1.200*%
%ADD26R,0.800X0.800*%
%ADD27R,0.700X0.900*%
%ADD28R,0.800X0.800*%
%ADD29R,0.400X0.700*%
%ADD30R,1.150X1.000*%
%ADD31R,0.450X1.300*%
%ADD32R,0.650X1.150*%
%ADD33R,1.400X1.700*%
%ADD34R,0.540X0.800*%
%ADD35R,2.000X1.800*%
%ADD36R,0.700X0.750*%
%ADD37O,0.600X0.240*%
%ADD38R,1.580X2.850*%
%ADD39R,0.200X0.775*%
%ADD40R,1.900X1.100*%
%ADD41R,0.900X0.500*%
%ADD42R,0.400X0.600*%
%ADD43R,2.400X1.500*%
%ADD44C,0.152*%
%ADD45C,0.254*%
%ADD46C,0.125*%
%ADD47C,0.250*%
%ADD48C,0.140*%
%ADD49C,0.635*%
%ADD50C,0.500*%
%ADD51C,0.504*%
%ADD52C,0.800*%
%ADD53O,3.000X1.500*%
%ADD54R,1.800X1.800*%
%ADD55C,1.800*%
%ADD56C,1.500*%
%ADD57C,2.000*%
%ADD58C,3.200*%
%ADD59C,0.559*%
G36*
X-80500Y103319D02*
X71300D01*
X71300Y96420D01*
X71153Y96379D01*
X71063Y96525D01*
X70678Y96977D01*
X70226Y97363D01*
X69719Y97674D01*
X69170Y97901D01*
X68592Y98040D01*
X68000Y98086D01*
X67408Y98040D01*
X66830Y97901D01*
X66281Y97674D01*
X65774Y97363D01*
X65322Y96977D01*
X64937Y96525D01*
X64626Y96019D01*
X64399Y95470D01*
X64260Y94892D01*
X64213Y94300D01*
X64260Y93707D01*
X64399Y93129D01*
X64626Y92580D01*
X64937Y92074D01*
X65322Y91622D01*
X65774Y91236D01*
X66281Y90926D01*
X66830Y90698D01*
X67408Y90560D01*
X68000Y90513D01*
X68592Y90560D01*
X69170Y90698D01*
X69719Y90926D01*
X70226Y91236D01*
X70678Y91622D01*
X71063Y92074D01*
X71153Y92220D01*
X71300Y92179D01*
X71300Y58681D01*
X38657D01*
Y58683D01*
X38237Y58650D01*
X37828Y58552D01*
X37439Y58391D01*
X37080Y58171D01*
X36759Y57897D01*
X36759Y57897D01*
X36653Y57788D01*
X30933Y52067D01*
X30922Y52054D01*
X30662Y51854D01*
X30343Y51721D01*
X30017Y51679D01*
X30000Y51681D01*
X9000D01*
X9000Y51681D01*
Y51683D01*
X8580Y51650D01*
X8171Y51552D01*
X7782Y51391D01*
X7423Y51171D01*
X7103Y50897D01*
X6829Y50577D01*
X6609Y50218D01*
X6448Y49829D01*
X6350Y49420D01*
X6317Y49000D01*
X6319D01*
X6319Y49000D01*
Y-3000D01*
X6321Y-3017D01*
X6279Y-3343D01*
X6146Y-3662D01*
X5936Y-3936D01*
X5662Y-4146D01*
X5343Y-4279D01*
X5017Y-4321D01*
X5000Y-4319D01*
X-5000D01*
X-5017Y-4321D01*
X-5343Y-4279D01*
X-5662Y-4146D01*
X-5936Y-3936D01*
X-6146Y-3662D01*
X-6279Y-3343D01*
X-6321Y-3017D01*
X-6319Y-3000D01*
Y49000D01*
X-6319Y49000D01*
X-6317D01*
X-6350Y49420D01*
X-6448Y49829D01*
X-6609Y50218D01*
X-6829Y50577D01*
X-7103Y50897D01*
X-7423Y51171D01*
X-7782Y51391D01*
X-8171Y51552D01*
X-8580Y51650D01*
X-9000Y51683D01*
Y51681D01*
X-9000Y51681D01*
X-30000D01*
X-30017Y51679D01*
X-30343Y51721D01*
X-30662Y51854D01*
X-30819Y51974D01*
X-30933Y52067D01*
X-30933Y52067D01*
X-36761Y57896D01*
X-36759Y57897D01*
X-37080Y58171D01*
X-37439Y58391D01*
X-37828Y58552D01*
X-38237Y58650D01*
X-38657Y58683D01*
Y58681D01*
X-80500D01*
X-80517Y58679D01*
X-80843Y58721D01*
X-81162Y58854D01*
X-81436Y59064D01*
X-81646Y59338D01*
X-81779Y59657D01*
X-81821Y59983D01*
X-81819Y60000D01*
Y102000D01*
X-81821Y102017D01*
X-81779Y102343D01*
X-81646Y102662D01*
X-81436Y102936D01*
X-81162Y103146D01*
X-80843Y103279D01*
X-80517Y103321D01*
X-80500Y103319D01*
D02*
G37*
%LPC*%
G36*
X18587Y102742D02*
X17814D01*
Y101819D01*
X18587D01*
Y102742D01*
D02*
G37*
G36*
X17560D02*
X16787D01*
Y101819D01*
X17560D01*
Y102742D01*
D02*
G37*
G36*
X6377D02*
X5604D01*
Y101819D01*
X6377D01*
Y102742D01*
D02*
G37*
G36*
X5350D02*
X4577D01*
Y101819D01*
X5350D01*
Y102742D01*
D02*
G37*
G36*
X18587Y101565D02*
X17814D01*
Y100642D01*
X18587D01*
Y101565D01*
D02*
G37*
G36*
X17560D02*
X16787D01*
Y100642D01*
X17560D01*
Y101565D01*
D02*
G37*
G36*
X6377Y101565D02*
X5604D01*
Y100642D01*
X6377D01*
Y101565D01*
D02*
G37*
G36*
X5350D02*
X4577D01*
Y100642D01*
X5350D01*
Y101565D01*
D02*
G37*
G36*
X14562Y101687D02*
X13672D01*
Y100537D01*
X14562D01*
Y101687D01*
D02*
G37*
G36*
X9482D02*
X8592D01*
Y100537D01*
X9482D01*
Y101687D01*
D02*
G37*
G36*
X500Y100306D02*
X500Y100306D01*
X-69500D01*
X-69500Y100306D01*
X-69617Y100283D01*
X-69716Y100216D01*
X-69716Y100216D01*
X-72316Y97616D01*
X-72383Y97517D01*
X-72406Y97400D01*
X-72406Y97400D01*
Y75742D01*
X-72428Y75728D01*
X-72528Y75577D01*
X-72563Y75400D01*
X-72528Y75223D01*
X-72428Y75072D01*
X-72406Y75058D01*
Y67042D01*
X-72428Y67028D01*
X-72528Y66877D01*
X-72563Y66700D01*
X-72528Y66523D01*
X-72428Y66372D01*
X-72277Y66272D01*
X-72100Y66237D01*
X-71923Y66272D01*
X-71772Y66372D01*
X-71672Y66523D01*
X-71637Y66700D01*
X-71672Y66877D01*
X-71772Y67028D01*
X-71794Y67042D01*
Y75058D01*
X-71772Y75072D01*
X-71672Y75223D01*
X-71637Y75400D01*
X-71672Y75577D01*
X-71772Y75728D01*
X-71794Y75742D01*
Y93280D01*
X-71642Y93298D01*
X-71601Y93129D01*
X-71374Y92580D01*
X-71063Y92074D01*
X-70678Y91622D01*
X-70226Y91236D01*
X-69719Y90926D01*
X-69170Y90698D01*
X-68592Y90560D01*
X-68000Y90513D01*
X-67408Y90560D01*
X-66830Y90698D01*
X-66281Y90926D01*
X-65774Y91236D01*
X-65322Y91622D01*
X-64937Y92074D01*
X-64626Y92580D01*
X-64399Y93129D01*
X-64260Y93707D01*
X-64213Y94300D01*
X-64260Y94892D01*
X-64399Y95470D01*
X-64626Y96019D01*
X-64937Y96525D01*
X-65322Y96977D01*
X-65774Y97363D01*
X-66281Y97674D01*
X-66830Y97901D01*
X-67408Y98040D01*
X-68000Y98086D01*
X-68592Y98040D01*
X-69170Y97901D01*
X-69719Y97674D01*
X-70226Y97363D01*
X-70678Y96977D01*
X-71063Y96525D01*
X-71374Y96019D01*
X-71601Y95470D01*
X-71642Y95302D01*
X-71794Y95320D01*
Y97273D01*
X-69373Y99694D01*
X-36670D01*
X-36629Y99641D01*
X-36576Y99542D01*
X-36585Y99500D01*
Y99000D01*
X-37413D01*
Y97900D01*
Y96800D01*
X-36585D01*
Y91106D01*
X-36571Y91038D01*
X-36532Y90980D01*
X-35326Y89774D01*
X-35268Y89735D01*
X-35200Y89722D01*
X-25038Y89722D01*
Y87304D01*
X-25005Y87139D01*
X-24911Y86998D01*
X-24210Y86297D01*
X-24069Y86203D01*
X-23903Y86170D01*
X-3932D01*
X-3886Y86018D01*
X-3888Y86016D01*
X-4652Y85252D01*
X-4675Y85256D01*
X-4853Y85221D01*
X-4947Y85158D01*
X-5100Y85229D01*
Y85417D01*
X-6467D01*
X-6470Y85417D01*
X-6620D01*
X-6622Y85417D01*
X-7990D01*
Y85136D01*
X-8010Y84988D01*
X-8108Y84969D01*
X-8191Y84913D01*
X-8413Y84691D01*
X-8497Y84708D01*
X-8675Y84673D01*
X-8825Y84573D01*
X-8925Y84422D01*
X-8961Y84245D01*
X-8925Y84068D01*
X-8825Y83917D01*
X-8675Y83817D01*
X-8497Y83782D01*
X-8320Y83817D01*
X-8170Y83917D01*
X-8122Y83989D01*
X-7990Y84047D01*
X-7990Y84047D01*
X-7990Y84047D01*
X-6622D01*
X-6620Y84047D01*
X-6470D01*
X-6467Y84047D01*
X-5100D01*
Y84357D01*
X-4947Y84428D01*
X-4853Y84365D01*
X-4675Y84330D01*
X-4498Y84365D01*
X-4348Y84466D01*
X-4247Y84616D01*
X-4212Y84793D01*
X-4217Y84816D01*
X-3543Y85490D01*
X-1589D01*
X-1514Y85415D01*
X-1414Y85348D01*
X-1296Y85325D01*
X-988D01*
X-974Y85305D01*
X-824Y85205D01*
X-647Y85169D01*
X-470Y85205D01*
X-319Y85305D01*
X-219Y85455D01*
X-184Y85633D01*
X-219Y85810D01*
X-319Y85960D01*
X-405Y86018D01*
X-359Y86170D01*
X487D01*
X533Y86018D01*
X425Y85945D01*
X325Y85795D01*
X290Y85618D01*
X325Y85441D01*
X425Y85290D01*
X497Y85242D01*
Y83927D01*
X-1564Y81867D01*
X-6629D01*
X-6727Y81847D01*
X-6810Y81792D01*
X-8342Y80260D01*
X-8397Y80177D01*
X-8417Y80079D01*
Y69338D01*
X-10285Y67470D01*
X-10341Y67387D01*
X-10360Y67289D01*
Y59935D01*
X-10341Y59837D01*
X-10285Y59754D01*
X-8875Y58344D01*
X-8892Y58260D01*
X-8856Y58082D01*
X-8756Y57932D01*
X-8606Y57832D01*
X-8428Y57796D01*
X-8251Y57832D01*
X-8101Y57932D01*
X-8000Y58082D01*
X-7965Y58260D01*
X-8000Y58437D01*
X-8101Y58587D01*
X-8251Y58688D01*
X-8428Y58723D01*
X-8513Y58706D01*
X-9848Y60042D01*
Y67183D01*
X-7979Y69051D01*
X-7924Y69134D01*
X-7904Y69232D01*
Y79973D01*
X-6523Y81354D01*
X-1458D01*
X-1360Y81374D01*
X-1277Y81429D01*
X934Y83640D01*
X990Y83723D01*
X1009Y83821D01*
Y85242D01*
X1081Y85290D01*
X1097Y85314D01*
X1265Y85326D01*
X1858Y84733D01*
Y84295D01*
X3508D01*
Y84414D01*
X4010D01*
X4272Y84152D01*
X4255Y84068D01*
X4290Y83891D01*
X4391Y83740D01*
X4541Y83640D01*
X4718Y83605D01*
X4895Y83640D01*
X5046Y83740D01*
X5146Y83891D01*
X5181Y84068D01*
X5146Y84245D01*
X5046Y84395D01*
X4895Y84496D01*
X4718Y84531D01*
X4634Y84514D01*
X4297Y84851D01*
X4214Y84906D01*
X4116Y84926D01*
X3508D01*
Y85045D01*
X2271D01*
X1516Y85799D01*
X1433Y85854D01*
X1335Y85874D01*
X1128D01*
X1081Y85945D01*
X973Y86018D01*
X1019Y86170D01*
X4117D01*
X10127Y80159D01*
X10268Y80066D01*
X10434Y80033D01*
X17055D01*
X22597Y74491D01*
Y64183D01*
X22455D01*
Y64041D01*
X21800D01*
X21655Y64058D01*
Y64431D01*
X20930D01*
X20205D01*
Y64058D01*
X20230D01*
Y63133D01*
X20497D01*
Y62531D01*
X20359Y62393D01*
X19707D01*
X19705Y62393D01*
X19555D01*
X19553Y62393D01*
X18801D01*
X18665Y62528D01*
Y63133D01*
X18930D01*
Y64083D01*
X17530D01*
Y64083D01*
X17378Y64052D01*
X17280Y64071D01*
X17140Y64043D01*
X16905D01*
Y64183D01*
X15755D01*
Y64110D01*
X11077D01*
Y65862D01*
X11039Y66054D01*
X10930Y66217D01*
X10109Y67038D01*
X10026Y67162D01*
X9927Y67228D01*
Y67822D01*
X9989Y67890D01*
X10064Y67941D01*
X10153Y67923D01*
X10331Y67958D01*
X10481Y68059D01*
X10581Y68209D01*
X10617Y68386D01*
X10581Y68564D01*
X10510Y68671D01*
X10565Y68810D01*
X10577Y68824D01*
X10726D01*
X10728Y68824D01*
X10878D01*
X10881Y68824D01*
X11258D01*
Y68422D01*
X11236Y68407D01*
X11135Y68257D01*
X11100Y68080D01*
X11135Y67902D01*
X11236Y67752D01*
X11386Y67652D01*
X11563Y67616D01*
X11741Y67652D01*
X11891Y67752D01*
X11991Y67902D01*
X12027Y68080D01*
X11991Y68257D01*
X11891Y68407D01*
X11869Y68422D01*
Y68824D01*
X12248D01*
Y70194D01*
X10881D01*
X10878Y70194D01*
X10728D01*
X10726Y70194D01*
X9499D01*
X9417Y70346D01*
X9426Y70359D01*
X9461Y70536D01*
X9426Y70714D01*
X9325Y70864D01*
X9175Y70964D01*
X8998Y71000D01*
X8820Y70964D01*
X8670Y70864D01*
X8570Y70714D01*
X8534Y70536D01*
X8570Y70359D01*
X8670Y70209D01*
X8742Y70161D01*
Y68522D01*
X8761Y68424D01*
X8817Y68341D01*
X9415Y67743D01*
Y67309D01*
X8759D01*
X8677Y67462D01*
X8694Y67487D01*
X8729Y67665D01*
X8694Y67842D01*
X8594Y67992D01*
X8443Y68093D01*
X8266Y68128D01*
X8089Y68093D01*
X7938Y67992D01*
X7891Y67921D01*
X-3199D01*
X-3247Y67992D01*
X-3397Y68093D01*
X-3574Y68128D01*
X-3752Y68093D01*
X-3902Y67992D01*
X-4003Y67842D01*
X-4038Y67665D01*
X-4003Y67487D01*
X-3902Y67337D01*
X-3752Y67237D01*
X-3574Y67201D01*
X-3397Y67237D01*
X-3247Y67337D01*
X-3199Y67409D01*
X-2341D01*
X-2327Y67396D01*
X-2372Y67232D01*
X-2403Y67225D01*
X-2554Y67125D01*
X-2654Y66975D01*
X-2689Y66797D01*
X-2654Y66620D01*
X-2554Y66470D01*
X-2403Y66369D01*
X-2226Y66334D01*
X-2203Y66339D01*
X-2002Y66138D01*
Y65975D01*
X-2075D01*
Y64825D01*
X-2046D01*
Y64322D01*
X-2075Y64293D01*
X-2198Y64222D01*
X-2300Y64240D01*
X-2417Y64240D01*
X-2823D01*
Y63690D01*
X-2950D01*
Y63563D01*
X-3600D01*
Y63271D01*
X-3600Y63208D01*
X-3752Y63145D01*
X-5708Y65101D01*
X-5614Y65216D01*
X-5609Y65218D01*
X-5522Y65160D01*
X-5344Y65124D01*
X-5167Y65160D01*
X-5017Y65260D01*
X-4916Y65410D01*
X-4881Y65588D01*
X-4916Y65765D01*
X-5017Y65915D01*
X-5088Y65963D01*
Y69749D01*
X-4321Y70515D01*
X-4321Y70515D01*
X-4266Y70598D01*
X-4246Y70696D01*
Y73610D01*
X-3818D01*
Y74039D01*
X-3512D01*
X-3309Y73837D01*
X-3226Y73781D01*
X-3128Y73762D01*
X3109D01*
X3207Y73781D01*
X3291Y73837D01*
X3590Y74136D01*
X3645Y74219D01*
X3646Y74223D01*
X4305D01*
X4323Y74131D01*
X4379Y74048D01*
X5502Y72925D01*
X5502Y72925D01*
X5585Y72870D01*
X5683Y72850D01*
X5683Y72850D01*
X9356D01*
Y72421D01*
X9784D01*
Y72223D01*
X9713Y72175D01*
X9613Y72025D01*
X9577Y71848D01*
X9613Y71671D01*
X9713Y71520D01*
X9863Y71420D01*
X10041Y71385D01*
X10218Y71420D01*
X10368Y71520D01*
X10469Y71671D01*
X10504Y71848D01*
X10469Y72025D01*
X10368Y72175D01*
X10297Y72223D01*
Y72421D01*
X10726D01*
Y72421D01*
X10876D01*
Y72421D01*
X12246D01*
Y72800D01*
X12675D01*
X14992Y70484D01*
X14992Y70484D01*
X15091Y70417D01*
X15208Y70394D01*
X20258D01*
X20272Y70372D01*
X20423Y70272D01*
X20600Y70237D01*
X20751Y70267D01*
X21549D01*
X21700Y70237D01*
X21877Y70272D01*
X22028Y70372D01*
X22128Y70523D01*
X22163Y70700D01*
X22128Y70877D01*
X22028Y71028D01*
X21877Y71128D01*
X21700Y71163D01*
X21549Y71133D01*
X20906D01*
Y74500D01*
X20883Y74617D01*
X20816Y74716D01*
X16416Y79116D01*
X16317Y79183D01*
X16200Y79206D01*
X16200Y79206D01*
X13042D01*
X13028Y79228D01*
X12877Y79328D01*
X12700Y79363D01*
X12523Y79328D01*
X12372Y79228D01*
X12272Y79077D01*
X12237Y78900D01*
X12266Y78754D01*
X12184Y78601D01*
X11432D01*
X8137Y81897D01*
X8038Y81963D01*
X7921Y81986D01*
X7921Y81986D01*
X7594D01*
X7580Y82008D01*
X7429Y82108D01*
X7252Y82144D01*
X7075Y82108D01*
X6924Y82008D01*
X6824Y81858D01*
X6789Y81680D01*
X6824Y81503D01*
X6924Y81353D01*
X7075Y81252D01*
X7252Y81217D01*
X7429Y81252D01*
X7580Y81353D01*
X7594Y81374D01*
X7794D01*
X11089Y78079D01*
X11089Y78079D01*
X11188Y78013D01*
X11305Y77990D01*
X12950D01*
X12950Y77990D01*
X12983Y77996D01*
X15071D01*
X18892Y74176D01*
X18887Y74150D01*
X18922Y73973D01*
X19022Y73822D01*
X19173Y73722D01*
X19350Y73687D01*
X19527Y73722D01*
X19678Y73822D01*
X19778Y73973D01*
X19813Y74150D01*
X19778Y74327D01*
X19678Y74478D01*
X19527Y74578D01*
X19350Y74613D01*
X19324Y74608D01*
X15491Y78442D01*
X15554Y78594D01*
X16073D01*
X20294Y74373D01*
Y71042D01*
X20272Y71028D01*
X20258Y71006D01*
X15335D01*
X13018Y73323D01*
X12919Y73389D01*
X12802Y73412D01*
X12802Y73412D01*
X12246D01*
Y73791D01*
X11866D01*
Y74121D01*
X12246D01*
Y75491D01*
X11866D01*
Y76894D01*
X11866Y76894D01*
X11843Y77011D01*
X11777Y77110D01*
X11777Y77110D01*
X10173Y78714D01*
X10074Y78780D01*
X9957Y78804D01*
X9957Y78804D01*
X8161D01*
Y79121D01*
X7511D01*
Y79248D01*
X7384D01*
Y79798D01*
X6861D01*
Y79798D01*
X6836Y79773D01*
X5586D01*
Y79004D01*
X5535Y78873D01*
X3585D01*
Y78218D01*
X3433Y78154D01*
X3168Y78419D01*
Y80348D01*
X3149Y80446D01*
X3093Y80529D01*
X2755Y80867D01*
X2672Y80923D01*
X2574Y80942D01*
X2470D01*
X2470Y81354D01*
X2495Y81496D01*
X2495Y81513D01*
Y82079D01*
X1785D01*
X1075D01*
Y81513D01*
X1075Y81496D01*
X1100Y81354D01*
X1100Y80942D01*
X-6342D01*
X-6441Y80923D01*
X-6524Y80867D01*
X-6524Y80867D01*
X-7107Y80284D01*
X-7163Y80201D01*
X-7182Y80103D01*
Y68126D01*
X-7253Y68078D01*
X-7354Y67928D01*
X-7389Y67751D01*
X-7354Y67573D01*
X-7253Y67423D01*
X-7103Y67323D01*
X-6926Y67287D01*
X-6749Y67323D01*
X-6598Y67423D01*
X-6530Y67526D01*
X-6377Y67480D01*
Y65027D01*
X-6354Y64909D01*
X-6287Y64809D01*
X-3482Y62004D01*
X-3382Y61937D01*
X-3264Y61913D01*
X-2541D01*
X-2523Y61823D01*
X-2459Y61727D01*
X-2363Y61663D01*
X-2250Y61641D01*
X-2137Y61663D01*
X-2111Y61680D01*
X-2000Y61715D01*
X-1889Y61680D01*
X-1863Y61663D01*
X-1801Y61651D01*
X-1667Y61561D01*
X-1475Y61523D01*
X-1283Y61561D01*
X-1120Y61670D01*
X-1115Y61678D01*
X-1111Y61680D01*
X-1000Y61715D01*
X-889Y61680D01*
X-863Y61663D01*
X-750Y61641D01*
X-637Y61663D01*
X-611Y61680D01*
X-500Y61715D01*
X-389Y61680D01*
X-363Y61663D01*
X-250Y61641D01*
X-137Y61663D01*
X-111Y61680D01*
X0Y61715D01*
X111Y61680D01*
X137Y61663D01*
X250Y61641D01*
X363Y61663D01*
X389Y61680D01*
X500Y61715D01*
X611Y61680D01*
X637Y61663D01*
X750Y61641D01*
X863Y61663D01*
X889Y61680D01*
X1000Y61715D01*
X1111Y61680D01*
X1137Y61663D01*
X1250Y61641D01*
X1363Y61663D01*
X1389Y61680D01*
X1500Y61715D01*
X1611Y61680D01*
X1637Y61663D01*
X1750Y61641D01*
X1863Y61663D01*
X1889Y61680D01*
X2041Y61727D01*
X2137Y61663D01*
X2250Y61641D01*
X2271Y61645D01*
X2399Y61517D01*
X2394Y61496D01*
X2417Y61383D01*
X2434Y61357D01*
X2481Y61205D01*
X2417Y61109D01*
X2394Y60996D01*
X2417Y60883D01*
X2434Y60857D01*
X2481Y60705D01*
X2417Y60609D01*
X2394Y60496D01*
X2417Y60383D01*
X2434Y60357D01*
X2481Y60205D01*
X2417Y60109D01*
X2394Y59996D01*
X2417Y59883D01*
X2434Y59857D01*
X2481Y59705D01*
X2417Y59609D01*
X2394Y59496D01*
X2417Y59383D01*
X2434Y59357D01*
X2481Y59205D01*
X2417Y59109D01*
X2394Y58996D01*
X2417Y58883D01*
X2434Y58857D01*
X2481Y58705D01*
X2417Y58609D01*
X2394Y58496D01*
X2417Y58383D01*
X2434Y58357D01*
X2481Y58205D01*
X2417Y58109D01*
X2394Y57996D01*
X2417Y57883D01*
X2434Y57857D01*
X2481Y57705D01*
X2417Y57609D01*
X2394Y57496D01*
X2417Y57383D01*
X2434Y57357D01*
X2481Y57205D01*
X2417Y57109D01*
X2394Y56996D01*
X2398Y56975D01*
X2271Y56848D01*
X2250Y56852D01*
X2137Y56829D01*
X2111Y56812D01*
X2000Y56778D01*
X1889Y56812D01*
X1863Y56829D01*
X1750Y56852D01*
X1637Y56829D01*
X1611Y56812D01*
X1500Y56778D01*
X1389Y56812D01*
X1363Y56829D01*
X1250Y56852D01*
X1137Y56829D01*
X1111Y56812D01*
X959Y56765D01*
X863Y56829D01*
X750Y56852D01*
X637Y56829D01*
X611Y56812D01*
X459Y56765D01*
X363Y56829D01*
X250Y56852D01*
X137Y56829D01*
X111Y56812D01*
X-41Y56765D01*
X-137Y56829D01*
X-250Y56852D01*
X-363Y56829D01*
X-389Y56812D01*
X-500Y56778D01*
X-611Y56812D01*
X-637Y56829D01*
X-750Y56852D01*
X-863Y56829D01*
X-959Y56765D01*
X-1023Y56669D01*
X-1046Y56556D01*
Y56323D01*
X-1056Y56271D01*
Y55450D01*
X-1534D01*
X-1592Y55591D01*
X-1569Y55614D01*
X-1513Y55697D01*
X-1494Y55795D01*
Y55848D01*
X-1477Y55873D01*
X-1454Y55986D01*
Y56556D01*
X-1477Y56669D01*
X-1541Y56765D01*
X-1637Y56829D01*
X-1750Y56852D01*
X-1863Y56829D01*
X-1889Y56812D01*
X-2000Y56778D01*
X-2111Y56812D01*
X-2137Y56829D01*
X-2250Y56852D01*
X-2271Y56848D01*
X-2399Y56975D01*
X-2394Y56996D01*
X-2417Y57109D01*
X-2434Y57135D01*
X-2481Y57287D01*
X-2417Y57383D01*
X-2394Y57496D01*
X-2417Y57609D01*
X-2434Y57635D01*
X-2481Y57787D01*
X-2417Y57883D01*
X-2394Y57996D01*
X-2417Y58109D01*
X-2434Y58135D01*
X-2481Y58287D01*
X-2417Y58383D01*
X-2394Y58496D01*
X-2417Y58609D01*
X-2434Y58635D01*
X-2481Y58787D01*
X-2417Y58883D01*
X-2394Y58996D01*
X-2417Y59109D01*
X-2434Y59135D01*
X-2481Y59287D01*
X-2417Y59383D01*
X-2394Y59496D01*
X-2417Y59609D01*
X-2481Y59705D01*
X-2577Y59769D01*
X-2690Y59792D01*
X-3260D01*
X-3373Y59769D01*
X-3399Y59752D01*
X-3541D01*
X-3639Y59733D01*
X-3722Y59677D01*
X-3722Y59677D01*
X-3813Y59586D01*
X-3971D01*
X-4069Y59567D01*
X-4152Y59511D01*
X-4434Y59229D01*
X-4575Y59288D01*
Y60188D01*
X-2975D01*
X-2913Y60201D01*
X-2690D01*
X-2577Y60223D01*
X-2481Y60287D01*
X-2417Y60383D01*
X-2394Y60496D01*
X-2417Y60609D01*
X-2434Y60635D01*
X-2481Y60787D01*
X-2417Y60883D01*
X-2394Y60996D01*
X-2417Y61109D01*
X-2481Y61205D01*
X-2577Y61269D01*
X-2690Y61292D01*
X-2913D01*
X-2975Y61304D01*
X-4431D01*
X-4575Y61325D01*
Y62775D01*
X-5478D01*
X-5612Y62820D01*
Y63870D01*
X-6745D01*
X-6887Y63895D01*
X-7004Y63895D01*
X-7410D01*
Y63345D01*
Y62795D01*
X-6969Y62795D01*
X-6881Y62783D01*
X-6825Y62668D01*
Y61554D01*
X-6976Y61551D01*
X-6977Y61551D01*
X-7399D01*
Y60901D01*
X-7526D01*
Y60774D01*
X-8076D01*
Y60368D01*
X-8076Y60251D01*
X-8051Y60109D01*
Y58976D01*
X-7001D01*
Y59242D01*
X-6825D01*
Y58825D01*
X-5038D01*
X-4979Y58684D01*
X-5171Y58492D01*
X-6378D01*
X-6476Y58473D01*
X-6559Y58417D01*
X-7153Y57823D01*
X-7242Y57841D01*
X-7419Y57806D01*
X-7570Y57706D01*
X-7670Y57555D01*
X-7705Y57378D01*
X-7670Y57201D01*
X-7570Y57050D01*
X-7500Y57004D01*
Y54044D01*
X-7571Y53996D01*
X-7672Y53846D01*
X-7707Y53669D01*
X-7672Y53491D01*
X-7571Y53341D01*
X-7421Y53241D01*
X-7244Y53205D01*
X-7066Y53241D01*
X-6916Y53341D01*
X-6816Y53491D01*
X-6780Y53669D01*
X-6816Y53846D01*
X-6916Y53996D01*
X-6987Y54044D01*
Y57002D01*
X-6914Y57050D01*
X-6814Y57201D01*
X-6779Y57378D01*
X-6795Y57457D01*
X-6272Y57980D01*
X-6028D01*
X-5982Y57827D01*
X-5982Y57827D01*
X-6083Y57677D01*
X-6118Y57500D01*
X-6083Y57323D01*
X-5982Y57172D01*
X-5832Y57072D01*
X-5655Y57037D01*
X-5477Y57072D01*
X-5327Y57172D01*
X-5279Y57244D01*
X-5105D01*
X-5042Y57091D01*
X-5866Y56266D01*
X-5893Y56227D01*
X-5919Y56188D01*
X-5919Y56188D01*
X-5919Y56188D01*
X-5928Y56141D01*
X-5937Y56095D01*
X-5942Y51385D01*
X-6028Y51328D01*
X-6128Y51177D01*
X-6163Y51000D01*
X-6128Y50823D01*
X-6028Y50672D01*
X-5877Y50572D01*
X-5700Y50537D01*
X-5523Y50572D01*
X-5372Y50672D01*
X-5272Y50823D01*
X-5237Y51000D01*
X-5272Y51177D01*
X-5372Y51328D01*
X-5457Y51384D01*
X-5453Y55995D01*
X-5083Y56365D01*
X-4942Y56306D01*
Y50685D01*
X-5028Y50628D01*
X-5128Y50477D01*
X-5163Y50300D01*
X-5128Y50123D01*
X-5028Y49972D01*
X-4877Y49872D01*
X-4700Y49837D01*
X-4523Y49872D01*
X-4372Y49972D01*
X-4272Y50123D01*
X-4237Y50300D01*
X-4272Y50477D01*
X-4372Y50628D01*
X-4458Y50685D01*
Y56500D01*
X-4083Y56874D01*
X-3942Y56816D01*
Y51385D01*
X-4028Y51328D01*
X-4128Y51177D01*
X-4163Y51000D01*
X-4128Y50823D01*
X-4028Y50672D01*
X-3877Y50572D01*
X-3700Y50537D01*
X-3523Y50572D01*
X-3372Y50672D01*
X-3272Y50823D01*
X-3237Y51000D01*
X-3272Y51177D01*
X-3372Y51328D01*
X-3458Y51385D01*
Y54994D01*
X-3305Y55076D01*
X-3259Y55044D01*
X-3081Y55009D01*
X-2904Y55044D01*
X-2898Y55049D01*
X-2745Y54967D01*
Y53529D01*
X-2854D01*
Y52160D01*
X-2571D01*
X-2531Y52087D01*
X-2509Y52007D01*
X-2597Y51876D01*
X-2632Y51698D01*
X-2597Y51521D01*
X-2497Y51371D01*
X-2346Y51270D01*
X-2169Y51235D01*
X-1992Y51270D01*
X-1842Y51371D01*
X-1741Y51521D01*
X-1706Y51698D01*
X-1741Y51876D01*
X-1829Y52007D01*
X-1808Y52087D01*
X-1767Y52160D01*
X-1484D01*
Y52160D01*
X-1359Y52134D01*
Y52135D01*
X-776D01*
Y52845D01*
X-649D01*
Y52972D01*
X61D01*
Y53555D01*
X-57D01*
X-82Y53587D01*
X-124Y53707D01*
X-47Y53823D01*
X-12Y54000D01*
X-47Y54177D01*
X-77Y54223D01*
X4Y54375D01*
X275D01*
Y54809D01*
X370Y54851D01*
X427Y54864D01*
X566Y54771D01*
X744Y54736D01*
X921Y54771D01*
X992Y54818D01*
X1144Y54737D01*
Y54169D01*
X1319D01*
Y53921D01*
X867D01*
Y52871D01*
X1167D01*
Y49656D01*
X1127Y49520D01*
X1127Y49520D01*
Y49520D01*
X1015Y49509D01*
X1012Y49524D01*
X993Y49621D01*
X892Y49771D01*
X742Y49872D01*
X565Y49907D01*
X387Y49872D01*
X237Y49771D01*
X137Y49621D01*
X101Y49444D01*
X137Y49266D01*
X237Y49116D01*
X315Y49064D01*
Y48749D01*
X-352Y48082D01*
X-406Y48001D01*
X-425Y47905D01*
Y44008D01*
X-577Y43856D01*
X-631Y43775D01*
X-645Y43705D01*
X-1125D01*
Y42655D01*
X-25D01*
X-25Y42655D01*
X25D01*
Y42655D01*
X127Y42655D01*
X1125D01*
Y43705D01*
X643D01*
X631Y43769D01*
X577Y43850D01*
X419Y44008D01*
Y47568D01*
X1594Y48743D01*
X1648Y48824D01*
X1667Y48920D01*
Y52764D01*
X1775Y52871D01*
X1850D01*
X1992Y52846D01*
X2109Y52846D01*
X2440D01*
Y53396D01*
Y53946D01*
X2109D01*
X1992Y53946D01*
X1971Y53943D01*
X1941Y53961D01*
X1922Y54030D01*
X1996Y54144D01*
X2242D01*
Y54544D01*
Y54944D01*
X1919D01*
X1819Y55055D01*
Y55414D01*
X1800Y55509D01*
X1778Y55542D01*
X1819Y55680D01*
X1843Y55709D01*
X1863Y55713D01*
X1889Y55730D01*
X2041Y55777D01*
X2137Y55713D01*
X2250Y55691D01*
X2363Y55713D01*
X2425Y55754D01*
X3458Y54721D01*
Y51385D01*
X3372Y51328D01*
X3272Y51177D01*
X3237Y51000D01*
X3272Y50823D01*
X3372Y50672D01*
X3523Y50572D01*
X3700Y50537D01*
X3877Y50572D01*
X4028Y50672D01*
X4128Y50823D01*
X4163Y51000D01*
X4128Y51177D01*
X4028Y51328D01*
X3942Y51385D01*
Y54821D01*
X3924Y54914D01*
X3871Y54993D01*
X2546Y56318D01*
Y56556D01*
X2541Y56577D01*
X2669Y56705D01*
X2690Y56701D01*
X3257D01*
X4458Y55500D01*
Y50685D01*
X4372Y50628D01*
X4272Y50477D01*
X4237Y50300D01*
X4272Y50123D01*
X4372Y49972D01*
X4523Y49872D01*
X4700Y49837D01*
X4877Y49872D01*
X5028Y49972D01*
X5128Y50123D01*
X5163Y50300D01*
X5128Y50477D01*
X5028Y50628D01*
X4942Y50685D01*
Y55306D01*
X5083Y55365D01*
X5458Y54990D01*
Y51385D01*
X5372Y51328D01*
X5272Y51177D01*
X5237Y51000D01*
X5272Y50823D01*
X5372Y50672D01*
X5523Y50572D01*
X5700Y50537D01*
X5877Y50572D01*
X6028Y50672D01*
X6128Y50823D01*
X6163Y51000D01*
X6128Y51177D01*
X6028Y51328D01*
X5942Y51385D01*
Y55100D01*
X5924Y55193D01*
X5871Y55271D01*
X5842Y55291D01*
X3563Y57569D01*
X3589Y57667D01*
X3641Y57722D01*
X4880D01*
X4940Y57632D01*
X5099Y57526D01*
X5286Y57489D01*
X5473Y57526D01*
X5632Y57632D01*
X5738Y57791D01*
X5775Y57978D01*
X5738Y58165D01*
X5632Y58324D01*
X5473Y58430D01*
X5286Y58467D01*
X5099Y58430D01*
X4940Y58324D01*
X4880Y58234D01*
X4329D01*
X4268Y58349D01*
X4263Y58386D01*
X4296Y58551D01*
X4261Y58728D01*
X4160Y58878D01*
X4010Y58979D01*
X3833Y59014D01*
X3768Y59001D01*
X3618Y59097D01*
X3735Y59240D01*
X4182D01*
X4230Y59169D01*
X4380Y59068D01*
X4557Y59033D01*
X4735Y59068D01*
X4771Y59093D01*
X4924Y59011D01*
Y58818D01*
X6277Y58818D01*
X6419Y58793D01*
X6436Y58793D01*
X7002D01*
Y59503D01*
X7129D01*
Y59630D01*
X7839D01*
Y60117D01*
X7839Y60213D01*
X7968Y60269D01*
X8432D01*
X8446Y60248D01*
X8597Y60147D01*
X8774Y60112D01*
X8951Y60147D01*
X9102Y60248D01*
X9202Y60398D01*
X9237Y60575D01*
X9202Y60752D01*
X9102Y60903D01*
X8951Y61003D01*
X8774Y61038D01*
X8597Y61003D01*
X8446Y60903D01*
X8432Y60881D01*
X7533D01*
X7487Y61033D01*
X7521Y61057D01*
X9043Y62578D01*
X9128Y62562D01*
X9305Y62597D01*
X9455Y62697D01*
X9556Y62848D01*
X9591Y63025D01*
X9556Y63202D01*
X9455Y63353D01*
X9305Y63453D01*
X9128Y63488D01*
X8950Y63453D01*
X8800Y63353D01*
X8700Y63202D01*
X8664Y63025D01*
X8681Y62941D01*
X7234Y61494D01*
X4567D01*
X4469Y61474D01*
X4386Y61419D01*
X3763Y60796D01*
X3639Y60803D01*
X3544Y60939D01*
X3556Y60996D01*
X3536Y61096D01*
X3534Y61111D01*
X3614Y61260D01*
X3616Y61260D01*
X3697Y61315D01*
X4448Y62065D01*
X4503Y62149D01*
X4523Y62247D01*
Y62353D01*
X4635Y62467D01*
X4768Y62465D01*
X4845Y62371D01*
X4880Y62194D01*
X4981Y62043D01*
X5131Y61943D01*
X5309Y61908D01*
X5486Y61943D01*
X5636Y62043D01*
X5737Y62194D01*
X5772Y62371D01*
X5861Y62480D01*
X5991D01*
X5994Y62480D01*
X6144D01*
X6146Y62480D01*
X7514D01*
Y63488D01*
X8038Y64012D01*
X10073D01*
Y63608D01*
Y61131D01*
X9800Y60858D01*
X9691Y60696D01*
X9653Y60503D01*
Y56125D01*
X8221Y54693D01*
X8112Y54530D01*
X8074Y54338D01*
X8112Y54146D01*
X8221Y53983D01*
X8384Y53874D01*
X8576Y53836D01*
X8768Y53874D01*
X8931Y53983D01*
X10510Y55562D01*
X10619Y55725D01*
X10657Y55917D01*
Y60295D01*
X10930Y60568D01*
X11039Y60731D01*
X11077Y60923D01*
X11077Y60923D01*
Y63106D01*
X15755D01*
Y63033D01*
X16905D01*
Y63173D01*
X17140D01*
X17280Y63145D01*
X17378Y63164D01*
X17530Y63133D01*
Y63133D01*
X17795D01*
Y62348D01*
X17828Y62181D01*
X17922Y62040D01*
X18185Y61777D01*
Y61023D01*
X19553D01*
X19555Y61023D01*
X19705D01*
X19707Y61023D01*
X21075D01*
Y61780D01*
X21236Y61942D01*
X21330Y62082D01*
X21363Y62248D01*
Y63133D01*
X21630D01*
Y63175D01*
X22455D01*
Y63033D01*
X23605D01*
Y64183D01*
X23463D01*
Y74670D01*
X23430Y74836D01*
X23336Y74976D01*
X17541Y80772D01*
X17400Y80866D01*
X17234Y80899D01*
X10613D01*
X4791Y86722D01*
X4840Y86795D01*
X4863Y86912D01*
X4863Y86912D01*
Y89137D01*
X4882Y89282D01*
X5015Y89282D01*
X5180D01*
Y90005D01*
X4882D01*
Y89748D01*
X4730Y89686D01*
X3892Y90523D01*
X3793Y90589D01*
X3676Y90613D01*
X3676Y90613D01*
X2813D01*
Y90992D01*
X1446D01*
X1443Y90992D01*
X1293D01*
X1291Y90992D01*
X-77D01*
Y89622D01*
X378D01*
Y89148D01*
X-32D01*
Y88739D01*
X-283D01*
X-331Y88810D01*
X-481Y88911D01*
X-659Y88946D01*
X-836Y88911D01*
X-986Y88810D01*
X-1087Y88660D01*
X-1122Y88483D01*
X-1087Y88306D01*
X-986Y88155D01*
X-836Y88055D01*
X-659Y88020D01*
X-481Y88055D01*
X-331Y88155D01*
X-283Y88227D01*
X-32D01*
Y87778D01*
X1336D01*
X1338Y87778D01*
X1488D01*
X1490Y87778D01*
X2858D01*
Y88152D01*
X3030D01*
X3078Y88081D01*
X3228Y87981D01*
X3406Y87945D01*
X3583Y87981D01*
X3733Y88081D01*
X3834Y88231D01*
X3869Y88409D01*
X3834Y88586D01*
X3733Y88736D01*
X3583Y88837D01*
X3406Y88872D01*
X3228Y88837D01*
X3078Y88736D01*
X3030Y88665D01*
X2858D01*
Y89148D01*
X1490D01*
X1488Y89148D01*
X1338D01*
X1336Y89148D01*
X890D01*
Y89622D01*
X1291D01*
X1293Y89622D01*
X1443D01*
X1446Y89622D01*
X2813D01*
Y90001D01*
X3549D01*
X4251Y89299D01*
Y87835D01*
X4099Y87754D01*
X4084Y87764D01*
X3907Y87799D01*
X3729Y87764D01*
X3579Y87663D01*
X3531Y87592D01*
X-16717D01*
Y88888D01*
X-17124D01*
Y89573D01*
X-16980Y89699D01*
X-16620D01*
X-16505Y89722D01*
X-16407Y89787D01*
X-16342Y89885D01*
X-16319Y90000D01*
X-16342Y90115D01*
X-16357Y90138D01*
X-16395Y90250D01*
X-16357Y90362D01*
X-16342Y90385D01*
X-16319Y90500D01*
X-16342Y90615D01*
X-16357Y90638D01*
X-16395Y90750D01*
X-16357Y90862D01*
X-16342Y90885D01*
X-16319Y91000D01*
X-16342Y91115D01*
X-16274Y91253D01*
X-16268Y91262D01*
X-16260Y91269D01*
X-16249Y91290D01*
X-16235Y91311D01*
X-16233Y91321D01*
X-16228Y91331D01*
X-16226Y91355D01*
X-16222Y91379D01*
Y92121D01*
X-16224Y92132D01*
X-16223Y92144D01*
X-16231Y92166D01*
X-16235Y92189D01*
X-16242Y92199D01*
X-16245Y92210D01*
X-16261Y92228D01*
X-16274Y92247D01*
X-16283Y92254D01*
X-16291Y92262D01*
X-16325Y92288D01*
X-16292Y92438D01*
X-16251Y92499D01*
X-16207Y92723D01*
Y94493D01*
X-16251Y94717D01*
X-16378Y94908D01*
X-17064Y95593D01*
Y95825D01*
X-16475D01*
Y97975D01*
X-18825D01*
Y95825D01*
X-18236D01*
Y95350D01*
X-18192Y95126D01*
X-18065Y94935D01*
X-17379Y94250D01*
Y92735D01*
X-17425Y92692D01*
X-17507Y92640D01*
X-17796Y92847D01*
X-17815Y92855D01*
X-17832Y92866D01*
X-17846Y92869D01*
X-17860Y92875D01*
X-17880Y92876D01*
X-17900Y92880D01*
X-18090D01*
X-18150Y93023D01*
X-18700D01*
X-19250D01*
X-19310Y92880D01*
X-19777D01*
X-19822Y92880D01*
X-19874Y92961D01*
X-19898Y93013D01*
X-19900Y93021D01*
X-19900Y93116D01*
Y93673D01*
X-20900D01*
X-21900D01*
Y93129D01*
X-21900Y93021D01*
X-21902Y93013D01*
X-21926Y92961D01*
X-21978Y92880D01*
X-22023Y92880D01*
X-33025D01*
X-33428Y93283D01*
X-33428Y99500D01*
X-33436Y99542D01*
X-33384Y99641D01*
X-33342Y99694D01*
X373D01*
X1794Y98273D01*
Y94578D01*
X950D01*
Y94923D01*
X400D01*
X-150D01*
Y94578D01*
X-657D01*
X-800Y94600D01*
X-800Y94731D01*
Y95273D01*
X-1800D01*
X-2800D01*
X-2800Y94600D01*
X-2943Y94578D01*
X-11353D01*
X-11386Y94572D01*
X-11420Y94565D01*
X-11420Y94565D01*
X-11421Y94565D01*
X-11449Y94546D01*
X-11478Y94527D01*
X-13261Y92767D01*
X-13414Y92830D01*
Y94357D01*
X-12735Y95035D01*
X-12608Y95226D01*
X-12564Y95450D01*
Y95825D01*
X-11975D01*
Y97975D01*
X-14325D01*
Y95825D01*
X-13785D01*
X-13757Y95673D01*
X-14415Y95015D01*
X-14542Y94824D01*
X-14586Y94600D01*
Y93000D01*
Y92723D01*
X-14542Y92499D01*
X-14525Y92474D01*
X-14525Y92474D01*
X-14518Y92453D01*
X-14512Y92318D01*
X-14524Y92305D01*
X-14540Y92295D01*
X-14549Y92281D01*
X-14561Y92269D01*
X-14568Y92252D01*
X-14578Y92237D01*
X-14582Y92220D01*
X-14588Y92205D01*
X-14588Y92187D01*
X-14592Y92169D01*
X-14592Y91409D01*
X-14588Y91390D01*
X-14588Y91370D01*
X-14581Y91356D01*
X-14578Y91341D01*
X-14567Y91324D01*
X-14559Y91306D01*
X-14509Y91235D01*
X-14508Y91234D01*
X-14508Y91233D01*
X-14488Y91215D01*
X-14483Y91207D01*
X-14458Y91115D01*
X-14481Y91000D01*
X-14458Y90885D01*
X-14393Y90787D01*
X-14295Y90722D01*
X-14180Y90699D01*
X-14026D01*
X-14000Y90694D01*
X-12792D01*
X-12792Y90694D01*
X-12767Y90699D01*
X-12614Y90589D01*
Y90306D01*
X-14000D01*
X-14026Y90301D01*
X-14180D01*
X-14295Y90278D01*
X-14393Y90213D01*
X-14458Y90115D01*
X-14481Y90000D01*
X-14458Y89885D01*
X-14393Y89787D01*
X-14295Y89722D01*
X-14180Y89699D01*
X-14026D01*
X-14000Y89694D01*
X-12774D01*
X-12639Y89653D01*
X-12639Y89536D01*
Y89130D01*
X-12089D01*
X-11539D01*
Y89536D01*
X-11539Y89653D01*
X-11564Y89795D01*
Y90849D01*
X-11186D01*
X-11078Y90742D01*
X-11078Y90422D01*
X-11078Y90270D01*
Y89122D01*
X-11078D01*
X-11025Y88970D01*
X-11030Y88944D01*
X-10995Y88767D01*
X-10895Y88617D01*
X-10744Y88516D01*
X-10567Y88481D01*
X-10390Y88516D01*
X-10239Y88617D01*
X-10139Y88767D01*
X-10104Y88944D01*
X-10109Y88970D01*
X-10028Y89122D01*
X-10028D01*
Y90270D01*
X-10028Y90372D01*
X-9948Y90491D01*
X-9685D01*
X-9685Y90192D01*
X-9710Y90050D01*
X-9710Y90033D01*
Y89467D01*
X-9000D01*
X-8290D01*
Y90033D01*
X-8290Y90050D01*
X-8315Y90192D01*
X-8315Y90554D01*
X-7725D01*
Y90425D01*
X-6621D01*
X-6552Y90425D01*
X-6489Y90420D01*
X-6420Y90353D01*
X-6399Y90328D01*
X-6394Y90261D01*
X-6406Y90200D01*
X-6406Y90200D01*
Y89899D01*
X-6475Y89775D01*
X-7725D01*
Y88925D01*
X-6475D01*
X-6450Y89044D01*
X-6333Y89067D01*
X-6234Y89134D01*
X-5977Y89390D01*
X-5825Y89327D01*
Y89175D01*
X-5825D01*
X-5747Y89080D01*
X-5763Y89000D01*
X-5728Y88823D01*
X-5628Y88672D01*
X-5477Y88572D01*
X-5300Y88537D01*
X-5123Y88572D01*
X-4972Y88672D01*
X-4872Y88823D01*
X-4837Y89000D01*
X-4853Y89080D01*
X-4775Y89175D01*
X-4775D01*
Y90275D01*
X-4775Y90275D01*
Y90325D01*
X-4775D01*
X-4775Y90427D01*
Y91425D01*
X-5123D01*
X-5152Y91469D01*
X-5071Y91622D01*
X2090D01*
X2090Y91622D01*
X2693Y91622D01*
X2761Y91635D01*
X2819Y91674D01*
X3967Y92822D01*
X4882D01*
Y92259D01*
X5307D01*
X5732D01*
Y92822D01*
X17422Y92822D01*
Y92259D01*
X17847D01*
X18272D01*
Y92822D01*
X19526D01*
X24374Y87974D01*
X24432Y87935D01*
X24500Y87922D01*
X37800D01*
X37868Y87935D01*
X37926Y87974D01*
X38032Y87931D01*
X38100Y87918D01*
X52154Y87918D01*
X52222Y87931D01*
X52280Y87970D01*
X52319Y88028D01*
X52332Y88096D01*
X52332Y90700D01*
X52319Y90768D01*
X52280Y90826D01*
X52222Y90865D01*
X52154Y90878D01*
X49718D01*
X49685Y90880D01*
X49666Y90892D01*
X49630Y90951D01*
X49603Y91007D01*
X49600Y91016D01*
X49600Y91120D01*
Y91673D01*
X48600D01*
X47600D01*
Y91125D01*
X47600Y91022D01*
X47597Y91011D01*
X47566Y90944D01*
X47533Y90890D01*
X47510Y90878D01*
X47510Y90878D01*
X47481Y90878D01*
X38100Y90878D01*
X38032Y90865D01*
X37926Y90826D01*
X37868Y90865D01*
X37800Y90878D01*
X25624D01*
X20776Y95726D01*
X20718Y95765D01*
X20650Y95778D01*
X3692Y95778D01*
X3688Y95778D01*
X3684Y95778D01*
X3654Y95771D01*
X3623Y95765D01*
X3620Y95763D01*
X3616Y95762D01*
X3591Y95743D01*
X3565Y95726D01*
X3563Y95723D01*
X3560Y95721D01*
X2558Y94628D01*
X2406Y94687D01*
Y98400D01*
X2383Y98517D01*
X2316Y98616D01*
X2316Y98616D01*
X716Y100216D01*
X617Y100283D01*
X500Y100306D01*
D02*
G37*
G36*
X-37667Y99000D02*
X-38640D01*
Y98027D01*
X-37667D01*
Y99000D01*
D02*
G37*
G36*
X-47723Y98591D02*
Y97777D01*
X-46909D01*
X-46924Y97898D01*
X-47020Y98129D01*
X-47172Y98328D01*
X-47371Y98480D01*
X-47602Y98576D01*
X-47723Y98591D01*
D02*
G37*
G36*
X-47977Y98591D02*
X-48098Y98576D01*
X-48329Y98480D01*
X-48528Y98328D01*
X-48680Y98129D01*
X-48776Y97898D01*
X-48791Y97777D01*
X-47977D01*
Y98591D01*
D02*
G37*
G36*
X-6850Y97150D02*
X-7002Y97150D01*
X-7873D01*
Y96300D01*
Y95450D01*
X-7002D01*
X-6850Y95450D01*
X-6698Y95450D01*
X-5827D01*
Y96300D01*
Y97150D01*
X-6698D01*
X-6850Y97150D01*
D02*
G37*
G36*
X-37667Y97773D02*
X-38640D01*
Y96800D01*
X-37667D01*
Y97773D01*
D02*
G37*
G36*
X-43350Y98583D02*
X-43591Y98551D01*
X-43816Y98458D01*
X-44010Y98310D01*
X-44158Y98116D01*
X-44251Y97891D01*
X-44283Y97650D01*
X-44251Y97409D01*
X-44158Y97184D01*
X-44010Y96990D01*
X-43816Y96842D01*
X-43591Y96749D01*
X-43350Y96717D01*
X-43109Y96749D01*
X-42884Y96842D01*
X-42690Y96990D01*
X-42542Y97184D01*
X-42449Y97409D01*
X-42417Y97650D01*
X-42449Y97891D01*
X-42542Y98116D01*
X-42690Y98310D01*
X-42884Y98458D01*
X-43109Y98551D01*
X-43350Y98583D01*
D02*
G37*
G36*
X-47977Y97523D02*
X-48791D01*
X-48776Y97402D01*
X-48680Y97171D01*
X-48528Y96972D01*
X-48329Y96820D01*
X-48098Y96724D01*
X-47977Y96709D01*
Y97523D01*
D02*
G37*
G36*
X-46909D02*
X-47723D01*
Y96709D01*
X-47602Y96724D01*
X-47371Y96820D01*
X-47172Y96972D01*
X-47020Y97171D01*
X-46924Y97402D01*
X-46909Y97523D01*
D02*
G37*
G36*
X-5573Y97150D02*
Y96427D01*
X-4550D01*
Y97150D01*
X-5573D01*
D02*
G37*
G36*
X-10427D02*
X-11450D01*
Y96427D01*
X-10427D01*
Y97150D01*
D02*
G37*
G36*
X-78000Y99183D02*
X-78328Y99151D01*
X-78644Y99055D01*
X-78935Y98899D01*
X-79190Y98690D01*
X-79399Y98435D01*
X-79555Y98144D01*
X-79651Y97828D01*
X-79683Y97500D01*
X-79651Y97172D01*
X-79555Y96856D01*
X-79399Y96565D01*
X-79190Y96310D01*
X-78935Y96101D01*
X-78644Y95945D01*
X-78328Y95849D01*
X-78000Y95817D01*
X-77672Y95849D01*
X-77356Y95945D01*
X-77065Y96101D01*
X-76810Y96310D01*
X-76601Y96565D01*
X-76445Y96856D01*
X-76349Y97172D01*
X-76317Y97500D01*
X-76349Y97828D01*
X-76445Y98144D01*
X-76601Y98435D01*
X-76810Y98690D01*
X-77065Y98899D01*
X-77356Y99055D01*
X-77672Y99151D01*
X-78000Y99183D01*
D02*
G37*
G36*
X-800Y96200D02*
X-1673D01*
Y95527D01*
X-800D01*
Y96200D01*
D02*
G37*
G36*
X-1927D02*
X-2800D01*
Y95527D01*
X-1927D01*
Y96200D01*
D02*
G37*
G36*
X-4550Y96173D02*
X-5573D01*
Y95450D01*
X-4550D01*
Y96173D01*
D02*
G37*
G36*
X-9150Y97150D02*
X-9302Y97150D01*
X-10173D01*
Y96300D01*
Y95450D01*
X-9302D01*
X-9150Y95450D01*
X-8998Y95450D01*
X-8127D01*
Y96300D01*
Y97150D01*
X-8998D01*
X-9150Y97150D01*
D02*
G37*
G36*
X-10427Y96173D02*
X-11450D01*
Y95450D01*
X-10427D01*
Y96173D01*
D02*
G37*
G36*
X-25850Y95350D02*
X-25902Y95350D01*
X-26873D01*
Y94500D01*
Y93650D01*
X-25902D01*
X-25750Y93650D01*
X-25698Y93650D01*
X-24727D01*
Y94500D01*
Y95350D01*
X-25698D01*
X-25850Y95350D01*
D02*
G37*
G36*
X950Y95700D02*
X527D01*
Y95177D01*
X950D01*
Y95700D01*
D02*
G37*
G36*
X273D02*
X-150D01*
Y95177D01*
X273D01*
Y95700D01*
D02*
G37*
G36*
X-24473Y95350D02*
Y94627D01*
X-23450D01*
Y95350D01*
X-24473D01*
D02*
G37*
G36*
X-29527D02*
X-30550D01*
Y94627D01*
X-29527D01*
Y95350D01*
D02*
G37*
G36*
X-42100Y96335D02*
X-42407Y96295D01*
X-42693Y96176D01*
X-42938Y95988D01*
X-43126Y95743D01*
X-43245Y95457D01*
X-43285Y95150D01*
X-43245Y94843D01*
X-43126Y94557D01*
X-42938Y94312D01*
X-42693Y94124D01*
X-42407Y94005D01*
X-42100Y93965D01*
X-41793Y94005D01*
X-41507Y94124D01*
X-41262Y94312D01*
X-41074Y94557D01*
X-40955Y94843D01*
X-40915Y95150D01*
X-40955Y95457D01*
X-41074Y95743D01*
X-41262Y95988D01*
X-41507Y96176D01*
X-41793Y96295D01*
X-42100Y96335D01*
D02*
G37*
G36*
X-49100D02*
X-49407Y96295D01*
X-49693Y96176D01*
X-49938Y95988D01*
X-50126Y95743D01*
X-50245Y95457D01*
X-50285Y95150D01*
X-50245Y94843D01*
X-50126Y94557D01*
X-49938Y94312D01*
X-49693Y94124D01*
X-49407Y94005D01*
X-49100Y93965D01*
X-48793Y94005D01*
X-48507Y94124D01*
X-48262Y94312D01*
X-48074Y94557D01*
X-47955Y94843D01*
X-47915Y95150D01*
X-47955Y95457D01*
X-48074Y95743D01*
X-48262Y95988D01*
X-48507Y96176D01*
X-48793Y96295D01*
X-49100Y96335D01*
D02*
G37*
G36*
X-19900Y94600D02*
X-20773D01*
Y93927D01*
X-19900D01*
Y94600D01*
D02*
G37*
G36*
X-21027D02*
X-21900D01*
Y93927D01*
X-21027D01*
Y94600D01*
D02*
G37*
G36*
X-23450Y94373D02*
X-24473D01*
Y93650D01*
X-23450D01*
Y94373D01*
D02*
G37*
G36*
X-28250Y95350D02*
X-28302Y95350D01*
X-29273D01*
Y94500D01*
Y93650D01*
X-28302D01*
X-28150Y93650D01*
X-28098Y93650D01*
X-27127D01*
Y94500D01*
Y95350D01*
X-28098D01*
X-28250Y95350D01*
D02*
G37*
G36*
X-29527Y94373D02*
X-30550D01*
Y93650D01*
X-29527D01*
Y94373D01*
D02*
G37*
G36*
X44750Y93450D02*
X44698Y93450D01*
X43727D01*
Y92600D01*
Y91750D01*
X44698D01*
X44850Y91750D01*
X44902Y91750D01*
X45873D01*
Y92600D01*
Y93450D01*
X44902D01*
X44750Y93450D01*
D02*
G37*
G36*
X-18150Y93800D02*
X-18573D01*
Y93277D01*
X-18150D01*
Y93800D01*
D02*
G37*
G36*
X-18827D02*
X-19250D01*
Y93277D01*
X-18827D01*
Y93800D01*
D02*
G37*
G36*
X46127Y93450D02*
Y92727D01*
X47150D01*
Y93450D01*
X46127D01*
D02*
G37*
G36*
X41073D02*
X40050D01*
Y92727D01*
X41073D01*
Y93450D01*
D02*
G37*
G36*
X49600Y92600D02*
X48727D01*
Y91927D01*
X49600D01*
Y92600D01*
D02*
G37*
G36*
X48473D02*
X47600D01*
Y91927D01*
X48473D01*
Y92600D01*
D02*
G37*
G36*
X47150Y92473D02*
X46127D01*
Y91750D01*
X47150D01*
Y92473D01*
D02*
G37*
G36*
X42350Y93450D02*
X42298Y93450D01*
X41327D01*
Y92600D01*
Y91750D01*
X42298D01*
X42450Y91750D01*
X42502Y91750D01*
X43473D01*
Y92600D01*
Y93450D01*
X42502D01*
X42350Y93450D01*
D02*
G37*
G36*
X41073Y92473D02*
X40050D01*
Y91750D01*
X41073D01*
Y92473D01*
D02*
G37*
G36*
X18272Y92005D02*
X17974D01*
Y91282D01*
X18272D01*
Y92005D01*
D02*
G37*
G36*
X17720D02*
X17422D01*
Y91282D01*
X17720D01*
Y92005D01*
D02*
G37*
G36*
X5732D02*
X5434D01*
Y91282D01*
X5732D01*
Y92005D01*
D02*
G37*
G36*
X5180D02*
X4882D01*
Y91282D01*
X5180D01*
Y92005D01*
D02*
G37*
G36*
X18272Y90982D02*
X17974D01*
Y90259D01*
X18272D01*
Y90982D01*
D02*
G37*
G36*
X5732D02*
X5434D01*
Y90259D01*
X5732D01*
Y90982D01*
D02*
G37*
G36*
X17720D02*
X17422D01*
Y90259D01*
X17720D01*
Y90982D01*
D02*
G37*
G36*
X5180D02*
X4882D01*
Y90259D01*
X5180D01*
Y90982D01*
D02*
G37*
G36*
X-25845Y89563D02*
X-26023Y89528D01*
X-26173Y89428D01*
X-26221Y89356D01*
X-29625D01*
X-29672Y89428D01*
X-29823Y89528D01*
X-30000Y89563D01*
X-30177Y89528D01*
X-30328Y89428D01*
X-30428Y89277D01*
X-30463Y89100D01*
X-30428Y88923D01*
X-30328Y88772D01*
X-30177Y88672D01*
X-30000Y88637D01*
X-29823Y88672D01*
X-29672Y88772D01*
X-29625Y88844D01*
X-26221D01*
X-26173Y88772D01*
X-26023Y88672D01*
X-25845Y88637D01*
X-25668Y88672D01*
X-25518Y88772D01*
X-25417Y88923D01*
X-25382Y89100D01*
X-25417Y89277D01*
X-25518Y89428D01*
X-25668Y89528D01*
X-25845Y89563D01*
D02*
G37*
G36*
X18272Y90005D02*
X17974D01*
Y89282D01*
X18272D01*
Y90005D01*
D02*
G37*
G36*
X17720D02*
X17422D01*
Y89282D01*
X17720D01*
Y90005D01*
D02*
G37*
G36*
X5732D02*
X5434D01*
Y89282D01*
X5732D01*
Y90005D01*
D02*
G37*
G36*
X-8290Y89213D02*
X-8873D01*
Y88630D01*
X-8290D01*
Y89213D01*
D02*
G37*
G36*
X-9127D02*
X-9710D01*
Y88630D01*
X-9127D01*
Y89213D01*
D02*
G37*
G36*
X-11539Y88876D02*
X-11962D01*
Y88353D01*
X-11539D01*
Y88876D01*
D02*
G37*
G36*
X-12216D02*
X-12639D01*
Y88353D01*
X-12216D01*
Y88876D01*
D02*
G37*
G36*
X8077Y88737D02*
X7679D01*
Y88089D01*
X8077D01*
Y88737D01*
D02*
G37*
G36*
X7425D02*
X7027D01*
Y88089D01*
X7425D01*
Y88737D01*
D02*
G37*
G36*
X10592Y88712D02*
X9592D01*
Y87212D01*
X10592D01*
Y88712D01*
D02*
G37*
G36*
X8077Y87835D02*
X7679D01*
Y87187D01*
X8077D01*
Y87835D01*
D02*
G37*
G36*
X7425D02*
X7027D01*
Y87187D01*
X7425D01*
Y87835D01*
D02*
G37*
G36*
X7523Y86550D02*
X7000D01*
Y86127D01*
X7523D01*
Y86550D01*
D02*
G37*
G36*
Y85873D02*
X7000D01*
Y85450D01*
X7523D01*
Y85873D01*
D02*
G37*
G36*
X13132Y88712D02*
X12132D01*
Y87212D01*
X12324D01*
Y85275D01*
X12255D01*
Y85275D01*
X11888D01*
X11666Y85497D01*
Y87212D01*
X11862D01*
Y88712D01*
X10862D01*
Y87212D01*
X11054D01*
Y85370D01*
X11054Y85370D01*
X11077Y85253D01*
X11144Y85154D01*
X11605Y84692D01*
Y84225D01*
X11674Y84220D01*
X11697Y84103D01*
X11764Y84004D01*
X12247Y83520D01*
X12177Y83375D01*
X11605D01*
Y83343D01*
X11453Y83280D01*
X9398Y85334D01*
X9457Y85475D01*
X9575D01*
Y86525D01*
X9126D01*
Y87212D01*
X9322D01*
Y88712D01*
X8322D01*
Y87212D01*
X8514D01*
Y86646D01*
X8362Y86539D01*
X8300Y86550D01*
X8183Y86550D01*
X7777D01*
Y86000D01*
Y85450D01*
X8183D01*
X8300Y85450D01*
X8442Y85475D01*
X8519D01*
X8519Y85475D01*
X8542Y85358D01*
X8609Y85259D01*
X11234Y82634D01*
X11234Y82634D01*
X11333Y82567D01*
X11450Y82544D01*
X11605D01*
Y82325D01*
X11674D01*
Y82166D01*
X11674Y82166D01*
X11697Y82049D01*
X11764Y81950D01*
X12324Y81390D01*
X12423Y81324D01*
X12540Y81300D01*
X14259D01*
X14273Y81279D01*
X14424Y81178D01*
X14601Y81143D01*
X14778Y81178D01*
X14929Y81279D01*
X15029Y81429D01*
X15064Y81606D01*
X15029Y81783D01*
X14929Y81934D01*
X14778Y82034D01*
X14601Y82069D01*
X14424Y82034D01*
X14273Y81934D01*
X14259Y81912D01*
X12667D01*
X12431Y82148D01*
X12495Y82300D01*
X12503D01*
Y82850D01*
X12757D01*
Y82300D01*
X13030D01*
Y82325D01*
X13655D01*
Y83212D01*
X13807Y83260D01*
X14042Y83026D01*
X14037Y83000D01*
X14072Y82823D01*
X14172Y82672D01*
X14323Y82572D01*
X14500Y82537D01*
X14677Y82572D01*
X14828Y82672D01*
X14928Y82823D01*
X14963Y83000D01*
X14928Y83177D01*
X14882Y83247D01*
X14858Y83282D01*
X14968Y83392D01*
X15003Y83368D01*
X15073Y83322D01*
X15250Y83287D01*
X15427Y83322D01*
X15578Y83422D01*
X15678Y83573D01*
X15713Y83750D01*
X15678Y83927D01*
X15578Y84078D01*
X15427Y84178D01*
X15330Y84197D01*
Y84353D01*
X15427Y84372D01*
X15578Y84472D01*
X15678Y84623D01*
X15713Y84800D01*
X15678Y84977D01*
X15578Y85128D01*
X15427Y85228D01*
X15250Y85263D01*
X15073Y85228D01*
X14922Y85128D01*
X14874Y85056D01*
X14223D01*
X14153Y85208D01*
X14183Y85253D01*
X14206Y85370D01*
X14206Y85370D01*
Y87212D01*
X14402D01*
Y88712D01*
X13402D01*
Y87212D01*
X13594D01*
Y85497D01*
X13372Y85275D01*
X13005D01*
Y85275D01*
X12936D01*
Y87212D01*
X13132D01*
Y88712D01*
D02*
G37*
G36*
X-787Y84949D02*
X-964Y84914D01*
X-1115Y84814D01*
X-1215Y84663D01*
X-1250Y84486D01*
X-1234Y84402D01*
X-1742Y83893D01*
X-2733Y83893D01*
X-2875Y83918D01*
X-2892Y83918D01*
X-3458D01*
Y83208D01*
Y82498D01*
X-2892D01*
X-2875Y82498D01*
X-2733Y82523D01*
X-2723Y82523D01*
X-1380D01*
Y83531D01*
X-871Y84040D01*
X-787Y84023D01*
X-610Y84058D01*
X-460Y84159D01*
X-359Y84309D01*
X-324Y84486D01*
X-359Y84663D01*
X-460Y84814D01*
X-610Y84914D01*
X-787Y84949D01*
D02*
G37*
G36*
X-3712Y83918D02*
X-4295D01*
Y83335D01*
X-3712D01*
Y83918D01*
D02*
G37*
G36*
Y83081D02*
X-4295D01*
Y82498D01*
X-3712D01*
Y83081D01*
D02*
G37*
G36*
X2495Y82916D02*
X1912D01*
Y82333D01*
X2495D01*
Y82916D01*
D02*
G37*
G36*
X1658D02*
X1075D01*
Y82333D01*
X1658D01*
Y82916D01*
D02*
G37*
G36*
X8161Y79798D02*
X7638D01*
Y79375D01*
X8161D01*
Y79798D01*
D02*
G37*
G36*
X-78000Y81683D02*
X-78328Y81651D01*
X-78644Y81555D01*
X-78935Y81399D01*
X-79190Y81190D01*
X-79399Y80935D01*
X-79555Y80644D01*
X-79651Y80328D01*
X-79683Y80000D01*
X-79651Y79672D01*
X-79555Y79356D01*
X-79399Y79065D01*
X-79190Y78810D01*
X-78935Y78601D01*
X-78644Y78445D01*
X-78328Y78349D01*
X-78000Y78317D01*
X-77672Y78349D01*
X-77356Y78445D01*
X-77065Y78601D01*
X-76810Y78810D01*
X-76601Y79065D01*
X-76445Y79356D01*
X-76349Y79672D01*
X-76317Y80000D01*
X-76349Y80328D01*
X-76445Y80644D01*
X-76601Y80935D01*
X-76810Y81190D01*
X-77065Y81399D01*
X-77356Y81555D01*
X-77672Y81651D01*
X-78000Y81683D01*
D02*
G37*
G36*
X-41700Y76709D02*
X-41987Y76672D01*
X-42255Y76561D01*
X-42485Y76385D01*
X-42661Y76155D01*
X-42772Y75887D01*
X-42809Y75600D01*
X-42772Y75313D01*
X-42661Y75045D01*
X-42485Y74815D01*
X-42255Y74639D01*
X-41987Y74528D01*
X-41700Y74491D01*
X-41413Y74528D01*
X-41145Y74639D01*
X-40915Y74815D01*
X-40739Y75045D01*
X-40628Y75313D01*
X-40591Y75600D01*
X-40628Y75887D01*
X-40739Y76155D01*
X-40915Y76385D01*
X-41145Y76561D01*
X-41413Y76672D01*
X-41700Y76709D01*
D02*
G37*
G36*
X-24766Y71794D02*
X-25389D01*
Y70963D01*
X-23825D01*
X-23841Y71084D01*
X-23937Y71315D01*
X-24089Y71514D01*
X-24287Y71666D01*
X-24518Y71762D01*
X-24766Y71794D01*
D02*
G37*
G36*
X-9526D02*
X-10149D01*
Y70963D01*
X-8585D01*
X-8601Y71084D01*
X-8697Y71315D01*
X-8849Y71514D01*
X-9047Y71666D01*
X-9278Y71762D01*
X-9526Y71794D01*
D02*
G37*
G36*
X-25643D02*
X-26266D01*
X-26514Y71762D01*
X-26745Y71666D01*
X-26944Y71514D01*
X-27096Y71315D01*
X-27192Y71084D01*
X-27208Y70963D01*
X-25643D01*
Y71794D01*
D02*
G37*
G36*
X-10403D02*
X-11026D01*
X-11274Y71762D01*
X-11505Y71666D01*
X-11704Y71514D01*
X-11856Y71315D01*
X-11952Y71084D01*
X-11968Y70963D01*
X-10403D01*
Y71794D01*
D02*
G37*
G36*
X-8585Y70709D02*
X-10149D01*
Y69878D01*
X-9526D01*
X-9278Y69911D01*
X-9047Y70006D01*
X-8849Y70159D01*
X-8697Y70357D01*
X-8601Y70588D01*
X-8585Y70709D01*
D02*
G37*
G36*
X-10403D02*
X-11968D01*
X-11952Y70588D01*
X-11856Y70357D01*
X-11704Y70159D01*
X-11505Y70006D01*
X-11274Y69911D01*
X-11026Y69878D01*
X-10403D01*
Y70709D01*
D02*
G37*
G36*
X-23825D02*
X-25389D01*
Y69878D01*
X-24766D01*
X-24518Y69911D01*
X-24287Y70006D01*
X-24089Y70159D01*
X-23937Y70357D01*
X-23841Y70588D01*
X-23825Y70709D01*
D02*
G37*
G36*
X-25643D02*
X-27208D01*
X-27192Y70588D01*
X-27096Y70357D01*
X-26944Y70159D01*
X-26745Y70006D01*
X-26514Y69911D01*
X-26266Y69878D01*
X-25643D01*
Y70709D01*
D02*
G37*
G36*
X-3416Y70519D02*
X-3593Y70483D01*
X-3744Y70383D01*
X-3844Y70233D01*
X-3879Y70055D01*
X-3844Y69878D01*
X-3744Y69728D01*
X-3593Y69627D01*
X-3416Y69592D01*
X-3316Y69612D01*
X-2525Y68820D01*
X-2442Y68765D01*
X-2344Y68745D01*
X-2344Y68745D01*
X5560D01*
X5608Y68674D01*
X5758Y68573D01*
X5935Y68538D01*
X6113Y68573D01*
X6263Y68674D01*
X6363Y68824D01*
X6399Y69002D01*
X6363Y69179D01*
X6263Y69329D01*
X6113Y69430D01*
X5935Y69465D01*
X5758Y69430D01*
X5608Y69329D01*
X5560Y69258D01*
X-2238D01*
X-2967Y69986D01*
X-2953Y70055D01*
X-2988Y70233D01*
X-3088Y70383D01*
X-3239Y70483D01*
X-3416Y70519D01*
D02*
G37*
G36*
X35500Y67800D02*
X35027D01*
Y67327D01*
X35500D01*
Y67800D01*
D02*
G37*
G36*
X34773D02*
X34300D01*
Y67327D01*
X34773D01*
Y67800D01*
D02*
G37*
G36*
X35500Y67073D02*
X35027D01*
Y66600D01*
X35500D01*
Y67073D01*
D02*
G37*
G36*
X34773D02*
X34300D01*
Y66600D01*
X34773D01*
Y67073D01*
D02*
G37*
G36*
X33875Y67775D02*
X32725D01*
Y66625D01*
X32994D01*
Y66125D01*
X32525D01*
Y65908D01*
X27059D01*
X27046Y65928D01*
X26896Y66028D01*
X26718Y66063D01*
X26541Y66028D01*
X26391Y65928D01*
X26290Y65777D01*
X26255Y65600D01*
X26290Y65423D01*
X26391Y65272D01*
X26541Y65172D01*
X26718Y65137D01*
X26896Y65172D01*
X27046Y65272D01*
X27059Y65292D01*
X32525D01*
Y65075D01*
X32969D01*
Y64675D01*
X32925D01*
Y63800D01*
X32675D01*
Y64675D01*
X31925D01*
Y64456D01*
X31400D01*
X31302Y64437D01*
X31219Y64381D01*
X23394Y56556D01*
X13375D01*
X13328Y56628D01*
X13177Y56728D01*
X13000Y56763D01*
X12916Y56747D01*
X12778Y56884D01*
X12836Y57025D01*
X13575D01*
Y58263D01*
X13965D01*
Y58043D01*
X15098D01*
X15240Y58019D01*
X15357Y58019D01*
X15763D01*
Y58568D01*
Y59118D01*
X15357D01*
X15240Y59118D01*
X15098Y59093D01*
X13965D01*
Y58874D01*
X13575D01*
Y60075D01*
X13356D01*
Y60281D01*
X13434Y60398D01*
X13469Y60575D01*
X13434Y60752D01*
X13334Y60903D01*
X13183Y61003D01*
X13006Y61038D01*
X12829Y61003D01*
X12678Y60903D01*
X12578Y60752D01*
X12543Y60575D01*
X12578Y60398D01*
X12678Y60248D01*
X12709Y60227D01*
X12669Y60075D01*
X12525D01*
Y58868D01*
X12373Y58805D01*
X12075Y59102D01*
Y60075D01*
X11025D01*
Y58725D01*
X11728D01*
X11926Y58527D01*
X11863Y58375D01*
X11025D01*
Y57025D01*
X11169D01*
X11213Y56903D01*
X11219Y56873D01*
X11122Y56727D01*
X11087Y56550D01*
X11122Y56373D01*
X11222Y56222D01*
X11373Y56122D01*
X11550Y56087D01*
X11634Y56103D01*
X13033Y54705D01*
X13116Y54649D01*
X13214Y54630D01*
X24286D01*
X24384Y54649D01*
X24467Y54705D01*
X31006Y61244D01*
X31925D01*
Y61025D01*
X32675D01*
Y61900D01*
X32900D01*
Y61627D01*
X33300D01*
X33700D01*
Y61900D01*
X33925D01*
Y61025D01*
X34675D01*
Y61900D01*
X34700D01*
Y62723D01*
X33300D01*
X31900D01*
Y61900D01*
X31900Y61900D01*
X31900D01*
X31879Y61756D01*
X30900D01*
X30900Y61756D01*
X30802Y61737D01*
X30719Y61681D01*
X24180Y55142D01*
X13320D01*
X12675Y55788D01*
X12772Y55906D01*
X12823Y55872D01*
X13000Y55837D01*
X13177Y55872D01*
X13328Y55972D01*
X13375Y56044D01*
X23500D01*
X23598Y56063D01*
X23681Y56119D01*
X31506Y63944D01*
X31879D01*
X31900Y63800D01*
X31900Y63800D01*
X31900Y63800D01*
Y62977D01*
X33300D01*
X34700D01*
Y63800D01*
X34675D01*
Y64675D01*
X33925D01*
Y63800D01*
X33675D01*
Y64675D01*
X33581D01*
Y64957D01*
X33733Y65062D01*
X33800Y65050D01*
X33917Y65050D01*
X34323D01*
Y65600D01*
Y66150D01*
X33917D01*
X33800Y66150D01*
X33758Y66143D01*
X33605Y66258D01*
Y66625D01*
X33875D01*
Y67775D01*
D02*
G37*
G36*
X34577Y66150D02*
Y65727D01*
X35100D01*
Y66150D01*
X34577D01*
D02*
G37*
G36*
X-2500Y66000D02*
X-2973D01*
Y65527D01*
X-2500D01*
Y66000D01*
D02*
G37*
G36*
X-3227D02*
X-3700D01*
Y65527D01*
X-3227D01*
Y66000D01*
D02*
G37*
G36*
X35100Y65473D02*
X34577D01*
Y65050D01*
X35100D01*
Y65473D01*
D02*
G37*
G36*
X18930Y65983D02*
X17530D01*
Y65033D01*
X18930D01*
Y65983D01*
D02*
G37*
G36*
X-2500Y65273D02*
X-2973D01*
Y64800D01*
X-2500D01*
Y65273D01*
D02*
G37*
G36*
X-3227D02*
X-3700D01*
Y64800D01*
X-3227D01*
Y65273D01*
D02*
G37*
G36*
X21630Y65983D02*
X20230D01*
Y65058D01*
X20205D01*
Y64685D01*
X20930D01*
X21655D01*
Y65058D01*
X21630D01*
Y65983D01*
D02*
G37*
G36*
X-3077Y64240D02*
X-3600D01*
Y63817D01*
X-3077D01*
Y64240D01*
D02*
G37*
G36*
X-7664Y63895D02*
X-8187D01*
Y63472D01*
X-7664D01*
Y63895D01*
D02*
G37*
G36*
Y63218D02*
X-8187D01*
Y62795D01*
X-7664D01*
Y63218D01*
D02*
G37*
G36*
X16930Y62608D02*
X16457D01*
Y62135D01*
X16930D01*
Y62608D01*
D02*
G37*
G36*
X16203D02*
X15730D01*
Y62135D01*
X16203D01*
Y62608D01*
D02*
G37*
G36*
X23630D02*
X23157D01*
Y62135D01*
X23630D01*
Y62608D01*
D02*
G37*
G36*
X22903D02*
X22430D01*
Y62135D01*
X22903D01*
Y62608D01*
D02*
G37*
G36*
X23630Y61881D02*
X23157D01*
Y61408D01*
X23630D01*
Y61881D01*
D02*
G37*
G36*
X22903D02*
X22430D01*
Y61408D01*
X22903D01*
Y61881D01*
D02*
G37*
G36*
X16930Y61881D02*
X16457D01*
Y61408D01*
X16930D01*
Y61881D01*
D02*
G37*
G36*
X16203D02*
X15730D01*
Y61408D01*
X16203D01*
Y61881D01*
D02*
G37*
G36*
X-7653Y61551D02*
X-8076D01*
Y61028D01*
X-7653D01*
Y61551D01*
D02*
G37*
G36*
X33700Y61373D02*
X33427D01*
Y61000D01*
X33700D01*
Y61373D01*
D02*
G37*
G36*
X33173D02*
X32900D01*
Y61000D01*
X33173D01*
Y61373D01*
D02*
G37*
G36*
X7839Y59376D02*
X7256D01*
Y58793D01*
X7839D01*
Y59376D01*
D02*
G37*
G36*
X16017Y59118D02*
Y58695D01*
X16540D01*
Y59118D01*
X16017D01*
D02*
G37*
G36*
X16540Y58441D02*
X16017D01*
Y58019D01*
X16540D01*
Y58441D01*
D02*
G37*
G36*
X31500Y59183D02*
X31172Y59151D01*
X30856Y59055D01*
X30565Y58899D01*
X30310Y58690D01*
X30101Y58435D01*
X29945Y58144D01*
X29849Y57828D01*
X29817Y57500D01*
X29849Y57172D01*
X29945Y56856D01*
X30101Y56565D01*
X30310Y56310D01*
X30565Y56101D01*
X30856Y55945D01*
X31172Y55849D01*
X31500Y55817D01*
X31828Y55849D01*
X32144Y55945D01*
X32435Y56101D01*
X32690Y56310D01*
X32899Y56565D01*
X33055Y56856D01*
X33151Y57172D01*
X33183Y57500D01*
X33151Y57828D01*
X33055Y58144D01*
X32899Y58435D01*
X32690Y58690D01*
X32435Y58899D01*
X32144Y59055D01*
X31828Y59151D01*
X31500Y59183D01*
D02*
G37*
G36*
X2496Y54944D02*
Y54671D01*
X2819D01*
Y54944D01*
X2496D01*
D02*
G37*
G36*
X2819Y54417D02*
X2496D01*
Y54144D01*
X2819D01*
Y54417D01*
D02*
G37*
G36*
X2694Y53946D02*
Y53523D01*
X3142D01*
Y53946D01*
X2694D01*
D02*
G37*
G36*
X3142Y53269D02*
X2694D01*
Y52846D01*
X3142D01*
Y53269D01*
D02*
G37*
G36*
X61Y52717D02*
X-522D01*
Y52135D01*
X61D01*
Y52717D01*
D02*
G37*
G36*
X-2222Y47847D02*
X-2805D01*
Y47264D01*
X-2222D01*
Y47847D01*
D02*
G37*
G36*
X-3059D02*
X-3642D01*
Y47264D01*
X-3059D01*
Y47847D01*
D02*
G37*
G36*
X3756D02*
X3173D01*
Y47264D01*
X3756D01*
Y47847D01*
D02*
G37*
G36*
X2919D02*
X2336D01*
Y47264D01*
X2919D01*
Y47847D01*
D02*
G37*
G36*
X-2222Y47010D02*
X-2932D01*
X-3642D01*
Y46773D01*
X-3657Y46740D01*
X-3660Y46737D01*
X-3795Y46639D01*
X-4296Y46641D01*
X-4296Y46640D01*
X-4296Y46641D01*
X-4330Y46634D01*
X-4364Y46627D01*
X-4364Y46627D01*
X-4365Y46627D01*
X-4393Y46608D01*
X-4422Y46589D01*
X-4422Y46588D01*
X-4423Y46588D01*
X-4649Y46362D01*
X-4687Y46304D01*
X-4701Y46236D01*
Y45106D01*
X-4687Y45038D01*
X-4649Y44980D01*
X-4171Y44503D01*
X-4114Y44464D01*
X-4045Y44450D01*
X-1434D01*
X-1434Y44450D01*
X-1365Y44464D01*
X-1307Y44503D01*
X-716Y45094D01*
X-678Y45152D01*
X-664Y45220D01*
Y46198D01*
X-678Y46266D01*
X-716Y46324D01*
X-968Y46576D01*
X-997Y46595D01*
X-1026Y46614D01*
X-1026Y46614D01*
X-1026Y46614D01*
X-1060Y46621D01*
X-1094Y46628D01*
X-2120Y46632D01*
X-2142Y46654D01*
X-2206Y46731D01*
X-2222Y46763D01*
X-2222Y46766D01*
Y47010D01*
D02*
G37*
G36*
X3756Y47010D02*
X3046D01*
X2336D01*
Y46766D01*
X2335Y46763D01*
X2320Y46731D01*
X2256Y46654D01*
X2233Y46632D01*
X1207Y46628D01*
X1174Y46621D01*
X1140Y46614D01*
X1139Y46614D01*
X1139Y46614D01*
X1111Y46595D01*
X1082Y46576D01*
X686Y46180D01*
X648Y46122D01*
X634Y46054D01*
Y45363D01*
X648Y45295D01*
X686Y45237D01*
X1421Y44503D01*
X1479Y44464D01*
X1547Y44450D01*
X4159D01*
X4227Y44464D01*
X4285Y44503D01*
X4762Y44980D01*
X4801Y45038D01*
X4814Y45106D01*
Y46236D01*
X4801Y46304D01*
X4762Y46362D01*
X4536Y46588D01*
X4536Y46588D01*
X4536Y46589D01*
X4507Y46608D01*
X4478Y46627D01*
X4478Y46627D01*
X4478Y46627D01*
X4444Y46634D01*
X4410Y46641D01*
X4410Y46640D01*
X4409Y46641D01*
X3908Y46639D01*
X3773Y46737D01*
X3771Y46740D01*
X3756Y46773D01*
Y47010D01*
D02*
G37*
G36*
X4675Y34525D02*
X-4675D01*
Y28875D01*
X4675D01*
Y34525D01*
D02*
G37*
G36*
Y28185D02*
X-4675D01*
Y22535D01*
X4675D01*
Y28185D01*
D02*
G37*
G36*
X4683Y21850D02*
X-4667D01*
Y16200D01*
X4683D01*
Y21850D01*
D02*
G37*
G36*
X4684Y15500D02*
X-4666D01*
Y9850D01*
X4684D01*
Y15500D01*
D02*
G37*
G36*
X4675Y9165D02*
X-4675D01*
Y3515D01*
X4675D01*
Y9165D01*
D02*
G37*
G36*
X4675Y2825D02*
X-4675D01*
Y-2825D01*
X4675D01*
Y2825D01*
D02*
G37*
%LPD*%
G36*
X25550Y90700D02*
X37800D01*
Y88100D01*
X24500D01*
X19600Y93000D01*
X3893Y93000D01*
X2693Y91800D01*
X2090Y91800D01*
X2090Y91800D01*
X-12200D01*
X-12513Y91487D01*
X-12637D01*
X-12764Y91461D01*
X-12871Y91390D01*
X-12929Y91331D01*
X-14000D01*
X-14026Y91326D01*
X-14180D01*
X-14286Y91305D01*
X-14358Y91334D01*
X-14363Y91337D01*
X-14413Y91409D01*
X-14413Y92169D01*
X-14286Y92193D01*
X-14234Y92158D01*
X-14000Y92111D01*
X-13766Y92158D01*
X-13710Y92196D01*
X-13586D01*
X-11353Y94400D01*
X-150D01*
Y93877D01*
X400D01*
X950D01*
Y94400D01*
X2000D01*
Y94400D01*
X2592D01*
X3692Y95600D01*
X20650Y95600D01*
X25550Y90700D01*
D02*
G37*
G36*
X-33606Y93209D02*
X-33099Y92701D01*
X-21962D01*
X-21900Y92600D01*
X-21900Y92574D01*
Y91927D01*
X-20900D01*
X-19900D01*
Y92574D01*
X-19900Y92600D01*
X-19838Y92701D01*
X-19310D01*
X-19308Y92699D01*
X-19234Y92574D01*
X-19250Y92500D01*
X-19250Y92408D01*
Y91977D01*
X-18700D01*
X-18150D01*
Y92408D01*
X-18150Y92500D01*
X-18166Y92574D01*
X-18092Y92699D01*
X-18090Y92701D01*
X-17900D01*
X-17200Y92200D01*
X-17107D01*
X-17105Y92199D01*
X-17081Y92194D01*
X-17027Y92158D01*
X-16793Y92111D01*
X-16559Y92158D01*
X-16527Y92179D01*
X-16434Y92147D01*
X-16400Y92121D01*
Y91379D01*
X-16527Y91308D01*
X-16620Y91326D01*
X-16774D01*
X-16800Y91331D01*
X-17500D01*
X-17627Y91306D01*
X-17734Y91234D01*
X-18204Y90764D01*
X-18276Y90657D01*
X-18301Y90530D01*
Y90502D01*
X-18906Y89900D01*
X-35200Y89900D01*
X-36406Y91106D01*
Y99500D01*
X-33606D01*
X-33606Y93209D01*
D02*
G37*
G36*
X52154Y88096D02*
X38100Y88096D01*
X38100Y90700D01*
X47535Y90700D01*
X47600Y90573D01*
Y89927D01*
X48600D01*
X49600D01*
Y90573D01*
X49600Y90600D01*
X49665Y90700D01*
X52154D01*
X52154Y88096D01*
D02*
G37*
G36*
X-18324Y90012D02*
X-18314Y89936D01*
X-19138Y89113D01*
X-19204Y89013D01*
X-19227Y88896D01*
X-19373Y88888D01*
X-19607D01*
Y88509D01*
X-19889D01*
Y88889D01*
X-21242Y88889D01*
X-21384Y88914D01*
X-21401Y88914D01*
X-21967D01*
Y88204D01*
Y87494D01*
X-21401D01*
X-21384Y87494D01*
X-21242Y87519D01*
X-21232Y87519D01*
X-19889D01*
Y87897D01*
X-19607D01*
Y87518D01*
X-19178D01*
Y87464D01*
X-19158Y87366D01*
X-19103Y87283D01*
X-19008Y87189D01*
X-19072Y87037D01*
X-23724D01*
X-24171Y87484D01*
Y89722D01*
X-18906Y89722D01*
X-18872Y89728D01*
X-18838Y89735D01*
X-18838Y89735D01*
X-18838Y89735D01*
X-18809Y89754D01*
X-18780Y89774D01*
X-18485Y90067D01*
X-18324Y90012D01*
D02*
G37*
G36*
X-3693Y78839D02*
X-3694Y78833D01*
X-3658Y78656D01*
X-3558Y78506D01*
X-3408Y78405D01*
X-3230Y78370D01*
X-3134Y78389D01*
X-2411Y77667D01*
X-2328Y77611D01*
X-2230Y77592D01*
X-2215Y77445D01*
Y77325D01*
X-2367Y77243D01*
X-2448Y77297D01*
X-2625Y77332D01*
X-2707Y77316D01*
X-3267Y77877D01*
X-3350Y77932D01*
X-3448Y77952D01*
X-3818D01*
Y78381D01*
X-5188D01*
Y78381D01*
X-5338D01*
Y78381D01*
X-5715D01*
Y78881D01*
X-5347D01*
Y78881D01*
X-5197D01*
Y78881D01*
X-3840D01*
X-3693Y78839D01*
D02*
G37*
G36*
X-2683Y75069D02*
X-2683Y75069D01*
X-2600Y75013D01*
X-2502Y74993D01*
X-2240D01*
Y74725D01*
X-1240D01*
X-240D01*
Y74992D01*
X2125D01*
X2271Y74846D01*
X2254Y74761D01*
X2290Y74584D01*
X2390Y74434D01*
X2401Y74426D01*
X2355Y74274D01*
X-240D01*
Y74471D01*
X-1240D01*
X-2240D01*
Y74274D01*
X-3022D01*
X-3225Y74477D01*
X-3308Y74532D01*
X-3406Y74552D01*
X-3818D01*
Y74980D01*
X-5188D01*
Y74981D01*
X-5338D01*
Y74980D01*
X-5710D01*
Y75144D01*
X-5715Y75166D01*
Y75311D01*
X-5338D01*
Y75311D01*
X-5188D01*
Y75311D01*
X-3818D01*
Y75739D01*
X-3354D01*
X-2683Y75069D01*
D02*
G37*
G36*
X2838Y76088D02*
X2989Y75987D01*
X3096Y75966D01*
X3172Y75815D01*
X3173Y75807D01*
X3172Y75807D01*
X3153Y75709D01*
Y75186D01*
X3143Y75178D01*
X3000Y75119D01*
X2895Y75189D01*
X2718Y75225D01*
X2633Y75208D01*
X2412Y75429D01*
X2329Y75484D01*
X2231Y75504D01*
X75D01*
X60Y75656D01*
X84Y75661D01*
X167Y75717D01*
X610Y76159D01*
X2791D01*
X2838Y76088D01*
D02*
G37*
G36*
X9853Y76139D02*
X9851Y76139D01*
X9701Y76039D01*
X9600Y75888D01*
X9565Y75711D01*
X9578Y75644D01*
X9459Y75491D01*
X9356D01*
Y74121D01*
X10726D01*
Y74121D01*
X10876D01*
Y74121D01*
X11255D01*
Y73791D01*
X10876D01*
Y73791D01*
X10726D01*
Y73791D01*
X9356D01*
Y73362D01*
X5789D01*
X5069Y74082D01*
X5128Y74223D01*
X5535D01*
Y74847D01*
X5591Y74886D01*
X5687Y74910D01*
X6094Y74503D01*
X6078Y74419D01*
X6113Y74241D01*
X6213Y74091D01*
X6364Y73991D01*
X6541Y73955D01*
X6718Y73991D01*
X6869Y74091D01*
X6969Y74241D01*
X7004Y74419D01*
X6969Y74596D01*
X6869Y74746D01*
X6718Y74847D01*
X6541Y74882D01*
X6457Y74865D01*
X5893Y75429D01*
X5810Y75484D01*
X5712Y75504D01*
X5535D01*
Y76292D01*
X9838D01*
X9853Y76139D01*
D02*
G37*
G36*
X-4759Y70803D02*
X-5525Y70036D01*
X-5581Y69953D01*
X-5600Y69855D01*
Y66124D01*
X-5609Y66118D01*
X-5761Y66204D01*
Y73610D01*
X-5338D01*
Y73610D01*
X-5188D01*
Y73610D01*
X-4759D01*
Y70803D01*
D02*
G37*
G36*
X10073Y65654D02*
Y64524D01*
X8564D01*
X8456Y64631D01*
X8456Y64677D01*
Y65054D01*
X7806D01*
Y65181D01*
X7679D01*
Y65731D01*
X7273D01*
X7156Y65731D01*
X7014Y65706D01*
X6762D01*
Y65755D01*
X6742Y65853D01*
X6687Y65936D01*
X6470Y66153D01*
X6473Y66192D01*
X6521Y66305D01*
X9422D01*
X10073Y65654D01*
D02*
G37*
G36*
X5382Y66180D02*
X5378Y66153D01*
X5344Y65981D01*
X5379Y65804D01*
X5480Y65653D01*
X5630Y65553D01*
X5807Y65518D01*
X5881Y65457D01*
Y64656D01*
X7014D01*
X7156Y64631D01*
X7273Y64631D01*
X7748D01*
X7794Y64478D01*
X7750Y64449D01*
X7151Y63850D01*
X6146D01*
X6144Y63850D01*
X5994D01*
X5991Y63850D01*
X4624D01*
X4624Y63850D01*
Y63850D01*
X4471Y63812D01*
X4444Y63830D01*
X4267Y63865D01*
X4089Y63830D01*
X3939Y63730D01*
X3839Y63579D01*
X3813Y63452D01*
X3658D01*
X3651Y63489D01*
X3550Y63639D01*
X3400Y63740D01*
X3222Y63775D01*
X3045Y63740D01*
X2895Y63639D01*
X2794Y63489D01*
X2759Y63312D01*
X2794Y63134D01*
X2895Y62984D01*
X2902Y62911D01*
X2657Y62667D01*
X2472Y62696D01*
X2459Y62715D01*
X2450Y62721D01*
X2373Y62808D01*
X2412Y62916D01*
X2454Y62980D01*
X2489Y63157D01*
X2454Y63334D01*
X2353Y63485D01*
X2203Y63585D01*
X2026Y63620D01*
X1849Y63585D01*
X1698Y63485D01*
X1659Y63425D01*
X1506Y63471D01*
Y65110D01*
X1576Y65157D01*
X1677Y65307D01*
X1678Y65314D01*
X1830Y65299D01*
Y64495D01*
X3200D01*
Y64495D01*
X3350D01*
Y64495D01*
X4720D01*
Y65865D01*
X4291D01*
Y66305D01*
X5300D01*
X5382Y66180D01*
D02*
G37*
%LPC*%
G36*
X-6850Y93750D02*
X-6977Y93750D01*
X-7873D01*
Y92900D01*
Y92050D01*
X-6977D01*
X-6850Y92050D01*
X-6723Y92050D01*
X-5827D01*
Y92900D01*
Y93750D01*
X-6723D01*
X-6850Y93750D01*
D02*
G37*
G36*
X-800Y94200D02*
X-1673D01*
Y93527D01*
X-800D01*
Y94200D01*
D02*
G37*
G36*
X-1927D02*
X-2800D01*
Y93527D01*
X-1927D01*
Y94200D01*
D02*
G37*
G36*
X950Y93623D02*
X527D01*
Y93100D01*
X950D01*
Y93623D01*
D02*
G37*
G36*
X273D02*
X-150D01*
Y93100D01*
X273D01*
Y93623D01*
D02*
G37*
G36*
X-5573Y93750D02*
Y93027D01*
X-4550D01*
Y93750D01*
X-5573D01*
D02*
G37*
G36*
X-10427D02*
X-11450D01*
Y93027D01*
X-10427D01*
Y93750D01*
D02*
G37*
G36*
X-800Y93273D02*
X-1673D01*
Y92600D01*
X-800D01*
Y93273D01*
D02*
G37*
G36*
X-1927D02*
X-2800D01*
Y92600D01*
X-1927D01*
Y93273D01*
D02*
G37*
G36*
X-4550Y92773D02*
X-5573D01*
Y92050D01*
X-4550D01*
Y92773D01*
D02*
G37*
G36*
X-9150Y93750D02*
X-9277Y93750D01*
X-10173D01*
Y92900D01*
Y92050D01*
X-9277D01*
X-9150Y92050D01*
X-9023Y92050D01*
X-8127D01*
Y92900D01*
Y93750D01*
X-9023D01*
X-9150Y93750D01*
D02*
G37*
G36*
X-10427Y92773D02*
X-11450D01*
Y92050D01*
X-10427D01*
Y92773D01*
D02*
G37*
G36*
X37600Y90100D02*
X36952D01*
Y89527D01*
X37600D01*
Y90100D01*
D02*
G37*
G36*
X36698D02*
X36050D01*
Y89527D01*
X36698D01*
Y90100D01*
D02*
G37*
G36*
X37600Y89273D02*
X36952D01*
Y88700D01*
X37600D01*
Y89273D01*
D02*
G37*
G36*
X36698D02*
X36050D01*
Y88700D01*
X36698D01*
Y89273D01*
D02*
G37*
G36*
X-34913Y98993D02*
Y98027D01*
X-33947D01*
X-33968Y98187D01*
X-34079Y98455D01*
X-34255Y98685D01*
X-34485Y98861D01*
X-34753Y98972D01*
X-34913Y98993D01*
D02*
G37*
G36*
X-35167D02*
X-35327Y98972D01*
X-35595Y98861D01*
X-35825Y98685D01*
X-36001Y98455D01*
X-36112Y98187D01*
X-36133Y98027D01*
X-35167D01*
Y98993D01*
D02*
G37*
G36*
X-33947Y97773D02*
X-34913D01*
Y96807D01*
X-34753Y96828D01*
X-34485Y96939D01*
X-34255Y97115D01*
X-34079Y97345D01*
X-33968Y97613D01*
X-33947Y97773D01*
D02*
G37*
G36*
X-35167D02*
X-36133D01*
X-36112Y97613D01*
X-36001Y97345D01*
X-35825Y97115D01*
X-35595Y96939D01*
X-35327Y96828D01*
X-35167Y96807D01*
Y97773D01*
D02*
G37*
G36*
X-25750Y91950D02*
X-25850D01*
X-25877Y91950D01*
X-26873D01*
Y91100D01*
Y90250D01*
X-25877D01*
X-25850Y90250D01*
X-25750D01*
X-25723Y90250D01*
X-24727D01*
Y91100D01*
Y91950D01*
X-25723D01*
X-25750Y91950D01*
D02*
G37*
G36*
X-24473Y91950D02*
Y91227D01*
X-23450D01*
Y91950D01*
X-24473D01*
D02*
G37*
G36*
X-29527D02*
X-30550D01*
Y91227D01*
X-29527D01*
Y91950D01*
D02*
G37*
G36*
X-18150Y91723D02*
X-18573D01*
Y91200D01*
X-18150D01*
Y91723D01*
D02*
G37*
G36*
X-18827D02*
X-19250D01*
Y91200D01*
X-18827D01*
Y91723D01*
D02*
G37*
G36*
X-19900Y91673D02*
X-20773D01*
Y91000D01*
X-19900D01*
Y91673D01*
D02*
G37*
G36*
X-21027D02*
X-21900D01*
Y91000D01*
X-21027D01*
Y91673D01*
D02*
G37*
G36*
X-23450Y90973D02*
X-24473D01*
Y90250D01*
X-23450D01*
Y90973D01*
D02*
G37*
G36*
X-28150Y91950D02*
X-28250D01*
X-28277Y91950D01*
X-29273D01*
Y91100D01*
Y90250D01*
X-28277D01*
X-28250Y90250D01*
X-28150D01*
X-28123Y90250D01*
X-27127D01*
Y91100D01*
Y91950D01*
X-28123D01*
X-28150Y91950D01*
D02*
G37*
G36*
X-29527Y90973D02*
X-30550D01*
Y90250D01*
X-29527D01*
Y90973D01*
D02*
G37*
G36*
X44850Y90050D02*
X44750D01*
X44723Y90050D01*
X43727D01*
Y89200D01*
Y88350D01*
X44723D01*
X44750Y88350D01*
X44850D01*
X44877Y88350D01*
X45873D01*
Y89200D01*
Y90050D01*
X44877D01*
X44850Y90050D01*
D02*
G37*
G36*
X42450D02*
X42350D01*
X42323Y90050D01*
X41327D01*
Y89200D01*
Y88350D01*
X42323D01*
X42350Y88350D01*
X42450D01*
X42477Y88350D01*
X43473D01*
Y89200D01*
Y90050D01*
X42477D01*
X42450Y90050D01*
D02*
G37*
G36*
X39048Y90100D02*
X38400D01*
Y89527D01*
X39048D01*
Y90100D01*
D02*
G37*
G36*
X46127Y90050D02*
Y89327D01*
X47150D01*
Y90050D01*
X46127D01*
D02*
G37*
G36*
X49600Y89673D02*
X48727D01*
Y89000D01*
X49600D01*
Y89673D01*
D02*
G37*
G36*
X48473D02*
X47600D01*
Y89000D01*
X48473D01*
Y89673D01*
D02*
G37*
G36*
X39048Y89273D02*
X38400D01*
Y88700D01*
X39048D01*
Y89273D01*
D02*
G37*
G36*
X47150Y89073D02*
X46127D01*
Y88350D01*
X47150D01*
Y89073D01*
D02*
G37*
G36*
X39950Y90100D02*
X39944Y90100D01*
X39302D01*
Y89400D01*
Y88700D01*
X39923D01*
X39950Y88700D01*
X40050Y88635D01*
Y88350D01*
X41073D01*
Y89200D01*
Y90050D01*
X40077D01*
X40056Y90050D01*
X39950Y90100D01*
D02*
G37*
G36*
X-22221Y88914D02*
X-22804D01*
Y88331D01*
X-22221D01*
Y88914D01*
D02*
G37*
G36*
Y88077D02*
X-22804D01*
Y87494D01*
X-22221D01*
Y88077D01*
D02*
G37*
G36*
X7933Y65731D02*
Y65308D01*
X8456D01*
Y65731D01*
X7933D01*
D02*
G37*
%LPD*%
G36*
X-3743Y46460D02*
X-3711Y46426D01*
X-3642Y46327D01*
Y45744D01*
X-2932D01*
X-2222D01*
Y46327D01*
X-2149Y46424D01*
X-2120Y46454D01*
X-1095Y46450D01*
X-843Y46198D01*
Y45220D01*
X-1434Y44629D01*
X-4045D01*
X-4522Y45106D01*
Y46236D01*
X-4296Y46462D01*
X-3743Y46460D01*
D02*
G37*
%LPC*%
G36*
X-2222Y45490D02*
X-2805D01*
Y44907D01*
X-2222D01*
Y45490D01*
D02*
G37*
G36*
X-3059D02*
X-3642D01*
Y44907D01*
X-3059D01*
Y45490D01*
D02*
G37*
%LPD*%
G36*
X4636Y46236D02*
Y45106D01*
X4159Y44629D01*
X1547D01*
X813Y45363D01*
Y46054D01*
X1208Y46450D01*
X2234Y46454D01*
X2263Y46424D01*
X2336Y46327D01*
Y45744D01*
X3046D01*
X3756D01*
Y46327D01*
X3824Y46426D01*
X3856Y46460D01*
X4410Y46462D01*
X4636Y46236D01*
D02*
G37*
%LPC*%
G36*
X3756Y45490D02*
X3173D01*
Y44907D01*
X3756D01*
Y45490D01*
D02*
G37*
G36*
X2919D02*
X2336D01*
Y44907D01*
X2919D01*
Y45490D01*
D02*
G37*
%LPD*%
D10*
X1569Y54544D02*
D03*
X2369D02*
D03*
X2283Y84670D02*
D03*
X3083D02*
D03*
D11*
X2567Y53396D02*
D03*
X1417D02*
D03*
X-575Y43180D02*
D03*
X575D02*
D03*
D12*
X-2169Y52845D02*
D03*
X-649D02*
D03*
X5609Y59503D02*
D03*
X7129D02*
D03*
X6829Y63165D02*
D03*
X5309D02*
D03*
X2515Y65180D02*
D03*
X4035D02*
D03*
X-3585Y83208D02*
D03*
X-2065D02*
D03*
X-5785Y84732D02*
D03*
X-7305D02*
D03*
X10041Y73106D02*
D03*
X11561D02*
D03*
X-4503Y74296D02*
D03*
X-6023D02*
D03*
X-4503Y75995D02*
D03*
X-6023D02*
D03*
X-4503Y77696D02*
D03*
X-6023D02*
D03*
X-4512Y79566D02*
D03*
X-6032D02*
D03*
X10041Y74806D02*
D03*
X11561D02*
D03*
X10043Y69509D02*
D03*
X11563D02*
D03*
X-18922Y88203D02*
D03*
X-17402D02*
D03*
X-20574Y88204D02*
D03*
X-22094D02*
D03*
X18870Y61708D02*
D03*
X20390D02*
D03*
X2128Y90307D02*
D03*
X608D02*
D03*
X653Y88463D02*
D03*
X2173D02*
D03*
D13*
X18230Y65508D02*
D03*
Y63608D02*
D03*
X20930Y65508D02*
D03*
Y64558D02*
D03*
Y63608D02*
D03*
D14*
X14590Y58569D02*
D03*
X15890D02*
D03*
X6506Y65181D02*
D03*
X7806D02*
D03*
X6211Y79248D02*
D03*
X7511D02*
D03*
X8950Y86000D02*
D03*
X7650D02*
D03*
X-350Y54900D02*
D03*
X-1650D02*
D03*
X-7537Y63345D02*
D03*
X-6237D02*
D03*
X33150Y65600D02*
D03*
X34450D02*
D03*
X-1650Y63690D02*
D03*
X-2950D02*
D03*
D15*
X-1240Y78498D02*
D03*
Y77848D02*
D03*
Y77198D02*
D03*
Y76548D02*
D03*
Y75898D02*
D03*
Y75248D02*
D03*
Y74598D02*
D03*
X4560D02*
D03*
Y75248D02*
D03*
Y75898D02*
D03*
Y76548D02*
D03*
Y77198D02*
D03*
Y77848D02*
D03*
Y78498D02*
D03*
D16*
X5286Y57978D02*
D03*
D17*
X31500Y57500D02*
D03*
X-78000Y80000D02*
D03*
X-78000Y97500D02*
D03*
D18*
X13050Y57700D02*
D03*
X11550D02*
D03*
X13050Y59400D02*
D03*
X11550D02*
D03*
D19*
X-2975Y57496D02*
D03*
X-2975Y56996D02*
D03*
X-2975Y57996D02*
D03*
X-2975Y58496D02*
D03*
X-2975Y58996D02*
D03*
X-2975Y59496D02*
D03*
X-2975Y59996D02*
D03*
X-2975Y60496D02*
D03*
X-2975Y60996D02*
D03*
X-2975Y61496D02*
D03*
X2975Y60996D02*
D03*
X2975Y61496D02*
D03*
X2975Y60496D02*
D03*
X2975Y59996D02*
D03*
X2975Y59496D02*
D03*
X2975Y58996D02*
D03*
X2975Y58496D02*
D03*
X2975Y57996D02*
D03*
X2975Y57496D02*
D03*
X2975Y56996D02*
D03*
D20*
X-1750Y62221D02*
D03*
X-2250Y62221D02*
D03*
X-1250Y62221D02*
D03*
X-750Y62221D02*
D03*
X-250Y62221D02*
D03*
X250Y62221D02*
D03*
X750Y62221D02*
D03*
X1250Y62221D02*
D03*
X1750Y62221D02*
D03*
X2250Y62221D02*
D03*
X-2250Y56271D02*
D03*
X-1750Y56271D02*
D03*
X-1250Y56271D02*
D03*
X-750Y56271D02*
D03*
X-250Y56271D02*
D03*
X250Y56271D02*
D03*
X750Y56271D02*
D03*
X1250Y56271D02*
D03*
X2250Y56271D02*
D03*
X1750Y56271D02*
D03*
D21*
X0Y59246D02*
D03*
D22*
X1785Y82206D02*
D03*
Y80686D02*
D03*
X-9000Y89340D02*
D03*
Y90860D02*
D03*
X-2932Y47137D02*
D03*
Y45617D02*
D03*
X3046Y47137D02*
D03*
Y45617D02*
D03*
D23*
X0Y0D02*
D03*
Y31700D02*
D03*
Y25360D02*
D03*
X8Y19025D02*
D03*
X9Y12675D02*
D03*
X0Y6340D02*
D03*
D24*
X41200Y92600D02*
D03*
Y89200D02*
D03*
X43600Y92600D02*
D03*
Y89200D02*
D03*
X46000Y92600D02*
D03*
Y89200D02*
D03*
X-29400Y94500D02*
D03*
Y91100D02*
D03*
X-27000Y94500D02*
D03*
Y91100D02*
D03*
X-24600Y94500D02*
D03*
Y91100D02*
D03*
X-10300Y96300D02*
D03*
Y92900D02*
D03*
X-8000Y96300D02*
D03*
Y92900D02*
D03*
X-5700Y96300D02*
D03*
Y92900D02*
D03*
D25*
X48600Y89800D02*
D03*
Y91800D02*
D03*
X-20900D02*
D03*
Y93800D02*
D03*
X-1800Y93400D02*
D03*
Y95400D02*
D03*
D26*
X-3100Y65400D02*
D03*
X-1500D02*
D03*
X34900Y67200D02*
D03*
X33300D02*
D03*
D27*
X-18700Y91850D02*
D03*
Y93150D02*
D03*
X400Y93750D02*
D03*
Y95050D02*
D03*
X-7526Y60901D02*
D03*
Y59601D02*
D03*
X-10553Y91047D02*
D03*
Y89747D02*
D03*
X-12089Y90303D02*
D03*
Y89003D02*
D03*
D28*
X16330Y63608D02*
D03*
Y62008D02*
D03*
X23030Y63608D02*
D03*
Y62008D02*
D03*
D29*
X11980Y82850D02*
D03*
X13280Y82850D02*
D03*
Y84750D02*
D03*
X11980D02*
D03*
X12630Y84750D02*
D03*
X12630Y82850D02*
D03*
D30*
X39175Y89400D02*
D03*
X36825D02*
D03*
D31*
X5307Y92132D02*
D03*
Y90132D02*
D03*
X17847D02*
D03*
Y92132D02*
D03*
D32*
X7552Y87962D02*
D03*
X8822Y87962D02*
D03*
X10092Y87962D02*
D03*
X11362D02*
D03*
X12632D02*
D03*
X13902Y87962D02*
D03*
D33*
X5477Y101692D02*
D03*
X17687D02*
D03*
D34*
X9037Y101112D02*
D03*
X14117D02*
D03*
D35*
X-13150Y96900D02*
D03*
X-17650D02*
D03*
D36*
X-5300Y90875D02*
D03*
Y89725D02*
D03*
D37*
X-14000Y90000D02*
D03*
Y90500D02*
D03*
Y91000D02*
D03*
Y91500D02*
D03*
Y92000D02*
D03*
Y92500D02*
D03*
Y93000D02*
D03*
X-16800Y90000D02*
D03*
Y90500D02*
D03*
Y91000D02*
D03*
Y91500D02*
D03*
Y92000D02*
D03*
Y92500D02*
D03*
Y93000D02*
D03*
D38*
X-15400Y91500D02*
D03*
D39*
X-15170Y89700D02*
D03*
X-14710D02*
D03*
X-16090D02*
D03*
X-15630D02*
D03*
X-15170Y93300D02*
D03*
X-14710D02*
D03*
X-16090D02*
D03*
X-15630D02*
D03*
D40*
X-5700Y59550D02*
D03*
Y62050D02*
D03*
D41*
X-7100Y89350D02*
D03*
Y90850D02*
D03*
D42*
X32300Y61500D02*
D03*
X33300D02*
D03*
X34300D02*
D03*
Y64200D02*
D03*
X33300D02*
D03*
X32300D02*
D03*
D43*
X33300Y62850D02*
D03*
D44*
X24286Y54886D02*
X30900Y61500D01*
X13214Y54886D02*
X24286D01*
X11550Y56550D02*
X13214Y54886D01*
X12300Y57000D02*
Y58515D01*
X11550Y59265D02*
X12300Y58515D01*
X11550Y59265D02*
Y59400D01*
X3516Y61496D02*
X4267Y62247D01*
Y63402D01*
X-5344Y69855D02*
X-4503Y70696D01*
X-5344Y65588D02*
Y69855D01*
X-7244Y53669D02*
Y57362D01*
X-7251Y57369D02*
X-7244Y57362D01*
X-7251Y57369D02*
X-7242Y57378D01*
X750Y55205D02*
Y56271D01*
X744Y55199D02*
X750Y55205D01*
X-2250Y56113D02*
Y56271D01*
X-2406Y55957D02*
X-2250Y56113D01*
X-2597Y55957D02*
X-2254D01*
X-2250Y55961D02*
Y56271D01*
X-2254Y55957D02*
X-2250Y55961D01*
X-3081Y55473D02*
X-2597Y55957D01*
X-2868Y56555D02*
Y56889D01*
X-2975Y56996D02*
X-2868Y56889D01*
X-6378Y58236D02*
X-5065D01*
X-7219Y57395D02*
X-6378Y58236D01*
X-7219Y57395D02*
X-7201Y57378D01*
X-7242D02*
X-7201D01*
X-6342Y80686D02*
X1785D01*
X-6926Y80103D02*
X-6342Y80686D01*
X-6926Y67751D02*
Y80103D01*
X788Y62259D02*
Y64467D01*
X273Y64982D02*
X788Y64467D01*
X2574Y62221D02*
X3222Y62869D01*
Y63312D01*
X-8161Y80079D02*
X-6629Y81611D01*
X-8161Y69232D02*
Y80079D01*
X-10104Y67289D02*
X-8161Y69232D01*
X-2169Y51698D02*
Y52845D01*
X-10104Y59935D02*
Y67289D01*
Y59935D02*
X-8428Y58260D01*
X-3574Y67665D02*
X8266D01*
X-615Y65315D02*
X-332Y65598D01*
X-250Y62221D02*
X-162Y62309D01*
X-750Y62221D02*
Y63205D01*
X-718Y63238D01*
X750Y62221D02*
X788Y62259D01*
X-2344Y69002D02*
X5935D01*
X-30000Y89100D02*
X-25845D01*
X-1227Y77211D02*
X-1224Y77208D01*
X-1240Y75898D02*
X-14D01*
X-1238Y77200D02*
X-1227Y77211D01*
X-750Y62221D02*
X-747Y62225D01*
X1750Y62881D02*
X2026Y63157D01*
X1750Y62221D02*
Y62881D01*
X2250Y62221D02*
X2574D01*
X2975Y61496D02*
X3516D01*
X-3406Y74296D02*
X-3128Y74018D01*
X-4503Y74296D02*
X-3406D01*
X-4503Y79396D02*
X-3778D01*
X2978Y57999D02*
X2999Y57978D01*
X1776Y80677D02*
X1785Y80686D01*
X2574D01*
X2912Y80348D01*
Y78313D02*
Y80348D01*
Y78313D02*
X3377Y77848D01*
X4560D01*
X10041Y74806D02*
Y75711D01*
X-1240Y78498D02*
Y79010D01*
X10043Y68496D02*
Y69509D01*
Y68496D02*
X10153Y68386D01*
X7340Y61238D02*
X9128Y63025D01*
X4567Y61238D02*
X7340D01*
X3826Y60496D02*
X4567Y61238D01*
X2975Y60496D02*
X3826D01*
X8012Y65981D02*
X8495D01*
X7806Y65775D02*
X8012Y65981D01*
X7806Y65181D02*
Y65775D01*
X5807Y65981D02*
Y66626D01*
Y65981D02*
X6280D01*
X6506Y65755D01*
Y65181D02*
Y65755D01*
X4557Y59496D02*
X5602D01*
X2975D02*
X4557D01*
X2999Y57978D02*
X5286D01*
X3778Y58496D02*
X3833Y58551D01*
X2975Y58496D02*
X3778D01*
X-2489Y53165D02*
X-2169Y52845D01*
X-2489Y53165D02*
Y55216D01*
X-2204Y55501D01*
X-2044D01*
X-1750Y55795D01*
Y56271D01*
X-5655Y57500D02*
X-5030D01*
X-3533Y58996D01*
X-2975D01*
X-5065Y58236D02*
X-3971Y59330D01*
X-3707D01*
X-3541Y59496D01*
X-2975D01*
X11350Y59400D02*
X11550D01*
X23500Y56300D02*
X31400Y64200D01*
X13000Y56300D02*
X23500D01*
X12300Y57000D02*
X13000Y56300D01*
X11550Y56550D02*
Y57700D01*
X31400Y64200D02*
X32300D01*
X30900Y61500D02*
X32300D01*
X-2230Y77848D02*
X-1240D01*
X-4503Y77696D02*
X-3448D01*
X-4503Y75995D02*
X-3248D01*
X-2502Y75250D01*
X-4503Y70696D02*
Y74296D01*
X-3778Y79396D02*
X-2230Y77848D01*
X-2295Y76542D02*
X-1234D01*
X-3448Y77696D02*
X-2295Y76542D01*
X10307Y76548D02*
X10888Y75967D01*
X4560Y76548D02*
X10307D01*
X10041Y71848D02*
Y73106D01*
X4560Y77198D02*
X9990D01*
X8998Y68522D02*
Y70536D01*
Y68522D02*
X9671Y67849D01*
Y66807D02*
Y67849D01*
X-615Y63974D02*
Y65315D01*
Y63974D02*
X-162Y63522D01*
Y62309D02*
Y63522D01*
X129Y64041D02*
Y64083D01*
X250Y62221D02*
Y63962D01*
X129Y64083D02*
X250Y63962D01*
X1250Y62221D02*
Y65484D01*
X-332Y65598D02*
X138Y66068D01*
X1627D01*
X2515Y65180D01*
X4035D02*
Y66795D01*
X6829Y63165D02*
X7932Y64268D01*
X10542D01*
X5309Y62371D02*
Y63165D01*
X-3416Y70055D02*
X-3398D01*
X-2344Y69002D01*
X-8497Y84245D02*
X-8490Y84238D01*
X-8010Y84732D02*
X-7305D01*
X-8497Y84245D02*
X-8010Y84732D01*
X-1029Y79222D02*
X2220D01*
X-1240Y79010D02*
X-1029Y79222D01*
X4560Y75248D02*
X5712D01*
X6541Y74419D01*
X4560Y74229D02*
Y74598D01*
Y74229D02*
X5683Y73106D01*
X10041D01*
X504Y76416D02*
X3166D01*
X-14Y75898D02*
X504Y76416D01*
X-2502Y75250D02*
X-1240D01*
X-1224Y77208D02*
X-1205Y77227D01*
X2416D01*
X3598Y75898D02*
X4560D01*
X3409Y75709D02*
X3598Y75898D01*
X-3128Y74018D02*
X3109D01*
X3409Y74317D01*
Y75709D01*
X-1240Y75248D02*
X2231D01*
X2718Y74761D01*
X-2065Y83208D02*
X-787Y84486D01*
X-18922Y87464D02*
Y88203D01*
Y87464D02*
X-18701Y87244D01*
X2228Y88409D02*
X3406D01*
X2173Y88463D02*
X2228Y88409D01*
X-659Y88483D02*
X634D01*
Y90281D01*
X1335Y85618D02*
X2283Y84670D01*
X753Y85618D02*
X1335D01*
X3083Y84670D02*
X4116D01*
X4718Y84068D01*
X-6629Y81611D02*
X-1458D01*
X753Y83821D01*
Y85618D01*
X-18701Y87244D02*
X-18610Y87336D01*
X3907D01*
D45*
X-1432Y53627D02*
X-649Y52845D01*
X-1432Y53627D02*
Y53991D01*
X-1650Y54210D02*
Y54900D01*
Y54210D02*
X-1432Y53991D01*
X26718Y65600D02*
X33150D01*
X-5700Y59550D02*
Y60242D01*
X-5446Y60496D01*
X-2975D01*
X-5700Y61274D02*
Y62050D01*
Y61274D02*
X-5423Y60996D01*
X-2975D01*
X-3264Y62221D02*
X-2250D01*
X-6069Y65027D02*
X-3264Y62221D01*
X-6023Y77696D02*
Y79566D01*
Y74296D02*
Y75995D01*
Y77696D01*
X-7475Y59550D02*
X-5700D01*
X-6237Y62587D02*
Y63345D01*
Y62587D02*
X-5700Y62050D01*
X-6069Y65027D02*
Y74249D01*
X-6023Y74296D02*
X-6018Y74291D01*
Y75144D01*
X-2226Y66797D02*
X-1682Y66253D01*
X-4675Y84783D02*
Y84793D01*
X-5724D02*
X-4675D01*
X-3670Y85798D01*
X-1462D01*
X-1296Y85633D01*
X-647D01*
X25800Y41724D02*
X26816D01*
X26308D01*
Y40200D01*
X27577D02*
X28085D01*
X28339Y40454D01*
Y40962D01*
X28085Y41216D01*
X27577D01*
X27324Y40962D01*
Y40454D01*
X27577Y40200D01*
X28847Y39692D02*
Y41216D01*
X29609D01*
X29863Y40962D01*
Y40454D01*
X29609Y40200D01*
X28847D01*
X31894Y41724D02*
Y40200D01*
X32910D01*
X33671Y41216D02*
X34179D01*
X34433Y40962D01*
Y40200D01*
X33671D01*
X33418Y40454D01*
X33671Y40708D01*
X34433D01*
X34941Y41216D02*
Y40454D01*
X35195Y40200D01*
X35957D01*
Y39946D01*
X35703Y39692D01*
X35449D01*
X35957Y40200D02*
Y41216D01*
X37226Y40200D02*
X36718D01*
X36465Y40454D01*
Y40962D01*
X36718Y41216D01*
X37226D01*
X37480Y40962D01*
Y40708D01*
X36465D01*
X37988Y41216D02*
Y40200D01*
Y40708D01*
X38242Y40962D01*
X38496Y41216D01*
X38750D01*
X5000Y-5000D02*
G03*
X7000Y-3000I0J2000D01*
G01*
X-7000D02*
G03*
X-5000Y-5000I2000J0D01*
G01*
X-7000Y49000D02*
G03*
X-9000Y51000I-2000J0D01*
G01*
X-31414Y51586D02*
G03*
X-30000Y51000I1414J1414D01*
G01*
X-37243Y57414D02*
G03*
X-38657Y58000I-1414J-1414D01*
G01*
X-82500Y60000D02*
G03*
X-80500Y58000I2000J0D01*
G01*
Y104000D02*
G03*
X-82500Y102000I0J-2000D01*
G01*
X82500D02*
G03*
X80500Y104000I-2000J0D01*
G01*
Y58000D02*
G03*
X82500Y60000I0J2000D01*
G01*
X38657Y58000D02*
G03*
X37243Y57414I0J-2000D01*
G01*
X30000Y51000D02*
G03*
X31414Y51586I0J2000D01*
G01*
X9000Y51000D02*
G03*
X7000Y49000I0J-2000D01*
G01*
X7000Y-3000D02*
Y49000D01*
X-5000Y-5000D02*
X5000D01*
X-7000Y-3000D02*
Y49000D01*
X-30000Y51000D02*
X-9000D01*
X-37243Y57414D02*
X-31414Y51586D01*
X-80500Y58000D02*
X-38657D01*
X-82500Y60000D02*
Y102000D01*
X-80500Y104000D02*
X80500D01*
X82500Y60000D02*
Y102000D01*
X38657Y58000D02*
X80500D01*
X31414Y51586D02*
X37243Y57414D01*
X9000Y51000D02*
X30000D01*
D46*
X-3700D02*
Y57100D01*
X2975Y56996D02*
X3304D01*
X-3294Y57496D02*
X-2975D01*
X3700Y51000D02*
Y54821D01*
X2250Y56271D02*
X3700Y54821D01*
X5700Y51000D02*
Y55100D01*
X5695Y55095D02*
X5700Y55100D01*
X2975Y57496D02*
X3294D01*
X5695Y55095D01*
X4700Y50300D02*
Y55600D01*
X3304Y56996D02*
X4700Y55600D01*
X-5700Y51000D02*
X-5695Y56095D01*
X-3294Y58496D02*
X-2975D01*
X-3304Y57996D02*
X-2975D01*
X-4700Y50300D02*
Y56600D01*
X-5695Y56095D02*
X-3294Y58496D01*
X-4700Y56600D02*
X-3304Y57996D01*
X-3695Y57095D02*
X-3294Y57496D01*
X-3700Y57100D02*
X-3695Y57095D01*
D47*
X-475Y54000D02*
Y54900D01*
X-20573Y88203D02*
X-18922D01*
Y88896D01*
X-17970Y89848D01*
X12957Y78302D02*
X15198D01*
X12950Y78296D02*
X12957Y78302D01*
X15198D02*
X19350Y74150D01*
X13050Y57700D02*
Y59400D01*
X13068Y58569D02*
X14590D01*
X11561Y73106D02*
Y74806D01*
Y73106D02*
X12802D01*
X15208Y70700D01*
X20600D01*
X11563Y68080D02*
Y69509D01*
X33275Y64225D02*
Y65600D01*
X4683Y60575D02*
X8774D01*
X4104Y59996D02*
X4683Y60575D01*
X2975Y59996D02*
X4104D01*
X13050Y59400D02*
Y60531D01*
X13006Y60575D02*
X13050Y60531D01*
X13900Y85370D02*
Y88160D01*
X12630Y84750D02*
Y88160D01*
X11360Y85370D02*
Y88160D01*
X8820Y86005D02*
Y88160D01*
X-43425Y97575D02*
X-43350Y97650D01*
X-72100Y97400D02*
X-69500Y100000D01*
X-72100Y75400D02*
Y97400D01*
Y66700D02*
Y75400D01*
X-6100Y90200D02*
X-5550Y90750D01*
X-6100Y89700D02*
Y90200D01*
X-6450Y89350D02*
X-6100Y89700D01*
X-7100Y89350D02*
X-6450D01*
X500Y100000D02*
X2100Y98400D01*
X-69500Y100000D02*
X500D01*
X20600Y70700D02*
Y74500D01*
Y70700D02*
Y70700D01*
X16200Y78900D02*
X20600Y74500D01*
X9944Y74903D02*
X10041Y74806D01*
X8820Y86005D02*
X8825Y86000D01*
X15200Y84750D02*
X15250Y84800D01*
X13280Y84750D02*
X15200D01*
X12777Y84070D02*
X14930D01*
X12630Y84217D02*
X12777Y84070D01*
X12630Y84217D02*
Y84750D01*
X12600Y83600D02*
X13900D01*
X11980Y84220D02*
X12600Y83600D01*
X11980Y84220D02*
Y84750D01*
X14930Y84070D02*
X15250Y83750D01*
X13900Y83600D02*
X14500Y83000D01*
X13280Y84750D02*
X13900Y85370D01*
X12630Y84750D02*
X12630Y84750D01*
X11360Y85370D02*
X11980Y84750D01*
X-17430Y88232D02*
Y90186D01*
X-17117Y90500D01*
X-16800D01*
X-17970Y90530D02*
X-17500Y91000D01*
X-16800D01*
X-17970Y89848D02*
Y90530D01*
X12700Y78900D02*
X16200D01*
X-5300Y89000D02*
Y89850D01*
X-14000Y91000D02*
X-12792D01*
X-12637Y91155D01*
X-10911D01*
X-10553Y90797D01*
X-9063D01*
X-9000Y90860D01*
X-7110D01*
X-7100Y90850D01*
X8825Y85475D02*
Y86000D01*
Y85475D02*
X11450Y82850D01*
X11980D01*
X2100Y93748D02*
Y98400D01*
X-1240Y77848D02*
X-1186Y77902D01*
X-1240Y76548D02*
X-1234Y76542D01*
X-750Y55175D02*
X-475Y54900D01*
X-1525D02*
X-1250Y55175D01*
X-750Y55175D02*
Y56271D01*
X-1250Y55175D02*
Y56271D01*
X4556Y75902D02*
X4560Y75898D01*
X33300Y65625D02*
Y67200D01*
X33275Y65600D02*
X33300Y65625D01*
X33275Y64225D02*
X33300Y64200D01*
X-10567Y89983D02*
X-10553Y89997D01*
X-10567Y88944D02*
Y89983D01*
X-14000Y90000D02*
X-12392D01*
X-12100Y90292D01*
Y90525D01*
X-5550Y90750D02*
X-5300D01*
X-5700Y91467D02*
Y92900D01*
Y91467D02*
X-5300Y91067D01*
Y90875D02*
Y91067D01*
X-1234Y76542D02*
X-1174Y76602D01*
X6211Y78540D02*
Y79248D01*
X7252Y81680D02*
X7921D01*
X11305Y78296D01*
X12950D01*
X4560Y78498D02*
X9957D01*
X11561Y76894D01*
Y74806D02*
Y76894D01*
X2128Y90307D02*
X3676D01*
X4557Y89426D01*
Y86912D02*
Y89426D01*
X4376Y86731D02*
X4557Y86912D01*
X4376Y86730D02*
Y86731D01*
Y86730D02*
X4503Y86603D01*
X12540Y81606D02*
X14601D01*
X11980Y82166D02*
Y82850D01*
Y82166D02*
X12540Y81606D01*
D48*
X169Y43904D02*
Y47672D01*
X1417Y48920D02*
Y53396D01*
X169Y47672D02*
X1417Y48920D01*
X565Y48645D02*
Y49444D01*
X-176Y47905D02*
X565Y48645D01*
X-176Y43904D02*
Y47905D01*
X1417Y53396D02*
X1569Y53548D01*
Y54544D01*
Y55414D01*
X1250Y55733D02*
X1569Y55414D01*
X1250Y55733D02*
Y56271D01*
X-400Y43680D02*
X-176Y43904D01*
X-400Y43180D02*
Y43680D01*
X400Y43180D02*
Y43673D01*
X169Y43904D02*
X400Y43673D01*
D49*
X-1543Y62093D02*
Y65307D01*
X-1475Y65375D01*
X-1543Y62093D02*
X-1475Y62025D01*
X9671Y66766D02*
X10575Y65862D01*
X8576Y54338D02*
X10155Y55917D01*
Y60503D01*
X10575Y60923D01*
Y63608D02*
X16330D01*
X-1500Y66253D02*
X-945Y66807D01*
X9671D01*
X10575Y60923D02*
Y63608D01*
Y65862D01*
X-1500Y65400D02*
Y66253D01*
D50*
X-24604Y87304D02*
Y90973D01*
X20600Y70700D02*
X21700D01*
X23030Y63608D02*
Y74670D01*
X20390Y61708D02*
X20930Y62248D01*
Y63608D01*
X23030D01*
X16238Y63700D02*
X16330Y63608D01*
X10434Y80466D02*
X17234D01*
X23030Y74670D01*
X4296Y86603D02*
X10434Y80466D01*
X-23903Y86603D02*
X4296D01*
X-24604Y87304D02*
X-23903Y86603D01*
D51*
X17280Y63608D02*
X18230D01*
X16330D02*
X17280D01*
X18230Y62348D02*
Y63608D01*
Y62348D02*
X18870Y61708D01*
D52*
X-14000Y93000D02*
Y94600D01*
Y92723D02*
Y93000D01*
Y94600D02*
X-13150Y95450D01*
Y96900D01*
X-17650Y95350D02*
X-16793Y94493D01*
X-17650Y95350D02*
Y96900D01*
X-16793Y92723D02*
Y94493D01*
D53*
X-25516Y70836D02*
D03*
X-10276D02*
D03*
D54*
X-37540Y97900D02*
D03*
D55*
X-35040D02*
D03*
D56*
X-43350Y97650D02*
D03*
X-47850D02*
D03*
D57*
X-49100Y95150D02*
D03*
X-42100D02*
D03*
D58*
X-68000Y94300D02*
D03*
X68000Y94285D02*
D03*
D59*
X13652Y55665D02*
D03*
X4267Y63402D02*
D03*
X16919Y58575D02*
D03*
X-7244Y53669D02*
D03*
X744Y55199D02*
D03*
X-3081Y55473D02*
D03*
X-2868Y56555D02*
D03*
X-7242Y57378D02*
D03*
X-45654Y81300D02*
D03*
X-5265Y78632D02*
D03*
X273Y64982D02*
D03*
X9208Y61607D02*
D03*
X5639Y64224D02*
D03*
X6237Y61990D02*
D03*
X3516Y62296D02*
D03*
X3222Y63312D02*
D03*
X790Y75821D02*
D03*
X3958Y85445D02*
D03*
X-25382Y68286D02*
D03*
X-12730Y64054D02*
D03*
X-17765Y70868D02*
D03*
X-47619Y89182D02*
D03*
X-49732Y79440D02*
D03*
X-49799Y85579D02*
D03*
X-44260Y85512D02*
D03*
X-44460Y83599D02*
D03*
X-45039Y79017D02*
D03*
X-46129Y73367D02*
D03*
X-52033Y63820D02*
D03*
X-48244Y68291D02*
D03*
X-42079Y64401D02*
D03*
X-29372Y64704D02*
D03*
X-18938Y62809D02*
D03*
X-10475Y58312D02*
D03*
X-14062Y57504D02*
D03*
X-16513Y56746D02*
D03*
X-23687Y55811D02*
D03*
X7084Y56417D02*
D03*
X14309Y65260D02*
D03*
X14663Y68342D02*
D03*
X14742Y76459D02*
D03*
X12340Y71891D02*
D03*
X13967Y73374D02*
D03*
X13250Y74933D02*
D03*
X5379Y68332D02*
D03*
X7730Y73718D02*
D03*
X5760Y73904D02*
D03*
X4018Y73541D02*
D03*
X-5080Y72479D02*
D03*
X-7490Y72754D02*
D03*
X-7540Y79665D02*
D03*
X-2235Y69704D02*
D03*
X5896Y82888D02*
D03*
X6146Y86615D02*
D03*
X3994Y91533D02*
D03*
X-2749Y88613D02*
D03*
X-2423Y90592D02*
D03*
X1485Y83373D02*
D03*
X56Y84789D02*
D03*
X-26256Y83640D02*
D03*
X-38126Y84169D02*
D03*
X-34350Y81110D02*
D03*
X-25916Y82319D02*
D03*
X-9189Y84981D02*
D03*
X-16189D02*
D03*
X-20990Y84798D02*
D03*
X-6890Y82901D02*
D03*
X-9947Y82729D02*
D03*
X-18000Y82471D02*
D03*
X-24580Y79636D02*
D03*
X-35620Y82326D02*
D03*
X-43697Y75370D02*
D03*
X-42883Y73934D02*
D03*
X-41074Y73658D02*
D03*
X-39886Y74652D02*
D03*
X-39665Y75991D02*
D03*
X-40259Y77497D02*
D03*
X-40342Y79043D02*
D03*
X565Y49444D02*
D03*
X2371Y55169D02*
D03*
X-387Y49425D02*
D03*
X-2169Y51698D02*
D03*
X3048Y48016D02*
D03*
X2144Y47132D02*
D03*
X-2902Y48036D02*
D03*
X-1952Y47113D02*
D03*
X-1130Y45896D02*
D03*
X-4065Y45911D02*
D03*
X-1897Y45904D02*
D03*
X2069Y45893D02*
D03*
X4184Y45901D02*
D03*
X1199Y45903D02*
D03*
X-3574Y67665D02*
D03*
X-718Y63238D02*
D03*
X-332Y65598D02*
D03*
X5935Y69002D02*
D03*
X-8428Y58260D02*
D03*
X-5655Y57500D02*
D03*
X-25845Y89100D02*
D03*
X-23064Y88171D02*
D03*
X2026Y63157D02*
D03*
X10888Y75967D02*
D03*
X10028Y75711D02*
D03*
X11563Y68080D02*
D03*
X26718Y65600D02*
D03*
X17280Y63608D02*
D03*
X-49957Y75479D02*
D03*
X-54385Y76338D02*
D03*
X-42471Y91875D02*
D03*
X-44967Y92143D02*
D03*
X-44331Y88084D02*
D03*
X-52418Y82982D02*
D03*
X-42995Y79981D02*
D03*
X-43332Y78674D02*
D03*
X-43344Y76903D02*
D03*
X-41230Y79999D02*
D03*
X-41247Y86016D02*
D03*
X-56820Y82083D02*
D03*
X-54607Y83876D02*
D03*
X10153Y68386D02*
D03*
X9128Y63025D02*
D03*
X13006Y60575D02*
D03*
X8774D02*
D03*
X8266Y67665D02*
D03*
X8495Y65981D02*
D03*
X-2401Y74548D02*
D03*
X8035Y59450D02*
D03*
X4557Y59496D02*
D03*
X5286Y57978D02*
D03*
X3833Y58551D02*
D03*
X5807Y65981D02*
D03*
X8576Y54338D02*
D03*
X13000Y56300D02*
D03*
X11550Y56550D02*
D03*
X-1432Y53991D02*
D03*
X-3034Y64496D02*
D03*
X-3927Y59861D02*
D03*
X-3783Y61615D02*
D03*
X-72100Y66700D02*
D03*
Y75400D02*
D03*
X-30000Y89100D02*
D03*
X52000Y102500D02*
D03*
X54000D02*
D03*
X-12937Y88769D02*
D03*
X-8973Y88298D02*
D03*
X35500Y65900D02*
D03*
X33300Y60400D02*
D03*
X22100Y64500D02*
D03*
X-8500Y52500D02*
D03*
X-10500D02*
D03*
X-12500D02*
D03*
X-14500D02*
D03*
X-16500D02*
D03*
X-18500D02*
D03*
X-20500D02*
D03*
X-22500D02*
D03*
X-24500D02*
D03*
X-26500D02*
D03*
X-28500D02*
D03*
X70000Y81500D02*
D03*
Y79500D02*
D03*
Y77500D02*
D03*
Y75500D02*
D03*
Y73500D02*
D03*
Y71500D02*
D03*
Y69500D02*
D03*
Y67500D02*
D03*
Y65500D02*
D03*
Y63500D02*
D03*
Y61500D02*
D03*
X8000Y52500D02*
D03*
X10000D02*
D03*
X12000D02*
D03*
X14000D02*
D03*
X16000D02*
D03*
X18000D02*
D03*
X20000D02*
D03*
X22000D02*
D03*
X24000D02*
D03*
X26000D02*
D03*
X28000D02*
D03*
X30000D02*
D03*
X31500Y54000D02*
D03*
X33000Y55500D02*
D03*
X34500Y57000D02*
D03*
X36000Y58500D02*
D03*
X38000Y59500D02*
D03*
X-80500Y101000D02*
D03*
Y99500D02*
D03*
Y97500D02*
D03*
Y95500D02*
D03*
Y93500D02*
D03*
Y91500D02*
D03*
Y89500D02*
D03*
Y87500D02*
D03*
Y85500D02*
D03*
Y83500D02*
D03*
Y81500D02*
D03*
Y79500D02*
D03*
Y77500D02*
D03*
Y75500D02*
D03*
Y73500D02*
D03*
Y71500D02*
D03*
Y69500D02*
D03*
Y67500D02*
D03*
Y65500D02*
D03*
Y63500D02*
D03*
Y61500D02*
D03*
X-30000Y52500D02*
D03*
X-31500Y54000D02*
D03*
X-33000Y55500D02*
D03*
X-34500Y57000D02*
D03*
X-36000Y58500D02*
D03*
X-42500Y59500D02*
D03*
X-40500D02*
D03*
X-38500D02*
D03*
X-58500D02*
D03*
X-56500D02*
D03*
X-54500D02*
D03*
X-52500D02*
D03*
X-50500D02*
D03*
X-48500D02*
D03*
X-46500D02*
D03*
X-44500D02*
D03*
X-74500D02*
D03*
X-72500D02*
D03*
X-70500D02*
D03*
X-68500D02*
D03*
X-66500D02*
D03*
X-64500D02*
D03*
X-62500D02*
D03*
X-60500D02*
D03*
X-80500D02*
D03*
X-78500D02*
D03*
X-76500D02*
D03*
Y102500D02*
D03*
X-78500D02*
D03*
X-80500D02*
D03*
X-60500D02*
D03*
X-62500D02*
D03*
X-64500D02*
D03*
X-66500D02*
D03*
X-68500D02*
D03*
X-70500D02*
D03*
X-72500D02*
D03*
X-74500D02*
D03*
X-44500D02*
D03*
X-46500D02*
D03*
X-48500D02*
D03*
X-50500D02*
D03*
X-52500D02*
D03*
X-54500D02*
D03*
X-56500D02*
D03*
X-58500D02*
D03*
X-28500D02*
D03*
X-30500D02*
D03*
X-32500D02*
D03*
X-34500D02*
D03*
X-36500D02*
D03*
X-38500D02*
D03*
X-40500D02*
D03*
X-42500D02*
D03*
X-12500D02*
D03*
X-14500D02*
D03*
X-16500D02*
D03*
X-18500D02*
D03*
X-20500D02*
D03*
X-22500D02*
D03*
X-24500D02*
D03*
X-26500D02*
D03*
X-10500D02*
D03*
X-8500D02*
D03*
X-6500D02*
D03*
X-4500D02*
D03*
X-2500D02*
D03*
X-500D02*
D03*
X1500D02*
D03*
X3500D02*
D03*
X7500D02*
D03*
X9500D02*
D03*
X11500D02*
D03*
X13500D02*
D03*
X15500D02*
D03*
X20000D02*
D03*
X22000D02*
D03*
X24000D02*
D03*
X26000D02*
D03*
X28000D02*
D03*
X30000D02*
D03*
X32000D02*
D03*
X34000D02*
D03*
X36000D02*
D03*
X38000D02*
D03*
X40000D02*
D03*
X42000D02*
D03*
X44000D02*
D03*
X55000Y83000D02*
D03*
X57000D02*
D03*
X59000D02*
D03*
X61000D02*
D03*
X63000D02*
D03*
X65000D02*
D03*
X67000D02*
D03*
X69000D02*
D03*
X56000Y83000D02*
D03*
X60000D02*
D03*
X62000D02*
D03*
X66000D02*
D03*
X68000Y83000D02*
D03*
X55000Y86400D02*
D03*
X57000D02*
D03*
X59000D02*
D03*
X61000D02*
D03*
X63000D02*
D03*
X69000D02*
D03*
X67000D02*
D03*
X65000D02*
D03*
X49100Y86600D02*
D03*
X0Y58381D02*
D03*
X-28800Y90200D02*
D03*
X-29900D02*
D03*
X20600Y70700D02*
D03*
X21700D02*
D03*
X-4000Y31700D02*
D03*
X4000Y25360D02*
D03*
X-4000Y19020D02*
D03*
X4000Y12680D02*
D03*
Y0D02*
D03*
X-4000Y6340D02*
D03*
X-750Y59246D02*
D03*
X-1635D02*
D03*
X746D02*
D03*
X1600D02*
D03*
X0D02*
D03*
Y60200D02*
D03*
Y60900D02*
D03*
X15250Y84800D02*
D03*
Y83750D02*
D03*
X14500Y83000D02*
D03*
X16200Y89400D02*
D03*
X17100Y88444D02*
D03*
X19500Y88600D02*
D03*
X0Y57611D02*
D03*
X50700Y89400D02*
D03*
X51700D02*
D03*
Y88500D02*
D03*
X50700D02*
D03*
X49700D02*
D03*
X48700D02*
D03*
X16807Y82020D02*
D03*
X19350Y74150D02*
D03*
X12700Y78900D02*
D03*
X16330Y60708D02*
D03*
X23030D02*
D03*
X-5300Y89000D02*
D03*
X-35000Y89100D02*
D03*
X-28200Y95700D02*
D03*
X-25800D02*
D03*
X-500Y97100D02*
D03*
X-20900Y95400D02*
D03*
X-9200Y97500D02*
D03*
X-6900D02*
D03*
X31800Y70700D02*
D03*
X21300Y81700D02*
D03*
X50200Y91800D02*
D03*
X44800Y93800D02*
D03*
X42400D02*
D03*
X70000Y102500D02*
D03*
Y98500D02*
D03*
Y88500D02*
D03*
Y86400D02*
D03*
Y83000D02*
D03*
Y59500D02*
D03*
X68000D02*
D03*
X66000D02*
D03*
X64000D02*
D03*
X62000D02*
D03*
X60000D02*
D03*
X58000D02*
D03*
X56000D02*
D03*
X54000D02*
D03*
X52000D02*
D03*
X50000D02*
D03*
X48000D02*
D03*
X46000D02*
D03*
X44000D02*
D03*
X42000D02*
D03*
X40000D02*
D03*
X64000Y102500D02*
D03*
X58000D02*
D03*
X46000Y102600D02*
D03*
X64000Y86400D02*
D03*
Y83000D02*
D03*
X58000D02*
D03*
Y86400D02*
D03*
X52200Y84700D02*
D03*
X38000Y98300D02*
D03*
X31500D02*
D03*
X21900Y77200D02*
D03*
X26400Y72600D02*
D03*
X49100Y80200D02*
D03*
Y81200D02*
D03*
Y82200D02*
D03*
Y83200D02*
D03*
X-15900Y88600D02*
D03*
X-14900D02*
D03*
X-15900Y94400D02*
D03*
X-14900D02*
D03*
X70000Y100500D02*
D03*
Y90500D02*
D03*
X56000Y86400D02*
D03*
X60000D02*
D03*
X62000D02*
D03*
X66000D02*
D03*
X68000D02*
D03*
Y102500D02*
D03*
X66000D02*
D03*
X62000D02*
D03*
X60000D02*
D03*
X56000D02*
D03*
X50000Y102600D02*
D03*
X48000D02*
D03*
X-475Y54000D02*
D03*
X-4700Y50300D02*
D03*
X3700Y51000D02*
D03*
X-3700D02*
D03*
X-5700D02*
D03*
X4700Y50300D02*
D03*
X5700Y51000D02*
D03*
X-10567Y88944D02*
D03*
X7252Y81680D02*
D03*
X-9015Y64086D02*
D03*
X-8442Y63234D02*
D03*
X-8338Y61507D02*
D03*
X-3230Y78833D02*
D03*
X-2625Y76869D02*
D03*
X10041Y71848D02*
D03*
X9990Y77198D02*
D03*
X8998Y70536D02*
D03*
X129Y64041D02*
D03*
X1249Y65484D02*
D03*
X5309Y62371D02*
D03*
X-3416Y70055D02*
D03*
X-2226Y66797D02*
D03*
X-5344Y65588D02*
D03*
X-6926Y67751D02*
D03*
X-4675Y84793D02*
D03*
X-8497Y84245D02*
D03*
X2220Y79222D02*
D03*
X6541Y74419D02*
D03*
X3166Y76416D02*
D03*
X2416Y77227D02*
D03*
X2718Y74761D02*
D03*
X-2676Y84201D02*
D03*
X-787Y84486D02*
D03*
X76Y81780D02*
D03*
X3406Y88409D02*
D03*
X753Y85618D02*
D03*
X-659Y88483D02*
D03*
X4718Y84068D02*
D03*
X-647Y85633D02*
D03*
X-6702Y85835D02*
D03*
X3907Y87336D02*
D03*
X14601Y81606D02*
D03*
X2990Y89415D02*
D03*
M02*
