G04 Layer_Color=2752767*
%FSLAX43Y43*%
%MOMM*%
G71*
G01*
G75*
%ADD45C,0.254*%
%ADD61C,0.203*%
%ADD164C,0.406*%
%ADD168C,0.051*%
%ADD169C,0.068*%
D45*
X5000Y-5000D02*
G03*
X7000Y-3000I0J2000D01*
G01*
X-7000D02*
G03*
X-5000Y-5000I2000J0D01*
G01*
X-7000Y49000D02*
G03*
X-9000Y51000I-2000J0D01*
G01*
X-31414Y51586D02*
G03*
X-30000Y51000I1414J1414D01*
G01*
X-37243Y57414D02*
G03*
X-38657Y58000I-1414J-1414D01*
G01*
X-82500Y60000D02*
G03*
X-80500Y58000I2000J0D01*
G01*
Y104000D02*
G03*
X-82500Y102000I0J-2000D01*
G01*
X82500D02*
G03*
X80500Y104000I-2000J0D01*
G01*
Y58000D02*
G03*
X82500Y60000I0J2000D01*
G01*
X38657Y58000D02*
G03*
X37243Y57414I0J-2000D01*
G01*
X30000Y51000D02*
G03*
X31414Y51586I0J2000D01*
G01*
X9000Y51000D02*
G03*
X7000Y49000I0J-2000D01*
G01*
X7000Y-3000D02*
Y49000D01*
X-5000Y-5000D02*
X5000D01*
X-7000Y-3000D02*
Y49000D01*
X-30000Y51000D02*
X-9000D01*
X-37243Y57414D02*
X-31414Y51586D01*
X-80500Y58000D02*
X-38657D01*
X-82500Y60000D02*
Y102000D01*
X-80500Y104000D02*
X80500D01*
X82500Y60000D02*
Y102000D01*
X38657Y58000D02*
X80500D01*
X31414Y51586D02*
X37243Y57414D01*
X9000Y51000D02*
X30000D01*
X93200Y109224D02*
Y107700D01*
Y109224D02*
X93708D01*
X93926Y109151D01*
X94071Y109006D01*
X94143Y108861D01*
X94216Y108643D01*
Y108280D01*
X94143Y108063D01*
X94071Y107918D01*
X93926Y107773D01*
X93708Y107700D01*
X93200D01*
X94557Y108716D02*
Y107700D01*
Y108280D02*
X94629Y108498D01*
X94774Y108643D01*
X94920Y108716D01*
X95137D01*
X95420Y109224D02*
X95493Y109151D01*
X95565Y109224D01*
X95493Y109296D01*
X95420Y109224D01*
X95493Y108716D02*
Y107700D01*
X95834Y109224D02*
Y107700D01*
X96153Y109224D02*
Y107700D01*
X97669Y109224D02*
Y107700D01*
Y109224D02*
X98177D01*
X98395Y109151D01*
X98540Y109006D01*
X98613Y108861D01*
X98685Y108643D01*
Y108280D01*
X98613Y108063D01*
X98540Y107918D01*
X98395Y107773D01*
X98177Y107700D01*
X97669D01*
X99026Y108716D02*
Y107700D01*
Y108280D02*
X99099Y108498D01*
X99244Y108643D01*
X99389Y108716D01*
X99607D01*
X100615D02*
Y107700D01*
Y108498D02*
X100470Y108643D01*
X100325Y108716D01*
X100107D01*
X99962Y108643D01*
X99817Y108498D01*
X99745Y108280D01*
Y108135D01*
X99817Y107918D01*
X99962Y107773D01*
X100107Y107700D01*
X100325D01*
X100470Y107773D01*
X100615Y107918D01*
X101022Y108716D02*
X101312Y107700D01*
X101602Y108716D02*
X101312Y107700D01*
X101602Y108716D02*
X101892Y107700D01*
X102182Y108716D02*
X101892Y107700D01*
X102683Y109224D02*
X102756Y109151D01*
X102828Y109224D01*
X102756Y109296D01*
X102683Y109224D01*
X102756Y108716D02*
Y107700D01*
X103097Y108716D02*
Y107700D01*
Y108426D02*
X103314Y108643D01*
X103459Y108716D01*
X103677D01*
X103822Y108643D01*
X103895Y108426D01*
Y107700D01*
X105164Y108716D02*
Y107555D01*
X105092Y107337D01*
X105019Y107265D01*
X104874Y107192D01*
X104657D01*
X104511Y107265D01*
X105164Y108498D02*
X105019Y108643D01*
X104874Y108716D01*
X104657D01*
X104511Y108643D01*
X104366Y108498D01*
X104294Y108280D01*
Y108135D01*
X104366Y107918D01*
X104511Y107773D01*
X104657Y107700D01*
X104874D01*
X105019Y107773D01*
X105164Y107918D01*
X106768Y109224D02*
Y107700D01*
Y109224D02*
X107276D01*
X107494Y109151D01*
X107639Y109006D01*
X107711Y108861D01*
X107784Y108643D01*
Y108280D01*
X107711Y108063D01*
X107639Y107918D01*
X107494Y107773D01*
X107276Y107700D01*
X106768D01*
X108125Y108280D02*
X108995D01*
Y108426D01*
X108923Y108571D01*
X108850Y108643D01*
X108705Y108716D01*
X108488D01*
X108342Y108643D01*
X108197Y108498D01*
X108125Y108280D01*
Y108135D01*
X108197Y107918D01*
X108342Y107773D01*
X108488Y107700D01*
X108705D01*
X108850Y107773D01*
X108995Y107918D01*
X109322Y108716D02*
Y107700D01*
Y108426D02*
X109540Y108643D01*
X109685Y108716D01*
X109902D01*
X110047Y108643D01*
X110120Y108426D01*
Y107700D01*
X110882Y108716D02*
X110737Y108643D01*
X110592Y108498D01*
X110519Y108280D01*
Y108135D01*
X110592Y107918D01*
X110737Y107773D01*
X110882Y107700D01*
X111100D01*
X111245Y107773D01*
X111390Y107918D01*
X111462Y108135D01*
Y108280D01*
X111390Y108498D01*
X111245Y108643D01*
X111100Y108716D01*
X110882D01*
X112014Y109224D02*
Y107990D01*
X112086Y107773D01*
X112231Y107700D01*
X112377D01*
X111796Y108716D02*
X112304D01*
X112594Y108280D02*
X113465D01*
Y108426D01*
X113392Y108571D01*
X113320Y108643D01*
X113175Y108716D01*
X112957D01*
X112812Y108643D01*
X112667Y108498D01*
X112594Y108280D01*
Y108135D01*
X112667Y107918D01*
X112812Y107773D01*
X112957Y107700D01*
X113175D01*
X113320Y107773D01*
X113465Y107918D01*
X114589Y108498D02*
X114517Y108643D01*
X114299Y108716D01*
X114082D01*
X113864Y108643D01*
X113791Y108498D01*
X113864Y108353D01*
X114009Y108280D01*
X114372Y108208D01*
X114517Y108135D01*
X114589Y107990D01*
Y107918D01*
X114517Y107773D01*
X114299Y107700D01*
X114082D01*
X113864Y107773D01*
X113791Y107918D01*
X116106Y109224D02*
Y107700D01*
Y109224D02*
X117049D01*
X116106Y108498D02*
X116686D01*
X117368Y109224D02*
X117441Y109151D01*
X117513Y109224D01*
X117441Y109296D01*
X117368Y109224D01*
X117441Y108716D02*
Y107700D01*
X117782Y108716D02*
Y107700D01*
Y108426D02*
X118000Y108643D01*
X118145Y108716D01*
X118362D01*
X118507Y108643D01*
X118580Y108426D01*
Y107700D01*
X119124Y109224D02*
X119197Y109151D01*
X119269Y109224D01*
X119197Y109296D01*
X119124Y109224D01*
X119197Y108716D02*
Y107700D01*
X120336Y108498D02*
X120263Y108643D01*
X120046Y108716D01*
X119828D01*
X119610Y108643D01*
X119538Y108498D01*
X119610Y108353D01*
X119755Y108280D01*
X120118Y108208D01*
X120263Y108135D01*
X120336Y107990D01*
Y107918D01*
X120263Y107773D01*
X120046Y107700D01*
X119828D01*
X119610Y107773D01*
X119538Y107918D01*
X120655Y109224D02*
Y107700D01*
Y108426D02*
X120873Y108643D01*
X121018Y108716D01*
X121236D01*
X121381Y108643D01*
X121453Y108426D01*
Y107700D01*
X121852Y108280D02*
X122723D01*
Y108426D01*
X122650Y108571D01*
X122578Y108643D01*
X122433Y108716D01*
X122215D01*
X122070Y108643D01*
X121925Y108498D01*
X121852Y108280D01*
Y108135D01*
X121925Y107918D01*
X122070Y107773D01*
X122215Y107700D01*
X122433D01*
X122578Y107773D01*
X122723Y107918D01*
X123920Y109224D02*
Y107700D01*
Y108498D02*
X123775Y108643D01*
X123630Y108716D01*
X123412D01*
X123267Y108643D01*
X123122Y108498D01*
X123049Y108280D01*
Y108135D01*
X123122Y107918D01*
X123267Y107773D01*
X123412Y107700D01*
X123630D01*
X123775Y107773D01*
X123920Y107918D01*
X125524Y109224D02*
Y107700D01*
X126539Y109224D02*
Y107700D01*
X125524Y108498D02*
X126539D01*
X127323Y108716D02*
X127178Y108643D01*
X127033Y108498D01*
X126960Y108280D01*
Y108135D01*
X127033Y107918D01*
X127178Y107773D01*
X127323Y107700D01*
X127541D01*
X127686Y107773D01*
X127831Y107918D01*
X127903Y108135D01*
Y108280D01*
X127831Y108498D01*
X127686Y108643D01*
X127541Y108716D01*
X127323D01*
X128237Y109224D02*
Y107700D01*
X128556Y108280D02*
X129427D01*
Y108426D01*
X129355Y108571D01*
X129282Y108643D01*
X129137Y108716D01*
X128919D01*
X128774Y108643D01*
X128629Y108498D01*
X128556Y108280D01*
Y108135D01*
X128629Y107918D01*
X128774Y107773D01*
X128919Y107700D01*
X129137D01*
X129282Y107773D01*
X129427Y107918D01*
X130552Y108498D02*
X130479Y108643D01*
X130262Y108716D01*
X130044D01*
X129826Y108643D01*
X129754Y108498D01*
X129826Y108353D01*
X129971Y108280D01*
X130334Y108208D01*
X130479Y108135D01*
X130552Y107990D01*
Y107918D01*
X130479Y107773D01*
X130262Y107700D01*
X130044D01*
X129826Y107773D01*
X129754Y107918D01*
X130944Y107845D02*
X130871Y107773D01*
X130944Y107700D01*
X131016Y107773D01*
X130944Y107845D01*
X105297Y133260D02*
X104572Y132244D01*
X105660D01*
X105297Y133260D02*
Y131736D01*
X106799Y133042D02*
X106727Y133187D01*
X106509Y133260D01*
X106364D01*
X106146Y133187D01*
X106001Y132969D01*
X105929Y132607D01*
Y132244D01*
X106001Y131954D01*
X106146Y131809D01*
X106364Y131736D01*
X106437D01*
X106654Y131809D01*
X106799Y131954D01*
X106872Y132171D01*
Y132244D01*
X106799Y132462D01*
X106654Y132607D01*
X106437Y132679D01*
X106364D01*
X106146Y132607D01*
X106001Y132462D01*
X105929Y132244D01*
X108076Y133260D02*
X107351D01*
X107278Y132607D01*
X107351Y132679D01*
X107568Y132752D01*
X107786D01*
X108004Y132679D01*
X108149Y132534D01*
X108221Y132316D01*
Y132171D01*
X108149Y131954D01*
X108004Y131809D01*
X107786Y131736D01*
X107568D01*
X107351Y131809D01*
X107278Y131881D01*
X107206Y132026D01*
X119766Y133260D02*
X119548Y133187D01*
X119403Y132969D01*
X119330Y132607D01*
Y132389D01*
X119403Y132026D01*
X119548Y131809D01*
X119766Y131736D01*
X119911D01*
X120128Y131809D01*
X120274Y132026D01*
X120346Y132389D01*
Y132607D01*
X120274Y132969D01*
X120128Y133187D01*
X119911Y133260D01*
X119766D01*
X120760Y131881D02*
X120687Y131809D01*
X120760Y131736D01*
X120832Y131809D01*
X120760Y131881D01*
X121239Y132897D02*
Y132969D01*
X121311Y133115D01*
X121384Y133187D01*
X121529Y133260D01*
X121819D01*
X121964Y133187D01*
X122037Y133115D01*
X122109Y132969D01*
Y132824D01*
X122037Y132679D01*
X121892Y132462D01*
X121166Y131736D01*
X122182D01*
X123394Y133260D02*
X122668D01*
X122595Y132607D01*
X122668Y132679D01*
X122886Y132752D01*
X123103D01*
X123321Y132679D01*
X123466Y132534D01*
X123539Y132316D01*
Y132171D01*
X123466Y131954D01*
X123321Y131809D01*
X123103Y131736D01*
X122886D01*
X122668Y131809D01*
X122595Y131881D01*
X122523Y132026D01*
X124605Y133260D02*
X123880Y132244D01*
X124968D01*
X124605Y133260D02*
Y131736D01*
X125236Y132752D02*
Y131736D01*
Y132462D02*
X125454Y132679D01*
X125599Y132752D01*
X125817D01*
X125962Y132679D01*
X126035Y132462D01*
Y131736D01*
Y132462D02*
X126252Y132679D01*
X126397Y132752D01*
X126615D01*
X126760Y132679D01*
X126833Y132462D01*
Y131736D01*
X127312Y132752D02*
Y131736D01*
Y132462D02*
X127529Y132679D01*
X127674Y132752D01*
X127892D01*
X128037Y132679D01*
X128110Y132462D01*
Y131736D01*
Y132462D02*
X128327Y132679D01*
X128472Y132752D01*
X128690D01*
X128835Y132679D01*
X128908Y132462D01*
Y131736D01*
X131092Y133550D02*
X130947Y133405D01*
X130801Y133187D01*
X130656Y132897D01*
X130584Y132534D01*
Y132244D01*
X130656Y131881D01*
X130801Y131591D01*
X130947Y131373D01*
X131092Y131228D01*
X130947Y133405D02*
X130801Y133115D01*
X130729Y132897D01*
X130656Y132534D01*
Y132244D01*
X130729Y131881D01*
X130801Y131663D01*
X130947Y131373D01*
X131382Y132969D02*
X131527Y133042D01*
X131745Y133260D01*
Y131736D01*
X132935Y133260D02*
X132717Y133187D01*
X132572Y132969D01*
X132499Y132607D01*
Y132389D01*
X132572Y132026D01*
X132717Y131809D01*
X132935Y131736D01*
X133080D01*
X133297Y131809D01*
X133443Y132026D01*
X133515Y132389D01*
Y132607D01*
X133443Y132969D01*
X133297Y133187D01*
X133080Y133260D01*
X132935D01*
X133856Y132752D02*
Y131736D01*
Y132462D02*
X134074Y132679D01*
X134219Y132752D01*
X134437D01*
X134582Y132679D01*
X134654Y132462D01*
Y131736D01*
Y132462D02*
X134872Y132679D01*
X135017Y132752D01*
X135235D01*
X135380Y132679D01*
X135452Y132462D01*
Y131736D01*
X136076Y133260D02*
X136149Y133187D01*
X136221Y133260D01*
X136149Y133332D01*
X136076Y133260D01*
X136149Y132752D02*
Y131736D01*
X136490Y133260D02*
Y131736D01*
X136809Y133550D02*
X136954Y133405D01*
X137099Y133187D01*
X137244Y132897D01*
X137317Y132534D01*
Y132244D01*
X137244Y131881D01*
X137099Y131591D01*
X136954Y131373D01*
X136809Y131228D01*
X136954Y133405D02*
X137099Y133115D01*
X137172Y132897D01*
X137244Y132534D01*
Y132244D01*
X137172Y131881D01*
X137099Y131663D01*
X136954Y131373D01*
X144876Y132462D02*
X145529D01*
X145747Y132534D01*
X145820Y132607D01*
X145892Y132752D01*
Y132969D01*
X145820Y133115D01*
X145747Y133187D01*
X145529Y133260D01*
X144876D01*
Y131736D01*
X146741Y133260D02*
Y131736D01*
X146233Y133260D02*
X147249D01*
X147430D02*
Y131736D01*
X148446Y133260D02*
Y131736D01*
X147430Y132534D02*
X148446D01*
X154907Y133260D02*
Y131736D01*
Y133260D02*
X155560D01*
X155778Y133187D01*
X155850Y133115D01*
X155923Y132969D01*
Y132824D01*
X155850Y132679D01*
X155778Y132607D01*
X155560Y132534D01*
X154907D01*
X155415D02*
X155923Y131736D01*
X156627Y132752D02*
X156482Y132679D01*
X156337Y132534D01*
X156264Y132316D01*
Y132171D01*
X156337Y131954D01*
X156482Y131809D01*
X156627Y131736D01*
X156845D01*
X156990Y131809D01*
X157135Y131954D01*
X157207Y132171D01*
Y132316D01*
X157135Y132534D01*
X156990Y132679D01*
X156845Y132752D01*
X156627D01*
X157541D02*
Y132026D01*
X157614Y131809D01*
X157759Y131736D01*
X157976D01*
X158122Y131809D01*
X158339Y132026D01*
Y132752D02*
Y131736D01*
X158738Y132752D02*
Y131736D01*
Y132462D02*
X158956Y132679D01*
X159101Y132752D01*
X159319D01*
X159464Y132679D01*
X159536Y132462D01*
Y131736D01*
X160806Y133260D02*
Y131736D01*
Y132534D02*
X160661Y132679D01*
X160516Y132752D01*
X160298D01*
X160153Y132679D01*
X160008Y132534D01*
X159935Y132316D01*
Y132171D01*
X160008Y131954D01*
X160153Y131809D01*
X160298Y131736D01*
X160516D01*
X160661Y131809D01*
X160806Y131954D01*
X104644Y129849D02*
Y129921D01*
X104717Y130067D01*
X104790Y130139D01*
X104935Y130212D01*
X105225D01*
X105370Y130139D01*
X105443Y130067D01*
X105515Y129921D01*
Y129776D01*
X105443Y129631D01*
X105297Y129414D01*
X104572Y128688D01*
X105588D01*
X119330Y129921D02*
X119475Y129994D01*
X119693Y130212D01*
Y128688D01*
X120448Y129704D02*
Y128688D01*
Y129414D02*
X120665Y129631D01*
X120811Y129704D01*
X121028D01*
X121173Y129631D01*
X121246Y129414D01*
Y128688D01*
Y129414D02*
X121464Y129631D01*
X121609Y129704D01*
X121826D01*
X121971Y129631D01*
X122044Y129414D01*
Y128688D01*
X122523Y129704D02*
Y128688D01*
Y129414D02*
X122741Y129631D01*
X122886Y129704D01*
X123103D01*
X123248Y129631D01*
X123321Y129414D01*
Y128688D01*
Y129414D02*
X123539Y129631D01*
X123684Y129704D01*
X123901D01*
X124047Y129631D01*
X124119Y129414D01*
Y128688D01*
X126303Y130502D02*
X126158Y130357D01*
X126013Y130139D01*
X125868Y129849D01*
X125795Y129486D01*
Y129196D01*
X125868Y128833D01*
X126013Y128543D01*
X126158Y128325D01*
X126303Y128180D01*
X126158Y130357D02*
X126013Y130067D01*
X125940Y129849D01*
X125868Y129486D01*
Y129196D01*
X125940Y128833D01*
X126013Y128615D01*
X126158Y128325D01*
X126738Y130212D02*
X127536D01*
X127101Y129631D01*
X127319D01*
X127464Y129559D01*
X127536Y129486D01*
X127609Y129268D01*
Y129123D01*
X127536Y128906D01*
X127391Y128761D01*
X127174Y128688D01*
X126956D01*
X126738Y128761D01*
X126666Y128833D01*
X126593Y128978D01*
X128893Y129704D02*
X128821Y129486D01*
X128676Y129341D01*
X128458Y129268D01*
X128385D01*
X128168Y129341D01*
X128023Y129486D01*
X127950Y129704D01*
Y129776D01*
X128023Y129994D01*
X128168Y130139D01*
X128385Y130212D01*
X128458D01*
X128676Y130139D01*
X128821Y129994D01*
X128893Y129704D01*
Y129341D01*
X128821Y128978D01*
X128676Y128761D01*
X128458Y128688D01*
X128313D01*
X128095Y128761D01*
X128023Y128906D01*
X129379Y128833D02*
X129307Y128761D01*
X129379Y128688D01*
X129452Y128761D01*
X129379Y128833D01*
X129931Y130212D02*
X130729D01*
X130294Y129631D01*
X130511D01*
X130656Y129559D01*
X130729Y129486D01*
X130801Y129268D01*
Y129123D01*
X130729Y128906D01*
X130584Y128761D01*
X130366Y128688D01*
X130148D01*
X129931Y128761D01*
X129858Y128833D01*
X129786Y128978D01*
X132158Y130212D02*
X131433Y128688D01*
X131142Y130212D02*
X132158D01*
X132499Y129704D02*
Y128688D01*
Y129414D02*
X132717Y129631D01*
X132862Y129704D01*
X133080D01*
X133225Y129631D01*
X133297Y129414D01*
Y128688D01*
Y129414D02*
X133515Y129631D01*
X133660Y129704D01*
X133878D01*
X134023Y129631D01*
X134096Y129414D01*
Y128688D01*
X134719Y130212D02*
X134792Y130139D01*
X134865Y130212D01*
X134792Y130284D01*
X134719Y130212D01*
X134792Y129704D02*
Y128688D01*
X135133Y130212D02*
Y128688D01*
X135452Y130502D02*
X135597Y130357D01*
X135743Y130139D01*
X135888Y129849D01*
X135960Y129486D01*
Y129196D01*
X135888Y128833D01*
X135743Y128543D01*
X135597Y128325D01*
X135452Y128180D01*
X135597Y130357D02*
X135743Y130067D01*
X135815Y129849D01*
X135888Y129486D01*
Y129196D01*
X135815Y128833D01*
X135743Y128615D01*
X135597Y128325D01*
X144876Y129414D02*
X145529D01*
X145747Y129486D01*
X145820Y129559D01*
X145892Y129704D01*
Y129921D01*
X145820Y130067D01*
X145747Y130139D01*
X145529Y130212D01*
X144876D01*
Y128688D01*
X146741Y130212D02*
Y128688D01*
X146233Y130212D02*
X147249D01*
X147430D02*
Y128688D01*
X148446Y130212D02*
Y128688D01*
X147430Y129486D02*
X148446D01*
X154907Y130212D02*
Y128688D01*
Y130212D02*
X155560D01*
X155778Y130139D01*
X155850Y130067D01*
X155923Y129921D01*
Y129776D01*
X155850Y129631D01*
X155778Y129559D01*
X155560Y129486D01*
X154907D01*
X155415D02*
X155923Y128688D01*
X156627Y129704D02*
X156482Y129631D01*
X156337Y129486D01*
X156264Y129268D01*
Y129123D01*
X156337Y128906D01*
X156482Y128761D01*
X156627Y128688D01*
X156845D01*
X156990Y128761D01*
X157135Y128906D01*
X157207Y129123D01*
Y129268D01*
X157135Y129486D01*
X156990Y129631D01*
X156845Y129704D01*
X156627D01*
X157541D02*
Y128978D01*
X157614Y128761D01*
X157759Y128688D01*
X157976D01*
X158122Y128761D01*
X158339Y128978D01*
Y129704D02*
Y128688D01*
X158738Y129704D02*
Y128688D01*
Y129414D02*
X158956Y129631D01*
X159101Y129704D01*
X159319D01*
X159464Y129631D01*
X159536Y129414D01*
Y128688D01*
X160806Y130212D02*
Y128688D01*
Y129486D02*
X160661Y129631D01*
X160516Y129704D01*
X160298D01*
X160153Y129631D01*
X160008Y129486D01*
X159935Y129268D01*
Y129123D01*
X160008Y128906D01*
X160153Y128761D01*
X160298Y128688D01*
X160516D01*
X160661Y128761D01*
X160806Y128906D01*
X104644Y126801D02*
Y126873D01*
X104717Y127019D01*
X104790Y127091D01*
X104935Y127164D01*
X105225D01*
X105370Y127091D01*
X105443Y127019D01*
X105515Y126873D01*
Y126728D01*
X105443Y126583D01*
X105297Y126366D01*
X104572Y125640D01*
X105588D01*
X119330Y126873D02*
X119475Y126946D01*
X119693Y127164D01*
Y125640D01*
X120520Y125785D02*
X120448Y125713D01*
X120520Y125640D01*
X120593Y125713D01*
X120520Y125785D01*
X121362Y127164D02*
X121144Y127091D01*
X120999Y126873D01*
X120927Y126511D01*
Y126293D01*
X120999Y125930D01*
X121144Y125713D01*
X121362Y125640D01*
X121507D01*
X121725Y125713D01*
X121870Y125930D01*
X121942Y126293D01*
Y126511D01*
X121870Y126873D01*
X121725Y127091D01*
X121507Y127164D01*
X121362D01*
X122283Y126873D02*
X122429Y126946D01*
X122646Y127164D01*
Y125640D01*
X124271Y126946D02*
X124199Y127091D01*
X123981Y127164D01*
X123836D01*
X123618Y127091D01*
X123473Y126873D01*
X123401Y126511D01*
Y126148D01*
X123473Y125858D01*
X123618Y125713D01*
X123836Y125640D01*
X123909D01*
X124126Y125713D01*
X124271Y125858D01*
X124344Y126075D01*
Y126148D01*
X124271Y126366D01*
X124126Y126511D01*
X123909Y126583D01*
X123836D01*
X123618Y126511D01*
X123473Y126366D01*
X123401Y126148D01*
X124678Y126656D02*
Y125640D01*
Y126366D02*
X124895Y126583D01*
X125041Y126656D01*
X125258D01*
X125403Y126583D01*
X125476Y126366D01*
Y125640D01*
Y126366D02*
X125694Y126583D01*
X125839Y126656D01*
X126056D01*
X126201Y126583D01*
X126274Y126366D01*
Y125640D01*
X126753Y126656D02*
Y125640D01*
Y126366D02*
X126971Y126583D01*
X127116Y126656D01*
X127333D01*
X127478Y126583D01*
X127551Y126366D01*
Y125640D01*
Y126366D02*
X127769Y126583D01*
X127914Y126656D01*
X128131D01*
X128277Y126583D01*
X128349Y126366D01*
Y125640D01*
X130533Y127454D02*
X130388Y127309D01*
X130243Y127091D01*
X130098Y126801D01*
X130025Y126438D01*
Y126148D01*
X130098Y125785D01*
X130243Y125495D01*
X130388Y125277D01*
X130533Y125132D01*
X130388Y127309D02*
X130243Y127019D01*
X130170Y126801D01*
X130098Y126438D01*
Y126148D01*
X130170Y125785D01*
X130243Y125567D01*
X130388Y125277D01*
X131549Y127164D02*
X130823Y126148D01*
X131912D01*
X131549Y127164D02*
Y125640D01*
X132615Y127164D02*
X132398Y127091D01*
X132253Y126873D01*
X132180Y126511D01*
Y126293D01*
X132253Y125930D01*
X132398Y125713D01*
X132615Y125640D01*
X132760D01*
X132978Y125713D01*
X133123Y125930D01*
X133196Y126293D01*
Y126511D01*
X133123Y126873D01*
X132978Y127091D01*
X132760Y127164D01*
X132615D01*
X133537Y126656D02*
Y125640D01*
Y126366D02*
X133754Y126583D01*
X133900Y126656D01*
X134117D01*
X134262Y126583D01*
X134335Y126366D01*
Y125640D01*
Y126366D02*
X134553Y126583D01*
X134698Y126656D01*
X134915D01*
X135060Y126583D01*
X135133Y126366D01*
Y125640D01*
X135757Y127164D02*
X135830Y127091D01*
X135902Y127164D01*
X135830Y127236D01*
X135757Y127164D01*
X135830Y126656D02*
Y125640D01*
X136171Y127164D02*
Y125640D01*
X136490Y127454D02*
X136635Y127309D01*
X136780Y127091D01*
X136925Y126801D01*
X136998Y126438D01*
Y126148D01*
X136925Y125785D01*
X136780Y125495D01*
X136635Y125277D01*
X136490Y125132D01*
X136635Y127309D02*
X136780Y127019D01*
X136853Y126801D01*
X136925Y126438D01*
Y126148D01*
X136853Y125785D01*
X136780Y125567D01*
X136635Y125277D01*
X144876Y126366D02*
X145529D01*
X145747Y126438D01*
X145820Y126511D01*
X145892Y126656D01*
Y126873D01*
X145820Y127019D01*
X145747Y127091D01*
X145529Y127164D01*
X144876D01*
Y125640D01*
X146741Y127164D02*
Y125640D01*
X146233Y127164D02*
X147249D01*
X147430D02*
Y125640D01*
X148446Y127164D02*
Y125640D01*
X147430Y126438D02*
X148446D01*
X154907Y127164D02*
Y125640D01*
Y127164D02*
X155560D01*
X155778Y127091D01*
X155850Y127019D01*
X155923Y126873D01*
Y126728D01*
X155850Y126583D01*
X155778Y126511D01*
X155560Y126438D01*
X154907D01*
X155415D02*
X155923Y125640D01*
X156627Y126656D02*
X156482Y126583D01*
X156337Y126438D01*
X156264Y126220D01*
Y126075D01*
X156337Y125858D01*
X156482Y125713D01*
X156627Y125640D01*
X156845D01*
X156990Y125713D01*
X157135Y125858D01*
X157207Y126075D01*
Y126220D01*
X157135Y126438D01*
X156990Y126583D01*
X156845Y126656D01*
X156627D01*
X157541D02*
Y125930D01*
X157614Y125713D01*
X157759Y125640D01*
X157976D01*
X158122Y125713D01*
X158339Y125930D01*
Y126656D02*
Y125640D01*
X158738Y126656D02*
Y125640D01*
Y126366D02*
X158956Y126583D01*
X159101Y126656D01*
X159319D01*
X159464Y126583D01*
X159536Y126366D01*
Y125640D01*
X160806Y127164D02*
Y125640D01*
Y126438D02*
X160661Y126583D01*
X160516Y126656D01*
X160298D01*
X160153Y126583D01*
X160008Y126438D01*
X159935Y126220D01*
Y126075D01*
X160008Y125858D01*
X160153Y125713D01*
X160298Y125640D01*
X160516D01*
X160661Y125713D01*
X160806Y125858D01*
X104644Y123753D02*
Y123825D01*
X104717Y123971D01*
X104790Y124043D01*
X104935Y124116D01*
X105225D01*
X105370Y124043D01*
X105443Y123971D01*
X105515Y123825D01*
Y123680D01*
X105443Y123535D01*
X105297Y123318D01*
X104572Y122592D01*
X105588D01*
X119330Y123825D02*
X119475Y123898D01*
X119693Y124116D01*
Y122592D01*
X120520Y122737D02*
X120448Y122665D01*
X120520Y122592D01*
X120593Y122665D01*
X120520Y122737D01*
X120927Y123825D02*
X121072Y123898D01*
X121289Y124116D01*
Y122592D01*
X122987Y123608D02*
X122915Y123390D01*
X122770Y123245D01*
X122552Y123172D01*
X122479D01*
X122262Y123245D01*
X122117Y123390D01*
X122044Y123608D01*
Y123680D01*
X122117Y123898D01*
X122262Y124043D01*
X122479Y124116D01*
X122552D01*
X122770Y124043D01*
X122915Y123898D01*
X122987Y123608D01*
Y123245D01*
X122915Y122882D01*
X122770Y122665D01*
X122552Y122592D01*
X122407D01*
X122189Y122665D01*
X122117Y122810D01*
X123546Y124116D02*
X124344D01*
X123909Y123535D01*
X124126D01*
X124271Y123463D01*
X124344Y123390D01*
X124417Y123172D01*
Y123027D01*
X124344Y122810D01*
X124199Y122665D01*
X123981Y122592D01*
X123764D01*
X123546Y122665D01*
X123473Y122737D01*
X123401Y122882D01*
X125120Y124116D02*
X124903Y124043D01*
X124830Y123898D01*
Y123753D01*
X124903Y123608D01*
X125048Y123535D01*
X125338Y123463D01*
X125556Y123390D01*
X125701Y123245D01*
X125773Y123100D01*
Y122882D01*
X125701Y122737D01*
X125628Y122665D01*
X125411Y122592D01*
X125120D01*
X124903Y122665D01*
X124830Y122737D01*
X124758Y122882D01*
Y123100D01*
X124830Y123245D01*
X124975Y123390D01*
X125193Y123463D01*
X125483Y123535D01*
X125628Y123608D01*
X125701Y123753D01*
Y123898D01*
X125628Y124043D01*
X125411Y124116D01*
X125120D01*
X126114Y123608D02*
Y122592D01*
Y123318D02*
X126332Y123535D01*
X126477Y123608D01*
X126695D01*
X126840Y123535D01*
X126912Y123318D01*
Y122592D01*
Y123318D02*
X127130Y123535D01*
X127275Y123608D01*
X127493D01*
X127638Y123535D01*
X127711Y123318D01*
Y122592D01*
X128189Y123608D02*
Y122592D01*
Y123318D02*
X128407Y123535D01*
X128552Y123608D01*
X128770D01*
X128915Y123535D01*
X128988Y123318D01*
Y122592D01*
Y123318D02*
X129205Y123535D01*
X129350Y123608D01*
X129568D01*
X129713Y123535D01*
X129786Y123318D01*
Y122592D01*
X131970Y124406D02*
X131824Y124261D01*
X131679Y124043D01*
X131534Y123753D01*
X131462Y123390D01*
Y123100D01*
X131534Y122737D01*
X131679Y122447D01*
X131824Y122229D01*
X131970Y122084D01*
X131824Y124261D02*
X131679Y123971D01*
X131607Y123753D01*
X131534Y123390D01*
Y123100D01*
X131607Y122737D01*
X131679Y122519D01*
X131824Y122229D01*
X132985Y124116D02*
X132260Y123100D01*
X133348D01*
X132985Y124116D02*
Y122592D01*
X134632Y124116D02*
X133907Y122592D01*
X133617Y124116D02*
X134632D01*
X134973Y123608D02*
Y122592D01*
Y123318D02*
X135191Y123535D01*
X135336Y123608D01*
X135554D01*
X135699Y123535D01*
X135772Y123318D01*
Y122592D01*
Y123318D02*
X135989Y123535D01*
X136134Y123608D01*
X136352D01*
X136497Y123535D01*
X136570Y123318D01*
Y122592D01*
X137194Y124116D02*
X137266Y124043D01*
X137339Y124116D01*
X137266Y124188D01*
X137194Y124116D01*
X137266Y123608D02*
Y122592D01*
X137607Y124116D02*
Y122592D01*
X137926Y124406D02*
X138072Y124261D01*
X138217Y124043D01*
X138362Y123753D01*
X138434Y123390D01*
Y123100D01*
X138362Y122737D01*
X138217Y122447D01*
X138072Y122229D01*
X137926Y122084D01*
X138072Y124261D02*
X138217Y123971D01*
X138289Y123753D01*
X138362Y123390D01*
Y123100D01*
X138289Y122737D01*
X138217Y122519D01*
X138072Y122229D01*
X144876Y123318D02*
X145529D01*
X145747Y123390D01*
X145820Y123463D01*
X145892Y123608D01*
Y123825D01*
X145820Y123971D01*
X145747Y124043D01*
X145529Y124116D01*
X144876D01*
Y122592D01*
X146741Y124116D02*
Y122592D01*
X146233Y124116D02*
X147249D01*
X147430D02*
Y122592D01*
X148446Y124116D02*
Y122592D01*
X147430Y123390D02*
X148446D01*
X154907Y124116D02*
Y122592D01*
Y124116D02*
X155560D01*
X155778Y124043D01*
X155850Y123971D01*
X155923Y123825D01*
Y123680D01*
X155850Y123535D01*
X155778Y123463D01*
X155560Y123390D01*
X154907D01*
X155415D02*
X155923Y122592D01*
X156627Y123608D02*
X156482Y123535D01*
X156337Y123390D01*
X156264Y123172D01*
Y123027D01*
X156337Y122810D01*
X156482Y122665D01*
X156627Y122592D01*
X156845D01*
X156990Y122665D01*
X157135Y122810D01*
X157207Y123027D01*
Y123172D01*
X157135Y123390D01*
X156990Y123535D01*
X156845Y123608D01*
X156627D01*
X157541D02*
Y122882D01*
X157614Y122665D01*
X157759Y122592D01*
X157976D01*
X158122Y122665D01*
X158339Y122882D01*
Y123608D02*
Y122592D01*
X158738Y123608D02*
Y122592D01*
Y123318D02*
X158956Y123535D01*
X159101Y123608D01*
X159319D01*
X159464Y123535D01*
X159536Y123318D01*
Y122592D01*
X160806Y124116D02*
Y122592D01*
Y123390D02*
X160661Y123535D01*
X160516Y123608D01*
X160298D01*
X160153Y123535D01*
X160008Y123390D01*
X159935Y123172D01*
Y123027D01*
X160008Y122810D01*
X160153Y122665D01*
X160298Y122592D01*
X160516D01*
X160661Y122665D01*
X160806Y122810D01*
X104572Y120777D02*
X104717Y120850D01*
X104935Y121068D01*
Y119544D01*
X119330Y120777D02*
X119475Y120850D01*
X119693Y121068D01*
Y119544D01*
X120520Y119689D02*
X120448Y119617D01*
X120520Y119544D01*
X120593Y119617D01*
X120520Y119689D01*
X120999Y120705D02*
Y120777D01*
X121072Y120923D01*
X121144Y120995D01*
X121289Y121068D01*
X121580D01*
X121725Y120995D01*
X121797Y120923D01*
X121870Y120777D01*
Y120632D01*
X121797Y120487D01*
X121652Y120270D01*
X120927Y119544D01*
X121942D01*
X122283Y120560D02*
Y119544D01*
Y120270D02*
X122501Y120487D01*
X122646Y120560D01*
X122864D01*
X123009Y120487D01*
X123082Y120270D01*
Y119544D01*
Y120270D02*
X123299Y120487D01*
X123444Y120560D01*
X123662D01*
X123807Y120487D01*
X123880Y120270D01*
Y119544D01*
X124358Y120560D02*
Y119544D01*
Y120270D02*
X124576Y120487D01*
X124721Y120560D01*
X124939D01*
X125084Y120487D01*
X125157Y120270D01*
Y119544D01*
Y120270D02*
X125374Y120487D01*
X125519Y120560D01*
X125737D01*
X125882Y120487D01*
X125955Y120270D01*
Y119544D01*
X128139Y121358D02*
X127994Y121213D01*
X127848Y120995D01*
X127703Y120705D01*
X127631Y120342D01*
Y120052D01*
X127703Y119689D01*
X127848Y119399D01*
X127994Y119181D01*
X128139Y119036D01*
X127994Y121213D02*
X127848Y120923D01*
X127776Y120705D01*
X127703Y120342D01*
Y120052D01*
X127776Y119689D01*
X127848Y119471D01*
X127994Y119181D01*
X129154Y121068D02*
X128429Y120052D01*
X129517D01*
X129154Y121068D02*
Y119544D01*
X130801Y121068D02*
X130076Y119544D01*
X129786Y121068D02*
X130801D01*
X131215Y119689D02*
X131142Y119617D01*
X131215Y119544D01*
X131288Y119617D01*
X131215Y119689D01*
X131694Y120705D02*
Y120777D01*
X131766Y120923D01*
X131839Y120995D01*
X131984Y121068D01*
X132274D01*
X132419Y120995D01*
X132492Y120923D01*
X132565Y120777D01*
Y120632D01*
X132492Y120487D01*
X132347Y120270D01*
X131621Y119544D01*
X132637D01*
X133704Y121068D02*
X132978Y120052D01*
X134066D01*
X133704Y121068D02*
Y119544D01*
X135060Y121068D02*
X134335Y120052D01*
X135423D01*
X135060Y121068D02*
Y119544D01*
X135692Y120560D02*
Y119544D01*
Y120270D02*
X135909Y120487D01*
X136055Y120560D01*
X136272D01*
X136417Y120487D01*
X136490Y120270D01*
Y119544D01*
Y120270D02*
X136708Y120487D01*
X136853Y120560D01*
X137070D01*
X137215Y120487D01*
X137288Y120270D01*
Y119544D01*
X137912Y121068D02*
X137984Y120995D01*
X138057Y121068D01*
X137984Y121140D01*
X137912Y121068D01*
X137984Y120560D02*
Y119544D01*
X138326Y121068D02*
Y119544D01*
X138645Y121358D02*
X138790Y121213D01*
X138935Y120995D01*
X139080Y120705D01*
X139153Y120342D01*
Y120052D01*
X139080Y119689D01*
X138935Y119399D01*
X138790Y119181D01*
X138645Y119036D01*
X138790Y121213D02*
X138935Y120923D01*
X139008Y120705D01*
X139080Y120342D01*
Y120052D01*
X139008Y119689D01*
X138935Y119471D01*
X138790Y119181D01*
X144876Y120270D02*
X145529D01*
X145747Y120342D01*
X145820Y120415D01*
X145892Y120560D01*
Y120777D01*
X145820Y120923D01*
X145747Y120995D01*
X145529Y121068D01*
X144876D01*
Y119544D01*
X146741Y121068D02*
Y119544D01*
X146233Y121068D02*
X147249D01*
X147430D02*
Y119544D01*
X148446Y121068D02*
Y119544D01*
X147430Y120342D02*
X148446D01*
X154907Y121068D02*
Y119544D01*
Y121068D02*
X155560D01*
X155778Y120995D01*
X155850Y120923D01*
X155923Y120777D01*
Y120632D01*
X155850Y120487D01*
X155778Y120415D01*
X155560Y120342D01*
X154907D01*
X155415D02*
X155923Y119544D01*
X156627Y120560D02*
X156482Y120487D01*
X156337Y120342D01*
X156264Y120124D01*
Y119979D01*
X156337Y119762D01*
X156482Y119617D01*
X156627Y119544D01*
X156845D01*
X156990Y119617D01*
X157135Y119762D01*
X157207Y119979D01*
Y120124D01*
X157135Y120342D01*
X156990Y120487D01*
X156845Y120560D01*
X156627D01*
X157541D02*
Y119834D01*
X157614Y119617D01*
X157759Y119544D01*
X157976D01*
X158122Y119617D01*
X158339Y119834D01*
Y120560D02*
Y119544D01*
X158738Y120560D02*
Y119544D01*
Y120270D02*
X158956Y120487D01*
X159101Y120560D01*
X159319D01*
X159464Y120487D01*
X159536Y120270D01*
Y119544D01*
X160806Y121068D02*
Y119544D01*
Y120342D02*
X160661Y120487D01*
X160516Y120560D01*
X160298D01*
X160153Y120487D01*
X160008Y120342D01*
X159935Y120124D01*
Y119979D01*
X160008Y119762D01*
X160153Y119617D01*
X160298Y119544D01*
X160516D01*
X160661Y119617D01*
X160806Y119762D01*
X104644Y117657D02*
Y117729D01*
X104717Y117875D01*
X104790Y117947D01*
X104935Y118020D01*
X105225D01*
X105370Y117947D01*
X105443Y117875D01*
X105515Y117729D01*
Y117584D01*
X105443Y117439D01*
X105297Y117222D01*
X104572Y116496D01*
X105588D01*
X119330Y117729D02*
X119475Y117802D01*
X119693Y118020D01*
Y116496D01*
X120520Y116641D02*
X120448Y116569D01*
X120520Y116496D01*
X120593Y116569D01*
X120520Y116641D01*
X121072Y118020D02*
X121870D01*
X121435Y117439D01*
X121652D01*
X121797Y117367D01*
X121870Y117294D01*
X121942Y117076D01*
Y116931D01*
X121870Y116714D01*
X121725Y116569D01*
X121507Y116496D01*
X121289D01*
X121072Y116569D01*
X120999Y116641D01*
X120927Y116786D01*
X122283Y117512D02*
Y116496D01*
Y117222D02*
X122501Y117439D01*
X122646Y117512D01*
X122864D01*
X123009Y117439D01*
X123082Y117222D01*
Y116496D01*
Y117222D02*
X123299Y117439D01*
X123444Y117512D01*
X123662D01*
X123807Y117439D01*
X123880Y117222D01*
Y116496D01*
X124358Y117512D02*
Y116496D01*
Y117222D02*
X124576Y117439D01*
X124721Y117512D01*
X124939D01*
X125084Y117439D01*
X125157Y117222D01*
Y116496D01*
Y117222D02*
X125374Y117439D01*
X125519Y117512D01*
X125737D01*
X125882Y117439D01*
X125955Y117222D01*
Y116496D01*
X128139Y118310D02*
X127994Y118165D01*
X127848Y117947D01*
X127703Y117657D01*
X127631Y117294D01*
Y117004D01*
X127703Y116641D01*
X127848Y116351D01*
X127994Y116133D01*
X128139Y115988D01*
X127994Y118165D02*
X127848Y117875D01*
X127776Y117657D01*
X127703Y117294D01*
Y117004D01*
X127776Y116641D01*
X127848Y116423D01*
X127994Y116133D01*
X129300Y118020D02*
X128574D01*
X128501Y117367D01*
X128574Y117439D01*
X128792Y117512D01*
X129009D01*
X129227Y117439D01*
X129372Y117294D01*
X129445Y117076D01*
Y116931D01*
X129372Y116714D01*
X129227Y116569D01*
X129009Y116496D01*
X128792D01*
X128574Y116569D01*
X128501Y116641D01*
X128429Y116786D01*
X129786Y117729D02*
X129931Y117802D01*
X130148Y118020D01*
Y116496D01*
X130976Y116641D02*
X130903Y116569D01*
X130976Y116496D01*
X131048Y116569D01*
X130976Y116641D01*
X131382Y117729D02*
X131527Y117802D01*
X131745Y118020D01*
Y116496D01*
X132862Y118020D02*
X132644Y117947D01*
X132572Y117802D01*
Y117657D01*
X132644Y117512D01*
X132790Y117439D01*
X133080Y117367D01*
X133297Y117294D01*
X133443Y117149D01*
X133515Y117004D01*
Y116786D01*
X133443Y116641D01*
X133370Y116569D01*
X133152Y116496D01*
X132862D01*
X132644Y116569D01*
X132572Y116641D01*
X132499Y116786D01*
Y117004D01*
X132572Y117149D01*
X132717Y117294D01*
X132935Y117367D01*
X133225Y117439D01*
X133370Y117512D01*
X133443Y117657D01*
Y117802D01*
X133370Y117947D01*
X133152Y118020D01*
X132862D01*
X133856Y117729D02*
X134001Y117802D01*
X134219Y118020D01*
Y116496D01*
X134973Y117512D02*
Y116496D01*
Y117222D02*
X135191Y117439D01*
X135336Y117512D01*
X135554D01*
X135699Y117439D01*
X135772Y117222D01*
Y116496D01*
Y117222D02*
X135989Y117439D01*
X136134Y117512D01*
X136352D01*
X136497Y117439D01*
X136570Y117222D01*
Y116496D01*
X137194Y118020D02*
X137266Y117947D01*
X137339Y118020D01*
X137266Y118092D01*
X137194Y118020D01*
X137266Y117512D02*
Y116496D01*
X137607Y118020D02*
Y116496D01*
X137926Y118310D02*
X138072Y118165D01*
X138217Y117947D01*
X138362Y117657D01*
X138434Y117294D01*
Y117004D01*
X138362Y116641D01*
X138217Y116351D01*
X138072Y116133D01*
X137926Y115988D01*
X138072Y118165D02*
X138217Y117875D01*
X138289Y117657D01*
X138362Y117294D01*
Y117004D01*
X138289Y116641D01*
X138217Y116423D01*
X138072Y116133D01*
X144876Y117222D02*
X145529D01*
X145747Y117294D01*
X145820Y117367D01*
X145892Y117512D01*
Y117729D01*
X145820Y117875D01*
X145747Y117947D01*
X145529Y118020D01*
X144876D01*
Y116496D01*
X146741Y118020D02*
Y116496D01*
X146233Y118020D02*
X147249D01*
X147430D02*
Y116496D01*
X148446Y118020D02*
Y116496D01*
X147430Y117294D02*
X148446D01*
X154907Y118020D02*
Y116496D01*
Y118020D02*
X155560D01*
X155778Y117947D01*
X155850Y117875D01*
X155923Y117729D01*
Y117584D01*
X155850Y117439D01*
X155778Y117367D01*
X155560Y117294D01*
X154907D01*
X155415D02*
X155923Y116496D01*
X156627Y117512D02*
X156482Y117439D01*
X156337Y117294D01*
X156264Y117076D01*
Y116931D01*
X156337Y116714D01*
X156482Y116569D01*
X156627Y116496D01*
X156845D01*
X156990Y116569D01*
X157135Y116714D01*
X157207Y116931D01*
Y117076D01*
X157135Y117294D01*
X156990Y117439D01*
X156845Y117512D01*
X156627D01*
X157541D02*
Y116786D01*
X157614Y116569D01*
X157759Y116496D01*
X157976D01*
X158122Y116569D01*
X158339Y116786D01*
Y117512D02*
Y116496D01*
X158738Y117512D02*
Y116496D01*
Y117222D02*
X158956Y117439D01*
X159101Y117512D01*
X159319D01*
X159464Y117439D01*
X159536Y117222D01*
Y116496D01*
X160806Y118020D02*
Y116496D01*
Y117294D02*
X160661Y117439D01*
X160516Y117512D01*
X160298D01*
X160153Y117439D01*
X160008Y117294D01*
X159935Y117076D01*
Y116931D01*
X160008Y116714D01*
X160153Y116569D01*
X160298Y116496D01*
X160516D01*
X160661Y116569D01*
X160806Y116714D01*
X104644Y114609D02*
Y114681D01*
X104717Y114827D01*
X104790Y114899D01*
X104935Y114972D01*
X105225D01*
X105370Y114899D01*
X105443Y114827D01*
X105515Y114681D01*
Y114536D01*
X105443Y114391D01*
X105297Y114174D01*
X104572Y113448D01*
X105588D01*
X119475Y114972D02*
X120274D01*
X119838Y114391D01*
X120056D01*
X120201Y114319D01*
X120274Y114246D01*
X120346Y114028D01*
Y113883D01*
X120274Y113666D01*
X120128Y113521D01*
X119911Y113448D01*
X119693D01*
X119475Y113521D01*
X119403Y113593D01*
X119330Y113738D01*
X120760Y113593D02*
X120687Y113521D01*
X120760Y113448D01*
X120832Y113521D01*
X120760Y113593D01*
X121239Y114609D02*
Y114681D01*
X121311Y114827D01*
X121384Y114899D01*
X121529Y114972D01*
X121819D01*
X121964Y114899D01*
X122037Y114827D01*
X122109Y114681D01*
Y114536D01*
X122037Y114391D01*
X121892Y114174D01*
X121166Y113448D01*
X122182D01*
X122523Y114464D02*
Y113448D01*
Y114174D02*
X122741Y114391D01*
X122886Y114464D01*
X123103D01*
X123248Y114391D01*
X123321Y114174D01*
Y113448D01*
Y114174D02*
X123539Y114391D01*
X123684Y114464D01*
X123901D01*
X124047Y114391D01*
X124119Y114174D01*
Y113448D01*
X124598Y114464D02*
Y113448D01*
Y114174D02*
X124816Y114391D01*
X124961Y114464D01*
X125178D01*
X125323Y114391D01*
X125396Y114174D01*
Y113448D01*
Y114174D02*
X125614Y114391D01*
X125759Y114464D01*
X125977D01*
X126122Y114391D01*
X126194Y114174D01*
Y113448D01*
X128378Y115262D02*
X128233Y115117D01*
X128088Y114899D01*
X127943Y114609D01*
X127870Y114246D01*
Y113956D01*
X127943Y113593D01*
X128088Y113303D01*
X128233Y113085D01*
X128378Y112940D01*
X128233Y115117D02*
X128088Y114827D01*
X128015Y114609D01*
X127943Y114246D01*
Y113956D01*
X128015Y113593D01*
X128088Y113375D01*
X128233Y113085D01*
X128668Y114681D02*
X128813Y114754D01*
X129031Y114972D01*
Y113448D01*
X129858Y114609D02*
Y114681D01*
X129931Y114827D01*
X130003Y114899D01*
X130148Y114972D01*
X130439D01*
X130584Y114899D01*
X130656Y114827D01*
X130729Y114681D01*
Y114536D01*
X130656Y114391D01*
X130511Y114174D01*
X129786Y113448D01*
X130801D01*
X132013Y114972D02*
X131288D01*
X131215Y114319D01*
X131288Y114391D01*
X131505Y114464D01*
X131723D01*
X131941Y114391D01*
X132086Y114246D01*
X132158Y114028D01*
Y113883D01*
X132086Y113666D01*
X131941Y113521D01*
X131723Y113448D01*
X131505D01*
X131288Y113521D01*
X131215Y113593D01*
X131142Y113738D01*
X132572Y113593D02*
X132499Y113521D01*
X132572Y113448D01*
X132644Y113521D01*
X132572Y113593D01*
X133921Y114464D02*
X133849Y114246D01*
X133704Y114101D01*
X133486Y114028D01*
X133413D01*
X133196Y114101D01*
X133051Y114246D01*
X132978Y114464D01*
Y114536D01*
X133051Y114754D01*
X133196Y114899D01*
X133413Y114972D01*
X133486D01*
X133704Y114899D01*
X133849Y114754D01*
X133921Y114464D01*
Y114101D01*
X133849Y113738D01*
X133704Y113521D01*
X133486Y113448D01*
X133341D01*
X133123Y113521D01*
X133051Y113666D01*
X134698Y114972D02*
X134480Y114899D01*
X134407Y114754D01*
Y114609D01*
X134480Y114464D01*
X134625Y114391D01*
X134915Y114319D01*
X135133Y114246D01*
X135278Y114101D01*
X135351Y113956D01*
Y113738D01*
X135278Y113593D01*
X135206Y113521D01*
X134988Y113448D01*
X134698D01*
X134480Y113521D01*
X134407Y113593D01*
X134335Y113738D01*
Y113956D01*
X134407Y114101D01*
X134553Y114246D01*
X134770Y114319D01*
X135060Y114391D01*
X135206Y114464D01*
X135278Y114609D01*
Y114754D01*
X135206Y114899D01*
X134988Y114972D01*
X134698D01*
X136417D02*
X135692Y113956D01*
X136780D01*
X136417Y114972D02*
Y113448D01*
X137049Y114464D02*
Y113448D01*
Y114174D02*
X137266Y114391D01*
X137411Y114464D01*
X137629D01*
X137774Y114391D01*
X137847Y114174D01*
Y113448D01*
Y114174D02*
X138064Y114391D01*
X138209Y114464D01*
X138427D01*
X138572Y114391D01*
X138645Y114174D01*
Y113448D01*
X139269Y114972D02*
X139341Y114899D01*
X139414Y114972D01*
X139341Y115044D01*
X139269Y114972D01*
X139341Y114464D02*
Y113448D01*
X139682Y114972D02*
Y113448D01*
X140002Y115262D02*
X140147Y115117D01*
X140292Y114899D01*
X140437Y114609D01*
X140509Y114246D01*
Y113956D01*
X140437Y113593D01*
X140292Y113303D01*
X140147Y113085D01*
X140002Y112940D01*
X140147Y115117D02*
X140292Y114827D01*
X140364Y114609D01*
X140437Y114246D01*
Y113956D01*
X140364Y113593D01*
X140292Y113375D01*
X140147Y113085D01*
X144876Y114972D02*
Y113448D01*
Y114972D02*
X145892Y113448D01*
Y114972D02*
Y113448D01*
X146313Y114174D02*
X146966D01*
X147184Y114246D01*
X147256Y114319D01*
X147329Y114464D01*
Y114681D01*
X147256Y114827D01*
X147184Y114899D01*
X146966Y114972D01*
X146313D01*
Y113448D01*
X148178Y114972D02*
Y113448D01*
X147670Y114972D02*
X148686D01*
X148867D02*
Y113448D01*
X149883Y114972D02*
Y113448D01*
X148867Y114246D02*
X149883D01*
X154907Y114972D02*
Y113448D01*
Y114972D02*
X155560D01*
X155778Y114899D01*
X155850Y114827D01*
X155923Y114681D01*
Y114536D01*
X155850Y114391D01*
X155778Y114319D01*
X155560Y114246D01*
X154907D01*
X155415D02*
X155923Y113448D01*
X156627Y114464D02*
X156482Y114391D01*
X156337Y114246D01*
X156264Y114028D01*
Y113883D01*
X156337Y113666D01*
X156482Y113521D01*
X156627Y113448D01*
X156845D01*
X156990Y113521D01*
X157135Y113666D01*
X157207Y113883D01*
Y114028D01*
X157135Y114246D01*
X156990Y114391D01*
X156845Y114464D01*
X156627D01*
X157541D02*
Y113738D01*
X157614Y113521D01*
X157759Y113448D01*
X157976D01*
X158122Y113521D01*
X158339Y113738D01*
Y114464D02*
Y113448D01*
X158738Y114464D02*
Y113448D01*
Y114174D02*
X158956Y114391D01*
X159101Y114464D01*
X159319D01*
X159464Y114391D01*
X159536Y114174D01*
Y113448D01*
X160806Y114972D02*
Y113448D01*
Y114246D02*
X160661Y114391D01*
X160516Y114464D01*
X160298D01*
X160153Y114391D01*
X160008Y114246D01*
X159935Y114028D01*
Y113883D01*
X160008Y113666D01*
X160153Y113521D01*
X160298Y113448D01*
X160516D01*
X160661Y113521D01*
X160806Y113666D01*
X105297Y111924D02*
X104572Y110908D01*
X105660D01*
X105297Y111924D02*
Y110400D01*
X106944Y111924D02*
X106219Y110400D01*
X105929Y111924D02*
X106944D01*
X108156Y111706D02*
X108084Y111851D01*
X107866Y111924D01*
X107721D01*
X107503Y111851D01*
X107358Y111633D01*
X107285Y111271D01*
Y110908D01*
X107358Y110618D01*
X107503Y110473D01*
X107721Y110400D01*
X107793D01*
X108011Y110473D01*
X108156Y110618D01*
X108229Y110835D01*
Y110908D01*
X108156Y111126D01*
X108011Y111271D01*
X107793Y111343D01*
X107721D01*
X107503Y111271D01*
X107358Y111126D01*
X107285Y110908D01*
X111480Y111924D02*
Y110400D01*
X110972Y111924D02*
X111988D01*
X112532Y111416D02*
X112387Y111343D01*
X112242Y111198D01*
X112169Y110980D01*
Y110835D01*
X112242Y110618D01*
X112387Y110473D01*
X112532Y110400D01*
X112749D01*
X112895Y110473D01*
X113040Y110618D01*
X113112Y110835D01*
Y110980D01*
X113040Y111198D01*
X112895Y111343D01*
X112749Y111416D01*
X112532D01*
X113664Y111924D02*
Y110690D01*
X113736Y110473D01*
X113881Y110400D01*
X114026D01*
X113446Y111416D02*
X113954D01*
X115115D02*
Y110400D01*
Y111198D02*
X114970Y111343D01*
X114825Y111416D01*
X114607D01*
X114462Y111343D01*
X114317Y111198D01*
X114244Y110980D01*
Y110835D01*
X114317Y110618D01*
X114462Y110473D01*
X114607Y110400D01*
X114825D01*
X114970Y110473D01*
X115115Y110618D01*
X115521Y111924D02*
Y110400D01*
D61*
X94219Y123354D02*
G03*
X94219Y123354I-610J0D01*
G01*
D164*
X94219Y136961D02*
X94045Y137135D01*
X93784Y137222D01*
X93435D01*
X93174Y137135D01*
X93000Y136961D01*
Y136787D01*
X93087Y136613D01*
X93174Y136525D01*
X93348Y136438D01*
X93871Y136264D01*
X94045Y136177D01*
X94132Y136090D01*
X94219Y135916D01*
Y135655D01*
X94045Y135481D01*
X93784Y135394D01*
X93435D01*
X93174Y135481D01*
X93000Y135655D01*
X94715Y136613D02*
X95238Y135394D01*
X95760Y136613D02*
X95238Y135394D01*
X95063Y135045D01*
X94889Y134871D01*
X94715Y134784D01*
X94628D01*
X96065Y136613D02*
Y135394D01*
Y136264D02*
X96326Y136525D01*
X96500Y136613D01*
X96761D01*
X96935Y136525D01*
X97022Y136264D01*
Y135394D01*
Y136264D02*
X97284Y136525D01*
X97458Y136613D01*
X97719D01*
X97893Y136525D01*
X97980Y136264D01*
Y135394D01*
X98555Y137222D02*
Y135394D01*
Y136351D02*
X98729Y136525D01*
X98903Y136613D01*
X99164D01*
X99338Y136525D01*
X99513Y136351D01*
X99600Y136090D01*
Y135916D01*
X99513Y135655D01*
X99338Y135481D01*
X99164Y135394D01*
X98903D01*
X98729Y135481D01*
X98555Y135655D01*
X100427Y136613D02*
X100253Y136525D01*
X100079Y136351D01*
X99991Y136090D01*
Y135916D01*
X100079Y135655D01*
X100253Y135481D01*
X100427Y135394D01*
X100688D01*
X100862Y135481D01*
X101036Y135655D01*
X101123Y135916D01*
Y136090D01*
X101036Y136351D01*
X100862Y136525D01*
X100688Y136613D01*
X100427D01*
X101524Y137222D02*
Y135394D01*
X104572Y137222D02*
Y135394D01*
X105791Y137222D02*
Y135394D01*
X104572Y136351D02*
X105791D01*
X106470Y137222D02*
X106557Y137135D01*
X106644Y137222D01*
X106557Y137309D01*
X106470Y137222D01*
X106557Y136613D02*
Y135394D01*
X107227Y137222D02*
Y135742D01*
X107314Y135481D01*
X107489Y135394D01*
X107663D01*
X106966Y136613D02*
X107576D01*
X110667Y136787D02*
X110579Y136961D01*
X110405Y137135D01*
X110231Y137222D01*
X109883D01*
X109709Y137135D01*
X109535Y136961D01*
X109448Y136787D01*
X109361Y136525D01*
Y136090D01*
X109448Y135829D01*
X109535Y135655D01*
X109709Y135481D01*
X109883Y135394D01*
X110231D01*
X110405Y135481D01*
X110579Y135655D01*
X110667Y135829D01*
X111616Y136613D02*
X111441Y136525D01*
X111267Y136351D01*
X111180Y136090D01*
Y135916D01*
X111267Y135655D01*
X111441Y135481D01*
X111616Y135394D01*
X111877D01*
X112051Y135481D01*
X112225Y135655D01*
X112312Y135916D01*
Y136090D01*
X112225Y136351D01*
X112051Y136525D01*
X111877Y136613D01*
X111616D01*
X112713D02*
Y135742D01*
X112800Y135481D01*
X112974Y135394D01*
X113235D01*
X113409Y135481D01*
X113670Y135742D01*
Y136613D02*
Y135394D01*
X114149Y136613D02*
Y135394D01*
Y136264D02*
X114410Y136525D01*
X114585Y136613D01*
X114846D01*
X115020Y136525D01*
X115107Y136264D01*
Y135394D01*
X115847Y137222D02*
Y135742D01*
X115934Y135481D01*
X116108Y135394D01*
X116282D01*
X115586Y136613D02*
X116195D01*
X119330Y137222D02*
Y135394D01*
Y137222D02*
X120462D01*
X119330Y136351D02*
X120027D01*
X120845Y137222D02*
X120932Y137135D01*
X121019Y137222D01*
X120932Y137309D01*
X120845Y137222D01*
X120932Y136613D02*
Y135394D01*
X121342Y136613D02*
Y135394D01*
Y136264D02*
X121603Y136525D01*
X121777Y136613D01*
X122038D01*
X122212Y136525D01*
X122299Y136264D01*
Y135394D01*
X122952Y137222D02*
X123039Y137135D01*
X123127Y137222D01*
X123039Y137309D01*
X122952Y137222D01*
X123039Y136613D02*
Y135394D01*
X124406Y136351D02*
X124319Y136525D01*
X124058Y136613D01*
X123797D01*
X123536Y136525D01*
X123449Y136351D01*
X123536Y136177D01*
X123710Y136090D01*
X124145Y136003D01*
X124319Y135916D01*
X124406Y135742D01*
Y135655D01*
X124319Y135481D01*
X124058Y135394D01*
X123797D01*
X123536Y135481D01*
X123449Y135655D01*
X124789Y137222D02*
Y135394D01*
Y136264D02*
X125051Y136525D01*
X125225Y136613D01*
X125486D01*
X125660Y136525D01*
X125747Y136264D01*
Y135394D01*
X126226Y136090D02*
X127271D01*
Y136264D01*
X127184Y136438D01*
X127097Y136525D01*
X126923Y136613D01*
X126661D01*
X126487Y136525D01*
X126313Y136351D01*
X126226Y136090D01*
Y135916D01*
X126313Y135655D01*
X126487Y135481D01*
X126661Y135394D01*
X126923D01*
X127097Y135481D01*
X127271Y135655D01*
X128708Y137222D02*
Y135394D01*
Y136351D02*
X128533Y136525D01*
X128359Y136613D01*
X128098D01*
X127924Y136525D01*
X127750Y136351D01*
X127663Y136090D01*
Y135916D01*
X127750Y135655D01*
X127924Y135481D01*
X128098Y135394D01*
X128359D01*
X128533Y135481D01*
X128708Y135655D01*
X130632Y137222D02*
Y135394D01*
X131851Y137222D02*
Y135394D01*
X130632Y136351D02*
X131851D01*
X132791Y136613D02*
X132617Y136525D01*
X132443Y136351D01*
X132356Y136090D01*
Y135916D01*
X132443Y135655D01*
X132617Y135481D01*
X132791Y135394D01*
X133052D01*
X133226Y135481D01*
X133400Y135655D01*
X133487Y135916D01*
Y136090D01*
X133400Y136351D01*
X133226Y136525D01*
X133052Y136613D01*
X132791D01*
X133888Y137222D02*
Y135394D01*
X134271Y136090D02*
X135316D01*
Y136264D01*
X135229Y136438D01*
X135142Y136525D01*
X134968Y136613D01*
X134706D01*
X134532Y136525D01*
X134358Y136351D01*
X134271Y136090D01*
Y135916D01*
X134358Y135655D01*
X134532Y135481D01*
X134706Y135394D01*
X134968D01*
X135142Y135481D01*
X135316Y135655D01*
X138363Y136961D02*
X138189Y137135D01*
X137928Y137222D01*
X137580D01*
X137318Y137135D01*
X137144Y136961D01*
Y136787D01*
X137231Y136613D01*
X137318Y136525D01*
X137493Y136438D01*
X138015Y136264D01*
X138189Y136177D01*
X138276Y136090D01*
X138363Y135916D01*
Y135655D01*
X138189Y135481D01*
X137928Y135394D01*
X137580D01*
X137318Y135481D01*
X137144Y135655D01*
X138947Y137222D02*
X139034Y137135D01*
X139121Y137222D01*
X139034Y137309D01*
X138947Y137222D01*
X139034Y136613D02*
Y135394D01*
X140401Y136613D02*
X139443Y135394D01*
Y136613D02*
X140401D01*
X139443Y135394D02*
X140401D01*
X140784Y136090D02*
X141829D01*
Y136264D01*
X141741Y136438D01*
X141654Y136525D01*
X141480Y136613D01*
X141219D01*
X141045Y136525D01*
X140871Y136351D01*
X140784Y136090D01*
Y135916D01*
X140871Y135655D01*
X141045Y135481D01*
X141219Y135394D01*
X141480D01*
X141654Y135481D01*
X141829Y135655D01*
X144876Y136264D02*
X145660D01*
X145921Y136351D01*
X146008Y136438D01*
X146095Y136613D01*
Y136874D01*
X146008Y137048D01*
X145921Y137135D01*
X145660Y137222D01*
X144876D01*
Y135394D01*
X146505Y137222D02*
Y135394D01*
X147933Y136613D02*
Y135394D01*
Y136351D02*
X147758Y136525D01*
X147584Y136613D01*
X147323D01*
X147149Y136525D01*
X146975Y136351D01*
X146888Y136090D01*
Y135916D01*
X146975Y135655D01*
X147149Y135481D01*
X147323Y135394D01*
X147584D01*
X147758Y135481D01*
X147933Y135655D01*
X148681Y137222D02*
Y135742D01*
X148768Y135481D01*
X148943Y135394D01*
X149117D01*
X148420Y136613D02*
X149030D01*
X149378Y136090D02*
X150423D01*
Y136264D01*
X150336Y136438D01*
X150249Y136525D01*
X150074Y136613D01*
X149813D01*
X149639Y136525D01*
X149465Y136351D01*
X149378Y136090D01*
Y135916D01*
X149465Y135655D01*
X149639Y135481D01*
X149813Y135394D01*
X150074D01*
X150249Y135481D01*
X150423Y135655D01*
X151859Y137222D02*
Y135394D01*
Y136351D02*
X151685Y136525D01*
X151511Y136613D01*
X151250D01*
X151076Y136525D01*
X150902Y136351D01*
X150814Y136090D01*
Y135916D01*
X150902Y135655D01*
X151076Y135481D01*
X151250Y135394D01*
X151511D01*
X151685Y135481D01*
X151859Y135655D01*
X154907Y137222D02*
Y135394D01*
X156126Y137222D02*
Y135394D01*
X154907Y136351D02*
X156126D01*
X157067Y136613D02*
X156892Y136525D01*
X156718Y136351D01*
X156631Y136090D01*
Y135916D01*
X156718Y135655D01*
X156892Y135481D01*
X157067Y135394D01*
X157328D01*
X157502Y135481D01*
X157676Y135655D01*
X157763Y135916D01*
Y136090D01*
X157676Y136351D01*
X157502Y136525D01*
X157328Y136613D01*
X157067D01*
X158164Y137222D02*
Y135394D01*
X158547Y136090D02*
X159591D01*
Y136264D01*
X159504Y136438D01*
X159417Y136525D01*
X159243Y136613D01*
X158982D01*
X158808Y136525D01*
X158634Y136351D01*
X158547Y136090D01*
Y135916D01*
X158634Y135655D01*
X158808Y135481D01*
X158982Y135394D01*
X159243D01*
X159417Y135481D01*
X159591Y135655D01*
X162029Y137222D02*
Y135394D01*
X161420Y137222D02*
X162639D01*
X162944Y136613D02*
X163466Y135394D01*
X163988Y136613D02*
X163466Y135394D01*
X163292Y135045D01*
X163118Y134871D01*
X162944Y134784D01*
X162857D01*
X164293Y136613D02*
Y134784D01*
Y136351D02*
X164467Y136525D01*
X164641Y136613D01*
X164903D01*
X165077Y136525D01*
X165251Y136351D01*
X165338Y136090D01*
Y135916D01*
X165251Y135655D01*
X165077Y135481D01*
X164903Y135394D01*
X164641D01*
X164467Y135481D01*
X164293Y135655D01*
X165730Y136090D02*
X166775D01*
Y136264D01*
X166687Y136438D01*
X166600Y136525D01*
X166426Y136613D01*
X166165D01*
X165991Y136525D01*
X165817Y136351D01*
X165730Y136090D01*
Y135916D01*
X165817Y135655D01*
X165991Y135481D01*
X166165Y135394D01*
X166426D01*
X166600Y135481D01*
X166775Y135655D01*
X90765Y138137D02*
X169823D01*
X90765Y134022D02*
X169823D01*
X90765Y138137D02*
Y109638D01*
X169823Y138137D02*
Y109638D01*
X103454Y138137D02*
Y109638D01*
X118213Y138137D02*
Y109638D01*
X143759Y138137D02*
Y109638D01*
X153790Y138137D02*
Y109638D01*
X90765Y112686D02*
X169823D01*
X90765Y109638D02*
X169823D01*
D168*
X-41903Y75397D02*
Y75803D01*
X-41497D01*
Y75397D01*
X-41903D01*
X-37540Y97697D02*
X-37743Y98103D01*
X-37337D01*
X-37540Y97697D01*
X-35040D02*
X-35243Y98103D01*
X-34837D01*
X-35040Y97697D01*
X-43350Y97447D02*
X-43248Y97548D01*
X-43147D01*
X-43248Y97650D01*
X-43147Y97752D01*
X-43248D01*
X-43350Y97853D01*
X-43452Y97752D01*
X-43553D01*
X-43452Y97650D01*
X-43553Y97548D01*
X-43452D01*
X-43350Y97447D01*
X-47850D02*
X-47748Y97548D01*
X-47647D01*
X-47748Y97650D01*
X-47647Y97752D01*
X-47748D01*
X-47850Y97853D01*
X-47952Y97752D01*
X-48053D01*
X-47952Y97650D01*
X-48053Y97548D01*
X-47952D01*
X-47850Y97447D01*
X-49303Y94947D02*
X-49202Y95150D01*
X-49303Y95353D01*
X-49100Y95252D01*
X-48897Y95353D01*
X-48998Y95150D01*
X-48897Y94947D01*
X-49100Y95048D01*
X-49303Y94947D01*
X-42303D02*
X-42202Y95150D01*
X-42303Y95353D01*
X-42100Y95252D01*
X-41897Y95353D01*
X-41998Y95150D01*
X-41897Y94947D01*
X-42100Y95048D01*
X-42303Y94947D01*
X-68102Y94198D02*
Y94096D01*
X-67898D01*
Y94198D01*
X-67797D01*
Y94401D01*
X-67898D01*
Y94503D01*
X-68102D01*
Y94401D01*
X-68203D01*
Y94198D01*
X-68102D01*
X67898Y94184D02*
Y94082D01*
X68102D01*
Y94184D01*
X68203D01*
Y94387D01*
X68102D01*
Y94489D01*
X67898D01*
Y94387D01*
X67797D01*
Y94184D01*
X67898D01*
X13449Y55462D02*
X13551D01*
X13652Y55563D01*
X13754Y55462D01*
X13856D01*
Y55563D01*
X13754Y55665D01*
X13856Y55767D01*
Y55868D01*
X13754D01*
X13652Y55767D01*
X13551Y55868D01*
X13449D01*
Y55767D01*
X13551Y55665D01*
X13449Y55563D01*
Y55462D01*
X4063Y63199D02*
X4165D01*
X4267Y63300D01*
X4368Y63199D01*
X4470D01*
Y63300D01*
X4368Y63402D01*
X4470Y63504D01*
Y63605D01*
X4368D01*
X4267Y63504D01*
X4165Y63605D01*
X4063D01*
Y63504D01*
X4165Y63402D01*
X4063Y63300D01*
Y63199D01*
X16716Y58372D02*
X16818D01*
X16919Y58474D01*
X17021Y58372D01*
X17123D01*
Y58474D01*
X17021Y58575D01*
X17123Y58677D01*
Y58778D01*
X17021D01*
X16919Y58677D01*
X16818Y58778D01*
X16716D01*
Y58677D01*
X16818Y58575D01*
X16716Y58474D01*
Y58372D01*
X-7447Y53465D02*
X-7345D01*
X-7244Y53567D01*
X-7142Y53465D01*
X-7040D01*
Y53567D01*
X-7142Y53669D01*
X-7040Y53770D01*
Y53872D01*
X-7142D01*
X-7244Y53770D01*
X-7345Y53872D01*
X-7447D01*
Y53770D01*
X-7345Y53669D01*
X-7447Y53567D01*
Y53465D01*
X541Y54996D02*
X642D01*
X744Y55098D01*
X845Y54996D01*
X947D01*
Y55098D01*
X845Y55199D01*
X947Y55301D01*
Y55402D01*
X845D01*
X744Y55301D01*
X642Y55402D01*
X541D01*
Y55301D01*
X642Y55199D01*
X541Y55098D01*
Y54996D01*
X-3284Y55269D02*
X-3183D01*
X-3081Y55371D01*
X-2980Y55269D01*
X-2878D01*
Y55371D01*
X-2980Y55473D01*
X-2878Y55574D01*
Y55676D01*
X-2980D01*
X-3081Y55574D01*
X-3183Y55676D01*
X-3284D01*
Y55574D01*
X-3183Y55473D01*
X-3284Y55371D01*
Y55269D01*
X-3071Y56352D02*
X-2970D01*
X-2868Y56453D01*
X-2767Y56352D01*
X-2665D01*
Y56453D01*
X-2767Y56555D01*
X-2665Y56656D01*
Y56758D01*
X-2767D01*
X-2868Y56656D01*
X-2970Y56758D01*
X-3071D01*
Y56656D01*
X-2970Y56555D01*
X-3071Y56453D01*
Y56352D01*
X-7445Y57175D02*
X-7344D01*
X-7242Y57276D01*
X-7140Y57175D01*
X-7039D01*
Y57276D01*
X-7140Y57378D01*
X-7039Y57480D01*
Y57581D01*
X-7140D01*
X-7242Y57480D01*
X-7344Y57581D01*
X-7445D01*
Y57480D01*
X-7344Y57378D01*
X-7445Y57276D01*
Y57175D01*
X-45857Y81096D02*
X-45755D01*
X-45654Y81198D01*
X-45552Y81096D01*
X-45450D01*
Y81198D01*
X-45552Y81300D01*
X-45450Y81401D01*
Y81503D01*
X-45552D01*
X-45654Y81401D01*
X-45755Y81503D01*
X-45857D01*
Y81401D01*
X-45755Y81300D01*
X-45857Y81198D01*
Y81096D01*
X-5469Y78428D02*
X-5367D01*
X-5265Y78530D01*
X-5164Y78428D01*
X-5062D01*
Y78530D01*
X-5164Y78632D01*
X-5062Y78733D01*
Y78835D01*
X-5164D01*
X-5265Y78733D01*
X-5367Y78835D01*
X-5469D01*
Y78733D01*
X-5367Y78632D01*
X-5469Y78530D01*
Y78428D01*
X70Y64779D02*
X172D01*
X273Y64880D01*
X375Y64779D01*
X476D01*
Y64880D01*
X375Y64982D01*
X476Y65083D01*
Y65185D01*
X375D01*
X273Y65083D01*
X172Y65185D01*
X70D01*
Y65083D01*
X172Y64982D01*
X70Y64880D01*
Y64779D01*
X9005Y61404D02*
X9107D01*
X9208Y61506D01*
X9310Y61404D01*
X9411D01*
Y61506D01*
X9310Y61607D01*
X9411Y61709D01*
Y61810D01*
X9310D01*
X9208Y61709D01*
X9107Y61810D01*
X9005D01*
Y61709D01*
X9107Y61607D01*
X9005Y61506D01*
Y61404D01*
X5435Y64020D02*
X5537D01*
X5639Y64122D01*
X5740Y64020D01*
X5842D01*
Y64122D01*
X5740Y64224D01*
X5842Y64325D01*
Y64427D01*
X5740D01*
X5639Y64325D01*
X5537Y64427D01*
X5435D01*
Y64325D01*
X5537Y64224D01*
X5435Y64122D01*
Y64020D01*
X6034Y61787D02*
X6135D01*
X6237Y61888D01*
X6339Y61787D01*
X6440D01*
Y61888D01*
X6339Y61990D01*
X6440Y62091D01*
Y62193D01*
X6339D01*
X6237Y62091D01*
X6135Y62193D01*
X6034D01*
Y62091D01*
X6135Y61990D01*
X6034Y61888D01*
Y61787D01*
X3313Y62093D02*
X3415D01*
X3516Y62194D01*
X3618Y62093D01*
X3720D01*
Y62194D01*
X3618Y62296D01*
X3720Y62398D01*
Y62499D01*
X3618D01*
X3516Y62398D01*
X3415Y62499D01*
X3313D01*
Y62398D01*
X3415Y62296D01*
X3313Y62194D01*
Y62093D01*
X3019Y63108D02*
X3121D01*
X3222Y63210D01*
X3324Y63108D01*
X3426D01*
Y63210D01*
X3324Y63312D01*
X3426Y63413D01*
Y63515D01*
X3324D01*
X3222Y63413D01*
X3121Y63515D01*
X3019D01*
Y63413D01*
X3121Y63312D01*
X3019Y63210D01*
Y63108D01*
X587Y75618D02*
X689D01*
X790Y75720D01*
X892Y75618D01*
X993D01*
Y75720D01*
X892Y75821D01*
X993Y75923D01*
Y76025D01*
X892D01*
X790Y75923D01*
X689Y76025D01*
X587D01*
Y75923D01*
X689Y75821D01*
X587Y75720D01*
Y75618D01*
X3755Y85242D02*
X3857D01*
X3958Y85343D01*
X4060Y85242D01*
X4162D01*
Y85343D01*
X4060Y85445D01*
X4162Y85546D01*
Y85648D01*
X4060D01*
X3958Y85546D01*
X3857Y85648D01*
X3755D01*
Y85546D01*
X3857Y85445D01*
X3755Y85343D01*
Y85242D01*
X-25586Y68083D02*
X-25484D01*
X-25382Y68184D01*
X-25281Y68083D01*
X-25179D01*
Y68184D01*
X-25281Y68286D01*
X-25179Y68387D01*
Y68489D01*
X-25281D01*
X-25382Y68387D01*
X-25484Y68489D01*
X-25586D01*
Y68387D01*
X-25484Y68286D01*
X-25586Y68184D01*
Y68083D01*
X-12934Y63851D02*
X-12832D01*
X-12730Y63952D01*
X-12629Y63851D01*
X-12527D01*
Y63952D01*
X-12629Y64054D01*
X-12527Y64156D01*
Y64257D01*
X-12629D01*
X-12730Y64156D01*
X-12832Y64257D01*
X-12934D01*
Y64156D01*
X-12832Y64054D01*
X-12934Y63952D01*
Y63851D01*
X-17968Y70665D02*
X-17867D01*
X-17765Y70767D01*
X-17664Y70665D01*
X-17562D01*
Y70767D01*
X-17664Y70868D01*
X-17562Y70970D01*
Y71071D01*
X-17664D01*
X-17765Y70970D01*
X-17867Y71071D01*
X-17968D01*
Y70970D01*
X-17867Y70868D01*
X-17968Y70767D01*
Y70665D01*
X-47822Y88979D02*
X-47720D01*
X-47619Y89080D01*
X-47517Y88979D01*
X-47416D01*
Y89080D01*
X-47517Y89182D01*
X-47416Y89284D01*
Y89385D01*
X-47517D01*
X-47619Y89284D01*
X-47720Y89385D01*
X-47822D01*
Y89284D01*
X-47720Y89182D01*
X-47822Y89080D01*
Y88979D01*
X-49935Y79237D02*
X-49833D01*
X-49732Y79338D01*
X-49630Y79237D01*
X-49529D01*
Y79338D01*
X-49630Y79440D01*
X-49529Y79541D01*
Y79643D01*
X-49630D01*
X-49732Y79541D01*
X-49833Y79643D01*
X-49935D01*
Y79541D01*
X-49833Y79440D01*
X-49935Y79338D01*
Y79237D01*
X-50002Y85375D02*
X-49900D01*
X-49799Y85477D01*
X-49697Y85375D01*
X-49595D01*
Y85477D01*
X-49697Y85579D01*
X-49595Y85680D01*
Y85782D01*
X-49697D01*
X-49799Y85680D01*
X-49900Y85782D01*
X-50002D01*
Y85680D01*
X-49900Y85579D01*
X-50002Y85477D01*
Y85375D01*
X-44463Y85309D02*
X-44362D01*
X-44260Y85410D01*
X-44159Y85309D01*
X-44057D01*
Y85410D01*
X-44159Y85512D01*
X-44057Y85614D01*
Y85715D01*
X-44159D01*
X-44260Y85614D01*
X-44362Y85715D01*
X-44463D01*
Y85614D01*
X-44362Y85512D01*
X-44463Y85410D01*
Y85309D01*
X-44664Y83396D02*
X-44562D01*
X-44460Y83497D01*
X-44359Y83396D01*
X-44257D01*
Y83497D01*
X-44359Y83599D01*
X-44257Y83701D01*
Y83802D01*
X-44359D01*
X-44460Y83701D01*
X-44562Y83802D01*
X-44664D01*
Y83701D01*
X-44562Y83599D01*
X-44664Y83497D01*
Y83396D01*
X-45242Y78814D02*
X-45140D01*
X-45039Y78915D01*
X-44937Y78814D01*
X-44835D01*
Y78915D01*
X-44937Y79017D01*
X-44835Y79119D01*
Y79220D01*
X-44937D01*
X-45039Y79119D01*
X-45140Y79220D01*
X-45242D01*
Y79119D01*
X-45140Y79017D01*
X-45242Y78915D01*
Y78814D01*
X-46332Y73164D02*
X-46230D01*
X-46129Y73266D01*
X-46027Y73164D01*
X-45925D01*
Y73266D01*
X-46027Y73367D01*
X-45925Y73469D01*
Y73571D01*
X-46027D01*
X-46129Y73469D01*
X-46230Y73571D01*
X-46332D01*
Y73469D01*
X-46230Y73367D01*
X-46332Y73266D01*
Y73164D01*
X-52237Y63616D02*
X-52135D01*
X-52033Y63718D01*
X-51932Y63616D01*
X-51830D01*
Y63718D01*
X-51932Y63820D01*
X-51830Y63921D01*
Y64023D01*
X-51932D01*
X-52033Y63921D01*
X-52135Y64023D01*
X-52237D01*
Y63921D01*
X-52135Y63820D01*
X-52237Y63718D01*
Y63616D01*
X-48447Y68088D02*
X-48345D01*
X-48244Y68190D01*
X-48142Y68088D01*
X-48041D01*
Y68190D01*
X-48142Y68291D01*
X-48041Y68393D01*
Y68494D01*
X-48142D01*
X-48244Y68393D01*
X-48345Y68494D01*
X-48447D01*
Y68393D01*
X-48345Y68291D01*
X-48447Y68190D01*
Y68088D01*
X-42283Y64197D02*
X-42181D01*
X-42079Y64299D01*
X-41978Y64197D01*
X-41876D01*
Y64299D01*
X-41978Y64401D01*
X-41876Y64502D01*
Y64604D01*
X-41978D01*
X-42079Y64502D01*
X-42181Y64604D01*
X-42283D01*
Y64502D01*
X-42181Y64401D01*
X-42283Y64299D01*
Y64197D01*
X-29575Y64501D02*
X-29473D01*
X-29372Y64602D01*
X-29270Y64501D01*
X-29169D01*
Y64602D01*
X-29270Y64704D01*
X-29169Y64805D01*
Y64907D01*
X-29270D01*
X-29372Y64805D01*
X-29473Y64907D01*
X-29575D01*
Y64805D01*
X-29473Y64704D01*
X-29575Y64602D01*
Y64501D01*
X-19141Y62606D02*
X-19039D01*
X-18938Y62707D01*
X-18836Y62606D01*
X-18735D01*
Y62707D01*
X-18836Y62809D01*
X-18735Y62911D01*
Y63012D01*
X-18836D01*
X-18938Y62911D01*
X-19039Y63012D01*
X-19141D01*
Y62911D01*
X-19039Y62809D01*
X-19141Y62707D01*
Y62606D01*
X-10678Y58109D02*
X-10576D01*
X-10475Y58210D01*
X-10373Y58109D01*
X-10271D01*
Y58210D01*
X-10373Y58312D01*
X-10271Y58414D01*
Y58515D01*
X-10373D01*
X-10475Y58414D01*
X-10576Y58515D01*
X-10678D01*
Y58414D01*
X-10576Y58312D01*
X-10678Y58210D01*
Y58109D01*
X-14265Y57300D02*
X-14164D01*
X-14062Y57402D01*
X-13960Y57300D01*
X-13859D01*
Y57402D01*
X-13960Y57504D01*
X-13859Y57605D01*
Y57707D01*
X-13960D01*
X-14062Y57605D01*
X-14164Y57707D01*
X-14265D01*
Y57605D01*
X-14164Y57504D01*
X-14265Y57402D01*
Y57300D01*
X-16716Y56542D02*
X-16614D01*
X-16513Y56644D01*
X-16411Y56542D01*
X-16309D01*
Y56644D01*
X-16411Y56746D01*
X-16309Y56847D01*
Y56949D01*
X-16411D01*
X-16513Y56847D01*
X-16614Y56949D01*
X-16716D01*
Y56847D01*
X-16614Y56746D01*
X-16716Y56644D01*
Y56542D01*
X-23891Y55608D02*
X-23789D01*
X-23687Y55709D01*
X-23586Y55608D01*
X-23484D01*
Y55709D01*
X-23586Y55811D01*
X-23484Y55912D01*
Y56014D01*
X-23586D01*
X-23687Y55912D01*
X-23789Y56014D01*
X-23891D01*
Y55912D01*
X-23789Y55811D01*
X-23891Y55709D01*
Y55608D01*
X6881Y56214D02*
X6982D01*
X7084Y56316D01*
X7185Y56214D01*
X7287D01*
Y56316D01*
X7185Y56417D01*
X7287Y56519D01*
Y56620D01*
X7185D01*
X7084Y56519D01*
X6982Y56620D01*
X6881D01*
Y56519D01*
X6982Y56417D01*
X6881Y56316D01*
Y56214D01*
X14106Y65056D02*
X14208D01*
X14309Y65158D01*
X14411Y65056D01*
X14512D01*
Y65158D01*
X14411Y65260D01*
X14512Y65361D01*
Y65463D01*
X14411D01*
X14309Y65361D01*
X14208Y65463D01*
X14106D01*
Y65361D01*
X14208Y65260D01*
X14106Y65158D01*
Y65056D01*
X14460Y68139D02*
X14561D01*
X14663Y68240D01*
X14765Y68139D01*
X14866D01*
Y68240D01*
X14765Y68342D01*
X14866Y68443D01*
Y68545D01*
X14765D01*
X14663Y68443D01*
X14561Y68545D01*
X14460D01*
Y68443D01*
X14561Y68342D01*
X14460Y68240D01*
Y68139D01*
X14539Y76255D02*
X14640D01*
X14742Y76357D01*
X14843Y76255D01*
X14945D01*
Y76357D01*
X14843Y76459D01*
X14945Y76560D01*
Y76662D01*
X14843D01*
X14742Y76560D01*
X14640Y76662D01*
X14539D01*
Y76560D01*
X14640Y76459D01*
X14539Y76357D01*
Y76255D01*
X12137Y71688D02*
X12239D01*
X12340Y71790D01*
X12442Y71688D01*
X12543D01*
Y71790D01*
X12442Y71891D01*
X12543Y71993D01*
Y72094D01*
X12442D01*
X12340Y71993D01*
X12239Y72094D01*
X12137D01*
Y71993D01*
X12239Y71891D01*
X12137Y71790D01*
Y71688D01*
X13763Y73171D02*
X13865D01*
X13967Y73273D01*
X14068Y73171D01*
X14170D01*
Y73273D01*
X14068Y73374D01*
X14170Y73476D01*
Y73577D01*
X14068D01*
X13967Y73476D01*
X13865Y73577D01*
X13763D01*
Y73476D01*
X13865Y73374D01*
X13763Y73273D01*
Y73171D01*
X13047Y74730D02*
X13149D01*
X13250Y74832D01*
X13352Y74730D01*
X13453D01*
Y74832D01*
X13352Y74933D01*
X13453Y75035D01*
Y75136D01*
X13352D01*
X13250Y75035D01*
X13149Y75136D01*
X13047D01*
Y75035D01*
X13149Y74933D01*
X13047Y74832D01*
Y74730D01*
X5176Y68129D02*
X5278D01*
X5379Y68230D01*
X5481Y68129D01*
X5582D01*
Y68230D01*
X5481Y68332D01*
X5582Y68433D01*
Y68535D01*
X5481D01*
X5379Y68433D01*
X5278Y68535D01*
X5176D01*
Y68433D01*
X5278Y68332D01*
X5176Y68230D01*
Y68129D01*
X7527Y73515D02*
X7628D01*
X7730Y73616D01*
X7832Y73515D01*
X7933D01*
Y73616D01*
X7832Y73718D01*
X7933Y73820D01*
Y73921D01*
X7832D01*
X7730Y73820D01*
X7628Y73921D01*
X7527D01*
Y73820D01*
X7628Y73718D01*
X7527Y73616D01*
Y73515D01*
X5557Y73701D02*
X5658D01*
X5760Y73803D01*
X5861Y73701D01*
X5963D01*
Y73803D01*
X5861Y73904D01*
X5963Y74006D01*
Y74107D01*
X5861D01*
X5760Y74006D01*
X5658Y74107D01*
X5557D01*
Y74006D01*
X5658Y73904D01*
X5557Y73803D01*
Y73701D01*
X3815Y73337D02*
X3916D01*
X4018Y73439D01*
X4119Y73337D01*
X4221D01*
Y73439D01*
X4119Y73541D01*
X4221Y73642D01*
Y73744D01*
X4119D01*
X4018Y73642D01*
X3916Y73744D01*
X3815D01*
Y73642D01*
X3916Y73541D01*
X3815Y73439D01*
Y73337D01*
X-5283Y72276D02*
X-5181D01*
X-5080Y72378D01*
X-4978Y72276D01*
X-4876D01*
Y72378D01*
X-4978Y72479D01*
X-4876Y72581D01*
Y72682D01*
X-4978D01*
X-5080Y72581D01*
X-5181Y72682D01*
X-5283D01*
Y72581D01*
X-5181Y72479D01*
X-5283Y72378D01*
Y72276D01*
X-7693Y72551D02*
X-7591D01*
X-7490Y72653D01*
X-7388Y72551D01*
X-7286D01*
Y72653D01*
X-7388Y72754D01*
X-7286Y72856D01*
Y72957D01*
X-7388D01*
X-7490Y72856D01*
X-7591Y72957D01*
X-7693D01*
Y72856D01*
X-7591Y72754D01*
X-7693Y72653D01*
Y72551D01*
X-7743Y79461D02*
X-7642D01*
X-7540Y79563D01*
X-7438Y79461D01*
X-7337D01*
Y79563D01*
X-7438Y79665D01*
X-7337Y79766D01*
Y79868D01*
X-7438D01*
X-7540Y79766D01*
X-7642Y79868D01*
X-7743D01*
Y79766D01*
X-7642Y79665D01*
X-7743Y79563D01*
Y79461D01*
X-2438Y69501D02*
X-2337D01*
X-2235Y69602D01*
X-2134Y69501D01*
X-2032D01*
Y69602D01*
X-2134Y69704D01*
X-2032Y69805D01*
Y69907D01*
X-2134D01*
X-2235Y69805D01*
X-2337Y69907D01*
X-2438D01*
Y69805D01*
X-2337Y69704D01*
X-2438Y69602D01*
Y69501D01*
X5693Y82684D02*
X5795D01*
X5896Y82786D01*
X5998Y82684D01*
X6099D01*
Y82786D01*
X5998Y82888D01*
X6099Y82989D01*
Y83091D01*
X5998D01*
X5896Y82989D01*
X5795Y83091D01*
X5693D01*
Y82989D01*
X5795Y82888D01*
X5693Y82786D01*
Y82684D01*
X5943Y86411D02*
X6044D01*
X6146Y86513D01*
X6247Y86411D01*
X6349D01*
Y86513D01*
X6247Y86615D01*
X6349Y86716D01*
Y86818D01*
X6247D01*
X6146Y86716D01*
X6044Y86818D01*
X5943D01*
Y86716D01*
X6044Y86615D01*
X5943Y86513D01*
Y86411D01*
X3791Y91330D02*
X3893D01*
X3994Y91431D01*
X4096Y91330D01*
X4197D01*
Y91431D01*
X4096Y91533D01*
X4197Y91635D01*
Y91736D01*
X4096D01*
X3994Y91635D01*
X3893Y91736D01*
X3791D01*
Y91635D01*
X3893Y91533D01*
X3791Y91431D01*
Y91330D01*
X-2952Y88409D02*
X-2851D01*
X-2749Y88511D01*
X-2648Y88409D01*
X-2546D01*
Y88511D01*
X-2648Y88613D01*
X-2546Y88714D01*
Y88816D01*
X-2648D01*
X-2749Y88714D01*
X-2851Y88816D01*
X-2952D01*
Y88714D01*
X-2851Y88613D01*
X-2952Y88511D01*
Y88409D01*
X-2626Y90388D02*
X-2524D01*
X-2423Y90490D01*
X-2321Y90388D01*
X-2219D01*
Y90490D01*
X-2321Y90592D01*
X-2219Y90693D01*
Y90795D01*
X-2321D01*
X-2423Y90693D01*
X-2524Y90795D01*
X-2626D01*
Y90693D01*
X-2524Y90592D01*
X-2626Y90490D01*
Y90388D01*
X1282Y83170D02*
X1383D01*
X1485Y83272D01*
X1587Y83170D01*
X1688D01*
Y83272D01*
X1587Y83373D01*
X1688Y83475D01*
Y83576D01*
X1587D01*
X1485Y83475D01*
X1383Y83576D01*
X1282D01*
Y83475D01*
X1383Y83373D01*
X1282Y83272D01*
Y83170D01*
X-148Y84586D02*
X-46D01*
X56Y84688D01*
X157Y84586D01*
X259D01*
Y84688D01*
X157Y84789D01*
X259Y84891D01*
Y84993D01*
X157D01*
X56Y84891D01*
X-46Y84993D01*
X-148D01*
Y84891D01*
X-46Y84789D01*
X-148Y84688D01*
Y84586D01*
X-26459Y83437D02*
X-26357D01*
X-26256Y83539D01*
X-26154Y83437D01*
X-26053D01*
Y83539D01*
X-26154Y83640D01*
X-26053Y83742D01*
Y83844D01*
X-26154D01*
X-26256Y83742D01*
X-26357Y83844D01*
X-26459D01*
Y83742D01*
X-26357Y83640D01*
X-26459Y83539D01*
Y83437D01*
X-38329Y83966D02*
X-38228D01*
X-38126Y84068D01*
X-38024Y83966D01*
X-37923D01*
Y84068D01*
X-38024Y84169D01*
X-37923Y84271D01*
Y84372D01*
X-38024D01*
X-38126Y84271D01*
X-38228Y84372D01*
X-38329D01*
Y84271D01*
X-38228Y84169D01*
X-38329Y84068D01*
Y83966D01*
X-34553Y80907D02*
X-34451D01*
X-34350Y81009D01*
X-34248Y80907D01*
X-34147D01*
Y81009D01*
X-34248Y81110D01*
X-34147Y81212D01*
Y81314D01*
X-34248D01*
X-34350Y81212D01*
X-34451Y81314D01*
X-34553D01*
Y81212D01*
X-34451Y81110D01*
X-34553Y81009D01*
Y80907D01*
X-26119Y82116D02*
X-26018D01*
X-25916Y82217D01*
X-25814Y82116D01*
X-25713D01*
Y82217D01*
X-25814Y82319D01*
X-25713Y82420D01*
Y82522D01*
X-25814D01*
X-25916Y82420D01*
X-26018Y82522D01*
X-26119D01*
Y82420D01*
X-26018Y82319D01*
X-26119Y82217D01*
Y82116D01*
X-9392Y84778D02*
X-9291D01*
X-9189Y84879D01*
X-9087Y84778D01*
X-8986D01*
Y84879D01*
X-9087Y84981D01*
X-8986Y85082D01*
Y85184D01*
X-9087D01*
X-9189Y85082D01*
X-9291Y85184D01*
X-9392D01*
Y85082D01*
X-9291Y84981D01*
X-9392Y84879D01*
Y84778D01*
X-16392D02*
X-16291D01*
X-16189Y84879D01*
X-16087Y84778D01*
X-15986D01*
Y84879D01*
X-16087Y84981D01*
X-15986Y85082D01*
Y85184D01*
X-16087D01*
X-16189Y85082D01*
X-16291Y85184D01*
X-16392D01*
Y85082D01*
X-16291Y84981D01*
X-16392Y84879D01*
Y84778D01*
X-21193Y84595D02*
X-21092D01*
X-20990Y84697D01*
X-20889Y84595D01*
X-20787D01*
Y84697D01*
X-20889Y84798D01*
X-20787Y84900D01*
Y85002D01*
X-20889D01*
X-20990Y84900D01*
X-21092Y85002D01*
X-21193D01*
Y84900D01*
X-21092Y84798D01*
X-21193Y84697D01*
Y84595D01*
X-7093Y82698D02*
X-6991D01*
X-6890Y82800D01*
X-6788Y82698D01*
X-6687D01*
Y82800D01*
X-6788Y82901D01*
X-6687Y83003D01*
Y83104D01*
X-6788D01*
X-6890Y83003D01*
X-6991Y83104D01*
X-7093D01*
Y83003D01*
X-6991Y82901D01*
X-7093Y82800D01*
Y82698D01*
X-10151Y82526D02*
X-10049D01*
X-9947Y82627D01*
X-9846Y82526D01*
X-9744D01*
Y82627D01*
X-9846Y82729D01*
X-9744Y82831D01*
Y82932D01*
X-9846D01*
X-9947Y82831D01*
X-10049Y82932D01*
X-10151D01*
Y82831D01*
X-10049Y82729D01*
X-10151Y82627D01*
Y82526D01*
X-18204Y82267D02*
X-18102D01*
X-18000Y82369D01*
X-17899Y82267D01*
X-17797D01*
Y82369D01*
X-17899Y82471D01*
X-17797Y82572D01*
Y82674D01*
X-17899D01*
X-18000Y82572D01*
X-18102Y82674D01*
X-18204D01*
Y82572D01*
X-18102Y82471D01*
X-18204Y82369D01*
Y82267D01*
X-24783Y79432D02*
X-24681D01*
X-24580Y79534D01*
X-24478Y79432D01*
X-24377D01*
Y79534D01*
X-24478Y79636D01*
X-24377Y79737D01*
Y79839D01*
X-24478D01*
X-24580Y79737D01*
X-24681Y79839D01*
X-24783D01*
Y79737D01*
X-24681Y79636D01*
X-24783Y79534D01*
Y79432D01*
X-35823Y82123D02*
X-35722D01*
X-35620Y82224D01*
X-35519Y82123D01*
X-35417D01*
Y82224D01*
X-35519Y82326D01*
X-35417Y82427D01*
Y82529D01*
X-35519D01*
X-35620Y82427D01*
X-35722Y82529D01*
X-35823D01*
Y82427D01*
X-35722Y82326D01*
X-35823Y82224D01*
Y82123D01*
X-43900Y75167D02*
X-43799D01*
X-43697Y75268D01*
X-43596Y75167D01*
X-43494D01*
Y75268D01*
X-43596Y75370D01*
X-43494Y75472D01*
Y75573D01*
X-43596D01*
X-43697Y75472D01*
X-43799Y75573D01*
X-43900D01*
Y75472D01*
X-43799Y75370D01*
X-43900Y75268D01*
Y75167D01*
X-43086Y73731D02*
X-42984D01*
X-42883Y73832D01*
X-42781Y73731D01*
X-42679D01*
Y73832D01*
X-42781Y73934D01*
X-42679Y74036D01*
Y74137D01*
X-42781D01*
X-42883Y74036D01*
X-42984Y74137D01*
X-43086D01*
Y74036D01*
X-42984Y73934D01*
X-43086Y73832D01*
Y73731D01*
X-41277Y73455D02*
X-41175D01*
X-41074Y73556D01*
X-40972Y73455D01*
X-40871D01*
Y73556D01*
X-40972Y73658D01*
X-40871Y73759D01*
Y73861D01*
X-40972D01*
X-41074Y73759D01*
X-41175Y73861D01*
X-41277D01*
Y73759D01*
X-41175Y73658D01*
X-41277Y73556D01*
Y73455D01*
X-40089Y74449D02*
X-39988D01*
X-39886Y74550D01*
X-39785Y74449D01*
X-39683D01*
Y74550D01*
X-39785Y74652D01*
X-39683Y74754D01*
Y74855D01*
X-39785D01*
X-39886Y74754D01*
X-39988Y74855D01*
X-40089D01*
Y74754D01*
X-39988Y74652D01*
X-40089Y74550D01*
Y74449D01*
X-39868Y75788D02*
X-39767D01*
X-39665Y75890D01*
X-39564Y75788D01*
X-39462D01*
Y75890D01*
X-39564Y75991D01*
X-39462Y76093D01*
Y76195D01*
X-39564D01*
X-39665Y76093D01*
X-39767Y76195D01*
X-39868D01*
Y76093D01*
X-39767Y75991D01*
X-39868Y75890D01*
Y75788D01*
X-40462Y77293D02*
X-40361D01*
X-40259Y77395D01*
X-40157Y77293D01*
X-40056D01*
Y77395D01*
X-40157Y77497D01*
X-40056Y77598D01*
Y77700D01*
X-40157D01*
X-40259Y77598D01*
X-40361Y77700D01*
X-40462D01*
Y77598D01*
X-40361Y77497D01*
X-40462Y77395D01*
Y77293D01*
X-40545Y78840D02*
X-40443D01*
X-40342Y78941D01*
X-40240Y78840D01*
X-40139D01*
Y78941D01*
X-40240Y79043D01*
X-40139Y79145D01*
Y79246D01*
X-40240D01*
X-40342Y79145D01*
X-40443Y79246D01*
X-40545D01*
Y79145D01*
X-40443Y79043D01*
X-40545Y78941D01*
Y78840D01*
X362Y49240D02*
X463D01*
X565Y49342D01*
X666Y49240D01*
X768D01*
Y49342D01*
X666Y49444D01*
X768Y49545D01*
Y49647D01*
X666D01*
X565Y49545D01*
X463Y49647D01*
X362D01*
Y49545D01*
X463Y49444D01*
X362Y49342D01*
Y49240D01*
X2168Y54966D02*
X2270D01*
X2371Y55067D01*
X2473Y54966D01*
X2575D01*
Y55067D01*
X2473Y55169D01*
X2575Y55270D01*
Y55372D01*
X2473D01*
X2371Y55270D01*
X2270Y55372D01*
X2168D01*
Y55270D01*
X2270Y55169D01*
X2168Y55067D01*
Y54966D01*
X-590Y49221D02*
X-488D01*
X-387Y49323D01*
X-285Y49221D01*
X-183D01*
Y49323D01*
X-285Y49425D01*
X-183Y49526D01*
Y49628D01*
X-285D01*
X-387Y49526D01*
X-488Y49628D01*
X-590D01*
Y49526D01*
X-488Y49425D01*
X-590Y49323D01*
Y49221D01*
X-2372Y51495D02*
X-2271D01*
X-2169Y51597D01*
X-2068Y51495D01*
X-1966D01*
Y51597D01*
X-2068Y51698D01*
X-1966Y51800D01*
Y51901D01*
X-2068D01*
X-2169Y51800D01*
X-2271Y51901D01*
X-2372D01*
Y51800D01*
X-2271Y51698D01*
X-2372Y51597D01*
Y51495D01*
X2845Y47813D02*
X2946D01*
X3048Y47915D01*
X3149Y47813D01*
X3251D01*
Y47915D01*
X3149Y48016D01*
X3251Y48118D01*
Y48220D01*
X3149D01*
X3048Y48118D01*
X2946Y48220D01*
X2845D01*
Y48118D01*
X2946Y48016D01*
X2845Y47915D01*
Y47813D01*
X1941Y46929D02*
X2043D01*
X2144Y47031D01*
X2246Y46929D01*
X2347D01*
Y47031D01*
X2246Y47132D01*
X2347Y47234D01*
Y47336D01*
X2246D01*
X2144Y47234D01*
X2043Y47336D01*
X1941D01*
Y47234D01*
X2043Y47132D01*
X1941Y47031D01*
Y46929D01*
X-3105Y47833D02*
X-3003D01*
X-2902Y47935D01*
X-2800Y47833D01*
X-2699D01*
Y47935D01*
X-2800Y48036D01*
X-2699Y48138D01*
Y48239D01*
X-2800D01*
X-2902Y48138D01*
X-3003Y48239D01*
X-3105D01*
Y48138D01*
X-3003Y48036D01*
X-3105Y47935D01*
Y47833D01*
X-2155Y46910D02*
X-2054D01*
X-1952Y47011D01*
X-1850Y46910D01*
X-1749D01*
Y47011D01*
X-1850Y47113D01*
X-1749Y47214D01*
Y47316D01*
X-1850D01*
X-1952Y47214D01*
X-2054Y47316D01*
X-2155D01*
Y47214D01*
X-2054Y47113D01*
X-2155Y47011D01*
Y46910D01*
X-1333Y45693D02*
X-1232D01*
X-1130Y45795D01*
X-1029Y45693D01*
X-927D01*
Y45795D01*
X-1029Y45896D01*
X-927Y45998D01*
Y46100D01*
X-1029D01*
X-1130Y45998D01*
X-1232Y46100D01*
X-1333D01*
Y45998D01*
X-1232Y45896D01*
X-1333Y45795D01*
Y45693D01*
X-4269Y45708D02*
X-4167D01*
X-4065Y45809D01*
X-3964Y45708D01*
X-3862D01*
Y45809D01*
X-3964Y45911D01*
X-3862Y46013D01*
Y46114D01*
X-3964D01*
X-4065Y46013D01*
X-4167Y46114D01*
X-4269D01*
Y46013D01*
X-4167Y45911D01*
X-4269Y45809D01*
Y45708D01*
X-2100Y45700D02*
X-1999D01*
X-1897Y45802D01*
X-1796Y45700D01*
X-1694D01*
Y45802D01*
X-1796Y45904D01*
X-1694Y46005D01*
Y46107D01*
X-1796D01*
X-1897Y46005D01*
X-1999Y46107D01*
X-2100D01*
Y46005D01*
X-1999Y45904D01*
X-2100Y45802D01*
Y45700D01*
X1866Y45690D02*
X1968D01*
X2069Y45792D01*
X2171Y45690D01*
X2273D01*
Y45792D01*
X2171Y45893D01*
X2273Y45995D01*
Y46097D01*
X2171D01*
X2069Y45995D01*
X1968Y46097D01*
X1866D01*
Y45995D01*
X1968Y45893D01*
X1866Y45792D01*
Y45690D01*
X3981Y45698D02*
X4083D01*
X4184Y45800D01*
X4286Y45698D01*
X4387D01*
Y45800D01*
X4286Y45901D01*
X4387Y46003D01*
Y46104D01*
X4286D01*
X4184Y46003D01*
X4083Y46104D01*
X3981D01*
Y46003D01*
X4083Y45901D01*
X3981Y45800D01*
Y45698D01*
X996Y45700D02*
X1098D01*
X1199Y45802D01*
X1301Y45700D01*
X1403D01*
Y45802D01*
X1301Y45903D01*
X1403Y46005D01*
Y46107D01*
X1301D01*
X1199Y46005D01*
X1098Y46107D01*
X996D01*
Y46005D01*
X1098Y45903D01*
X996Y45802D01*
Y45700D01*
X-3778Y67461D02*
X-3676D01*
X-3574Y67563D01*
X-3473Y67461D01*
X-3371D01*
Y67563D01*
X-3473Y67665D01*
X-3371Y67766D01*
Y67868D01*
X-3473D01*
X-3574Y67766D01*
X-3676Y67868D01*
X-3778D01*
Y67766D01*
X-3676Y67665D01*
X-3778Y67563D01*
Y67461D01*
X-921Y63035D02*
X-819D01*
X-718Y63136D01*
X-616Y63035D01*
X-515D01*
Y63136D01*
X-616Y63238D01*
X-515Y63339D01*
Y63441D01*
X-616D01*
X-718Y63339D01*
X-819Y63441D01*
X-921D01*
Y63339D01*
X-819Y63238D01*
X-921Y63136D01*
Y63035D01*
X-535Y65395D02*
X-434D01*
X-332Y65497D01*
X-230Y65395D01*
X-129D01*
Y65497D01*
X-230Y65598D01*
X-129Y65700D01*
Y65801D01*
X-230D01*
X-332Y65700D01*
X-434Y65801D01*
X-535D01*
Y65700D01*
X-434Y65598D01*
X-535Y65497D01*
Y65395D01*
X5732Y68798D02*
X5834D01*
X5935Y68900D01*
X6037Y68798D01*
X6138D01*
Y68900D01*
X6037Y69002D01*
X6138Y69103D01*
Y69205D01*
X6037D01*
X5935Y69103D01*
X5834Y69205D01*
X5732D01*
Y69103D01*
X5834Y69002D01*
X5732Y68900D01*
Y68798D01*
X-8631Y58056D02*
X-8530D01*
X-8428Y58158D01*
X-8327Y58056D01*
X-8225D01*
Y58158D01*
X-8327Y58260D01*
X-8225Y58361D01*
Y58463D01*
X-8327D01*
X-8428Y58361D01*
X-8530Y58463D01*
X-8631D01*
Y58361D01*
X-8530Y58260D01*
X-8631Y58158D01*
Y58056D01*
X-5858Y57297D02*
X-5756D01*
X-5655Y57398D01*
X-5553Y57297D01*
X-5451D01*
Y57398D01*
X-5553Y57500D01*
X-5451Y57601D01*
Y57703D01*
X-5553D01*
X-5655Y57601D01*
X-5756Y57703D01*
X-5858D01*
Y57601D01*
X-5756Y57500D01*
X-5858Y57398D01*
Y57297D01*
X-26049Y88897D02*
X-25947D01*
X-25845Y88998D01*
X-25744Y88897D01*
X-25642D01*
Y88998D01*
X-25744Y89100D01*
X-25642Y89202D01*
Y89303D01*
X-25744D01*
X-25845Y89202D01*
X-25947Y89303D01*
X-26049D01*
Y89202D01*
X-25947Y89100D01*
X-26049Y88998D01*
Y88897D01*
X-23267Y87968D02*
X-23165D01*
X-23064Y88069D01*
X-22962Y87968D01*
X-22861D01*
Y88069D01*
X-22962Y88171D01*
X-22861Y88273D01*
Y88374D01*
X-22962D01*
X-23064Y88273D01*
X-23165Y88374D01*
X-23267D01*
Y88273D01*
X-23165Y88171D01*
X-23267Y88069D01*
Y87968D01*
X1823Y62954D02*
X1924D01*
X2026Y63055D01*
X2127Y62954D01*
X2229D01*
Y63055D01*
X2127Y63157D01*
X2229Y63259D01*
Y63360D01*
X2127D01*
X2026Y63259D01*
X1924Y63360D01*
X1823D01*
Y63259D01*
X1924Y63157D01*
X1823Y63055D01*
Y62954D01*
X10685Y75764D02*
X10786D01*
X10888Y75866D01*
X10989Y75764D01*
X11091D01*
Y75866D01*
X10989Y75967D01*
X11091Y76069D01*
Y76171D01*
X10989D01*
X10888Y76069D01*
X10786Y76171D01*
X10685D01*
Y76069D01*
X10786Y75967D01*
X10685Y75866D01*
Y75764D01*
X9825Y75508D02*
X9927D01*
X10028Y75609D01*
X10130Y75508D01*
X10232D01*
Y75609D01*
X10130Y75711D01*
X10232Y75813D01*
Y75914D01*
X10130D01*
X10028Y75813D01*
X9927Y75914D01*
X9825D01*
Y75813D01*
X9927Y75711D01*
X9825Y75609D01*
Y75508D01*
X11360Y67876D02*
X11462D01*
X11563Y67978D01*
X11665Y67876D01*
X11767D01*
Y67978D01*
X11665Y68080D01*
X11767Y68181D01*
Y68283D01*
X11665D01*
X11563Y68181D01*
X11462Y68283D01*
X11360D01*
Y68181D01*
X11462Y68080D01*
X11360Y67978D01*
Y67876D01*
X26515Y65397D02*
X26617D01*
X26718Y65498D01*
X26820Y65397D01*
X26922D01*
Y65498D01*
X26820Y65600D01*
X26922Y65702D01*
Y65803D01*
X26820D01*
X26718Y65702D01*
X26617Y65803D01*
X26515D01*
Y65702D01*
X26617Y65600D01*
X26515Y65498D01*
Y65397D01*
X17077Y63405D02*
X17178D01*
X17280Y63506D01*
X17382Y63405D01*
X17483D01*
Y63506D01*
X17382Y63608D01*
X17483Y63710D01*
Y63811D01*
X17382D01*
X17280Y63710D01*
X17178Y63811D01*
X17077D01*
Y63710D01*
X17178Y63608D01*
X17077Y63506D01*
Y63405D01*
X-50161Y75276D02*
X-50059D01*
X-49957Y75377D01*
X-49856Y75276D01*
X-49754D01*
Y75377D01*
X-49856Y75479D01*
X-49754Y75580D01*
Y75682D01*
X-49856D01*
X-49957Y75580D01*
X-50059Y75682D01*
X-50161D01*
Y75580D01*
X-50059Y75479D01*
X-50161Y75377D01*
Y75276D01*
X-54588Y76135D02*
X-54486D01*
X-54385Y76237D01*
X-54283Y76135D01*
X-54181D01*
Y76237D01*
X-54283Y76338D01*
X-54181Y76440D01*
Y76542D01*
X-54283D01*
X-54385Y76440D01*
X-54486Y76542D01*
X-54588D01*
Y76440D01*
X-54486Y76338D01*
X-54588Y76237D01*
Y76135D01*
X-42674Y91672D02*
X-42573D01*
X-42471Y91773D01*
X-42369Y91672D01*
X-42268D01*
Y91773D01*
X-42369Y91875D01*
X-42268Y91976D01*
Y92078D01*
X-42369D01*
X-42471Y91976D01*
X-42573Y92078D01*
X-42674D01*
Y91976D01*
X-42573Y91875D01*
X-42674Y91773D01*
Y91672D01*
X-45170Y91940D02*
X-45068D01*
X-44967Y92041D01*
X-44865Y91940D01*
X-44763D01*
Y92041D01*
X-44865Y92143D01*
X-44763Y92244D01*
Y92346D01*
X-44865D01*
X-44967Y92244D01*
X-45068Y92346D01*
X-45170D01*
Y92244D01*
X-45068Y92143D01*
X-45170Y92041D01*
Y91940D01*
X-44534Y87880D02*
X-44432D01*
X-44331Y87982D01*
X-44229Y87880D01*
X-44127D01*
Y87982D01*
X-44229Y88084D01*
X-44127Y88185D01*
Y88287D01*
X-44229D01*
X-44331Y88185D01*
X-44432Y88287D01*
X-44534D01*
Y88185D01*
X-44432Y88084D01*
X-44534Y87982D01*
Y87880D01*
X-52622Y82779D02*
X-52520D01*
X-52418Y82881D01*
X-52317Y82779D01*
X-52215D01*
Y82881D01*
X-52317Y82982D01*
X-52215Y83084D01*
Y83185D01*
X-52317D01*
X-52418Y83084D01*
X-52520Y83185D01*
X-52622D01*
Y83084D01*
X-52520Y82982D01*
X-52622Y82881D01*
Y82779D01*
X-43198Y79778D02*
X-43096D01*
X-42995Y79879D01*
X-42893Y79778D01*
X-42792D01*
Y79879D01*
X-42893Y79981D01*
X-42792Y80083D01*
Y80184D01*
X-42893D01*
X-42995Y80083D01*
X-43096Y80184D01*
X-43198D01*
Y80083D01*
X-43096Y79981D01*
X-43198Y79879D01*
Y79778D01*
X-43535Y78471D02*
X-43434D01*
X-43332Y78572D01*
X-43231Y78471D01*
X-43129D01*
Y78572D01*
X-43231Y78674D01*
X-43129Y78775D01*
Y78877D01*
X-43231D01*
X-43332Y78775D01*
X-43434Y78877D01*
X-43535D01*
Y78775D01*
X-43434Y78674D01*
X-43535Y78572D01*
Y78471D01*
X-43547Y76699D02*
X-43446D01*
X-43344Y76801D01*
X-43243Y76699D01*
X-43141D01*
Y76801D01*
X-43243Y76903D01*
X-43141Y77004D01*
Y77106D01*
X-43243D01*
X-43344Y77004D01*
X-43446Y77106D01*
X-43547D01*
Y77004D01*
X-43446Y76903D01*
X-43547Y76801D01*
Y76699D01*
X-41433Y79796D02*
X-41331D01*
X-41230Y79897D01*
X-41128Y79796D01*
X-41027D01*
Y79897D01*
X-41128Y79999D01*
X-41027Y80101D01*
Y80202D01*
X-41128D01*
X-41230Y80101D01*
X-41331Y80202D01*
X-41433D01*
Y80101D01*
X-41331Y79999D01*
X-41433Y79897D01*
Y79796D01*
X-41450Y85812D02*
X-41348D01*
X-41247Y85914D01*
X-41145Y85812D01*
X-41043D01*
Y85914D01*
X-41145Y86016D01*
X-41043Y86117D01*
Y86219D01*
X-41145D01*
X-41247Y86117D01*
X-41348Y86219D01*
X-41450D01*
Y86117D01*
X-41348Y86016D01*
X-41450Y85914D01*
Y85812D01*
X-57023Y81880D02*
X-56921D01*
X-56820Y81981D01*
X-56718Y81880D01*
X-56616D01*
Y81981D01*
X-56718Y82083D01*
X-56616Y82185D01*
Y82286D01*
X-56718D01*
X-56820Y82185D01*
X-56921Y82286D01*
X-57023D01*
Y82185D01*
X-56921Y82083D01*
X-57023Y81981D01*
Y81880D01*
X-54810Y83673D02*
X-54708D01*
X-54607Y83775D01*
X-54505Y83673D01*
X-54404D01*
Y83775D01*
X-54505Y83876D01*
X-54404Y83978D01*
Y84080D01*
X-54505D01*
X-54607Y83978D01*
X-54708Y84080D01*
X-54810D01*
Y83978D01*
X-54708Y83876D01*
X-54810Y83775D01*
Y83673D01*
X9950Y68183D02*
X10052D01*
X10153Y68285D01*
X10255Y68183D01*
X10357D01*
Y68285D01*
X10255Y68386D01*
X10357Y68488D01*
Y68590D01*
X10255D01*
X10153Y68488D01*
X10052Y68590D01*
X9950D01*
Y68488D01*
X10052Y68386D01*
X9950Y68285D01*
Y68183D01*
X8925Y62822D02*
X9026D01*
X9128Y62923D01*
X9229Y62822D01*
X9331D01*
Y62923D01*
X9229Y63025D01*
X9331Y63127D01*
Y63228D01*
X9229D01*
X9128Y63127D01*
X9026Y63228D01*
X8925D01*
Y63127D01*
X9026Y63025D01*
X8925Y62923D01*
Y62822D01*
X12803Y60372D02*
X12904D01*
X13006Y60474D01*
X13108Y60372D01*
X13209D01*
Y60474D01*
X13108Y60575D01*
X13209Y60677D01*
Y60778D01*
X13108D01*
X13006Y60677D01*
X12904Y60778D01*
X12803D01*
Y60677D01*
X12904Y60575D01*
X12803Y60474D01*
Y60372D01*
X8571D02*
X8672D01*
X8774Y60474D01*
X8876Y60372D01*
X8977D01*
Y60474D01*
X8876Y60575D01*
X8977Y60677D01*
Y60778D01*
X8876D01*
X8774Y60677D01*
X8672Y60778D01*
X8571D01*
Y60677D01*
X8672Y60575D01*
X8571Y60474D01*
Y60372D01*
X8063Y67461D02*
X8164D01*
X8266Y67563D01*
X8368Y67461D01*
X8469D01*
Y67563D01*
X8368Y67665D01*
X8469Y67766D01*
Y67868D01*
X8368D01*
X8266Y67766D01*
X8164Y67868D01*
X8063D01*
Y67766D01*
X8164Y67665D01*
X8063Y67563D01*
Y67461D01*
X8291Y65778D02*
X8393D01*
X8495Y65879D01*
X8596Y65778D01*
X8698D01*
Y65879D01*
X8596Y65981D01*
X8698Y66083D01*
Y66184D01*
X8596D01*
X8495Y66083D01*
X8393Y66184D01*
X8291D01*
Y66083D01*
X8393Y65981D01*
X8291Y65879D01*
Y65778D01*
X-2604Y74345D02*
X-2503D01*
X-2401Y74447D01*
X-2299Y74345D01*
X-2198D01*
Y74447D01*
X-2299Y74548D01*
X-2198Y74650D01*
Y74752D01*
X-2299D01*
X-2401Y74650D01*
X-2503Y74752D01*
X-2604D01*
Y74650D01*
X-2503Y74548D01*
X-2604Y74447D01*
Y74345D01*
X7832Y59247D02*
X7934D01*
X8035Y59349D01*
X8137Y59247D01*
X8238D01*
Y59349D01*
X8137Y59450D01*
X8238Y59552D01*
Y59653D01*
X8137D01*
X8035Y59552D01*
X7934Y59653D01*
X7832D01*
Y59552D01*
X7934Y59450D01*
X7832Y59349D01*
Y59247D01*
X4354Y59293D02*
X4456D01*
X4557Y59395D01*
X4659Y59293D01*
X4761D01*
Y59395D01*
X4659Y59496D01*
X4761Y59598D01*
Y59699D01*
X4659D01*
X4557Y59598D01*
X4456Y59699D01*
X4354D01*
Y59598D01*
X4456Y59496D01*
X4354Y59395D01*
Y59293D01*
X5083Y57775D02*
X5184D01*
X5286Y57876D01*
X5387Y57775D01*
X5489D01*
Y57876D01*
X5387Y57978D01*
X5489Y58079D01*
Y58181D01*
X5387D01*
X5286Y58079D01*
X5184Y58181D01*
X5083D01*
Y58079D01*
X5184Y57978D01*
X5083Y57876D01*
Y57775D01*
X3629Y58347D02*
X3731D01*
X3833Y58449D01*
X3934Y58347D01*
X4036D01*
Y58449D01*
X3934Y58551D01*
X4036Y58652D01*
Y58754D01*
X3934D01*
X3833Y58652D01*
X3731Y58754D01*
X3629D01*
Y58652D01*
X3731Y58551D01*
X3629Y58449D01*
Y58347D01*
X5604Y65778D02*
X5706D01*
X5807Y65879D01*
X5909Y65778D01*
X6011D01*
Y65879D01*
X5909Y65981D01*
X6011Y66083D01*
Y66184D01*
X5909D01*
X5807Y66083D01*
X5706Y66184D01*
X5604D01*
Y66083D01*
X5706Y65981D01*
X5604Y65879D01*
Y65778D01*
X8373Y54135D02*
X8474D01*
X8576Y54236D01*
X8678Y54135D01*
X8779D01*
Y54236D01*
X8678Y54338D01*
X8779Y54439D01*
Y54541D01*
X8678D01*
X8576Y54439D01*
X8474Y54541D01*
X8373D01*
Y54439D01*
X8474Y54338D01*
X8373Y54236D01*
Y54135D01*
X12797Y56097D02*
X12898D01*
X13000Y56198D01*
X13102Y56097D01*
X13203D01*
Y56198D01*
X13102Y56300D01*
X13203Y56402D01*
Y56503D01*
X13102D01*
X13000Y56402D01*
X12898Y56503D01*
X12797D01*
Y56402D01*
X12898Y56300D01*
X12797Y56198D01*
Y56097D01*
X11347Y56347D02*
X11448D01*
X11550Y56448D01*
X11652Y56347D01*
X11753D01*
Y56448D01*
X11652Y56550D01*
X11753Y56652D01*
Y56753D01*
X11652D01*
X11550Y56652D01*
X11448Y56753D01*
X11347D01*
Y56652D01*
X11448Y56550D01*
X11347Y56448D01*
Y56347D01*
X-1635Y53788D02*
X-1533D01*
X-1432Y53890D01*
X-1330Y53788D01*
X-1228D01*
Y53890D01*
X-1330Y53991D01*
X-1228Y54093D01*
Y54194D01*
X-1330D01*
X-1432Y54093D01*
X-1533Y54194D01*
X-1635D01*
Y54093D01*
X-1533Y53991D01*
X-1635Y53890D01*
Y53788D01*
X-3237Y64293D02*
X-3135D01*
X-3034Y64394D01*
X-2932Y64293D01*
X-2831D01*
Y64394D01*
X-2932Y64496D01*
X-2831Y64598D01*
Y64699D01*
X-2932D01*
X-3034Y64598D01*
X-3135Y64699D01*
X-3237D01*
Y64598D01*
X-3135Y64496D01*
X-3237Y64394D01*
Y64293D01*
X-4130Y59657D02*
X-4029D01*
X-3927Y59759D01*
X-3825Y59657D01*
X-3724D01*
Y59759D01*
X-3825Y59861D01*
X-3724Y59962D01*
Y60064D01*
X-3825D01*
X-3927Y59962D01*
X-4029Y60064D01*
X-4130D01*
Y59962D01*
X-4029Y59861D01*
X-4130Y59759D01*
Y59657D01*
X-3986Y61412D02*
X-3885D01*
X-3783Y61513D01*
X-3681Y61412D01*
X-3580D01*
Y61513D01*
X-3681Y61615D01*
X-3580Y61716D01*
Y61818D01*
X-3681D01*
X-3783Y61716D01*
X-3885Y61818D01*
X-3986D01*
Y61716D01*
X-3885Y61615D01*
X-3986Y61513D01*
Y61412D01*
X-72303Y66497D02*
X-72202D01*
X-72100Y66598D01*
X-71998Y66497D01*
X-71897D01*
Y66598D01*
X-71998Y66700D01*
X-71897Y66802D01*
Y66903D01*
X-71998D01*
X-72100Y66802D01*
X-72202Y66903D01*
X-72303D01*
Y66802D01*
X-72202Y66700D01*
X-72303Y66598D01*
Y66497D01*
Y75197D02*
X-72202D01*
X-72100Y75298D01*
X-71998Y75197D01*
X-71897D01*
Y75298D01*
X-71998Y75400D01*
X-71897Y75502D01*
Y75603D01*
X-71998D01*
X-72100Y75502D01*
X-72202Y75603D01*
X-72303D01*
Y75502D01*
X-72202Y75400D01*
X-72303Y75298D01*
Y75197D01*
X-30203Y88897D02*
X-30102D01*
X-30000Y88998D01*
X-29898Y88897D01*
X-29797D01*
Y88998D01*
X-29898Y89100D01*
X-29797Y89202D01*
Y89303D01*
X-29898D01*
X-30000Y89202D01*
X-30102Y89303D01*
X-30203D01*
Y89202D01*
X-30102Y89100D01*
X-30203Y88998D01*
Y88897D01*
X51797Y102297D02*
X51898D01*
X52000Y102398D01*
X52102Y102297D01*
X52203D01*
Y102398D01*
X52102Y102500D01*
X52203Y102602D01*
Y102703D01*
X52102D01*
X52000Y102602D01*
X51898Y102703D01*
X51797D01*
Y102602D01*
X51898Y102500D01*
X51797Y102398D01*
Y102297D01*
X53797D02*
X53898D01*
X54000Y102398D01*
X54102Y102297D01*
X54203D01*
Y102398D01*
X54102Y102500D01*
X54203Y102602D01*
Y102703D01*
X54102D01*
X54000Y102602D01*
X53898Y102703D01*
X53797D01*
Y102602D01*
X53898Y102500D01*
X53797Y102398D01*
Y102297D01*
X-13141Y88566D02*
X-13039D01*
X-12937Y88667D01*
X-12836Y88566D01*
X-12734D01*
Y88667D01*
X-12836Y88769D01*
X-12734Y88871D01*
Y88972D01*
X-12836D01*
X-12937Y88871D01*
X-13039Y88972D01*
X-13141D01*
Y88871D01*
X-13039Y88769D01*
X-13141Y88667D01*
Y88566D01*
X-9176Y88095D02*
X-9074D01*
X-8973Y88196D01*
X-8871Y88095D01*
X-8770D01*
Y88196D01*
X-8871Y88298D01*
X-8770Y88400D01*
Y88501D01*
X-8871D01*
X-8973Y88400D01*
X-9074Y88501D01*
X-9176D01*
Y88400D01*
X-9074Y88298D01*
X-9176Y88196D01*
Y88095D01*
X35297Y65697D02*
X35398D01*
X35500Y65798D01*
X35602Y65697D01*
X35703D01*
Y65798D01*
X35602Y65900D01*
X35703Y66002D01*
Y66103D01*
X35602D01*
X35500Y66002D01*
X35398Y66103D01*
X35297D01*
Y66002D01*
X35398Y65900D01*
X35297Y65798D01*
Y65697D01*
X33097Y60197D02*
X33198D01*
X33300Y60298D01*
X33402Y60197D01*
X33503D01*
Y60298D01*
X33402Y60400D01*
X33503Y60502D01*
Y60603D01*
X33402D01*
X33300Y60502D01*
X33198Y60603D01*
X33097D01*
Y60502D01*
X33198Y60400D01*
X33097Y60298D01*
Y60197D01*
X21897Y64297D02*
X21998D01*
X22100Y64398D01*
X22202Y64297D01*
X22303D01*
Y64398D01*
X22202Y64500D01*
X22303Y64602D01*
Y64703D01*
X22202D01*
X22100Y64602D01*
X21998Y64703D01*
X21897D01*
Y64602D01*
X21998Y64500D01*
X21897Y64398D01*
Y64297D01*
X-8703Y52297D02*
X-8602D01*
X-8500Y52398D01*
X-8398Y52297D01*
X-8297D01*
Y52398D01*
X-8398Y52500D01*
X-8297Y52602D01*
Y52703D01*
X-8398D01*
X-8500Y52602D01*
X-8602Y52703D01*
X-8703D01*
Y52602D01*
X-8602Y52500D01*
X-8703Y52398D01*
Y52297D01*
X-10703D02*
X-10602D01*
X-10500Y52398D01*
X-10398Y52297D01*
X-10297D01*
Y52398D01*
X-10398Y52500D01*
X-10297Y52602D01*
Y52703D01*
X-10398D01*
X-10500Y52602D01*
X-10602Y52703D01*
X-10703D01*
Y52602D01*
X-10602Y52500D01*
X-10703Y52398D01*
Y52297D01*
X-12703D02*
X-12602D01*
X-12500Y52398D01*
X-12398Y52297D01*
X-12297D01*
Y52398D01*
X-12398Y52500D01*
X-12297Y52602D01*
Y52703D01*
X-12398D01*
X-12500Y52602D01*
X-12602Y52703D01*
X-12703D01*
Y52602D01*
X-12602Y52500D01*
X-12703Y52398D01*
Y52297D01*
X-14703D02*
X-14602D01*
X-14500Y52398D01*
X-14398Y52297D01*
X-14297D01*
Y52398D01*
X-14398Y52500D01*
X-14297Y52602D01*
Y52703D01*
X-14398D01*
X-14500Y52602D01*
X-14602Y52703D01*
X-14703D01*
Y52602D01*
X-14602Y52500D01*
X-14703Y52398D01*
Y52297D01*
X-16703D02*
X-16602D01*
X-16500Y52398D01*
X-16398Y52297D01*
X-16297D01*
Y52398D01*
X-16398Y52500D01*
X-16297Y52602D01*
Y52703D01*
X-16398D01*
X-16500Y52602D01*
X-16602Y52703D01*
X-16703D01*
Y52602D01*
X-16602Y52500D01*
X-16703Y52398D01*
Y52297D01*
X-18703D02*
X-18602D01*
X-18500Y52398D01*
X-18398Y52297D01*
X-18297D01*
Y52398D01*
X-18398Y52500D01*
X-18297Y52602D01*
Y52703D01*
X-18398D01*
X-18500Y52602D01*
X-18602Y52703D01*
X-18703D01*
Y52602D01*
X-18602Y52500D01*
X-18703Y52398D01*
Y52297D01*
X-20703D02*
X-20602D01*
X-20500Y52398D01*
X-20398Y52297D01*
X-20297D01*
Y52398D01*
X-20398Y52500D01*
X-20297Y52602D01*
Y52703D01*
X-20398D01*
X-20500Y52602D01*
X-20602Y52703D01*
X-20703D01*
Y52602D01*
X-20602Y52500D01*
X-20703Y52398D01*
Y52297D01*
X-22703D02*
X-22602D01*
X-22500Y52398D01*
X-22398Y52297D01*
X-22297D01*
Y52398D01*
X-22398Y52500D01*
X-22297Y52602D01*
Y52703D01*
X-22398D01*
X-22500Y52602D01*
X-22602Y52703D01*
X-22703D01*
Y52602D01*
X-22602Y52500D01*
X-22703Y52398D01*
Y52297D01*
X-24703D02*
X-24602D01*
X-24500Y52398D01*
X-24398Y52297D01*
X-24297D01*
Y52398D01*
X-24398Y52500D01*
X-24297Y52602D01*
Y52703D01*
X-24398D01*
X-24500Y52602D01*
X-24602Y52703D01*
X-24703D01*
Y52602D01*
X-24602Y52500D01*
X-24703Y52398D01*
Y52297D01*
X-26703D02*
X-26602D01*
X-26500Y52398D01*
X-26398Y52297D01*
X-26297D01*
Y52398D01*
X-26398Y52500D01*
X-26297Y52602D01*
Y52703D01*
X-26398D01*
X-26500Y52602D01*
X-26602Y52703D01*
X-26703D01*
Y52602D01*
X-26602Y52500D01*
X-26703Y52398D01*
Y52297D01*
X-28703D02*
X-28602D01*
X-28500Y52398D01*
X-28398Y52297D01*
X-28297D01*
Y52398D01*
X-28398Y52500D01*
X-28297Y52602D01*
Y52703D01*
X-28398D01*
X-28500Y52602D01*
X-28602Y52703D01*
X-28703D01*
Y52602D01*
X-28602Y52500D01*
X-28703Y52398D01*
Y52297D01*
X69797Y81297D02*
X69898D01*
X70000Y81398D01*
X70102Y81297D01*
X70203D01*
Y81398D01*
X70102Y81500D01*
X70203Y81602D01*
Y81703D01*
X70102D01*
X70000Y81602D01*
X69898Y81703D01*
X69797D01*
Y81602D01*
X69898Y81500D01*
X69797Y81398D01*
Y81297D01*
Y79297D02*
X69898D01*
X70000Y79398D01*
X70102Y79297D01*
X70203D01*
Y79398D01*
X70102Y79500D01*
X70203Y79602D01*
Y79703D01*
X70102D01*
X70000Y79602D01*
X69898Y79703D01*
X69797D01*
Y79602D01*
X69898Y79500D01*
X69797Y79398D01*
Y79297D01*
Y77297D02*
X69898D01*
X70000Y77398D01*
X70102Y77297D01*
X70203D01*
Y77398D01*
X70102Y77500D01*
X70203Y77602D01*
Y77703D01*
X70102D01*
X70000Y77602D01*
X69898Y77703D01*
X69797D01*
Y77602D01*
X69898Y77500D01*
X69797Y77398D01*
Y77297D01*
Y75297D02*
X69898D01*
X70000Y75398D01*
X70102Y75297D01*
X70203D01*
Y75398D01*
X70102Y75500D01*
X70203Y75602D01*
Y75703D01*
X70102D01*
X70000Y75602D01*
X69898Y75703D01*
X69797D01*
Y75602D01*
X69898Y75500D01*
X69797Y75398D01*
Y75297D01*
Y73297D02*
X69898D01*
X70000Y73398D01*
X70102Y73297D01*
X70203D01*
Y73398D01*
X70102Y73500D01*
X70203Y73602D01*
Y73703D01*
X70102D01*
X70000Y73602D01*
X69898Y73703D01*
X69797D01*
Y73602D01*
X69898Y73500D01*
X69797Y73398D01*
Y73297D01*
Y71297D02*
X69898D01*
X70000Y71398D01*
X70102Y71297D01*
X70203D01*
Y71398D01*
X70102Y71500D01*
X70203Y71602D01*
Y71703D01*
X70102D01*
X70000Y71602D01*
X69898Y71703D01*
X69797D01*
Y71602D01*
X69898Y71500D01*
X69797Y71398D01*
Y71297D01*
Y69297D02*
X69898D01*
X70000Y69398D01*
X70102Y69297D01*
X70203D01*
Y69398D01*
X70102Y69500D01*
X70203Y69602D01*
Y69703D01*
X70102D01*
X70000Y69602D01*
X69898Y69703D01*
X69797D01*
Y69602D01*
X69898Y69500D01*
X69797Y69398D01*
Y69297D01*
Y67297D02*
X69898D01*
X70000Y67398D01*
X70102Y67297D01*
X70203D01*
Y67398D01*
X70102Y67500D01*
X70203Y67602D01*
Y67703D01*
X70102D01*
X70000Y67602D01*
X69898Y67703D01*
X69797D01*
Y67602D01*
X69898Y67500D01*
X69797Y67398D01*
Y67297D01*
Y65297D02*
X69898D01*
X70000Y65398D01*
X70102Y65297D01*
X70203D01*
Y65398D01*
X70102Y65500D01*
X70203Y65602D01*
Y65703D01*
X70102D01*
X70000Y65602D01*
X69898Y65703D01*
X69797D01*
Y65602D01*
X69898Y65500D01*
X69797Y65398D01*
Y65297D01*
Y63297D02*
X69898D01*
X70000Y63398D01*
X70102Y63297D01*
X70203D01*
Y63398D01*
X70102Y63500D01*
X70203Y63602D01*
Y63703D01*
X70102D01*
X70000Y63602D01*
X69898Y63703D01*
X69797D01*
Y63602D01*
X69898Y63500D01*
X69797Y63398D01*
Y63297D01*
Y61297D02*
X69898D01*
X70000Y61398D01*
X70102Y61297D01*
X70203D01*
Y61398D01*
X70102Y61500D01*
X70203Y61602D01*
Y61703D01*
X70102D01*
X70000Y61602D01*
X69898Y61703D01*
X69797D01*
Y61602D01*
X69898Y61500D01*
X69797Y61398D01*
Y61297D01*
X7797Y52297D02*
X7898D01*
X8000Y52398D01*
X8102Y52297D01*
X8203D01*
Y52398D01*
X8102Y52500D01*
X8203Y52602D01*
Y52703D01*
X8102D01*
X8000Y52602D01*
X7898Y52703D01*
X7797D01*
Y52602D01*
X7898Y52500D01*
X7797Y52398D01*
Y52297D01*
X9797D02*
X9898D01*
X10000Y52398D01*
X10102Y52297D01*
X10203D01*
Y52398D01*
X10102Y52500D01*
X10203Y52602D01*
Y52703D01*
X10102D01*
X10000Y52602D01*
X9898Y52703D01*
X9797D01*
Y52602D01*
X9898Y52500D01*
X9797Y52398D01*
Y52297D01*
X11797D02*
X11898D01*
X12000Y52398D01*
X12102Y52297D01*
X12203D01*
Y52398D01*
X12102Y52500D01*
X12203Y52602D01*
Y52703D01*
X12102D01*
X12000Y52602D01*
X11898Y52703D01*
X11797D01*
Y52602D01*
X11898Y52500D01*
X11797Y52398D01*
Y52297D01*
X13797D02*
X13898D01*
X14000Y52398D01*
X14102Y52297D01*
X14203D01*
Y52398D01*
X14102Y52500D01*
X14203Y52602D01*
Y52703D01*
X14102D01*
X14000Y52602D01*
X13898Y52703D01*
X13797D01*
Y52602D01*
X13898Y52500D01*
X13797Y52398D01*
Y52297D01*
X15797D02*
X15898D01*
X16000Y52398D01*
X16102Y52297D01*
X16203D01*
Y52398D01*
X16102Y52500D01*
X16203Y52602D01*
Y52703D01*
X16102D01*
X16000Y52602D01*
X15898Y52703D01*
X15797D01*
Y52602D01*
X15898Y52500D01*
X15797Y52398D01*
Y52297D01*
X17797D02*
X17898D01*
X18000Y52398D01*
X18102Y52297D01*
X18203D01*
Y52398D01*
X18102Y52500D01*
X18203Y52602D01*
Y52703D01*
X18102D01*
X18000Y52602D01*
X17898Y52703D01*
X17797D01*
Y52602D01*
X17898Y52500D01*
X17797Y52398D01*
Y52297D01*
X19797D02*
X19898D01*
X20000Y52398D01*
X20102Y52297D01*
X20203D01*
Y52398D01*
X20102Y52500D01*
X20203Y52602D01*
Y52703D01*
X20102D01*
X20000Y52602D01*
X19898Y52703D01*
X19797D01*
Y52602D01*
X19898Y52500D01*
X19797Y52398D01*
Y52297D01*
X21797D02*
X21898D01*
X22000Y52398D01*
X22102Y52297D01*
X22203D01*
Y52398D01*
X22102Y52500D01*
X22203Y52602D01*
Y52703D01*
X22102D01*
X22000Y52602D01*
X21898Y52703D01*
X21797D01*
Y52602D01*
X21898Y52500D01*
X21797Y52398D01*
Y52297D01*
X23797D02*
X23898D01*
X24000Y52398D01*
X24102Y52297D01*
X24203D01*
Y52398D01*
X24102Y52500D01*
X24203Y52602D01*
Y52703D01*
X24102D01*
X24000Y52602D01*
X23898Y52703D01*
X23797D01*
Y52602D01*
X23898Y52500D01*
X23797Y52398D01*
Y52297D01*
X25797D02*
X25898D01*
X26000Y52398D01*
X26102Y52297D01*
X26203D01*
Y52398D01*
X26102Y52500D01*
X26203Y52602D01*
Y52703D01*
X26102D01*
X26000Y52602D01*
X25898Y52703D01*
X25797D01*
Y52602D01*
X25898Y52500D01*
X25797Y52398D01*
Y52297D01*
X27797D02*
X27898D01*
X28000Y52398D01*
X28102Y52297D01*
X28203D01*
Y52398D01*
X28102Y52500D01*
X28203Y52602D01*
Y52703D01*
X28102D01*
X28000Y52602D01*
X27898Y52703D01*
X27797D01*
Y52602D01*
X27898Y52500D01*
X27797Y52398D01*
Y52297D01*
X29797D02*
X29898D01*
X30000Y52398D01*
X30102Y52297D01*
X30203D01*
Y52398D01*
X30102Y52500D01*
X30203Y52602D01*
Y52703D01*
X30102D01*
X30000Y52602D01*
X29898Y52703D01*
X29797D01*
Y52602D01*
X29898Y52500D01*
X29797Y52398D01*
Y52297D01*
X31297Y53797D02*
X31398D01*
X31500Y53898D01*
X31602Y53797D01*
X31703D01*
Y53898D01*
X31602Y54000D01*
X31703Y54102D01*
Y54203D01*
X31602D01*
X31500Y54102D01*
X31398Y54203D01*
X31297D01*
Y54102D01*
X31398Y54000D01*
X31297Y53898D01*
Y53797D01*
X32797Y55297D02*
X32898D01*
X33000Y55398D01*
X33102Y55297D01*
X33203D01*
Y55398D01*
X33102Y55500D01*
X33203Y55602D01*
Y55703D01*
X33102D01*
X33000Y55602D01*
X32898Y55703D01*
X32797D01*
Y55602D01*
X32898Y55500D01*
X32797Y55398D01*
Y55297D01*
X34297Y56797D02*
X34398D01*
X34500Y56898D01*
X34602Y56797D01*
X34703D01*
Y56898D01*
X34602Y57000D01*
X34703Y57102D01*
Y57203D01*
X34602D01*
X34500Y57102D01*
X34398Y57203D01*
X34297D01*
Y57102D01*
X34398Y57000D01*
X34297Y56898D01*
Y56797D01*
X35797Y58297D02*
X35898D01*
X36000Y58398D01*
X36102Y58297D01*
X36203D01*
Y58398D01*
X36102Y58500D01*
X36203Y58602D01*
Y58703D01*
X36102D01*
X36000Y58602D01*
X35898Y58703D01*
X35797D01*
Y58602D01*
X35898Y58500D01*
X35797Y58398D01*
Y58297D01*
X37797Y59297D02*
X37898D01*
X38000Y59398D01*
X38102Y59297D01*
X38203D01*
Y59398D01*
X38102Y59500D01*
X38203Y59602D01*
Y59703D01*
X38102D01*
X38000Y59602D01*
X37898Y59703D01*
X37797D01*
Y59602D01*
X37898Y59500D01*
X37797Y59398D01*
Y59297D01*
X-80703Y100797D02*
X-80602D01*
X-80500Y100898D01*
X-80398Y100797D01*
X-80297D01*
Y100898D01*
X-80398Y101000D01*
X-80297Y101102D01*
Y101203D01*
X-80398D01*
X-80500Y101102D01*
X-80602Y101203D01*
X-80703D01*
Y101102D01*
X-80602Y101000D01*
X-80703Y100898D01*
Y100797D01*
Y99297D02*
X-80602D01*
X-80500Y99398D01*
X-80398Y99297D01*
X-80297D01*
Y99398D01*
X-80398Y99500D01*
X-80297Y99602D01*
Y99703D01*
X-80398D01*
X-80500Y99602D01*
X-80602Y99703D01*
X-80703D01*
Y99602D01*
X-80602Y99500D01*
X-80703Y99398D01*
Y99297D01*
Y97297D02*
X-80602D01*
X-80500Y97398D01*
X-80398Y97297D01*
X-80297D01*
Y97398D01*
X-80398Y97500D01*
X-80297Y97602D01*
Y97703D01*
X-80398D01*
X-80500Y97602D01*
X-80602Y97703D01*
X-80703D01*
Y97602D01*
X-80602Y97500D01*
X-80703Y97398D01*
Y97297D01*
Y95297D02*
X-80602D01*
X-80500Y95398D01*
X-80398Y95297D01*
X-80297D01*
Y95398D01*
X-80398Y95500D01*
X-80297Y95602D01*
Y95703D01*
X-80398D01*
X-80500Y95602D01*
X-80602Y95703D01*
X-80703D01*
Y95602D01*
X-80602Y95500D01*
X-80703Y95398D01*
Y95297D01*
Y93297D02*
X-80602D01*
X-80500Y93398D01*
X-80398Y93297D01*
X-80297D01*
Y93398D01*
X-80398Y93500D01*
X-80297Y93602D01*
Y93703D01*
X-80398D01*
X-80500Y93602D01*
X-80602Y93703D01*
X-80703D01*
Y93602D01*
X-80602Y93500D01*
X-80703Y93398D01*
Y93297D01*
Y91297D02*
X-80602D01*
X-80500Y91398D01*
X-80398Y91297D01*
X-80297D01*
Y91398D01*
X-80398Y91500D01*
X-80297Y91602D01*
Y91703D01*
X-80398D01*
X-80500Y91602D01*
X-80602Y91703D01*
X-80703D01*
Y91602D01*
X-80602Y91500D01*
X-80703Y91398D01*
Y91297D01*
Y89297D02*
X-80602D01*
X-80500Y89398D01*
X-80398Y89297D01*
X-80297D01*
Y89398D01*
X-80398Y89500D01*
X-80297Y89602D01*
Y89703D01*
X-80398D01*
X-80500Y89602D01*
X-80602Y89703D01*
X-80703D01*
Y89602D01*
X-80602Y89500D01*
X-80703Y89398D01*
Y89297D01*
Y87297D02*
X-80602D01*
X-80500Y87398D01*
X-80398Y87297D01*
X-80297D01*
Y87398D01*
X-80398Y87500D01*
X-80297Y87602D01*
Y87703D01*
X-80398D01*
X-80500Y87602D01*
X-80602Y87703D01*
X-80703D01*
Y87602D01*
X-80602Y87500D01*
X-80703Y87398D01*
Y87297D01*
Y85297D02*
X-80602D01*
X-80500Y85398D01*
X-80398Y85297D01*
X-80297D01*
Y85398D01*
X-80398Y85500D01*
X-80297Y85602D01*
Y85703D01*
X-80398D01*
X-80500Y85602D01*
X-80602Y85703D01*
X-80703D01*
Y85602D01*
X-80602Y85500D01*
X-80703Y85398D01*
Y85297D01*
Y83297D02*
X-80602D01*
X-80500Y83398D01*
X-80398Y83297D01*
X-80297D01*
Y83398D01*
X-80398Y83500D01*
X-80297Y83602D01*
Y83703D01*
X-80398D01*
X-80500Y83602D01*
X-80602Y83703D01*
X-80703D01*
Y83602D01*
X-80602Y83500D01*
X-80703Y83398D01*
Y83297D01*
Y81297D02*
X-80602D01*
X-80500Y81398D01*
X-80398Y81297D01*
X-80297D01*
Y81398D01*
X-80398Y81500D01*
X-80297Y81602D01*
Y81703D01*
X-80398D01*
X-80500Y81602D01*
X-80602Y81703D01*
X-80703D01*
Y81602D01*
X-80602Y81500D01*
X-80703Y81398D01*
Y81297D01*
Y79297D02*
X-80602D01*
X-80500Y79398D01*
X-80398Y79297D01*
X-80297D01*
Y79398D01*
X-80398Y79500D01*
X-80297Y79602D01*
Y79703D01*
X-80398D01*
X-80500Y79602D01*
X-80602Y79703D01*
X-80703D01*
Y79602D01*
X-80602Y79500D01*
X-80703Y79398D01*
Y79297D01*
Y77297D02*
X-80602D01*
X-80500Y77398D01*
X-80398Y77297D01*
X-80297D01*
Y77398D01*
X-80398Y77500D01*
X-80297Y77602D01*
Y77703D01*
X-80398D01*
X-80500Y77602D01*
X-80602Y77703D01*
X-80703D01*
Y77602D01*
X-80602Y77500D01*
X-80703Y77398D01*
Y77297D01*
Y75297D02*
X-80602D01*
X-80500Y75398D01*
X-80398Y75297D01*
X-80297D01*
Y75398D01*
X-80398Y75500D01*
X-80297Y75602D01*
Y75703D01*
X-80398D01*
X-80500Y75602D01*
X-80602Y75703D01*
X-80703D01*
Y75602D01*
X-80602Y75500D01*
X-80703Y75398D01*
Y75297D01*
Y73297D02*
X-80602D01*
X-80500Y73398D01*
X-80398Y73297D01*
X-80297D01*
Y73398D01*
X-80398Y73500D01*
X-80297Y73602D01*
Y73703D01*
X-80398D01*
X-80500Y73602D01*
X-80602Y73703D01*
X-80703D01*
Y73602D01*
X-80602Y73500D01*
X-80703Y73398D01*
Y73297D01*
Y71297D02*
X-80602D01*
X-80500Y71398D01*
X-80398Y71297D01*
X-80297D01*
Y71398D01*
X-80398Y71500D01*
X-80297Y71602D01*
Y71703D01*
X-80398D01*
X-80500Y71602D01*
X-80602Y71703D01*
X-80703D01*
Y71602D01*
X-80602Y71500D01*
X-80703Y71398D01*
Y71297D01*
Y69297D02*
X-80602D01*
X-80500Y69398D01*
X-80398Y69297D01*
X-80297D01*
Y69398D01*
X-80398Y69500D01*
X-80297Y69602D01*
Y69703D01*
X-80398D01*
X-80500Y69602D01*
X-80602Y69703D01*
X-80703D01*
Y69602D01*
X-80602Y69500D01*
X-80703Y69398D01*
Y69297D01*
Y67297D02*
X-80602D01*
X-80500Y67398D01*
X-80398Y67297D01*
X-80297D01*
Y67398D01*
X-80398Y67500D01*
X-80297Y67602D01*
Y67703D01*
X-80398D01*
X-80500Y67602D01*
X-80602Y67703D01*
X-80703D01*
Y67602D01*
X-80602Y67500D01*
X-80703Y67398D01*
Y67297D01*
Y65297D02*
X-80602D01*
X-80500Y65398D01*
X-80398Y65297D01*
X-80297D01*
Y65398D01*
X-80398Y65500D01*
X-80297Y65602D01*
Y65703D01*
X-80398D01*
X-80500Y65602D01*
X-80602Y65703D01*
X-80703D01*
Y65602D01*
X-80602Y65500D01*
X-80703Y65398D01*
Y65297D01*
Y63297D02*
X-80602D01*
X-80500Y63398D01*
X-80398Y63297D01*
X-80297D01*
Y63398D01*
X-80398Y63500D01*
X-80297Y63602D01*
Y63703D01*
X-80398D01*
X-80500Y63602D01*
X-80602Y63703D01*
X-80703D01*
Y63602D01*
X-80602Y63500D01*
X-80703Y63398D01*
Y63297D01*
Y61297D02*
X-80602D01*
X-80500Y61398D01*
X-80398Y61297D01*
X-80297D01*
Y61398D01*
X-80398Y61500D01*
X-80297Y61602D01*
Y61703D01*
X-80398D01*
X-80500Y61602D01*
X-80602Y61703D01*
X-80703D01*
Y61602D01*
X-80602Y61500D01*
X-80703Y61398D01*
Y61297D01*
X-30203Y52297D02*
X-30102D01*
X-30000Y52398D01*
X-29898Y52297D01*
X-29797D01*
Y52398D01*
X-29898Y52500D01*
X-29797Y52602D01*
Y52703D01*
X-29898D01*
X-30000Y52602D01*
X-30102Y52703D01*
X-30203D01*
Y52602D01*
X-30102Y52500D01*
X-30203Y52398D01*
Y52297D01*
X-31703Y53797D02*
X-31602D01*
X-31500Y53898D01*
X-31398Y53797D01*
X-31297D01*
Y53898D01*
X-31398Y54000D01*
X-31297Y54102D01*
Y54203D01*
X-31398D01*
X-31500Y54102D01*
X-31602Y54203D01*
X-31703D01*
Y54102D01*
X-31602Y54000D01*
X-31703Y53898D01*
Y53797D01*
X-33203Y55297D02*
X-33102D01*
X-33000Y55398D01*
X-32898Y55297D01*
X-32797D01*
Y55398D01*
X-32898Y55500D01*
X-32797Y55602D01*
Y55703D01*
X-32898D01*
X-33000Y55602D01*
X-33102Y55703D01*
X-33203D01*
Y55602D01*
X-33102Y55500D01*
X-33203Y55398D01*
Y55297D01*
X-34703Y56797D02*
X-34602D01*
X-34500Y56898D01*
X-34398Y56797D01*
X-34297D01*
Y56898D01*
X-34398Y57000D01*
X-34297Y57102D01*
Y57203D01*
X-34398D01*
X-34500Y57102D01*
X-34602Y57203D01*
X-34703D01*
Y57102D01*
X-34602Y57000D01*
X-34703Y56898D01*
Y56797D01*
X-36203Y58297D02*
X-36102D01*
X-36000Y58398D01*
X-35898Y58297D01*
X-35797D01*
Y58398D01*
X-35898Y58500D01*
X-35797Y58602D01*
Y58703D01*
X-35898D01*
X-36000Y58602D01*
X-36102Y58703D01*
X-36203D01*
Y58602D01*
X-36102Y58500D01*
X-36203Y58398D01*
Y58297D01*
X-42703Y59297D02*
X-42602D01*
X-42500Y59398D01*
X-42398Y59297D01*
X-42297D01*
Y59398D01*
X-42398Y59500D01*
X-42297Y59602D01*
Y59703D01*
X-42398D01*
X-42500Y59602D01*
X-42602Y59703D01*
X-42703D01*
Y59602D01*
X-42602Y59500D01*
X-42703Y59398D01*
Y59297D01*
X-40703D02*
X-40602D01*
X-40500Y59398D01*
X-40398Y59297D01*
X-40297D01*
Y59398D01*
X-40398Y59500D01*
X-40297Y59602D01*
Y59703D01*
X-40398D01*
X-40500Y59602D01*
X-40602Y59703D01*
X-40703D01*
Y59602D01*
X-40602Y59500D01*
X-40703Y59398D01*
Y59297D01*
X-38703D02*
X-38602D01*
X-38500Y59398D01*
X-38398Y59297D01*
X-38297D01*
Y59398D01*
X-38398Y59500D01*
X-38297Y59602D01*
Y59703D01*
X-38398D01*
X-38500Y59602D01*
X-38602Y59703D01*
X-38703D01*
Y59602D01*
X-38602Y59500D01*
X-38703Y59398D01*
Y59297D01*
X-58703D02*
X-58602D01*
X-58500Y59398D01*
X-58398Y59297D01*
X-58297D01*
Y59398D01*
X-58398Y59500D01*
X-58297Y59602D01*
Y59703D01*
X-58398D01*
X-58500Y59602D01*
X-58602Y59703D01*
X-58703D01*
Y59602D01*
X-58602Y59500D01*
X-58703Y59398D01*
Y59297D01*
X-56703D02*
X-56602D01*
X-56500Y59398D01*
X-56398Y59297D01*
X-56297D01*
Y59398D01*
X-56398Y59500D01*
X-56297Y59602D01*
Y59703D01*
X-56398D01*
X-56500Y59602D01*
X-56602Y59703D01*
X-56703D01*
Y59602D01*
X-56602Y59500D01*
X-56703Y59398D01*
Y59297D01*
X-54703D02*
X-54602D01*
X-54500Y59398D01*
X-54398Y59297D01*
X-54297D01*
Y59398D01*
X-54398Y59500D01*
X-54297Y59602D01*
Y59703D01*
X-54398D01*
X-54500Y59602D01*
X-54602Y59703D01*
X-54703D01*
Y59602D01*
X-54602Y59500D01*
X-54703Y59398D01*
Y59297D01*
X-52703D02*
X-52602D01*
X-52500Y59398D01*
X-52398Y59297D01*
X-52297D01*
Y59398D01*
X-52398Y59500D01*
X-52297Y59602D01*
Y59703D01*
X-52398D01*
X-52500Y59602D01*
X-52602Y59703D01*
X-52703D01*
Y59602D01*
X-52602Y59500D01*
X-52703Y59398D01*
Y59297D01*
X-50703D02*
X-50602D01*
X-50500Y59398D01*
X-50398Y59297D01*
X-50297D01*
Y59398D01*
X-50398Y59500D01*
X-50297Y59602D01*
Y59703D01*
X-50398D01*
X-50500Y59602D01*
X-50602Y59703D01*
X-50703D01*
Y59602D01*
X-50602Y59500D01*
X-50703Y59398D01*
Y59297D01*
X-48703D02*
X-48602D01*
X-48500Y59398D01*
X-48398Y59297D01*
X-48297D01*
Y59398D01*
X-48398Y59500D01*
X-48297Y59602D01*
Y59703D01*
X-48398D01*
X-48500Y59602D01*
X-48602Y59703D01*
X-48703D01*
Y59602D01*
X-48602Y59500D01*
X-48703Y59398D01*
Y59297D01*
X-46703D02*
X-46602D01*
X-46500Y59398D01*
X-46398Y59297D01*
X-46297D01*
Y59398D01*
X-46398Y59500D01*
X-46297Y59602D01*
Y59703D01*
X-46398D01*
X-46500Y59602D01*
X-46602Y59703D01*
X-46703D01*
Y59602D01*
X-46602Y59500D01*
X-46703Y59398D01*
Y59297D01*
X-44703D02*
X-44602D01*
X-44500Y59398D01*
X-44398Y59297D01*
X-44297D01*
Y59398D01*
X-44398Y59500D01*
X-44297Y59602D01*
Y59703D01*
X-44398D01*
X-44500Y59602D01*
X-44602Y59703D01*
X-44703D01*
Y59602D01*
X-44602Y59500D01*
X-44703Y59398D01*
Y59297D01*
X-74703D02*
X-74602D01*
X-74500Y59398D01*
X-74398Y59297D01*
X-74297D01*
Y59398D01*
X-74398Y59500D01*
X-74297Y59602D01*
Y59703D01*
X-74398D01*
X-74500Y59602D01*
X-74602Y59703D01*
X-74703D01*
Y59602D01*
X-74602Y59500D01*
X-74703Y59398D01*
Y59297D01*
X-72703D02*
X-72602D01*
X-72500Y59398D01*
X-72398Y59297D01*
X-72297D01*
Y59398D01*
X-72398Y59500D01*
X-72297Y59602D01*
Y59703D01*
X-72398D01*
X-72500Y59602D01*
X-72602Y59703D01*
X-72703D01*
Y59602D01*
X-72602Y59500D01*
X-72703Y59398D01*
Y59297D01*
X-70703D02*
X-70602D01*
X-70500Y59398D01*
X-70398Y59297D01*
X-70297D01*
Y59398D01*
X-70398Y59500D01*
X-70297Y59602D01*
Y59703D01*
X-70398D01*
X-70500Y59602D01*
X-70602Y59703D01*
X-70703D01*
Y59602D01*
X-70602Y59500D01*
X-70703Y59398D01*
Y59297D01*
X-68703D02*
X-68602D01*
X-68500Y59398D01*
X-68398Y59297D01*
X-68297D01*
Y59398D01*
X-68398Y59500D01*
X-68297Y59602D01*
Y59703D01*
X-68398D01*
X-68500Y59602D01*
X-68602Y59703D01*
X-68703D01*
Y59602D01*
X-68602Y59500D01*
X-68703Y59398D01*
Y59297D01*
X-66703D02*
X-66602D01*
X-66500Y59398D01*
X-66398Y59297D01*
X-66297D01*
Y59398D01*
X-66398Y59500D01*
X-66297Y59602D01*
Y59703D01*
X-66398D01*
X-66500Y59602D01*
X-66602Y59703D01*
X-66703D01*
Y59602D01*
X-66602Y59500D01*
X-66703Y59398D01*
Y59297D01*
X-64703D02*
X-64602D01*
X-64500Y59398D01*
X-64398Y59297D01*
X-64297D01*
Y59398D01*
X-64398Y59500D01*
X-64297Y59602D01*
Y59703D01*
X-64398D01*
X-64500Y59602D01*
X-64602Y59703D01*
X-64703D01*
Y59602D01*
X-64602Y59500D01*
X-64703Y59398D01*
Y59297D01*
X-62703D02*
X-62602D01*
X-62500Y59398D01*
X-62398Y59297D01*
X-62297D01*
Y59398D01*
X-62398Y59500D01*
X-62297Y59602D01*
Y59703D01*
X-62398D01*
X-62500Y59602D01*
X-62602Y59703D01*
X-62703D01*
Y59602D01*
X-62602Y59500D01*
X-62703Y59398D01*
Y59297D01*
X-60703D02*
X-60602D01*
X-60500Y59398D01*
X-60398Y59297D01*
X-60297D01*
Y59398D01*
X-60398Y59500D01*
X-60297Y59602D01*
Y59703D01*
X-60398D01*
X-60500Y59602D01*
X-60602Y59703D01*
X-60703D01*
Y59602D01*
X-60602Y59500D01*
X-60703Y59398D01*
Y59297D01*
X-80703D02*
X-80602D01*
X-80500Y59398D01*
X-80398Y59297D01*
X-80297D01*
Y59398D01*
X-80398Y59500D01*
X-80297Y59602D01*
Y59703D01*
X-80398D01*
X-80500Y59602D01*
X-80602Y59703D01*
X-80703D01*
Y59602D01*
X-80602Y59500D01*
X-80703Y59398D01*
Y59297D01*
X-78703D02*
X-78602D01*
X-78500Y59398D01*
X-78398Y59297D01*
X-78297D01*
Y59398D01*
X-78398Y59500D01*
X-78297Y59602D01*
Y59703D01*
X-78398D01*
X-78500Y59602D01*
X-78602Y59703D01*
X-78703D01*
Y59602D01*
X-78602Y59500D01*
X-78703Y59398D01*
Y59297D01*
X-76703D02*
X-76602D01*
X-76500Y59398D01*
X-76398Y59297D01*
X-76297D01*
Y59398D01*
X-76398Y59500D01*
X-76297Y59602D01*
Y59703D01*
X-76398D01*
X-76500Y59602D01*
X-76602Y59703D01*
X-76703D01*
Y59602D01*
X-76602Y59500D01*
X-76703Y59398D01*
Y59297D01*
Y102297D02*
X-76602D01*
X-76500Y102398D01*
X-76398Y102297D01*
X-76297D01*
Y102398D01*
X-76398Y102500D01*
X-76297Y102602D01*
Y102703D01*
X-76398D01*
X-76500Y102602D01*
X-76602Y102703D01*
X-76703D01*
Y102602D01*
X-76602Y102500D01*
X-76703Y102398D01*
Y102297D01*
X-78703D02*
X-78602D01*
X-78500Y102398D01*
X-78398Y102297D01*
X-78297D01*
Y102398D01*
X-78398Y102500D01*
X-78297Y102602D01*
Y102703D01*
X-78398D01*
X-78500Y102602D01*
X-78602Y102703D01*
X-78703D01*
Y102602D01*
X-78602Y102500D01*
X-78703Y102398D01*
Y102297D01*
X-80703D02*
X-80602D01*
X-80500Y102398D01*
X-80398Y102297D01*
X-80297D01*
Y102398D01*
X-80398Y102500D01*
X-80297Y102602D01*
Y102703D01*
X-80398D01*
X-80500Y102602D01*
X-80602Y102703D01*
X-80703D01*
Y102602D01*
X-80602Y102500D01*
X-80703Y102398D01*
Y102297D01*
X-60703D02*
X-60602D01*
X-60500Y102398D01*
X-60398Y102297D01*
X-60297D01*
Y102398D01*
X-60398Y102500D01*
X-60297Y102602D01*
Y102703D01*
X-60398D01*
X-60500Y102602D01*
X-60602Y102703D01*
X-60703D01*
Y102602D01*
X-60602Y102500D01*
X-60703Y102398D01*
Y102297D01*
X-62703D02*
X-62602D01*
X-62500Y102398D01*
X-62398Y102297D01*
X-62297D01*
Y102398D01*
X-62398Y102500D01*
X-62297Y102602D01*
Y102703D01*
X-62398D01*
X-62500Y102602D01*
X-62602Y102703D01*
X-62703D01*
Y102602D01*
X-62602Y102500D01*
X-62703Y102398D01*
Y102297D01*
X-64703D02*
X-64602D01*
X-64500Y102398D01*
X-64398Y102297D01*
X-64297D01*
Y102398D01*
X-64398Y102500D01*
X-64297Y102602D01*
Y102703D01*
X-64398D01*
X-64500Y102602D01*
X-64602Y102703D01*
X-64703D01*
Y102602D01*
X-64602Y102500D01*
X-64703Y102398D01*
Y102297D01*
X-66703D02*
X-66602D01*
X-66500Y102398D01*
X-66398Y102297D01*
X-66297D01*
Y102398D01*
X-66398Y102500D01*
X-66297Y102602D01*
Y102703D01*
X-66398D01*
X-66500Y102602D01*
X-66602Y102703D01*
X-66703D01*
Y102602D01*
X-66602Y102500D01*
X-66703Y102398D01*
Y102297D01*
X-68703D02*
X-68602D01*
X-68500Y102398D01*
X-68398Y102297D01*
X-68297D01*
Y102398D01*
X-68398Y102500D01*
X-68297Y102602D01*
Y102703D01*
X-68398D01*
X-68500Y102602D01*
X-68602Y102703D01*
X-68703D01*
Y102602D01*
X-68602Y102500D01*
X-68703Y102398D01*
Y102297D01*
X-70703D02*
X-70602D01*
X-70500Y102398D01*
X-70398Y102297D01*
X-70297D01*
Y102398D01*
X-70398Y102500D01*
X-70297Y102602D01*
Y102703D01*
X-70398D01*
X-70500Y102602D01*
X-70602Y102703D01*
X-70703D01*
Y102602D01*
X-70602Y102500D01*
X-70703Y102398D01*
Y102297D01*
X-72703D02*
X-72602D01*
X-72500Y102398D01*
X-72398Y102297D01*
X-72297D01*
Y102398D01*
X-72398Y102500D01*
X-72297Y102602D01*
Y102703D01*
X-72398D01*
X-72500Y102602D01*
X-72602Y102703D01*
X-72703D01*
Y102602D01*
X-72602Y102500D01*
X-72703Y102398D01*
Y102297D01*
X-74703D02*
X-74602D01*
X-74500Y102398D01*
X-74398Y102297D01*
X-74297D01*
Y102398D01*
X-74398Y102500D01*
X-74297Y102602D01*
Y102703D01*
X-74398D01*
X-74500Y102602D01*
X-74602Y102703D01*
X-74703D01*
Y102602D01*
X-74602Y102500D01*
X-74703Y102398D01*
Y102297D01*
X-44703D02*
X-44602D01*
X-44500Y102398D01*
X-44398Y102297D01*
X-44297D01*
Y102398D01*
X-44398Y102500D01*
X-44297Y102602D01*
Y102703D01*
X-44398D01*
X-44500Y102602D01*
X-44602Y102703D01*
X-44703D01*
Y102602D01*
X-44602Y102500D01*
X-44703Y102398D01*
Y102297D01*
X-46703D02*
X-46602D01*
X-46500Y102398D01*
X-46398Y102297D01*
X-46297D01*
Y102398D01*
X-46398Y102500D01*
X-46297Y102602D01*
Y102703D01*
X-46398D01*
X-46500Y102602D01*
X-46602Y102703D01*
X-46703D01*
Y102602D01*
X-46602Y102500D01*
X-46703Y102398D01*
Y102297D01*
X-48703D02*
X-48602D01*
X-48500Y102398D01*
X-48398Y102297D01*
X-48297D01*
Y102398D01*
X-48398Y102500D01*
X-48297Y102602D01*
Y102703D01*
X-48398D01*
X-48500Y102602D01*
X-48602Y102703D01*
X-48703D01*
Y102602D01*
X-48602Y102500D01*
X-48703Y102398D01*
Y102297D01*
X-50703D02*
X-50602D01*
X-50500Y102398D01*
X-50398Y102297D01*
X-50297D01*
Y102398D01*
X-50398Y102500D01*
X-50297Y102602D01*
Y102703D01*
X-50398D01*
X-50500Y102602D01*
X-50602Y102703D01*
X-50703D01*
Y102602D01*
X-50602Y102500D01*
X-50703Y102398D01*
Y102297D01*
X-52703D02*
X-52602D01*
X-52500Y102398D01*
X-52398Y102297D01*
X-52297D01*
Y102398D01*
X-52398Y102500D01*
X-52297Y102602D01*
Y102703D01*
X-52398D01*
X-52500Y102602D01*
X-52602Y102703D01*
X-52703D01*
Y102602D01*
X-52602Y102500D01*
X-52703Y102398D01*
Y102297D01*
X-54703D02*
X-54602D01*
X-54500Y102398D01*
X-54398Y102297D01*
X-54297D01*
Y102398D01*
X-54398Y102500D01*
X-54297Y102602D01*
Y102703D01*
X-54398D01*
X-54500Y102602D01*
X-54602Y102703D01*
X-54703D01*
Y102602D01*
X-54602Y102500D01*
X-54703Y102398D01*
Y102297D01*
X-56703D02*
X-56602D01*
X-56500Y102398D01*
X-56398Y102297D01*
X-56297D01*
Y102398D01*
X-56398Y102500D01*
X-56297Y102602D01*
Y102703D01*
X-56398D01*
X-56500Y102602D01*
X-56602Y102703D01*
X-56703D01*
Y102602D01*
X-56602Y102500D01*
X-56703Y102398D01*
Y102297D01*
X-58703D02*
X-58602D01*
X-58500Y102398D01*
X-58398Y102297D01*
X-58297D01*
Y102398D01*
X-58398Y102500D01*
X-58297Y102602D01*
Y102703D01*
X-58398D01*
X-58500Y102602D01*
X-58602Y102703D01*
X-58703D01*
Y102602D01*
X-58602Y102500D01*
X-58703Y102398D01*
Y102297D01*
X-28703D02*
X-28602D01*
X-28500Y102398D01*
X-28398Y102297D01*
X-28297D01*
Y102398D01*
X-28398Y102500D01*
X-28297Y102602D01*
Y102703D01*
X-28398D01*
X-28500Y102602D01*
X-28602Y102703D01*
X-28703D01*
Y102602D01*
X-28602Y102500D01*
X-28703Y102398D01*
Y102297D01*
X-30703D02*
X-30602D01*
X-30500Y102398D01*
X-30398Y102297D01*
X-30297D01*
Y102398D01*
X-30398Y102500D01*
X-30297Y102602D01*
Y102703D01*
X-30398D01*
X-30500Y102602D01*
X-30602Y102703D01*
X-30703D01*
Y102602D01*
X-30602Y102500D01*
X-30703Y102398D01*
Y102297D01*
X-32703D02*
X-32602D01*
X-32500Y102398D01*
X-32398Y102297D01*
X-32297D01*
Y102398D01*
X-32398Y102500D01*
X-32297Y102602D01*
Y102703D01*
X-32398D01*
X-32500Y102602D01*
X-32602Y102703D01*
X-32703D01*
Y102602D01*
X-32602Y102500D01*
X-32703Y102398D01*
Y102297D01*
X-34703D02*
X-34602D01*
X-34500Y102398D01*
X-34398Y102297D01*
X-34297D01*
Y102398D01*
X-34398Y102500D01*
X-34297Y102602D01*
Y102703D01*
X-34398D01*
X-34500Y102602D01*
X-34602Y102703D01*
X-34703D01*
Y102602D01*
X-34602Y102500D01*
X-34703Y102398D01*
Y102297D01*
X-36703D02*
X-36602D01*
X-36500Y102398D01*
X-36398Y102297D01*
X-36297D01*
Y102398D01*
X-36398Y102500D01*
X-36297Y102602D01*
Y102703D01*
X-36398D01*
X-36500Y102602D01*
X-36602Y102703D01*
X-36703D01*
Y102602D01*
X-36602Y102500D01*
X-36703Y102398D01*
Y102297D01*
X-38703D02*
X-38602D01*
X-38500Y102398D01*
X-38398Y102297D01*
X-38297D01*
Y102398D01*
X-38398Y102500D01*
X-38297Y102602D01*
Y102703D01*
X-38398D01*
X-38500Y102602D01*
X-38602Y102703D01*
X-38703D01*
Y102602D01*
X-38602Y102500D01*
X-38703Y102398D01*
Y102297D01*
X-40703D02*
X-40602D01*
X-40500Y102398D01*
X-40398Y102297D01*
X-40297D01*
Y102398D01*
X-40398Y102500D01*
X-40297Y102602D01*
Y102703D01*
X-40398D01*
X-40500Y102602D01*
X-40602Y102703D01*
X-40703D01*
Y102602D01*
X-40602Y102500D01*
X-40703Y102398D01*
Y102297D01*
X-42703D02*
X-42602D01*
X-42500Y102398D01*
X-42398Y102297D01*
X-42297D01*
Y102398D01*
X-42398Y102500D01*
X-42297Y102602D01*
Y102703D01*
X-42398D01*
X-42500Y102602D01*
X-42602Y102703D01*
X-42703D01*
Y102602D01*
X-42602Y102500D01*
X-42703Y102398D01*
Y102297D01*
X-12703D02*
X-12602D01*
X-12500Y102398D01*
X-12398Y102297D01*
X-12297D01*
Y102398D01*
X-12398Y102500D01*
X-12297Y102602D01*
Y102703D01*
X-12398D01*
X-12500Y102602D01*
X-12602Y102703D01*
X-12703D01*
Y102602D01*
X-12602Y102500D01*
X-12703Y102398D01*
Y102297D01*
X-14703D02*
X-14602D01*
X-14500Y102398D01*
X-14398Y102297D01*
X-14297D01*
Y102398D01*
X-14398Y102500D01*
X-14297Y102602D01*
Y102703D01*
X-14398D01*
X-14500Y102602D01*
X-14602Y102703D01*
X-14703D01*
Y102602D01*
X-14602Y102500D01*
X-14703Y102398D01*
Y102297D01*
X-16703D02*
X-16602D01*
X-16500Y102398D01*
X-16398Y102297D01*
X-16297D01*
Y102398D01*
X-16398Y102500D01*
X-16297Y102602D01*
Y102703D01*
X-16398D01*
X-16500Y102602D01*
X-16602Y102703D01*
X-16703D01*
Y102602D01*
X-16602Y102500D01*
X-16703Y102398D01*
Y102297D01*
X-18703D02*
X-18602D01*
X-18500Y102398D01*
X-18398Y102297D01*
X-18297D01*
Y102398D01*
X-18398Y102500D01*
X-18297Y102602D01*
Y102703D01*
X-18398D01*
X-18500Y102602D01*
X-18602Y102703D01*
X-18703D01*
Y102602D01*
X-18602Y102500D01*
X-18703Y102398D01*
Y102297D01*
X-20703D02*
X-20602D01*
X-20500Y102398D01*
X-20398Y102297D01*
X-20297D01*
Y102398D01*
X-20398Y102500D01*
X-20297Y102602D01*
Y102703D01*
X-20398D01*
X-20500Y102602D01*
X-20602Y102703D01*
X-20703D01*
Y102602D01*
X-20602Y102500D01*
X-20703Y102398D01*
Y102297D01*
X-22703D02*
X-22602D01*
X-22500Y102398D01*
X-22398Y102297D01*
X-22297D01*
Y102398D01*
X-22398Y102500D01*
X-22297Y102602D01*
Y102703D01*
X-22398D01*
X-22500Y102602D01*
X-22602Y102703D01*
X-22703D01*
Y102602D01*
X-22602Y102500D01*
X-22703Y102398D01*
Y102297D01*
X-24703D02*
X-24602D01*
X-24500Y102398D01*
X-24398Y102297D01*
X-24297D01*
Y102398D01*
X-24398Y102500D01*
X-24297Y102602D01*
Y102703D01*
X-24398D01*
X-24500Y102602D01*
X-24602Y102703D01*
X-24703D01*
Y102602D01*
X-24602Y102500D01*
X-24703Y102398D01*
Y102297D01*
X-26703D02*
X-26602D01*
X-26500Y102398D01*
X-26398Y102297D01*
X-26297D01*
Y102398D01*
X-26398Y102500D01*
X-26297Y102602D01*
Y102703D01*
X-26398D01*
X-26500Y102602D01*
X-26602Y102703D01*
X-26703D01*
Y102602D01*
X-26602Y102500D01*
X-26703Y102398D01*
Y102297D01*
X-10703D02*
X-10602D01*
X-10500Y102398D01*
X-10398Y102297D01*
X-10297D01*
Y102398D01*
X-10398Y102500D01*
X-10297Y102602D01*
Y102703D01*
X-10398D01*
X-10500Y102602D01*
X-10602Y102703D01*
X-10703D01*
Y102602D01*
X-10602Y102500D01*
X-10703Y102398D01*
Y102297D01*
X-8703D02*
X-8602D01*
X-8500Y102398D01*
X-8398Y102297D01*
X-8297D01*
Y102398D01*
X-8398Y102500D01*
X-8297Y102602D01*
Y102703D01*
X-8398D01*
X-8500Y102602D01*
X-8602Y102703D01*
X-8703D01*
Y102602D01*
X-8602Y102500D01*
X-8703Y102398D01*
Y102297D01*
X-6703D02*
X-6602D01*
X-6500Y102398D01*
X-6398Y102297D01*
X-6297D01*
Y102398D01*
X-6398Y102500D01*
X-6297Y102602D01*
Y102703D01*
X-6398D01*
X-6500Y102602D01*
X-6602Y102703D01*
X-6703D01*
Y102602D01*
X-6602Y102500D01*
X-6703Y102398D01*
Y102297D01*
X-4703D02*
X-4602D01*
X-4500Y102398D01*
X-4398Y102297D01*
X-4297D01*
Y102398D01*
X-4398Y102500D01*
X-4297Y102602D01*
Y102703D01*
X-4398D01*
X-4500Y102602D01*
X-4602Y102703D01*
X-4703D01*
Y102602D01*
X-4602Y102500D01*
X-4703Y102398D01*
Y102297D01*
X-2703D02*
X-2602D01*
X-2500Y102398D01*
X-2398Y102297D01*
X-2297D01*
Y102398D01*
X-2398Y102500D01*
X-2297Y102602D01*
Y102703D01*
X-2398D01*
X-2500Y102602D01*
X-2602Y102703D01*
X-2703D01*
Y102602D01*
X-2602Y102500D01*
X-2703Y102398D01*
Y102297D01*
X-703D02*
X-602D01*
X-500Y102398D01*
X-398Y102297D01*
X-297D01*
Y102398D01*
X-398Y102500D01*
X-297Y102602D01*
Y102703D01*
X-398D01*
X-500Y102602D01*
X-602Y102703D01*
X-703D01*
Y102602D01*
X-602Y102500D01*
X-703Y102398D01*
Y102297D01*
X1297D02*
X1398D01*
X1500Y102398D01*
X1602Y102297D01*
X1703D01*
Y102398D01*
X1602Y102500D01*
X1703Y102602D01*
Y102703D01*
X1602D01*
X1500Y102602D01*
X1398Y102703D01*
X1297D01*
Y102602D01*
X1398Y102500D01*
X1297Y102398D01*
Y102297D01*
X3297D02*
X3398D01*
X3500Y102398D01*
X3602Y102297D01*
X3703D01*
Y102398D01*
X3602Y102500D01*
X3703Y102602D01*
Y102703D01*
X3602D01*
X3500Y102602D01*
X3398Y102703D01*
X3297D01*
Y102602D01*
X3398Y102500D01*
X3297Y102398D01*
Y102297D01*
X7297D02*
X7398D01*
X7500Y102398D01*
X7602Y102297D01*
X7703D01*
Y102398D01*
X7602Y102500D01*
X7703Y102602D01*
Y102703D01*
X7602D01*
X7500Y102602D01*
X7398Y102703D01*
X7297D01*
Y102602D01*
X7398Y102500D01*
X7297Y102398D01*
Y102297D01*
X9297D02*
X9398D01*
X9500Y102398D01*
X9602Y102297D01*
X9703D01*
Y102398D01*
X9602Y102500D01*
X9703Y102602D01*
Y102703D01*
X9602D01*
X9500Y102602D01*
X9398Y102703D01*
X9297D01*
Y102602D01*
X9398Y102500D01*
X9297Y102398D01*
Y102297D01*
X11297D02*
X11398D01*
X11500Y102398D01*
X11602Y102297D01*
X11703D01*
Y102398D01*
X11602Y102500D01*
X11703Y102602D01*
Y102703D01*
X11602D01*
X11500Y102602D01*
X11398Y102703D01*
X11297D01*
Y102602D01*
X11398Y102500D01*
X11297Y102398D01*
Y102297D01*
X13297D02*
X13398D01*
X13500Y102398D01*
X13602Y102297D01*
X13703D01*
Y102398D01*
X13602Y102500D01*
X13703Y102602D01*
Y102703D01*
X13602D01*
X13500Y102602D01*
X13398Y102703D01*
X13297D01*
Y102602D01*
X13398Y102500D01*
X13297Y102398D01*
Y102297D01*
X15297D02*
X15398D01*
X15500Y102398D01*
X15602Y102297D01*
X15703D01*
Y102398D01*
X15602Y102500D01*
X15703Y102602D01*
Y102703D01*
X15602D01*
X15500Y102602D01*
X15398Y102703D01*
X15297D01*
Y102602D01*
X15398Y102500D01*
X15297Y102398D01*
Y102297D01*
X19797D02*
X19898D01*
X20000Y102398D01*
X20102Y102297D01*
X20203D01*
Y102398D01*
X20102Y102500D01*
X20203Y102602D01*
Y102703D01*
X20102D01*
X20000Y102602D01*
X19898Y102703D01*
X19797D01*
Y102602D01*
X19898Y102500D01*
X19797Y102398D01*
Y102297D01*
X21797D02*
X21898D01*
X22000Y102398D01*
X22102Y102297D01*
X22203D01*
Y102398D01*
X22102Y102500D01*
X22203Y102602D01*
Y102703D01*
X22102D01*
X22000Y102602D01*
X21898Y102703D01*
X21797D01*
Y102602D01*
X21898Y102500D01*
X21797Y102398D01*
Y102297D01*
X23797D02*
X23898D01*
X24000Y102398D01*
X24102Y102297D01*
X24203D01*
Y102398D01*
X24102Y102500D01*
X24203Y102602D01*
Y102703D01*
X24102D01*
X24000Y102602D01*
X23898Y102703D01*
X23797D01*
Y102602D01*
X23898Y102500D01*
X23797Y102398D01*
Y102297D01*
X25797D02*
X25898D01*
X26000Y102398D01*
X26102Y102297D01*
X26203D01*
Y102398D01*
X26102Y102500D01*
X26203Y102602D01*
Y102703D01*
X26102D01*
X26000Y102602D01*
X25898Y102703D01*
X25797D01*
Y102602D01*
X25898Y102500D01*
X25797Y102398D01*
Y102297D01*
X27797D02*
X27898D01*
X28000Y102398D01*
X28102Y102297D01*
X28203D01*
Y102398D01*
X28102Y102500D01*
X28203Y102602D01*
Y102703D01*
X28102D01*
X28000Y102602D01*
X27898Y102703D01*
X27797D01*
Y102602D01*
X27898Y102500D01*
X27797Y102398D01*
Y102297D01*
X29797D02*
X29898D01*
X30000Y102398D01*
X30102Y102297D01*
X30203D01*
Y102398D01*
X30102Y102500D01*
X30203Y102602D01*
Y102703D01*
X30102D01*
X30000Y102602D01*
X29898Y102703D01*
X29797D01*
Y102602D01*
X29898Y102500D01*
X29797Y102398D01*
Y102297D01*
X31797D02*
X31898D01*
X32000Y102398D01*
X32102Y102297D01*
X32203D01*
Y102398D01*
X32102Y102500D01*
X32203Y102602D01*
Y102703D01*
X32102D01*
X32000Y102602D01*
X31898Y102703D01*
X31797D01*
Y102602D01*
X31898Y102500D01*
X31797Y102398D01*
Y102297D01*
X33797D02*
X33898D01*
X34000Y102398D01*
X34102Y102297D01*
X34203D01*
Y102398D01*
X34102Y102500D01*
X34203Y102602D01*
Y102703D01*
X34102D01*
X34000Y102602D01*
X33898Y102703D01*
X33797D01*
Y102602D01*
X33898Y102500D01*
X33797Y102398D01*
Y102297D01*
X35797D02*
X35898D01*
X36000Y102398D01*
X36102Y102297D01*
X36203D01*
Y102398D01*
X36102Y102500D01*
X36203Y102602D01*
Y102703D01*
X36102D01*
X36000Y102602D01*
X35898Y102703D01*
X35797D01*
Y102602D01*
X35898Y102500D01*
X35797Y102398D01*
Y102297D01*
X37797D02*
X37898D01*
X38000Y102398D01*
X38102Y102297D01*
X38203D01*
Y102398D01*
X38102Y102500D01*
X38203Y102602D01*
Y102703D01*
X38102D01*
X38000Y102602D01*
X37898Y102703D01*
X37797D01*
Y102602D01*
X37898Y102500D01*
X37797Y102398D01*
Y102297D01*
X39797D02*
X39898D01*
X40000Y102398D01*
X40102Y102297D01*
X40203D01*
Y102398D01*
X40102Y102500D01*
X40203Y102602D01*
Y102703D01*
X40102D01*
X40000Y102602D01*
X39898Y102703D01*
X39797D01*
Y102602D01*
X39898Y102500D01*
X39797Y102398D01*
Y102297D01*
X41797D02*
X41898D01*
X42000Y102398D01*
X42102Y102297D01*
X42203D01*
Y102398D01*
X42102Y102500D01*
X42203Y102602D01*
Y102703D01*
X42102D01*
X42000Y102602D01*
X41898Y102703D01*
X41797D01*
Y102602D01*
X41898Y102500D01*
X41797Y102398D01*
Y102297D01*
X43797D02*
X43898D01*
X44000Y102398D01*
X44102Y102297D01*
X44203D01*
Y102398D01*
X44102Y102500D01*
X44203Y102602D01*
Y102703D01*
X44102D01*
X44000Y102602D01*
X43898Y102703D01*
X43797D01*
Y102602D01*
X43898Y102500D01*
X43797Y102398D01*
Y102297D01*
X54797Y82797D02*
X54898D01*
X55000Y82898D01*
X55102Y82797D01*
X55203D01*
Y82898D01*
X55102Y83000D01*
X55203Y83102D01*
Y83203D01*
X55102D01*
X55000Y83102D01*
X54898Y83203D01*
X54797D01*
Y83102D01*
X54898Y83000D01*
X54797Y82898D01*
Y82797D01*
X56797D02*
X56898D01*
X57000Y82898D01*
X57102Y82797D01*
X57203D01*
Y82898D01*
X57102Y83000D01*
X57203Y83102D01*
Y83203D01*
X57102D01*
X57000Y83102D01*
X56898Y83203D01*
X56797D01*
Y83102D01*
X56898Y83000D01*
X56797Y82898D01*
Y82797D01*
X58797D02*
X58898D01*
X59000Y82898D01*
X59102Y82797D01*
X59203D01*
Y82898D01*
X59102Y83000D01*
X59203Y83102D01*
Y83203D01*
X59102D01*
X59000Y83102D01*
X58898Y83203D01*
X58797D01*
Y83102D01*
X58898Y83000D01*
X58797Y82898D01*
Y82797D01*
X60797D02*
X60898D01*
X61000Y82898D01*
X61102Y82797D01*
X61203D01*
Y82898D01*
X61102Y83000D01*
X61203Y83102D01*
Y83203D01*
X61102D01*
X61000Y83102D01*
X60898Y83203D01*
X60797D01*
Y83102D01*
X60898Y83000D01*
X60797Y82898D01*
Y82797D01*
X62797D02*
X62898D01*
X63000Y82898D01*
X63102Y82797D01*
X63203D01*
Y82898D01*
X63102Y83000D01*
X63203Y83102D01*
Y83203D01*
X63102D01*
X63000Y83102D01*
X62898Y83203D01*
X62797D01*
Y83102D01*
X62898Y83000D01*
X62797Y82898D01*
Y82797D01*
X64797D02*
X64898D01*
X65000Y82898D01*
X65102Y82797D01*
X65203D01*
Y82898D01*
X65102Y83000D01*
X65203Y83102D01*
Y83203D01*
X65102D01*
X65000Y83102D01*
X64898Y83203D01*
X64797D01*
Y83102D01*
X64898Y83000D01*
X64797Y82898D01*
Y82797D01*
X66797D02*
X66898D01*
X67000Y82898D01*
X67102Y82797D01*
X67203D01*
Y82898D01*
X67102Y83000D01*
X67203Y83102D01*
Y83203D01*
X67102D01*
X67000Y83102D01*
X66898Y83203D01*
X66797D01*
Y83102D01*
X66898Y83000D01*
X66797Y82898D01*
Y82797D01*
X68797D02*
X68898D01*
X69000Y82898D01*
X69102Y82797D01*
X69203D01*
Y82898D01*
X69102Y83000D01*
X69203Y83102D01*
Y83203D01*
X69102D01*
X69000Y83102D01*
X68898Y83203D01*
X68797D01*
Y83102D01*
X68898Y83000D01*
X68797Y82898D01*
Y82797D01*
X55797Y82797D02*
X55898D01*
X56000Y82898D01*
X56102Y82797D01*
X56203D01*
Y82898D01*
X56102Y83000D01*
X56203Y83102D01*
Y83203D01*
X56102D01*
X56000Y83102D01*
X55898Y83203D01*
X55797D01*
Y83102D01*
X55898Y83000D01*
X55797Y82898D01*
Y82797D01*
X59797D02*
X59898D01*
X60000Y82898D01*
X60102Y82797D01*
X60203D01*
Y82898D01*
X60102Y83000D01*
X60203Y83102D01*
Y83203D01*
X60102D01*
X60000Y83102D01*
X59898Y83203D01*
X59797D01*
Y83102D01*
X59898Y83000D01*
X59797Y82898D01*
Y82797D01*
X61797D02*
X61898D01*
X62000Y82898D01*
X62102Y82797D01*
X62203D01*
Y82898D01*
X62102Y83000D01*
X62203Y83102D01*
Y83203D01*
X62102D01*
X62000Y83102D01*
X61898Y83203D01*
X61797D01*
Y83102D01*
X61898Y83000D01*
X61797Y82898D01*
Y82797D01*
X65797D02*
X65898D01*
X66000Y82898D01*
X66102Y82797D01*
X66203D01*
Y82898D01*
X66102Y83000D01*
X66203Y83102D01*
Y83203D01*
X66102D01*
X66000Y83102D01*
X65898Y83203D01*
X65797D01*
Y83102D01*
X65898Y83000D01*
X65797Y82898D01*
Y82797D01*
X67797Y82797D02*
X67898D01*
X68000Y82898D01*
X68102Y82797D01*
X68203D01*
Y82898D01*
X68102Y83000D01*
X68203Y83102D01*
Y83203D01*
X68102D01*
X68000Y83102D01*
X67898Y83203D01*
X67797D01*
Y83102D01*
X67898Y83000D01*
X67797Y82898D01*
Y82797D01*
X54797Y86197D02*
X54898D01*
X55000Y86298D01*
X55102Y86197D01*
X55203D01*
Y86298D01*
X55102Y86400D01*
X55203Y86502D01*
Y86603D01*
X55102D01*
X55000Y86502D01*
X54898Y86603D01*
X54797D01*
Y86502D01*
X54898Y86400D01*
X54797Y86298D01*
Y86197D01*
X56797D02*
X56898D01*
X57000Y86298D01*
X57102Y86197D01*
X57203D01*
Y86298D01*
X57102Y86400D01*
X57203Y86502D01*
Y86603D01*
X57102D01*
X57000Y86502D01*
X56898Y86603D01*
X56797D01*
Y86502D01*
X56898Y86400D01*
X56797Y86298D01*
Y86197D01*
X58797D02*
X58898D01*
X59000Y86298D01*
X59102Y86197D01*
X59203D01*
Y86298D01*
X59102Y86400D01*
X59203Y86502D01*
Y86603D01*
X59102D01*
X59000Y86502D01*
X58898Y86603D01*
X58797D01*
Y86502D01*
X58898Y86400D01*
X58797Y86298D01*
Y86197D01*
X60797D02*
X60898D01*
X61000Y86298D01*
X61102Y86197D01*
X61203D01*
Y86298D01*
X61102Y86400D01*
X61203Y86502D01*
Y86603D01*
X61102D01*
X61000Y86502D01*
X60898Y86603D01*
X60797D01*
Y86502D01*
X60898Y86400D01*
X60797Y86298D01*
Y86197D01*
X62797D02*
X62898D01*
X63000Y86298D01*
X63102Y86197D01*
X63203D01*
Y86298D01*
X63102Y86400D01*
X63203Y86502D01*
Y86603D01*
X63102D01*
X63000Y86502D01*
X62898Y86603D01*
X62797D01*
Y86502D01*
X62898Y86400D01*
X62797Y86298D01*
Y86197D01*
X68797D02*
X68898D01*
X69000Y86298D01*
X69102Y86197D01*
X69203D01*
Y86298D01*
X69102Y86400D01*
X69203Y86502D01*
Y86603D01*
X69102D01*
X69000Y86502D01*
X68898Y86603D01*
X68797D01*
Y86502D01*
X68898Y86400D01*
X68797Y86298D01*
Y86197D01*
X66797D02*
X66898D01*
X67000Y86298D01*
X67102Y86197D01*
X67203D01*
Y86298D01*
X67102Y86400D01*
X67203Y86502D01*
Y86603D01*
X67102D01*
X67000Y86502D01*
X66898Y86603D01*
X66797D01*
Y86502D01*
X66898Y86400D01*
X66797Y86298D01*
Y86197D01*
X64797D02*
X64898D01*
X65000Y86298D01*
X65102Y86197D01*
X65203D01*
Y86298D01*
X65102Y86400D01*
X65203Y86502D01*
Y86603D01*
X65102D01*
X65000Y86502D01*
X64898Y86603D01*
X64797D01*
Y86502D01*
X64898Y86400D01*
X64797Y86298D01*
Y86197D01*
X48897Y86397D02*
X48998D01*
X49100Y86498D01*
X49202Y86397D01*
X49303D01*
Y86498D01*
X49202Y86600D01*
X49303Y86702D01*
Y86803D01*
X49202D01*
X49100Y86702D01*
X48998Y86803D01*
X48897D01*
Y86702D01*
X48998Y86600D01*
X48897Y86498D01*
Y86397D01*
X-203Y58178D02*
X-102D01*
X0Y58280D01*
X102Y58178D01*
X203D01*
Y58280D01*
X102Y58381D01*
X203Y58483D01*
Y58584D01*
X102D01*
X0Y58483D01*
X-102Y58584D01*
X-203D01*
Y58483D01*
X-102Y58381D01*
X-203Y58280D01*
Y58178D01*
X-29003Y89997D02*
X-28902D01*
X-28800Y90098D01*
X-28698Y89997D01*
X-28597D01*
Y90098D01*
X-28698Y90200D01*
X-28597Y90302D01*
Y90403D01*
X-28698D01*
X-28800Y90302D01*
X-28902Y90403D01*
X-29003D01*
Y90302D01*
X-28902Y90200D01*
X-29003Y90098D01*
Y89997D01*
X-30103D02*
X-30002D01*
X-29900Y90098D01*
X-29798Y89997D01*
X-29697D01*
Y90098D01*
X-29798Y90200D01*
X-29697Y90302D01*
Y90403D01*
X-29798D01*
X-29900Y90302D01*
X-30002Y90403D01*
X-30103D01*
Y90302D01*
X-30002Y90200D01*
X-30103Y90098D01*
Y89997D01*
X20397Y70497D02*
X20498D01*
X20600Y70598D01*
X20702Y70497D01*
X20803D01*
Y70598D01*
X20702Y70700D01*
X20803Y70802D01*
Y70903D01*
X20702D01*
X20600Y70802D01*
X20498Y70903D01*
X20397D01*
Y70802D01*
X20498Y70700D01*
X20397Y70598D01*
Y70497D01*
X21497D02*
X21598D01*
X21700Y70598D01*
X21802Y70497D01*
X21903D01*
Y70598D01*
X21802Y70700D01*
X21903Y70802D01*
Y70903D01*
X21802D01*
X21700Y70802D01*
X21598Y70903D01*
X21497D01*
Y70802D01*
X21598Y70700D01*
X21497Y70598D01*
Y70497D01*
X-4203Y31497D02*
X-4102D01*
X-4000Y31598D01*
X-3898Y31497D01*
X-3797D01*
Y31598D01*
X-3898Y31700D01*
X-3797Y31802D01*
Y31903D01*
X-3898D01*
X-4000Y31802D01*
X-4102Y31903D01*
X-4203D01*
Y31802D01*
X-4102Y31700D01*
X-4203Y31598D01*
Y31497D01*
X3797Y25157D02*
X3898D01*
X4000Y25258D01*
X4102Y25157D01*
X4203D01*
Y25258D01*
X4102Y25360D01*
X4203Y25462D01*
Y25563D01*
X4102D01*
X4000Y25462D01*
X3898Y25563D01*
X3797D01*
Y25462D01*
X3898Y25360D01*
X3797Y25258D01*
Y25157D01*
X-4203Y18817D02*
X-4102D01*
X-4000Y18918D01*
X-3898Y18817D01*
X-3797D01*
Y18918D01*
X-3898Y19020D01*
X-3797Y19122D01*
Y19223D01*
X-3898D01*
X-4000Y19122D01*
X-4102Y19223D01*
X-4203D01*
Y19122D01*
X-4102Y19020D01*
X-4203Y18918D01*
Y18817D01*
X3797Y12477D02*
X3898D01*
X4000Y12578D01*
X4102Y12477D01*
X4203D01*
Y12578D01*
X4102Y12680D01*
X4203Y12782D01*
Y12883D01*
X4102D01*
X4000Y12782D01*
X3898Y12883D01*
X3797D01*
Y12782D01*
X3898Y12680D01*
X3797Y12578D01*
Y12477D01*
Y-203D02*
X3898D01*
X4000Y-102D01*
X4102Y-203D01*
X4203D01*
Y-102D01*
X4102Y0D01*
X4203Y102D01*
Y203D01*
X4102D01*
X4000Y102D01*
X3898Y203D01*
X3797D01*
Y102D01*
X3898Y0D01*
X3797Y-102D01*
Y-203D01*
X-4203Y6137D02*
X-4102D01*
X-4000Y6238D01*
X-3898Y6137D01*
X-3797D01*
Y6238D01*
X-3898Y6340D01*
X-3797Y6442D01*
Y6543D01*
X-3898D01*
X-4000Y6442D01*
X-4102Y6543D01*
X-4203D01*
Y6442D01*
X-4102Y6340D01*
X-4203Y6238D01*
Y6137D01*
X-953Y59043D02*
X-852D01*
X-750Y59145D01*
X-648Y59043D01*
X-547D01*
Y59145D01*
X-648Y59246D01*
X-547Y59348D01*
Y59449D01*
X-648D01*
X-750Y59348D01*
X-852Y59449D01*
X-953D01*
Y59348D01*
X-852Y59246D01*
X-953Y59145D01*
Y59043D01*
X-1838D02*
X-1737D01*
X-1635Y59145D01*
X-1533Y59043D01*
X-1432D01*
Y59145D01*
X-1533Y59246D01*
X-1432Y59348D01*
Y59449D01*
X-1533D01*
X-1635Y59348D01*
X-1737Y59449D01*
X-1838D01*
Y59348D01*
X-1737Y59246D01*
X-1838Y59145D01*
Y59043D01*
X543D02*
X645D01*
X746Y59145D01*
X848Y59043D01*
X949D01*
Y59145D01*
X848Y59246D01*
X949Y59348D01*
Y59449D01*
X848D01*
X746Y59348D01*
X645Y59449D01*
X543D01*
Y59348D01*
X645Y59246D01*
X543Y59145D01*
Y59043D01*
X1397D02*
X1498D01*
X1600Y59145D01*
X1702Y59043D01*
X1803D01*
Y59145D01*
X1702Y59246D01*
X1803Y59348D01*
Y59449D01*
X1702D01*
X1600Y59348D01*
X1498Y59449D01*
X1397D01*
Y59348D01*
X1498Y59246D01*
X1397Y59145D01*
Y59043D01*
X-203D02*
X-102D01*
X0Y59145D01*
X102Y59043D01*
X203D01*
Y59145D01*
X102Y59246D01*
X203Y59348D01*
Y59449D01*
X102D01*
X0Y59348D01*
X-102Y59449D01*
X-203D01*
Y59348D01*
X-102Y59246D01*
X-203Y59145D01*
Y59043D01*
Y59997D02*
X-102D01*
X0Y60098D01*
X102Y59997D01*
X203D01*
Y60098D01*
X102Y60200D01*
X203Y60302D01*
Y60403D01*
X102D01*
X0Y60302D01*
X-102Y60403D01*
X-203D01*
Y60302D01*
X-102Y60200D01*
X-203Y60098D01*
Y59997D01*
Y60697D02*
X-102D01*
X0Y60798D01*
X102Y60697D01*
X203D01*
Y60798D01*
X102Y60900D01*
X203Y61002D01*
Y61103D01*
X102D01*
X0Y61002D01*
X-102Y61103D01*
X-203D01*
Y61002D01*
X-102Y60900D01*
X-203Y60798D01*
Y60697D01*
X15047Y84597D02*
X15148D01*
X15250Y84698D01*
X15352Y84597D01*
X15453D01*
Y84698D01*
X15352Y84800D01*
X15453Y84902D01*
Y85003D01*
X15352D01*
X15250Y84902D01*
X15148Y85003D01*
X15047D01*
Y84902D01*
X15148Y84800D01*
X15047Y84698D01*
Y84597D01*
Y83547D02*
X15148D01*
X15250Y83648D01*
X15352Y83547D01*
X15453D01*
Y83648D01*
X15352Y83750D01*
X15453Y83852D01*
Y83953D01*
X15352D01*
X15250Y83852D01*
X15148Y83953D01*
X15047D01*
Y83852D01*
X15148Y83750D01*
X15047Y83648D01*
Y83547D01*
X14297Y82797D02*
X14398D01*
X14500Y82898D01*
X14602Y82797D01*
X14703D01*
Y82898D01*
X14602Y83000D01*
X14703Y83102D01*
Y83203D01*
X14602D01*
X14500Y83102D01*
X14398Y83203D01*
X14297D01*
Y83102D01*
X14398Y83000D01*
X14297Y82898D01*
Y82797D01*
X15997Y89197D02*
X16098D01*
X16200Y89298D01*
X16302Y89197D01*
X16403D01*
Y89298D01*
X16302Y89400D01*
X16403Y89502D01*
Y89603D01*
X16302D01*
X16200Y89502D01*
X16098Y89603D01*
X15997D01*
Y89502D01*
X16098Y89400D01*
X15997Y89298D01*
Y89197D01*
X16897Y88241D02*
X16998D01*
X17100Y88343D01*
X17202Y88241D01*
X17303D01*
Y88343D01*
X17202Y88444D01*
X17303Y88546D01*
Y88648D01*
X17202D01*
X17100Y88546D01*
X16998Y88648D01*
X16897D01*
Y88546D01*
X16998Y88444D01*
X16897Y88343D01*
Y88241D01*
X19297Y88397D02*
X19398D01*
X19500Y88498D01*
X19602Y88397D01*
X19703D01*
Y88498D01*
X19602Y88600D01*
X19703Y88702D01*
Y88803D01*
X19602D01*
X19500Y88702D01*
X19398Y88803D01*
X19297D01*
Y88702D01*
X19398Y88600D01*
X19297Y88498D01*
Y88397D01*
X-203Y57408D02*
X-102D01*
X0Y57510D01*
X102Y57408D01*
X203D01*
Y57510D01*
X102Y57611D01*
X203Y57713D01*
Y57814D01*
X102D01*
X0Y57713D01*
X-102Y57814D01*
X-203D01*
Y57713D01*
X-102Y57611D01*
X-203Y57510D01*
Y57408D01*
X50497Y89197D02*
X50598D01*
X50700Y89298D01*
X50802Y89197D01*
X50903D01*
Y89298D01*
X50802Y89400D01*
X50903Y89502D01*
Y89603D01*
X50802D01*
X50700Y89502D01*
X50598Y89603D01*
X50497D01*
Y89502D01*
X50598Y89400D01*
X50497Y89298D01*
Y89197D01*
X51497D02*
X51598D01*
X51700Y89298D01*
X51802Y89197D01*
X51903D01*
Y89298D01*
X51802Y89400D01*
X51903Y89502D01*
Y89603D01*
X51802D01*
X51700Y89502D01*
X51598Y89603D01*
X51497D01*
Y89502D01*
X51598Y89400D01*
X51497Y89298D01*
Y89197D01*
Y88297D02*
X51598D01*
X51700Y88398D01*
X51802Y88297D01*
X51903D01*
Y88398D01*
X51802Y88500D01*
X51903Y88602D01*
Y88703D01*
X51802D01*
X51700Y88602D01*
X51598Y88703D01*
X51497D01*
Y88602D01*
X51598Y88500D01*
X51497Y88398D01*
Y88297D01*
X50497D02*
X50598D01*
X50700Y88398D01*
X50802Y88297D01*
X50903D01*
Y88398D01*
X50802Y88500D01*
X50903Y88602D01*
Y88703D01*
X50802D01*
X50700Y88602D01*
X50598Y88703D01*
X50497D01*
Y88602D01*
X50598Y88500D01*
X50497Y88398D01*
Y88297D01*
X49497D02*
X49598D01*
X49700Y88398D01*
X49802Y88297D01*
X49903D01*
Y88398D01*
X49802Y88500D01*
X49903Y88602D01*
Y88703D01*
X49802D01*
X49700Y88602D01*
X49598Y88703D01*
X49497D01*
Y88602D01*
X49598Y88500D01*
X49497Y88398D01*
Y88297D01*
X48497D02*
X48598D01*
X48700Y88398D01*
X48802Y88297D01*
X48903D01*
Y88398D01*
X48802Y88500D01*
X48903Y88602D01*
Y88703D01*
X48802D01*
X48700Y88602D01*
X48598Y88703D01*
X48497D01*
Y88602D01*
X48598Y88500D01*
X48497Y88398D01*
Y88297D01*
X16604Y81817D02*
X16705D01*
X16807Y81919D01*
X16909Y81817D01*
X17010D01*
Y81919D01*
X16909Y82020D01*
X17010Y82122D01*
Y82224D01*
X16909D01*
X16807Y82122D01*
X16705Y82224D01*
X16604D01*
Y82122D01*
X16705Y82020D01*
X16604Y81919D01*
Y81817D01*
X19147Y73947D02*
X19248D01*
X19350Y74048D01*
X19452Y73947D01*
X19553D01*
Y74048D01*
X19452Y74150D01*
X19553Y74252D01*
Y74353D01*
X19452D01*
X19350Y74252D01*
X19248Y74353D01*
X19147D01*
Y74252D01*
X19248Y74150D01*
X19147Y74048D01*
Y73947D01*
X12497Y78697D02*
X12598D01*
X12700Y78798D01*
X12802Y78697D01*
X12903D01*
Y78798D01*
X12802Y78900D01*
X12903Y79002D01*
Y79103D01*
X12802D01*
X12700Y79002D01*
X12598Y79103D01*
X12497D01*
Y79002D01*
X12598Y78900D01*
X12497Y78798D01*
Y78697D01*
X16127Y60505D02*
X16228D01*
X16330Y60606D01*
X16432Y60505D01*
X16533D01*
Y60606D01*
X16432Y60708D01*
X16533Y60810D01*
Y60911D01*
X16432D01*
X16330Y60810D01*
X16228Y60911D01*
X16127D01*
Y60810D01*
X16228Y60708D01*
X16127Y60606D01*
Y60505D01*
X22827D02*
X22928D01*
X23030Y60606D01*
X23132Y60505D01*
X23233D01*
Y60606D01*
X23132Y60708D01*
X23233Y60810D01*
Y60911D01*
X23132D01*
X23030Y60810D01*
X22928Y60911D01*
X22827D01*
Y60810D01*
X22928Y60708D01*
X22827Y60606D01*
Y60505D01*
X-5503Y88797D02*
X-5402D01*
X-5300Y88898D01*
X-5198Y88797D01*
X-5097D01*
Y88898D01*
X-5198Y89000D01*
X-5097Y89102D01*
Y89203D01*
X-5198D01*
X-5300Y89102D01*
X-5402Y89203D01*
X-5503D01*
Y89102D01*
X-5402Y89000D01*
X-5503Y88898D01*
Y88797D01*
X-35203Y88897D02*
X-35102D01*
X-35000Y88998D01*
X-34898Y88897D01*
X-34797D01*
Y88998D01*
X-34898Y89100D01*
X-34797Y89202D01*
Y89303D01*
X-34898D01*
X-35000Y89202D01*
X-35102Y89303D01*
X-35203D01*
Y89202D01*
X-35102Y89100D01*
X-35203Y88998D01*
Y88897D01*
X-28403Y95497D02*
X-28302D01*
X-28200Y95598D01*
X-28098Y95497D01*
X-27997D01*
Y95598D01*
X-28098Y95700D01*
X-27997Y95802D01*
Y95903D01*
X-28098D01*
X-28200Y95802D01*
X-28302Y95903D01*
X-28403D01*
Y95802D01*
X-28302Y95700D01*
X-28403Y95598D01*
Y95497D01*
X-26003D02*
X-25902D01*
X-25800Y95598D01*
X-25698Y95497D01*
X-25597D01*
Y95598D01*
X-25698Y95700D01*
X-25597Y95802D01*
Y95903D01*
X-25698D01*
X-25800Y95802D01*
X-25902Y95903D01*
X-26003D01*
Y95802D01*
X-25902Y95700D01*
X-26003Y95598D01*
Y95497D01*
X-703Y96897D02*
X-602D01*
X-500Y96998D01*
X-398Y96897D01*
X-297D01*
Y96998D01*
X-398Y97100D01*
X-297Y97202D01*
Y97303D01*
X-398D01*
X-500Y97202D01*
X-602Y97303D01*
X-703D01*
Y97202D01*
X-602Y97100D01*
X-703Y96998D01*
Y96897D01*
X-21103Y95197D02*
X-21002D01*
X-20900Y95298D01*
X-20798Y95197D01*
X-20697D01*
Y95298D01*
X-20798Y95400D01*
X-20697Y95502D01*
Y95603D01*
X-20798D01*
X-20900Y95502D01*
X-21002Y95603D01*
X-21103D01*
Y95502D01*
X-21002Y95400D01*
X-21103Y95298D01*
Y95197D01*
X-9403Y97297D02*
X-9302D01*
X-9200Y97398D01*
X-9098Y97297D01*
X-8997D01*
Y97398D01*
X-9098Y97500D01*
X-8997Y97602D01*
Y97703D01*
X-9098D01*
X-9200Y97602D01*
X-9302Y97703D01*
X-9403D01*
Y97602D01*
X-9302Y97500D01*
X-9403Y97398D01*
Y97297D01*
X-7103D02*
X-7002D01*
X-6900Y97398D01*
X-6798Y97297D01*
X-6697D01*
Y97398D01*
X-6798Y97500D01*
X-6697Y97602D01*
Y97703D01*
X-6798D01*
X-6900Y97602D01*
X-7002Y97703D01*
X-7103D01*
Y97602D01*
X-7002Y97500D01*
X-7103Y97398D01*
Y97297D01*
X31597Y70497D02*
X31698D01*
X31800Y70598D01*
X31902Y70497D01*
X32003D01*
Y70598D01*
X31902Y70700D01*
X32003Y70802D01*
Y70903D01*
X31902D01*
X31800Y70802D01*
X31698Y70903D01*
X31597D01*
Y70802D01*
X31698Y70700D01*
X31597Y70598D01*
Y70497D01*
X21097Y81497D02*
X21198D01*
X21300Y81598D01*
X21402Y81497D01*
X21503D01*
Y81598D01*
X21402Y81700D01*
X21503Y81802D01*
Y81903D01*
X21402D01*
X21300Y81802D01*
X21198Y81903D01*
X21097D01*
Y81802D01*
X21198Y81700D01*
X21097Y81598D01*
Y81497D01*
X49997Y91597D02*
X50098D01*
X50200Y91698D01*
X50302Y91597D01*
X50403D01*
Y91698D01*
X50302Y91800D01*
X50403Y91902D01*
Y92003D01*
X50302D01*
X50200Y91902D01*
X50098Y92003D01*
X49997D01*
Y91902D01*
X50098Y91800D01*
X49997Y91698D01*
Y91597D01*
X44597Y93597D02*
X44698D01*
X44800Y93698D01*
X44902Y93597D01*
X45003D01*
Y93698D01*
X44902Y93800D01*
X45003Y93902D01*
Y94003D01*
X44902D01*
X44800Y93902D01*
X44698Y94003D01*
X44597D01*
Y93902D01*
X44698Y93800D01*
X44597Y93698D01*
Y93597D01*
X42197D02*
X42298D01*
X42400Y93698D01*
X42502Y93597D01*
X42603D01*
Y93698D01*
X42502Y93800D01*
X42603Y93902D01*
Y94003D01*
X42502D01*
X42400Y93902D01*
X42298Y94003D01*
X42197D01*
Y93902D01*
X42298Y93800D01*
X42197Y93698D01*
Y93597D01*
X69797Y102297D02*
X69898D01*
X70000Y102398D01*
X70102Y102297D01*
X70203D01*
Y102398D01*
X70102Y102500D01*
X70203Y102602D01*
Y102703D01*
X70102D01*
X70000Y102602D01*
X69898Y102703D01*
X69797D01*
Y102602D01*
X69898Y102500D01*
X69797Y102398D01*
Y102297D01*
Y98297D02*
X69898D01*
X70000Y98398D01*
X70102Y98297D01*
X70203D01*
Y98398D01*
X70102Y98500D01*
X70203Y98602D01*
Y98703D01*
X70102D01*
X70000Y98602D01*
X69898Y98703D01*
X69797D01*
Y98602D01*
X69898Y98500D01*
X69797Y98398D01*
Y98297D01*
Y88297D02*
X69898D01*
X70000Y88398D01*
X70102Y88297D01*
X70203D01*
Y88398D01*
X70102Y88500D01*
X70203Y88602D01*
Y88703D01*
X70102D01*
X70000Y88602D01*
X69898Y88703D01*
X69797D01*
Y88602D01*
X69898Y88500D01*
X69797Y88398D01*
Y88297D01*
Y86197D02*
X69898D01*
X70000Y86298D01*
X70102Y86197D01*
X70203D01*
Y86298D01*
X70102Y86400D01*
X70203Y86502D01*
Y86603D01*
X70102D01*
X70000Y86502D01*
X69898Y86603D01*
X69797D01*
Y86502D01*
X69898Y86400D01*
X69797Y86298D01*
Y86197D01*
Y82797D02*
X69898D01*
X70000Y82898D01*
X70102Y82797D01*
X70203D01*
Y82898D01*
X70102Y83000D01*
X70203Y83102D01*
Y83203D01*
X70102D01*
X70000Y83102D01*
X69898Y83203D01*
X69797D01*
Y83102D01*
X69898Y83000D01*
X69797Y82898D01*
Y82797D01*
Y59297D02*
X69898D01*
X70000Y59398D01*
X70102Y59297D01*
X70203D01*
Y59398D01*
X70102Y59500D01*
X70203Y59602D01*
Y59703D01*
X70102D01*
X70000Y59602D01*
X69898Y59703D01*
X69797D01*
Y59602D01*
X69898Y59500D01*
X69797Y59398D01*
Y59297D01*
X67797D02*
X67898D01*
X68000Y59398D01*
X68102Y59297D01*
X68203D01*
Y59398D01*
X68102Y59500D01*
X68203Y59602D01*
Y59703D01*
X68102D01*
X68000Y59602D01*
X67898Y59703D01*
X67797D01*
Y59602D01*
X67898Y59500D01*
X67797Y59398D01*
Y59297D01*
X65797D02*
X65898D01*
X66000Y59398D01*
X66102Y59297D01*
X66203D01*
Y59398D01*
X66102Y59500D01*
X66203Y59602D01*
Y59703D01*
X66102D01*
X66000Y59602D01*
X65898Y59703D01*
X65797D01*
Y59602D01*
X65898Y59500D01*
X65797Y59398D01*
Y59297D01*
X63797D02*
X63898D01*
X64000Y59398D01*
X64102Y59297D01*
X64203D01*
Y59398D01*
X64102Y59500D01*
X64203Y59602D01*
Y59703D01*
X64102D01*
X64000Y59602D01*
X63898Y59703D01*
X63797D01*
Y59602D01*
X63898Y59500D01*
X63797Y59398D01*
Y59297D01*
X61797D02*
X61898D01*
X62000Y59398D01*
X62102Y59297D01*
X62203D01*
Y59398D01*
X62102Y59500D01*
X62203Y59602D01*
Y59703D01*
X62102D01*
X62000Y59602D01*
X61898Y59703D01*
X61797D01*
Y59602D01*
X61898Y59500D01*
X61797Y59398D01*
Y59297D01*
X59797D02*
X59898D01*
X60000Y59398D01*
X60102Y59297D01*
X60203D01*
Y59398D01*
X60102Y59500D01*
X60203Y59602D01*
Y59703D01*
X60102D01*
X60000Y59602D01*
X59898Y59703D01*
X59797D01*
Y59602D01*
X59898Y59500D01*
X59797Y59398D01*
Y59297D01*
X57797D02*
X57898D01*
X58000Y59398D01*
X58102Y59297D01*
X58203D01*
Y59398D01*
X58102Y59500D01*
X58203Y59602D01*
Y59703D01*
X58102D01*
X58000Y59602D01*
X57898Y59703D01*
X57797D01*
Y59602D01*
X57898Y59500D01*
X57797Y59398D01*
Y59297D01*
X55797D02*
X55898D01*
X56000Y59398D01*
X56102Y59297D01*
X56203D01*
Y59398D01*
X56102Y59500D01*
X56203Y59602D01*
Y59703D01*
X56102D01*
X56000Y59602D01*
X55898Y59703D01*
X55797D01*
Y59602D01*
X55898Y59500D01*
X55797Y59398D01*
Y59297D01*
X53797D02*
X53898D01*
X54000Y59398D01*
X54102Y59297D01*
X54203D01*
Y59398D01*
X54102Y59500D01*
X54203Y59602D01*
Y59703D01*
X54102D01*
X54000Y59602D01*
X53898Y59703D01*
X53797D01*
Y59602D01*
X53898Y59500D01*
X53797Y59398D01*
Y59297D01*
X51797D02*
X51898D01*
X52000Y59398D01*
X52102Y59297D01*
X52203D01*
Y59398D01*
X52102Y59500D01*
X52203Y59602D01*
Y59703D01*
X52102D01*
X52000Y59602D01*
X51898Y59703D01*
X51797D01*
Y59602D01*
X51898Y59500D01*
X51797Y59398D01*
Y59297D01*
X49797D02*
X49898D01*
X50000Y59398D01*
X50102Y59297D01*
X50203D01*
Y59398D01*
X50102Y59500D01*
X50203Y59602D01*
Y59703D01*
X50102D01*
X50000Y59602D01*
X49898Y59703D01*
X49797D01*
Y59602D01*
X49898Y59500D01*
X49797Y59398D01*
Y59297D01*
X47797D02*
X47898D01*
X48000Y59398D01*
X48102Y59297D01*
X48203D01*
Y59398D01*
X48102Y59500D01*
X48203Y59602D01*
Y59703D01*
X48102D01*
X48000Y59602D01*
X47898Y59703D01*
X47797D01*
Y59602D01*
X47898Y59500D01*
X47797Y59398D01*
Y59297D01*
X45797D02*
X45898D01*
X46000Y59398D01*
X46102Y59297D01*
X46203D01*
Y59398D01*
X46102Y59500D01*
X46203Y59602D01*
Y59703D01*
X46102D01*
X46000Y59602D01*
X45898Y59703D01*
X45797D01*
Y59602D01*
X45898Y59500D01*
X45797Y59398D01*
Y59297D01*
X43797D02*
X43898D01*
X44000Y59398D01*
X44102Y59297D01*
X44203D01*
Y59398D01*
X44102Y59500D01*
X44203Y59602D01*
Y59703D01*
X44102D01*
X44000Y59602D01*
X43898Y59703D01*
X43797D01*
Y59602D01*
X43898Y59500D01*
X43797Y59398D01*
Y59297D01*
X41797D02*
X41898D01*
X42000Y59398D01*
X42102Y59297D01*
X42203D01*
Y59398D01*
X42102Y59500D01*
X42203Y59602D01*
Y59703D01*
X42102D01*
X42000Y59602D01*
X41898Y59703D01*
X41797D01*
Y59602D01*
X41898Y59500D01*
X41797Y59398D01*
Y59297D01*
X39797D02*
X39898D01*
X40000Y59398D01*
X40102Y59297D01*
X40203D01*
Y59398D01*
X40102Y59500D01*
X40203Y59602D01*
Y59703D01*
X40102D01*
X40000Y59602D01*
X39898Y59703D01*
X39797D01*
Y59602D01*
X39898Y59500D01*
X39797Y59398D01*
Y59297D01*
X63797Y102297D02*
X63898D01*
X64000Y102398D01*
X64102Y102297D01*
X64203D01*
Y102398D01*
X64102Y102500D01*
X64203Y102602D01*
Y102703D01*
X64102D01*
X64000Y102602D01*
X63898Y102703D01*
X63797D01*
Y102602D01*
X63898Y102500D01*
X63797Y102398D01*
Y102297D01*
X57797D02*
X57898D01*
X58000Y102398D01*
X58102Y102297D01*
X58203D01*
Y102398D01*
X58102Y102500D01*
X58203Y102602D01*
Y102703D01*
X58102D01*
X58000Y102602D01*
X57898Y102703D01*
X57797D01*
Y102602D01*
X57898Y102500D01*
X57797Y102398D01*
Y102297D01*
X45797Y102397D02*
X45898D01*
X46000Y102498D01*
X46102Y102397D01*
X46203D01*
Y102498D01*
X46102Y102600D01*
X46203Y102702D01*
Y102803D01*
X46102D01*
X46000Y102702D01*
X45898Y102803D01*
X45797D01*
Y102702D01*
X45898Y102600D01*
X45797Y102498D01*
Y102397D01*
X63797Y86197D02*
X63898D01*
X64000Y86298D01*
X64102Y86197D01*
X64203D01*
Y86298D01*
X64102Y86400D01*
X64203Y86502D01*
Y86603D01*
X64102D01*
X64000Y86502D01*
X63898Y86603D01*
X63797D01*
Y86502D01*
X63898Y86400D01*
X63797Y86298D01*
Y86197D01*
Y82797D02*
X63898D01*
X64000Y82898D01*
X64102Y82797D01*
X64203D01*
Y82898D01*
X64102Y83000D01*
X64203Y83102D01*
Y83203D01*
X64102D01*
X64000Y83102D01*
X63898Y83203D01*
X63797D01*
Y83102D01*
X63898Y83000D01*
X63797Y82898D01*
Y82797D01*
X57797D02*
X57898D01*
X58000Y82898D01*
X58102Y82797D01*
X58203D01*
Y82898D01*
X58102Y83000D01*
X58203Y83102D01*
Y83203D01*
X58102D01*
X58000Y83102D01*
X57898Y83203D01*
X57797D01*
Y83102D01*
X57898Y83000D01*
X57797Y82898D01*
Y82797D01*
Y86197D02*
X57898D01*
X58000Y86298D01*
X58102Y86197D01*
X58203D01*
Y86298D01*
X58102Y86400D01*
X58203Y86502D01*
Y86603D01*
X58102D01*
X58000Y86502D01*
X57898Y86603D01*
X57797D01*
Y86502D01*
X57898Y86400D01*
X57797Y86298D01*
Y86197D01*
X51997Y84497D02*
X52098D01*
X52200Y84598D01*
X52302Y84497D01*
X52403D01*
Y84598D01*
X52302Y84700D01*
X52403Y84802D01*
Y84903D01*
X52302D01*
X52200Y84802D01*
X52098Y84903D01*
X51997D01*
Y84802D01*
X52098Y84700D01*
X51997Y84598D01*
Y84497D01*
X37797Y98097D02*
X37898D01*
X38000Y98198D01*
X38102Y98097D01*
X38203D01*
Y98198D01*
X38102Y98300D01*
X38203Y98402D01*
Y98503D01*
X38102D01*
X38000Y98402D01*
X37898Y98503D01*
X37797D01*
Y98402D01*
X37898Y98300D01*
X37797Y98198D01*
Y98097D01*
X31297D02*
X31398D01*
X31500Y98198D01*
X31602Y98097D01*
X31703D01*
Y98198D01*
X31602Y98300D01*
X31703Y98402D01*
Y98503D01*
X31602D01*
X31500Y98402D01*
X31398Y98503D01*
X31297D01*
Y98402D01*
X31398Y98300D01*
X31297Y98198D01*
Y98097D01*
X21697Y76997D02*
X21798D01*
X21900Y77098D01*
X22002Y76997D01*
X22103D01*
Y77098D01*
X22002Y77200D01*
X22103Y77302D01*
Y77403D01*
X22002D01*
X21900Y77302D01*
X21798Y77403D01*
X21697D01*
Y77302D01*
X21798Y77200D01*
X21697Y77098D01*
Y76997D01*
X26197Y72397D02*
X26298D01*
X26400Y72498D01*
X26502Y72397D01*
X26603D01*
Y72498D01*
X26502Y72600D01*
X26603Y72702D01*
Y72803D01*
X26502D01*
X26400Y72702D01*
X26298Y72803D01*
X26197D01*
Y72702D01*
X26298Y72600D01*
X26197Y72498D01*
Y72397D01*
X48897Y79997D02*
X48998D01*
X49100Y80098D01*
X49202Y79997D01*
X49303D01*
Y80098D01*
X49202Y80200D01*
X49303Y80302D01*
Y80403D01*
X49202D01*
X49100Y80302D01*
X48998Y80403D01*
X48897D01*
Y80302D01*
X48998Y80200D01*
X48897Y80098D01*
Y79997D01*
Y80997D02*
X48998D01*
X49100Y81098D01*
X49202Y80997D01*
X49303D01*
Y81098D01*
X49202Y81200D01*
X49303Y81302D01*
Y81403D01*
X49202D01*
X49100Y81302D01*
X48998Y81403D01*
X48897D01*
Y81302D01*
X48998Y81200D01*
X48897Y81098D01*
Y80997D01*
Y81997D02*
X48998D01*
X49100Y82098D01*
X49202Y81997D01*
X49303D01*
Y82098D01*
X49202Y82200D01*
X49303Y82302D01*
Y82403D01*
X49202D01*
X49100Y82302D01*
X48998Y82403D01*
X48897D01*
Y82302D01*
X48998Y82200D01*
X48897Y82098D01*
Y81997D01*
Y82997D02*
X48998D01*
X49100Y83098D01*
X49202Y82997D01*
X49303D01*
Y83098D01*
X49202Y83200D01*
X49303Y83302D01*
Y83403D01*
X49202D01*
X49100Y83302D01*
X48998Y83403D01*
X48897D01*
Y83302D01*
X48998Y83200D01*
X48897Y83098D01*
Y82997D01*
X-16103Y88397D02*
X-16002D01*
X-15900Y88498D01*
X-15798Y88397D01*
X-15697D01*
Y88498D01*
X-15798Y88600D01*
X-15697Y88702D01*
Y88803D01*
X-15798D01*
X-15900Y88702D01*
X-16002Y88803D01*
X-16103D01*
Y88702D01*
X-16002Y88600D01*
X-16103Y88498D01*
Y88397D01*
X-15103D02*
X-15002D01*
X-14900Y88498D01*
X-14798Y88397D01*
X-14697D01*
Y88498D01*
X-14798Y88600D01*
X-14697Y88702D01*
Y88803D01*
X-14798D01*
X-14900Y88702D01*
X-15002Y88803D01*
X-15103D01*
Y88702D01*
X-15002Y88600D01*
X-15103Y88498D01*
Y88397D01*
X-16103Y94197D02*
X-16002D01*
X-15900Y94298D01*
X-15798Y94197D01*
X-15697D01*
Y94298D01*
X-15798Y94400D01*
X-15697Y94502D01*
Y94603D01*
X-15798D01*
X-15900Y94502D01*
X-16002Y94603D01*
X-16103D01*
Y94502D01*
X-16002Y94400D01*
X-16103Y94298D01*
Y94197D01*
X-15103D02*
X-15002D01*
X-14900Y94298D01*
X-14798Y94197D01*
X-14697D01*
Y94298D01*
X-14798Y94400D01*
X-14697Y94502D01*
Y94603D01*
X-14798D01*
X-14900Y94502D01*
X-15002Y94603D01*
X-15103D01*
Y94502D01*
X-15002Y94400D01*
X-15103Y94298D01*
Y94197D01*
X69797Y100297D02*
X69898D01*
X70000Y100398D01*
X70102Y100297D01*
X70203D01*
Y100398D01*
X70102Y100500D01*
X70203Y100602D01*
Y100703D01*
X70102D01*
X70000Y100602D01*
X69898Y100703D01*
X69797D01*
Y100602D01*
X69898Y100500D01*
X69797Y100398D01*
Y100297D01*
Y90297D02*
X69898D01*
X70000Y90398D01*
X70102Y90297D01*
X70203D01*
Y90398D01*
X70102Y90500D01*
X70203Y90602D01*
Y90703D01*
X70102D01*
X70000Y90602D01*
X69898Y90703D01*
X69797D01*
Y90602D01*
X69898Y90500D01*
X69797Y90398D01*
Y90297D01*
X55797Y86197D02*
X55898D01*
X56000Y86298D01*
X56102Y86197D01*
X56203D01*
Y86298D01*
X56102Y86400D01*
X56203Y86502D01*
Y86603D01*
X56102D01*
X56000Y86502D01*
X55898Y86603D01*
X55797D01*
Y86502D01*
X55898Y86400D01*
X55797Y86298D01*
Y86197D01*
X59797D02*
X59898D01*
X60000Y86298D01*
X60102Y86197D01*
X60203D01*
Y86298D01*
X60102Y86400D01*
X60203Y86502D01*
Y86603D01*
X60102D01*
X60000Y86502D01*
X59898Y86603D01*
X59797D01*
Y86502D01*
X59898Y86400D01*
X59797Y86298D01*
Y86197D01*
X61797D02*
X61898D01*
X62000Y86298D01*
X62102Y86197D01*
X62203D01*
Y86298D01*
X62102Y86400D01*
X62203Y86502D01*
Y86603D01*
X62102D01*
X62000Y86502D01*
X61898Y86603D01*
X61797D01*
Y86502D01*
X61898Y86400D01*
X61797Y86298D01*
Y86197D01*
X65797D02*
X65898D01*
X66000Y86298D01*
X66102Y86197D01*
X66203D01*
Y86298D01*
X66102Y86400D01*
X66203Y86502D01*
Y86603D01*
X66102D01*
X66000Y86502D01*
X65898Y86603D01*
X65797D01*
Y86502D01*
X65898Y86400D01*
X65797Y86298D01*
Y86197D01*
X67797D02*
X67898D01*
X68000Y86298D01*
X68102Y86197D01*
X68203D01*
Y86298D01*
X68102Y86400D01*
X68203Y86502D01*
Y86603D01*
X68102D01*
X68000Y86502D01*
X67898Y86603D01*
X67797D01*
Y86502D01*
X67898Y86400D01*
X67797Y86298D01*
Y86197D01*
Y102297D02*
X67898D01*
X68000Y102398D01*
X68102Y102297D01*
X68203D01*
Y102398D01*
X68102Y102500D01*
X68203Y102602D01*
Y102703D01*
X68102D01*
X68000Y102602D01*
X67898Y102703D01*
X67797D01*
Y102602D01*
X67898Y102500D01*
X67797Y102398D01*
Y102297D01*
X65797D02*
X65898D01*
X66000Y102398D01*
X66102Y102297D01*
X66203D01*
Y102398D01*
X66102Y102500D01*
X66203Y102602D01*
Y102703D01*
X66102D01*
X66000Y102602D01*
X65898Y102703D01*
X65797D01*
Y102602D01*
X65898Y102500D01*
X65797Y102398D01*
Y102297D01*
X61797D02*
X61898D01*
X62000Y102398D01*
X62102Y102297D01*
X62203D01*
Y102398D01*
X62102Y102500D01*
X62203Y102602D01*
Y102703D01*
X62102D01*
X62000Y102602D01*
X61898Y102703D01*
X61797D01*
Y102602D01*
X61898Y102500D01*
X61797Y102398D01*
Y102297D01*
X59797D02*
X59898D01*
X60000Y102398D01*
X60102Y102297D01*
X60203D01*
Y102398D01*
X60102Y102500D01*
X60203Y102602D01*
Y102703D01*
X60102D01*
X60000Y102602D01*
X59898Y102703D01*
X59797D01*
Y102602D01*
X59898Y102500D01*
X59797Y102398D01*
Y102297D01*
X55797D02*
X55898D01*
X56000Y102398D01*
X56102Y102297D01*
X56203D01*
Y102398D01*
X56102Y102500D01*
X56203Y102602D01*
Y102703D01*
X56102D01*
X56000Y102602D01*
X55898Y102703D01*
X55797D01*
Y102602D01*
X55898Y102500D01*
X55797Y102398D01*
Y102297D01*
X49797Y102397D02*
X49898D01*
X50000Y102498D01*
X50102Y102397D01*
X50203D01*
Y102498D01*
X50102Y102600D01*
X50203Y102702D01*
Y102803D01*
X50102D01*
X50000Y102702D01*
X49898Y102803D01*
X49797D01*
Y102702D01*
X49898Y102600D01*
X49797Y102498D01*
Y102397D01*
X47797D02*
X47898D01*
X48000Y102498D01*
X48102Y102397D01*
X48203D01*
Y102498D01*
X48102Y102600D01*
X48203Y102702D01*
Y102803D01*
X48102D01*
X48000Y102702D01*
X47898Y102803D01*
X47797D01*
Y102702D01*
X47898Y102600D01*
X47797Y102498D01*
Y102397D01*
X-678Y53797D02*
X-577D01*
X-475Y53898D01*
X-373Y53797D01*
X-272D01*
Y53898D01*
X-373Y54000D01*
X-272Y54102D01*
Y54203D01*
X-373D01*
X-475Y54102D01*
X-577Y54203D01*
X-678D01*
Y54102D01*
X-577Y54000D01*
X-678Y53898D01*
Y53797D01*
X-4903Y50097D02*
X-4802D01*
X-4700Y50198D01*
X-4598Y50097D01*
X-4497D01*
Y50198D01*
X-4598Y50300D01*
X-4497Y50402D01*
Y50503D01*
X-4598D01*
X-4700Y50402D01*
X-4802Y50503D01*
X-4903D01*
Y50402D01*
X-4802Y50300D01*
X-4903Y50198D01*
Y50097D01*
X3497Y50797D02*
X3598D01*
X3700Y50898D01*
X3802Y50797D01*
X3903D01*
Y50898D01*
X3802Y51000D01*
X3903Y51102D01*
Y51203D01*
X3802D01*
X3700Y51102D01*
X3598Y51203D01*
X3497D01*
Y51102D01*
X3598Y51000D01*
X3497Y50898D01*
Y50797D01*
X-3903D02*
X-3802D01*
X-3700Y50898D01*
X-3598Y50797D01*
X-3497D01*
Y50898D01*
X-3598Y51000D01*
X-3497Y51102D01*
Y51203D01*
X-3598D01*
X-3700Y51102D01*
X-3802Y51203D01*
X-3903D01*
Y51102D01*
X-3802Y51000D01*
X-3903Y50898D01*
Y50797D01*
X-5903D02*
X-5802D01*
X-5700Y50898D01*
X-5598Y50797D01*
X-5497D01*
Y50898D01*
X-5598Y51000D01*
X-5497Y51102D01*
Y51203D01*
X-5598D01*
X-5700Y51102D01*
X-5802Y51203D01*
X-5903D01*
Y51102D01*
X-5802Y51000D01*
X-5903Y50898D01*
Y50797D01*
X4497Y50097D02*
X4598D01*
X4700Y50198D01*
X4802Y50097D01*
X4903D01*
Y50198D01*
X4802Y50300D01*
X4903Y50402D01*
Y50503D01*
X4802D01*
X4700Y50402D01*
X4598Y50503D01*
X4497D01*
Y50402D01*
X4598Y50300D01*
X4497Y50198D01*
Y50097D01*
X5497Y50797D02*
X5598D01*
X5700Y50898D01*
X5802Y50797D01*
X5903D01*
Y50898D01*
X5802Y51000D01*
X5903Y51102D01*
Y51203D01*
X5802D01*
X5700Y51102D01*
X5598Y51203D01*
X5497D01*
Y51102D01*
X5598Y51000D01*
X5497Y50898D01*
Y50797D01*
X-10770Y88741D02*
X-10669D01*
X-10567Y88843D01*
X-10465Y88741D01*
X-10364D01*
Y88843D01*
X-10465Y88944D01*
X-10364Y89046D01*
Y89148D01*
X-10465D01*
X-10567Y89046D01*
X-10669Y89148D01*
X-10770D01*
Y89046D01*
X-10669Y88944D01*
X-10770Y88843D01*
Y88741D01*
X7049Y81477D02*
X7150D01*
X7252Y81579D01*
X7354Y81477D01*
X7455D01*
Y81579D01*
X7354Y81680D01*
X7455Y81782D01*
Y81883D01*
X7354D01*
X7252Y81782D01*
X7150Y81883D01*
X7049D01*
Y81782D01*
X7150Y81680D01*
X7049Y81579D01*
Y81477D01*
X-9218Y63883D02*
X-9117D01*
X-9015Y63985D01*
X-8913Y63883D01*
X-8812D01*
Y63985D01*
X-8913Y64086D01*
X-8812Y64188D01*
Y64290D01*
X-8913D01*
X-9015Y64188D01*
X-9117Y64290D01*
X-9218D01*
Y64188D01*
X-9117Y64086D01*
X-9218Y63985D01*
Y63883D01*
X-8645Y63030D02*
X-8544D01*
X-8442Y63132D01*
X-8341Y63030D01*
X-8239D01*
Y63132D01*
X-8341Y63234D01*
X-8239Y63335D01*
Y63437D01*
X-8341D01*
X-8442Y63335D01*
X-8544Y63437D01*
X-8645D01*
Y63335D01*
X-8544Y63234D01*
X-8645Y63132D01*
Y63030D01*
X-8541Y61304D02*
X-8439D01*
X-8338Y61406D01*
X-8236Y61304D01*
X-8134D01*
Y61406D01*
X-8236Y61507D01*
X-8134Y61609D01*
Y61711D01*
X-8236D01*
X-8338Y61609D01*
X-8439Y61711D01*
X-8541D01*
Y61609D01*
X-8439Y61507D01*
X-8541Y61406D01*
Y61304D01*
X-3434Y78630D02*
X-3332D01*
X-3230Y78732D01*
X-3129Y78630D01*
X-3027D01*
Y78732D01*
X-3129Y78833D01*
X-3027Y78935D01*
Y79036D01*
X-3129D01*
X-3230Y78935D01*
X-3332Y79036D01*
X-3434D01*
Y78935D01*
X-3332Y78833D01*
X-3434Y78732D01*
Y78630D01*
X-2828Y76666D02*
X-2727D01*
X-2625Y76768D01*
X-2524Y76666D01*
X-2422D01*
Y76768D01*
X-2524Y76869D01*
X-2422Y76971D01*
Y77072D01*
X-2524D01*
X-2625Y76971D01*
X-2727Y77072D01*
X-2828D01*
Y76971D01*
X-2727Y76869D01*
X-2828Y76768D01*
Y76666D01*
X9837Y71645D02*
X9939D01*
X10041Y71746D01*
X10142Y71645D01*
X10244D01*
Y71746D01*
X10142Y71848D01*
X10244Y71949D01*
Y72051D01*
X10142D01*
X10041Y71949D01*
X9939Y72051D01*
X9837D01*
Y71949D01*
X9939Y71848D01*
X9837Y71746D01*
Y71645D01*
X9787Y76995D02*
X9888D01*
X9990Y77096D01*
X10092Y76995D01*
X10193D01*
Y77096D01*
X10092Y77198D01*
X10193Y77299D01*
Y77401D01*
X10092D01*
X9990Y77299D01*
X9888Y77401D01*
X9787D01*
Y77299D01*
X9888Y77198D01*
X9787Y77096D01*
Y76995D01*
X8795Y70333D02*
X8896D01*
X8998Y70435D01*
X9099Y70333D01*
X9201D01*
Y70435D01*
X9099Y70536D01*
X9201Y70638D01*
Y70740D01*
X9099D01*
X8998Y70638D01*
X8896Y70740D01*
X8795D01*
Y70638D01*
X8896Y70536D01*
X8795Y70435D01*
Y70333D01*
X-74Y63838D02*
X27D01*
X129Y63940D01*
X231Y63838D01*
X332D01*
Y63940D01*
X231Y64041D01*
X332Y64143D01*
Y64244D01*
X231D01*
X129Y64143D01*
X27Y64244D01*
X-74D01*
Y64143D01*
X27Y64041D01*
X-74Y63940D01*
Y63838D01*
X1045Y65281D02*
X1147D01*
X1249Y65383D01*
X1350Y65281D01*
X1452D01*
Y65383D01*
X1350Y65484D01*
X1452Y65586D01*
Y65687D01*
X1350D01*
X1249Y65586D01*
X1147Y65687D01*
X1045D01*
Y65586D01*
X1147Y65484D01*
X1045Y65383D01*
Y65281D01*
X5105Y62168D02*
X5207D01*
X5309Y62269D01*
X5410Y62168D01*
X5512D01*
Y62269D01*
X5410Y62371D01*
X5512Y62473D01*
Y62574D01*
X5410D01*
X5309Y62473D01*
X5207Y62574D01*
X5105D01*
Y62473D01*
X5207Y62371D01*
X5105Y62269D01*
Y62168D01*
X-3619Y69852D02*
X-3518D01*
X-3416Y69954D01*
X-3314Y69852D01*
X-3213D01*
Y69954D01*
X-3314Y70055D01*
X-3213Y70157D01*
Y70258D01*
X-3314D01*
X-3416Y70157D01*
X-3518Y70258D01*
X-3619D01*
Y70157D01*
X-3518Y70055D01*
X-3619Y69954D01*
Y69852D01*
X-2429Y66594D02*
X-2328D01*
X-2226Y66696D01*
X-2124Y66594D01*
X-2023D01*
Y66696D01*
X-2124Y66797D01*
X-2023Y66899D01*
Y67001D01*
X-2124D01*
X-2226Y66899D01*
X-2328Y67001D01*
X-2429D01*
Y66899D01*
X-2328Y66797D01*
X-2429Y66696D01*
Y66594D01*
X-5547Y65384D02*
X-5446D01*
X-5344Y65486D01*
X-5243Y65384D01*
X-5141D01*
Y65486D01*
X-5243Y65588D01*
X-5141Y65689D01*
Y65791D01*
X-5243D01*
X-5344Y65689D01*
X-5446Y65791D01*
X-5547D01*
Y65689D01*
X-5446Y65588D01*
X-5547Y65486D01*
Y65384D01*
X-7129Y67547D02*
X-7027D01*
X-6926Y67649D01*
X-6824Y67547D01*
X-6723D01*
Y67649D01*
X-6824Y67751D01*
X-6723Y67852D01*
Y67954D01*
X-6824D01*
X-6926Y67852D01*
X-7027Y67954D01*
X-7129D01*
Y67852D01*
X-7027Y67751D01*
X-7129Y67649D01*
Y67547D01*
X-4879Y84590D02*
X-4777D01*
X-4675Y84692D01*
X-4574Y84590D01*
X-4472D01*
Y84692D01*
X-4574Y84793D01*
X-4472Y84895D01*
Y84996D01*
X-4574D01*
X-4675Y84895D01*
X-4777Y84996D01*
X-4879D01*
Y84895D01*
X-4777Y84793D01*
X-4879Y84692D01*
Y84590D01*
X-8701Y84042D02*
X-8599D01*
X-8497Y84143D01*
X-8396Y84042D01*
X-8294D01*
Y84143D01*
X-8396Y84245D01*
X-8294Y84347D01*
Y84448D01*
X-8396D01*
X-8497Y84347D01*
X-8599Y84448D01*
X-8701D01*
Y84347D01*
X-8599Y84245D01*
X-8701Y84143D01*
Y84042D01*
X2016Y79019D02*
X2118D01*
X2220Y79120D01*
X2321Y79019D01*
X2423D01*
Y79120D01*
X2321Y79222D01*
X2423Y79324D01*
Y79425D01*
X2321D01*
X2220Y79324D01*
X2118Y79425D01*
X2016D01*
Y79324D01*
X2118Y79222D01*
X2016Y79120D01*
Y79019D01*
X6338Y74216D02*
X6439D01*
X6541Y74317D01*
X6643Y74216D01*
X6744D01*
Y74317D01*
X6643Y74419D01*
X6744Y74520D01*
Y74622D01*
X6643D01*
X6541Y74520D01*
X6439Y74622D01*
X6338D01*
Y74520D01*
X6439Y74419D01*
X6338Y74317D01*
Y74216D01*
X2963Y76212D02*
X3064D01*
X3166Y76314D01*
X3268Y76212D01*
X3369D01*
Y76314D01*
X3268Y76416D01*
X3369Y76517D01*
Y76619D01*
X3268D01*
X3166Y76517D01*
X3064Y76619D01*
X2963D01*
Y76517D01*
X3064Y76416D01*
X2963Y76314D01*
Y76212D01*
X2212Y77024D02*
X2314D01*
X2416Y77126D01*
X2517Y77024D01*
X2619D01*
Y77126D01*
X2517Y77227D01*
X2619Y77329D01*
Y77430D01*
X2517D01*
X2416Y77329D01*
X2314Y77430D01*
X2212D01*
Y77329D01*
X2314Y77227D01*
X2212Y77126D01*
Y77024D01*
X2515Y74558D02*
X2616D01*
X2718Y74660D01*
X2819Y74558D01*
X2921D01*
Y74660D01*
X2819Y74761D01*
X2921Y74863D01*
Y74964D01*
X2819D01*
X2718Y74863D01*
X2616Y74964D01*
X2515D01*
Y74863D01*
X2616Y74761D01*
X2515Y74660D01*
Y74558D01*
X-2879Y83997D02*
X-2778D01*
X-2676Y84099D01*
X-2575Y83997D01*
X-2473D01*
Y84099D01*
X-2575Y84201D01*
X-2473Y84302D01*
Y84404D01*
X-2575D01*
X-2676Y84302D01*
X-2778Y84404D01*
X-2879D01*
Y84302D01*
X-2778Y84201D01*
X-2879Y84099D01*
Y83997D01*
X-990Y84283D02*
X-889D01*
X-787Y84385D01*
X-686Y84283D01*
X-584D01*
Y84385D01*
X-686Y84486D01*
X-584Y84588D01*
Y84689D01*
X-686D01*
X-787Y84588D01*
X-889Y84689D01*
X-990D01*
Y84588D01*
X-889Y84486D01*
X-990Y84385D01*
Y84283D01*
X-127Y81577D02*
X-25D01*
X76Y81679D01*
X178Y81577D01*
X280D01*
Y81679D01*
X178Y81780D01*
X280Y81882D01*
Y81983D01*
X178D01*
X76Y81882D01*
X-25Y81983D01*
X-127D01*
Y81882D01*
X-25Y81780D01*
X-127Y81679D01*
Y81577D01*
X3202Y88205D02*
X3304D01*
X3406Y88307D01*
X3507Y88205D01*
X3609D01*
Y88307D01*
X3507Y88409D01*
X3609Y88510D01*
Y88612D01*
X3507D01*
X3406Y88510D01*
X3304Y88612D01*
X3202D01*
Y88510D01*
X3304Y88409D01*
X3202Y88307D01*
Y88205D01*
X550Y85415D02*
X651D01*
X753Y85516D01*
X855Y85415D01*
X956D01*
Y85516D01*
X855Y85618D01*
X956Y85719D01*
Y85821D01*
X855D01*
X753Y85719D01*
X651Y85821D01*
X550D01*
Y85719D01*
X651Y85618D01*
X550Y85516D01*
Y85415D01*
X-862Y88280D02*
X-760D01*
X-659Y88381D01*
X-557Y88280D01*
X-455D01*
Y88381D01*
X-557Y88483D01*
X-455Y88584D01*
Y88686D01*
X-557D01*
X-659Y88584D01*
X-760Y88686D01*
X-862D01*
Y88584D01*
X-760Y88483D01*
X-862Y88381D01*
Y88280D01*
X4515Y83865D02*
X4617D01*
X4718Y83966D01*
X4820Y83865D01*
X4921D01*
Y83966D01*
X4820Y84068D01*
X4921Y84169D01*
Y84271D01*
X4820D01*
X4718Y84169D01*
X4617Y84271D01*
X4515D01*
Y84169D01*
X4617Y84068D01*
X4515Y83966D01*
Y83865D01*
X-850Y85429D02*
X-748D01*
X-647Y85531D01*
X-545Y85429D01*
X-444D01*
Y85531D01*
X-545Y85633D01*
X-444Y85734D01*
Y85836D01*
X-545D01*
X-647Y85734D01*
X-748Y85836D01*
X-850D01*
Y85734D01*
X-748Y85633D01*
X-850Y85531D01*
Y85429D01*
X-6905Y85632D02*
X-6803D01*
X-6702Y85733D01*
X-6600Y85632D01*
X-6499D01*
Y85733D01*
X-6600Y85835D01*
X-6499Y85936D01*
Y86038D01*
X-6600D01*
X-6702Y85936D01*
X-6803Y86038D01*
X-6905D01*
Y85936D01*
X-6803Y85835D01*
X-6905Y85733D01*
Y85632D01*
X3703Y87133D02*
X3805D01*
X3907Y87234D01*
X4008Y87133D01*
X4110D01*
Y87234D01*
X4008Y87336D01*
X4110Y87437D01*
Y87539D01*
X4008D01*
X3907Y87437D01*
X3805Y87539D01*
X3703D01*
Y87437D01*
X3805Y87336D01*
X3703Y87234D01*
Y87133D01*
X14398Y81403D02*
X14499D01*
X14601Y81505D01*
X14703Y81403D01*
X14804D01*
Y81505D01*
X14703Y81606D01*
X14804Y81708D01*
Y81809D01*
X14703D01*
X14601Y81708D01*
X14499Y81809D01*
X14398D01*
Y81708D01*
X14499Y81606D01*
X14398Y81505D01*
Y81403D01*
X2786Y89211D02*
X2888D01*
X2990Y89313D01*
X3091Y89211D01*
X3193D01*
Y89313D01*
X3091Y89415D01*
X3193Y89516D01*
Y89618D01*
X3091D01*
X2990Y89516D01*
X2888Y89618D01*
X2786D01*
Y89516D01*
X2888Y89415D01*
X2786Y89313D01*
Y89211D01*
X93000Y131888D02*
X93305D01*
X93610Y132193D01*
X93914Y131888D01*
X94219D01*
Y132193D01*
X93914Y132498D01*
X94219Y132803D01*
Y133108D01*
X93914D01*
X93610Y132803D01*
X93305Y133108D01*
X93000D01*
Y132803D01*
X93305Y132498D01*
X93000Y132193D01*
Y131888D01*
X93610Y128840D02*
X93914Y129145D01*
X94219D01*
X93914Y129450D01*
X94219Y129755D01*
X93914D01*
X93610Y130060D01*
X93305Y129755D01*
X93000D01*
X93305Y129450D01*
X93000Y129145D01*
X93305D01*
X93610Y128840D01*
Y125792D02*
X93000Y127012D01*
X94219D01*
X93610Y125792D01*
X93000Y119696D02*
Y120916D01*
X94219D01*
Y119696D01*
X93000D01*
Y116648D02*
X93305Y117258D01*
X93000Y117868D01*
X93610Y117563D01*
X94219Y117868D01*
X93914Y117258D01*
X94219Y116648D01*
X93610Y116953D01*
X93000Y116648D01*
X93305Y113905D02*
Y113600D01*
X93914D01*
Y113905D01*
X94219D01*
Y114515D01*
X93914D01*
Y114820D01*
X93305D01*
Y114515D01*
X93000D01*
Y113905D01*
X93305D01*
D169*
X-25313Y70836D02*
G03*
X-25313Y70836I-203J0D01*
G01*
X-10073D02*
G03*
X-10073Y70836I-203J0D01*
G01*
M02*
